<?xml version="1.0" encoding="utf-8"?>
<!-- Generator: Adobe Illustrator 26.0.0, SVG Export Plug-In . SVG Version: 6.00 Build 0)  -->
<svg version="1.1" xmlns="http://www.w3.org/2000/svg" xmlns:xlink="http://www.w3.org/1999/xlink" x="0px" y="0px"
	 viewBox="0 0 1696.4 1656.9" style="enable-background:new 0 0 1696.4 1656.9;" xml:space="preserve">
<style type="text/css">
	.st0{fill:url(#SVGID_1_);}
	.st1{fill:url(#SVGID_00000001628404651469260680000009893722595818467237_);}
	.st2{fill:none;stroke:#FFFFFF;stroke-width:5;stroke-miterlimit:10;}
	.st3{fill:none;stroke:#FEFBFA;stroke-width:4.9512;stroke-miterlimit:10;}
	.st4{fill:none;stroke:#FDF7F4;stroke-width:4.9024;stroke-miterlimit:10;}
	.st5{fill:none;stroke:#FCF3EF;stroke-width:4.8537;stroke-miterlimit:10;}
	.st6{fill:none;stroke:#FBEFEA;stroke-width:4.8049;stroke-miterlimit:10;}
	.st7{fill:none;stroke:#FAEBE5;stroke-width:4.7561;stroke-miterlimit:10;}
	.st8{fill:none;stroke:#F8E7DF;stroke-width:4.7073;stroke-miterlimit:10;}
	.st9{fill:none;stroke:#F7E3DA;stroke-width:4.6585;stroke-miterlimit:10;}
	.st10{fill:none;stroke:#F6DFD5;stroke-width:4.6098;stroke-miterlimit:10;}
	.st11{fill:none;stroke:#F5DBD0;stroke-width:4.561;stroke-miterlimit:10;}
	.st12{fill:none;stroke:#F4D7CA;stroke-width:4.5122;stroke-miterlimit:10;}
	.st13{fill:none;stroke:#F3D3C5;stroke-width:4.4634;stroke-miterlimit:10;}
	.st14{fill:none;stroke:#F2CFC0;stroke-width:4.4146;stroke-miterlimit:10;}
	.st15{fill:none;stroke:#F1CBBB;stroke-width:4.3659;stroke-miterlimit:10;}
	.st16{fill:none;stroke:#F0C7B5;stroke-width:4.3171;stroke-miterlimit:10;}
	.st17{fill:none;stroke:#EFC3B0;stroke-width:4.2683;stroke-miterlimit:10;}
	.st18{fill:none;stroke:#EDBFAB;stroke-width:4.2195;stroke-miterlimit:10;}
	.st19{fill:none;stroke:#ECBBA5;stroke-width:4.1707;stroke-miterlimit:10;}
	.st20{fill:none;stroke:#EBB7A0;stroke-width:4.122;stroke-miterlimit:10;}
	.st21{fill:none;stroke:#EAB39B;stroke-width:4.0732;stroke-miterlimit:10;}
	.st22{fill:none;stroke:#E9AF96;stroke-width:4.0244;stroke-miterlimit:10;}
	.st23{fill:none;stroke:#E8AC90;stroke-width:3.9756;stroke-miterlimit:10;}
	.st24{fill:none;stroke:#E7A88B;stroke-width:3.9268;stroke-miterlimit:10;}
	.st25{fill:none;stroke:#E6A486;stroke-width:3.878;stroke-miterlimit:10;}
	.st26{fill:none;stroke:#E5A081;stroke-width:3.8293;stroke-miterlimit:10;}
	.st27{fill:none;stroke:#E49C7B;stroke-width:3.7805;stroke-miterlimit:10;}
	.st28{fill:none;stroke:#E29876;stroke-width:3.7317;stroke-miterlimit:10;}
	.st29{fill:none;stroke:#E19471;stroke-width:3.6829;stroke-miterlimit:10;}
	.st30{fill:none;stroke:#E0906B;stroke-width:3.6341;stroke-miterlimit:10;}
	.st31{fill:none;stroke:#DF8C66;stroke-width:3.5854;stroke-miterlimit:10;}
	.st32{fill:none;stroke:#DE8861;stroke-width:3.5366;stroke-miterlimit:10;}
	.st33{fill:none;stroke:#DD845C;stroke-width:3.4878;stroke-miterlimit:10;}
	.st34{fill:none;stroke:#DC8056;stroke-width:3.439;stroke-miterlimit:10;}
	.st35{fill:none;stroke:#DB7C51;stroke-width:3.3902;stroke-miterlimit:10;}
	.st36{fill:none;stroke:#DA784C;stroke-width:3.3415;stroke-miterlimit:10;}
	.st37{fill:none;stroke:#D97447;stroke-width:3.2927;stroke-miterlimit:10;}
	.st38{fill:none;stroke:#D77041;stroke-width:3.2439;stroke-miterlimit:10;}
	.st39{fill:none;stroke:#D66C3C;stroke-width:3.1951;stroke-miterlimit:10;}
	.st40{fill:none;stroke:#D56837;stroke-width:3.1463;stroke-miterlimit:10;}
	.st41{fill:none;stroke:#D46432;stroke-width:3.0976;stroke-miterlimit:10;}
	.st42{fill:none;stroke:#D3602C;stroke-width:3.0488;stroke-miterlimit:10;}
	.st43{fill:none;stroke:#D25C27;stroke-width:3;stroke-miterlimit:10;}
	.st44{display:none;}
	.st45{display:inline;}
</style>
<g id="Layer_2">
	<linearGradient id="SVGID_1_" gradientUnits="userSpaceOnUse" x1="794.2507" y1="215.7475" x2="794.2507" y2="1258.6567">
		<stop  offset="0" style="stop-color:#D15B27"/>
		<stop  offset="1" style="stop-color:#192B47"/>
	</linearGradient>
	<polygon class="st0" points="1280.7,1014.3 794.3,1295.1 307.8,1014.3 307.8,452.7 794.3,171.8 1280.7,452.7 	"/>
	
		<linearGradient id="SVGID_00000147922101487780684340000014314660407252140939_" gradientUnits="userSpaceOnUse" x1="509.029" y1="877.5916" x2="1497.2151" y2="877.5916" gradientTransform="matrix(0.9996 -2.805299e-02 2.805299e-02 0.9996 -29.3866 74.5995)">
		<stop  offset="0" style="stop-color:#D15B27"/>
		<stop  offset="1" style="stop-color:#192B47"/>
	</linearGradient>
	<polygon style="fill:url(#SVGID_00000147922101487780684340000014314660407252140939_);" points="1484.4,1204.5 998,1485.4 
		511.6,1204.5 511.6,642.9 998,362.1 1484.4,642.9 	"/>
	<g>
		<path class="st2" d="M1080.5,1302.8c-48.1,42.9-115.3,87.7-184.6,75.2c-83.3-15.1-101.6-100.5-176.1-102.6
			c-93.8-2.7-153.3,115.7-190.1,96.8c-44.2-22.7,32.2-202-17.5-233.8c-56.1-35.8-206.6,158.3-272.1,123.1
			c-27-14.5-42.9-69.6-7.9-234.9"/>
		<path class="st3" d="M1085.6,1292c-44,34.2-102,72.3-162.6,71.1c-7.1-0.1-14.1-0.5-21.1-1.6c-81.6-12.4-98.5-93.6-172.5-94.1
			c-13.7-0.1-26.8,2.3-39.2,6.4c-71.3,23.4-120.6,104.8-152.3,87.9c-31.5-16.8-1.3-108.5,0.5-173.8c0.9-28.9-3.2-52.4-19-62.2
			c-12.8-7.9-30-4.5-49.9,4.7c-38.1,17.7-84,57.9-126,85.9c-38.5,25.7-72.3,41.7-97.2,27.5c-17.8-10.1-31.4-36.3-30.9-98.3
			c0.3-33.1,4.2-76.2,13.8-132"/>
		<path class="st4" d="M1091,1278.1c-44.8,29.8-102.3,66.1-161.9,64.9c-7.1-0.1-14.1-0.2-20.9-1.1c-79.8-9.8-95.4-86.7-168.9-85.6
			c-13.6,0.2-26.7,2.8-39.2,7c-71,23.5-121.8,102.5-153.7,84.9c-32.4-17.9,0.5-110.4,1.3-176.3c0.4-28.9-4.5-52.3-20.8-62
			c-13.2-7.9-30.7-4.5-50.7,4.4c-40.1,17.8-86.6,59.3-128.4,86.1c-38.3,24.5-69.7,37.8-95.1,22.5c-18-10.8-32.4-36.5-34.2-97.2
			c-1-32.4,0.9-74.6,8-128.6"/>
		<path class="st5" d="M1096.9,1264.2c-45.6,25.5-102.6,59.7-161.2,58.7c-7.1-0.1-14,0.1-20.8-0.5c-78.1-7.1-92.3-79.9-165.3-77
			c-13.5,0.5-26.6,3.3-39.2,7.5c-70.7,23.5-123,100.2-155.1,81.9c-33.3-19,2.5-112.3,2.1-178.7c-0.2-29-5.7-52.2-22.6-61.9
			c-13.6-7.8-31.4-4.4-51.5,4.1c-42.1,17.9-89.2,60.8-130.7,86.3c-38.1,23.4-67,34-92.9,17.5c-18.1-11.5-33.3-36.7-37.5-96
			c-2.2-31.7-2.4-72.9,2.1-125.2"/>
		<path class="st6" d="M1103.6,1250.4c-46.4,21.1-102.9,53.4-160.5,52.6c-7.2-0.1-14,0.4-20.6,0c-76.2-4.4-89.2-73-161.8-68.5
			c-13.4,0.8-26.5,3.8-39.2,8.1c-70.5,23.6-124.1,97.9-156.5,78.8c-34.1-20.1,4.4-114.3,2.9-181.1c-0.7-29-7-52.1-24.4-61.8
			c-14-7.8-32.1-4.4-52.3,3.9c-44,18-91.8,62.2-133.1,86.5c-37.9,22.2-64.4,30.1-90.7,12.5c-18.3-12.2-34.2-36.9-40.7-94.8
			c-3.5-31.1-5.8-71.2-3.8-121.8"/>
		<path class="st7" d="M1111.4,1236.5c-47.2,16.8-103.2,47.1-159.8,46.4c-7.2-0.1-13.9,0.7-20.4,0.5c-74.3-1.8-86.1-66.2-158.2-59.9
			c-13.3,1.1-26.3,4.3-39.2,8.6c-70.1,23.8-125.3,95.6-157.9,75.8c-35-21.2,6.4-116.2,3.6-183.5c-1.2-29-8.2-52-26.2-61.6
			c-14.4-7.8-32.8-4.4-53.2,3.6c-46,18.1-94.4,63.7-135.4,86.7c-37.7,21-61.7,26.3-88.6,7.5c-18.5-12.9-35.2-37.1-44-93.7
			c-4.7-30.4-9.1-69.5-9.6-118.4"/>
		<path class="st8" d="M1119.6,1222.6c-48.1,12.4-103.5,40.8-159,40.2c-7.2-0.1-13.8,1-20.2,1.1c-72.3,0.8-83-59.1-154.6-51.4
			c-13.2,1.4-26.2,4.8-39.2,9.2c-69.9,23.9-126.4,93.3-159.3,72.8c-35.9-22.4,8.4-118.1,4.4-185.9c-1.7-29.1-9.5-51.9-28-61.5
			c-14.8-7.7-33.5-4.4-54,3.3c-48.1,18.1-97,65.1-137.7,86.9c-37.5,19.9-59.1,22.4-86.4,2.5c-18.7-13.6-36.1-37.3-47.3-92.5
			c-6-29.7-12.4-67.8-15.5-115"/>
		<path class="st9" d="M1127.8,1208.7c-48.9,8.1-103.8,34.5-158.3,34c-7.2-0.1-13.8,1.3-20,1.6c-70.3,3.4-79.9-52.3-151-42.9
			c-13.1,1.7-26.1,5.3-39.1,9.8c-69.6,24-127.6,91-160.7,69.7c-36.7-23.5,10.3-120,5.2-188.4c-2.2-29.1-10.7-51.8-29.7-61.4
			c-15.3-7.7-34.2-4.4-54.8,3.1c-50.1,18.2-99.6,66.6-140.1,87.1c-37.3,18.7-56.4,18.6-84.2-2.5c-18.8-14.3-37.1-37.5-50.5-91.3
			c-7.3-29.1-15.8-66.1-21.4-111.6"/>
		<path class="st10" d="M1136,1194.8c-49.7,3.8-104.2,28.3-157.6,27.8c-7.3-0.1-13.7,1.6-19.9,2.1c-68.2,5.9-76.8-45.4-147.5-34.3
			c-13,2-26,5.8-39.1,10.3c-69.3,24.1-128.7,88.6-162.2,66.7c-37.6-24.7,12.3-122,6-190.8c-2.7-29.2-12-51.7-31.5-61.2
			c-15.7-7.7-34.9-4.5-55.7,2.8c-52.1,18.2-102.2,68-142.4,87.3c-37,17.6-53.8,14.7-82.1-7.5c-19-14.9-38.1-37.7-53.8-90.2
			c-8.5-28.5-19.1-64.4-27.2-108.2"/>
		<path class="st11" d="M1144.2,1180.9c-50.5-0.6-104.5,22-156.9,21.7c-7.3,0-13.6,1.9-19.7,2.6c-66.1,8.3-73.6-38.5-143.9-25.8
			c-12.9,2.3-25.9,6.3-39.1,10.9c-69,24.2-129.9,86.3-163.6,63.7c-38.5-25.8,14.3-123.9,6.8-193.2c-3.2-29.2-13.2-51.6-33.3-61.1
			c-16.1-7.7-35.7-4.5-56.5,2.5c-54.2,18.2-104.8,69.5-144.8,87.5c-36.8,16.4-51.1,10.9-79.9-12.5c-19.2-15.6-39.1-38-57.1-89
			c-9.8-27.8-22.4-62.7-33.1-104.8"/>
		<path class="st12" d="M1152.4,1166.9c-51.3-4.9-104.8,15.7-156.2,15.5c-7.3,0-13.4,2.2-19.5,3.2c-63.8,10.6-70.5-31.6-140.3-17.2
			c-12.8,2.6-25.8,6.7-39.1,11.4c-68.8,24.3-131,83.9-165,60.6c-39.3-27,16.3-125.8,7.5-195.6c-3.7-29.2-14.5-51.5-35.1-61
			c-16.5-7.6-36.4-4.6-57.3,2.2c-56.2,18.2-107.3,71-147.1,87.7c-36.6,15.3-48.5,7.1-77.7-17.5c-19.4-16.3-40.1-38.2-60.4-87.8
			c-11.1-27.2-25.7-61.1-39-101.4"/>
		<path class="st13" d="M1160.6,1153c-52.1-9.3-105.1,9.5-155.5,9.3c-7.3,0-13.3,2.5-19.3,3.7c-61.6,12.9-67.4-24.8-136.7-8.7
			c-12.7,3-25.7,7.2-39.1,12c-68.5,24.3-132.1,81.6-166.4,57.6c-40.2-28.1,18.4-127.7,8.3-198c-4.2-29.3-15.7-51.4-36.9-60.8
			c-16.9-7.6-37.1-4.6-58.2,2c-58.3,18.2-109.9,72.5-149.5,87.9c-36.4,14.2-45.8,3.2-75.5-22.4c-19.6-16.9-41.1-38.5-63.6-86.7
			c-12.4-26.6-29.1-59.4-44.9-98"/>
		<path class="st14" d="M1168.7,1139c-53-13.6-105.4,3.2-154.8,3.1c-7.4,0-13.6,1.7-19.1,4.2c-61,3.8-64.3-17.9-133.2-0.2
			c-12.6,3.3-25.6,7.7-39.1,12.6c-68.2,24.4-133.3,79.2-167.8,54.6c-41-29.3,20.4-129.6,9.1-200.4c-4.7-29.3-17-51.2-38.7-60.7
			c-17.3-7.6-37.9-4.7-59,1.7c-60.3,18.2-112.5,73.9-151.8,88.1c-36.2,13-43.2-0.6-73.4-27.4c-19.8-17.6-42.2-38.7-66.9-85.5
			c-13.7-25.9-32.4-57.7-50.7-94.6"/>
		<path class="st15" d="M1176.9,1125c-53.8-18-105.7-3.1-154-3.1c-7.4,0-13.5,1.9-18.9,4.8c-59.1,5.4-61.2-11-129.6,8.4
			c-12.5,3.6-25.5,8.2-39.1,13.1c-67.9,24.5-134.4,76.8-169.2,51.5c-41.9-30.5,22.4-131.6,9.9-202.9c-5.1-29.4-18.2-51.1-40.4-60.5
			c-17.7-7.6-38.6-4.7-59.8,1.4c-62.4,18.1-115.1,75.4-154.1,88.3c-36,11.9-40.6-4.4-71.2-32.4c-20-18.3-43.2-39-70.2-84.4
			c-15-25.3-35.7-56-56.6-91.2"/>
		<path class="st16" d="M1185.1,1111c-54.6-22.3-106.1-9.3-153.3-9.2c-7.4,0-13.5,2.1-18.8,5.3c-57.3,7-58.1-4.2-126,16.9
			c-12.4,3.9-25.4,8.7-39.1,13.7c-67.6,24.6-135.5,74.5-170.6,48.5c-42.7-31.6,24.4-133.5,10.7-205.3c-5.6-29.4-19.5-51-42.2-60.4
			c-18.1-7.5-39.3-4.8-60.7,1.2c-64.5,18-117.7,76.8-156.5,88.4c-35.7,10.7-37.9-8.2-69-37.4c-20.2-18.9-44.3-39.2-73.4-83.2
			c-16.4-24.7-39-54.3-62.5-87.8"/>
		<path class="st17" d="M1193.3,1097c-55.4-26.7-106.4-15.6-152.6-15.4c-7.4,0-13.4,2.3-18.6,5.8c-55.4,8.6-55,2.7-122.5,25.5
			c-12.3,4.2-25.3,9.2-39,14.2c-67.4,24.6-136.7,72.1-172,45.5c-43.6-32.8,26.5-135.4,11.4-207.7c-6.1-29.4-20.8-50.9-44-60.3
			c-18.5-7.5-40.1-4.9-61.5,0.9c-66.6,18-120.3,78.3-158.8,88.6c-35.5,9.6-35.3-12-66.9-42.4c-20.4-19.6-45.4-39.5-76.7-82
			c-17.7-24-42.4-52.6-68.3-84.4"/>
		<path class="st18" d="M1201.5,1082.9c-56.2-31-106.7-21.8-151.9-21.6c-7.5,0-13.4,2.5-18.4,6.4c-53.6,10.2-51.9,9.6-118.9,34
			c-12.2,4.5-25.1,9.7-39,14.8c-67.1,24.7-137.8,69.7-173.4,42.5c-44.4-34,28.5-137.3,12.2-210.1c-6.6-29.5-22-50.8-45.8-60.1
			c-19-7.5-40.8-5-62.3,0.6c-68.7,17.8-122.9,79.7-161.2,88.8c-35.3,8.4-32.7-15.9-64.7-47.4c-20.6-20.2-46.5-39.7-80-80.9
			c-19-23.4-45.7-50.9-74.2-81"/>
		<path class="st19" d="M1209.7,1068.9c-57-35.3-107-28.1-151.2-27.8c-7.5,0-13.3,2.7-18.2,6.9c-51.7,11.7-48.7,16.4-115.3,42.5
			c-12.1,4.8-25,10.2-39,15.4c-66.8,24.8-138.9,67.3-174.8,39.4c-45.2-35.2,30.6-139.2,13-212.5c-7.1-29.5-23.3-50.7-47.6-60
			c-19.4-7.4-41.6-5.1-63.2,0.3c-70.8,17.7-125.5,81.2-163.5,89c-35.1,7.3-30-19.7-62.5-52.4c-20.8-20.9-47.6-39.9-83.2-79.7
			c-20.4-22.8-49-49.3-80.1-77.6"/>
		<path class="st20" d="M1217.9,1054.8c-57.9-39.7-107.3-34.3-150.5-34c-7.5,0.1-13.3,2.9-18,7.4c-49.9,13.3-45.6,23.3-111.7,51.1
			c-12,5.1-24.9,10.7-39,15.9c-66.6,24.9-140,64.9-176.2,36.4c-46.1-36.4,32.6-141.2,13.8-215c-7.5-29.5-24.5-50.6-49.4-59.9
			c-19.8-7.4-42.3-5.2-64,0.1C550,874.5,494.8,939.5,457,946.1c-34.9,6.1-27.4-23.5-60.4-57.4c-21-21.6-48.8-40.1-86.5-78.5
			c-21.7-22.1-52.4-47.6-85.9-74.2"/>
		<path class="st21" d="M1226.1,1040.7c-58.7-44-107.6-40.6-149.7-40.2c-7.5,0.1-13.2,3.1-17.8,8c-48,14.9-42.5,30.2-108.2,59.6
			c-12,5.4-24.8,11.1-39,16.5c-66.3,24.9-141.1,62.6-177.6,33.4c-46.9-37.6,34.7-143.1,14.6-217.4c-8-29.6-25.8-50.5-51.2-59.7
			c-20.2-7.4-43.1-5.3-64.8-0.2c-74.9,17.4-130.7,84.1-168.2,89.4c-34.7,5-24.8-27.3-58.2-62.4c-21.2-22.2-49.9-40.3-89.8-77.4
			c-23.1-21.5-55.7-45.9-91.8-70.8"/>
		<path class="st22" d="M1234.2,1026.6c-59.5-48.4-108-46.8-149-46.3c-7.6,0.1-13.2,3.3-17.7,8.5c-46.2,16.5-39.4,37-104.6,68.2
			c-11.9,5.7-24.7,11.6-39,17c-66,25-142.3,60.2-179,30.3c-47.7-38.8,36.7-145,15.4-219.8c-8.5-29.6-27-50.4-52.9-59.6
			c-20.6-7.4-43.8-5.4-65.6-0.5c-77,17.3-133.3,85.5-170.6,89.6c-34.5,3.8-22.2-31.1-56-67.4c-21.4-22.9-51.1-40.5-93-76.2
			c-24.5-20.8-59-44.2-97.7-67.4"/>
		<path class="st23" d="M1242.4,1012.4c-60.3-52.7-108.3-53.1-148.3-52.5c-7.6,0.1-13.1,3.6-17.5,9c-44.3,18.1-36.3,43.9-101,76.7
			c-11.8,6-24.6,12.1-39,17.6c-65.7,25.1-143.4,57.8-180.4,27.3c-48.6-40,38.8-146.9,16.1-222.2c-8.9-29.7-28.3-50.3-54.7-59.4
			c-21-7.3-44.6-5.5-66.5-0.7c-79.2,17.1-135.9,87-172.9,89.8c-34.3,2.6-19.5-34.9-53.9-72.4c-21.6-23.5-52.2-40.7-96.3-75
			c-25.8-20.1-62.3-42.5-103.5-64"/>
		<path class="st24" d="M1250.6,998.2c-61.1-57.1-108.6-59.3-147.6-58.7c-7.6,0.1-13.1,3.8-17.3,9.5c-42.5,19.6-33.2,50.7-97.4,85.2
			c-11.7,6.3-24.5,12.6-39,18.2c-65.5,25.1-144.5,55.4-181.8,24.3c-49.4-41.2,40.9-148.9,16.9-224.6c-9.4-29.7-29.5-50.2-56.5-59.3
			c-21.4-7.3-45.3-5.6-67.3-1c-81.3,16.9-138.5,88.4-175.2,90c-34.1,1.5-16.9-38.7-51.7-77.4c-21.8-24.2-53.4-40.9-99.6-73.9
			c-27.2-19.4-65.7-40.8-109.4-60.6"/>
		<path class="st25" d="M1258.8,984c-61.9-61.4-108.9-65.5-146.9-64.9c-7.6,0.1-13,4-17.1,10.1c-40.6,21.2-30.1,57.6-93.9,93.8
			c-11.6,6.6-24.4,13.1-38.9,18.7c-65.2,25.2-145.6,53-183.2,21.2c-50.2-42.4,43-150.8,17.7-227.1c-9.9-29.7-30.8-50-58.3-59.2
			c-21.8-7.3-46.1-5.7-68.1-1.3c-83.4,16.6-141.1,89.9-177.6,90.2c-33.9,0.3-14.3-42.5-49.5-82.4c-22-24.8-54.5-41-102.9-72.7
			c-28.6-18.7-69-39.1-115.3-57.2"/>
		<path class="st26" d="M1267,969.7c-62.8-65.8-109.2-71.8-146.2-71.1c-7.7,0.1-13,4.2-16.9,10.6c-38.7,22.8-27,64.4-90.3,102.3
			c-11.5,6.9-24.3,13.6-38.9,19.3c-64.9,25.2-146.7,50.6-184.6,18.2c-51-43.6,45.1-152.7,18.5-229.5c-10.3-29.8-32-49.9-60.1-59
			c-22.2-7.2-46.8-5.8-69-1.6c-85.5,16.4-143.7,91.3-179.9,90.4c-33.7-0.8-11.7-46.3-47.3-87.3c-22.2-25.5-55.7-41.1-106.1-71.5
			c-30-18.1-72.3-37.5-121.1-53.8"/>
		<path class="st27" d="M1275.2,955.4c-63.6-70.1-109.5-78-145.5-77.2c-7.7,0.2-12.9,4.4-16.8,11.1c-36.9,24.4-23.9,71.3-86.7,110.9
			c-11.4,7.2-24.2,14.1-38.9,19.8c-64.7,25.3-147.8,48.2-186,15.2c-51.8-44.8,47.1-154.7,19.3-231.9c-10.8-29.8-33.3-49.8-61.9-58.9
			c-22.6-7.2-47.6-5.9-69.8-1.8c-87.6,16.1-146.3,92.7-182.3,90.6c-33.4-2-9.1-50.1-45.2-92.3c-22.4-26.2-56.9-41.3-109.4-70.4
			c-31.3-17.4-75.6-35.8-127-50.4"/>
		<path class="st28" d="M1283.4,941.1c-64.4-74.4-109.8-84.2-144.7-83.4c-7.7,0.2-12.9,4.6-16.6,11.7c-35,25.9-20.8,78.1-83.1,119.4
			c-11.3,7.5-24.1,14.6-38.9,20.4c-64.4,25.3-148.9,45.8-187.5,12.1c-52.6-46,49.2-156.6,20-234.3c-11.2-29.9-34.5-49.7-63.6-58.8
			c-23.1-7.2-48.3-6.1-70.6-2.1c-89.7,15.9-148.9,94.2-184.6,90.8c-33.2-3.2-6.5-54-43-97.3c-22.6-26.8-58-41.4-112.7-69.2
			c-32.7-16.6-79-34.1-132.9-47"/>
		<path class="st29" d="M1291.6,926.7c-65.2-78.8-110.2-90.5-144-89.6c-7.7,0.2-12.8,4.8-16.4,12.2c-33.2,27.5-17.7,85-79.6,127.9
			c-11.2,7.8-24,15-38.9,20.9c-64.1,25.4-150,43.4-188.9,9.1c-53.4-47.2,51.3-158.5,20.8-236.7C833,740.7,808.9,721,779.2,712
			c-23.5-7.2-49.1-6.2-71.5-2.4c-91.8,15.6-151.5,95.6-187,91c-33-4.3-3.9-57.8-40.8-102.3c-22.8-27.5-59.2-41.5-115.9-68
			c-34.1-15.9-82.3-32.4-138.7-43.6"/>
		<path class="st30" d="M1299.7,912.3c-66-83.1-110.5-96.7-143.3-95.8c-7.8,0.2-12.8,5-16.2,12.7c-31.3,29.1-14.6,91.8-76,136.5
			c-11.1,8.1-23.9,15.5-38.9,21.5c-63.9,25.5-151.1,41-190.3,6.1c-54.2-48.4,53.5-160.5,21.6-239.1c-12.1-30-37-49.5-67.2-58.5
			c-23.9-7.1-49.8-6.3-72.3-2.6c-93.9,15.3-154.1,97.1-189.3,91.2c-32.8-5.5-1.2-61.6-38.7-107.3c-23-28.1-60.3-41.6-119.2-66.9
			c-35.5-15.2-85.6-30.7-144.6-40.2"/>
		<path class="st31" d="M1307.9,897.8c-66.8-87.5-110.8-102.9-142.6-102c-7.8,0.2-12.7,5.2-16,13.3c-29.5,30.7-11.5,98.7-72.4,145
			c-11,8.4-23.8,16-38.9,22.1c-63.6,25.5-152.2,38.6-191.7,3.1c-55-49.6,55.6-162.4,22.4-241.6c-12.6-30-38.3-49.4-69-58.3
			c-24.3-7.1-50.6-6.4-73.1-2.9c-96,15-156.7,98.5-191.7,91.4c-32.6-6.6,1.4-65.4-36.5-112.3c-23.2-28.8-61.5-41.7-122.5-65.7
			c-36.8-14.5-89-29-150.5-36.8"/>
		<path class="st32" d="M1316.1,883.3c-67.7-91.8-111.1-109.1-141.9-108.1c-7.8,0.2-11.3,6.1-15.8,13.8
			c-21.7,36.5-8.4,105.5-68.8,153.6c-10.9,8.7-23.7,16.5-38.8,22.6c-63.3,25.6-153.3,36.2-193.1,0c-55.8-50.8,57.7-164.4,23.2-244
			c-13-30.1-39.5-49.3-70.8-58.2c-24.7-7.1-51.3-6.6-74-3.2c-98.2,14.6-159.3,99.9-194,91.6c-32.4-7.8,4-69.2-34.3-117.3
			c-23.4-29.4-62.6-41.8-125.7-64.5c-38.2-13.8-92.3-27.3-156.4-33.4"/>
		<path class="st33" d="M1324.3,868.8c-68.5-96.2-111.4-115.3-141.2-114.3c-7.8,0.3-11.3,6.2-15.7,14.3
			c-20.2,37.4-5.3,112.3-65.3,162.1c-10.8,8.9-23.6,17-38.8,23.2c-63.1,25.6-154.4,33.8-194.5-3c-56.6-52.1,59.8-166.3,23.9-246.4
			c-13.5-30.1-40.8-49.2-72.6-58.1c-25.1-7.1-52.1-6.7-74.8-3.5c-100.3,14.3-161.9,101.4-196.3,91.8c-32.2-9,6.6-73-32.2-122.3
			c-23.6-30.1-63.8-41.9-129-63.4c-39.6-13-95.6-25.7-162.2-30"/>
		<path class="st34" d="M1332.5,854.2c-69.3-100.5-111.7-121.6-140.5-120.5c-7.9,0.3-11.3,6.3-15.5,14.8
			c-18.7,38.4-2.2,119.2-61.7,170.6c-10.7,9.2-23.4,17.5-38.8,23.7c-62.8,25.7-155.5,31.4-195.9-6c-57.4-53.3,61.9-168.3,24.7-248.8
			c-13.9-30.2-42-49.1-74.3-57.9c-25.5-7-52.8-6.8-75.6-3.7c-102.4,13.9-164.5,102.8-198.7,92c-32-10.1,9.2-76.8-30-127.3
			c-23.8-30.7-64.9-41.9-132.3-62.2c-40.9-12.3-98.9-24-168.1-26.6"/>
		<path class="st35" d="M1340.7,839.6c-70.1-104.9-112.1-127.8-139.7-126.7c-7.9,0.3-11.4,6.5-15.3,15.4
			c-17.3,39.4,0.9,126-58.1,179.2c-10.6,9.5-23.3,17.9-38.8,24.3c-62.5,25.7-156.6,29-197.3-9.1c-58.2-54.5,64-170.3,25.5-251.2
			c-14.4-30.2-43.3-49-76.1-57.8c-25.9-7-53.6-7-76.5-4c-104.5,13.5-167,104.3-201,92.2c-31.8-11.3,11.8-80.6-27.8-132.3
			c-24-31.4-66-42-135.6-61c-42.3-11.6-102.3-22.3-174-23.2"/>
		<path class="st36" d="M1348.9,824.9c-70.9-109.2-112.4-134-139-132.9c-7.9,0.3-11.4,6.6-15.1,15.9c-16,40.5,4,132.9-54.5,187.7
			c-10.5,9.8-23.2,18.4-38.8,24.9c-62.3,25.8-157.7,26.6-198.7-12.1c-59-55.7,66.2-172.2,26.3-253.7c-14.8-30.3-44.6-48.9-77.9-57.7
			c-26.3-7-54.3-7.1-77.3-4.3c-106.6,13.1-169.6,105.7-203.4,92.4c-31.6-12.5,14.4-84.4-25.6-137.3c-24.2-32-67.2-42.1-138.8-59.9
			c-43.6-10.8-105.6-20.6-179.8-19.8"/>
		<path class="st37" d="M1357.1,810.4c-71.7-113.5-112.7-140.2-138.3-139.1c-7.9,0.4-11.5,6.7-14.9,16.4
			c-14.6,41.6,7,139.6-51,196.3c-10.4,10.1-23.1,18.9-38.8,25.4c-62,25.8-158.8,24.2-200.1-15.1c-59.8-57,68.3-174.2,27.1-256.1
			c-15.3-30.3-45.8-48.7-79.7-57.5c-26.8-6.9-55-7.2-78.1-4.5C674.5,588.9,611,683.2,577.5,668.7c-31.3-13.7,17-88.2-23.5-142.3
			c-24.5-32.7-68.3-42.1-142.1-58.7c-45-10.1-108.9-18.9-185.7-16.4"/>
		<path class="st38" d="M1365.2,796c-72.6-117.9-113-146.4-137.6-145.2c-8,0.4-11.6,6.9-14.7,17c-13.4,42.8,10.1,146.5-47.4,204.8
			c-10.3,10.4-23,19.4-38.8,26c-61.7,25.8-159.9,21.8-201.5-18.2c-60.6-58.2,70.4-176.2,27.9-258.5c-15.7-30.4-47.1-48.6-81.5-57.4
			c-27.2-6.9-55.8-7.4-78.9-4.8c-110.8,12.3-174.8,108.5-208.1,92.8c-31.1-14.9,19.6-92-21.3-147.3c-24.7-33.3-69.4-42.2-145.4-57.5
			c-46.3-9.3-112.2-17.2-191.6-13"/>
		<path class="st39" d="M1373.4,781.7c-73.4-122.2-113.3-152.6-136.9-151.4c-8,0.4-11.7,7-14.6,17.5
			c-12.1,44.1,13.2,153.3-43.8,213.3c-10.2,10.7-22.9,19.8-38.8,26.5c-61.5,25.8-161,19.4-202.9-21.2
			c-61.4-59.4,72.6-178.1,28.6-260.9c-16.2-30.4-48.3-48.5-83.3-57.2c-27.6-6.9-56.5-7.5-79.8-5.1c-112.9,11.8-177.4,110-210.4,93
			c-30.9-16,22.1-95.7-19.1-152.2c-24.9-33.9-70.5-42.3-148.6-56.4c-47.7-8.6-115.6-15.5-197.4-9.6"/>
		<path class="st40" d="M1381.6,767.6C1307.4,641,1268,608.8,1245.5,610c-8,0.4-11.8,7.2-14.4,18c-10.9,45.4,16.3,160.2-40.3,221.9
			c-10.1,11-22.8,20.3-38.7,27.1c-61.2,25.8-162.1,17-204.3-24.2c-62.2-60.7,74.7-180.1,29.4-263.3c-16.6-30.5-49.6-48.4-85.1-57.1
			c-28-6.9-57.3-7.7-80.6-5.4c-115,11.4-180,111.4-212.7,93.1c-30.7-17.2,24.7-99.5-17-157.2c-25.1-34.6-71.6-42.3-151.9-55.2
			c-49-7.9-118.9-13.9-203.3-6.2"/>
		<path class="st41" d="M1389.8,753.5c-75-130.9-113.9-165-135.4-163.8c-8,0.5-11.9,7.4-14.2,18.6c-9.6,46.7,19.4,167-36.7,230.4
			c-10,11.3-22.7,20.8-38.7,27.7c-61,25.9-163.1,14.5-205.7-27.3c-62.9-62,77-182.2,30.2-265.7c-17-30.6-50.8-48.3-86.8-57
			c-28.4-6.8-58-7.8-81.4-5.6c-117.1,10.9-182.6,112.8-215.1,93.3c-30.5-18.3,27.4-103.4-14.8-162.2c-25.3-35.3-72.7-42.4-155.2-54
			c-50.4-7.1-122.2-12.2-209.2-2.8"/>
		<path class="st42" d="M1398,739.5c-75.8-135.3-114.3-171.2-134.7-170c-8.1,0.5-12,7.5-14,19.1c-8.4,48.2,22.5,173.9-33.1,239
			c-9.9,11.6-22.6,21.3-38.7,28.2c-60.7,26-164.2,12.2-207.1-30.3c-63.7-63.2,79.1-184.1,31-268.2c-17.5-30.6-52.1-48.2-88.6-56.8
			c-28.8-6.8-58.8-8-82.3-5.9C711.1,505,645.2,608.9,612.9,588.1c-30.3-19.5,30-107.2-12.6-167.2c-25.5-35.9-73.8-42.3-158.4-52.9
			c-51.7-6.3-125.5-10.5-215,0.6"/>
		<path class="st43" d="M1406.2,725.5c-76.7-139.6-114.6-177.4-134-176.1c-47.8,3.1,46.5,240.5-82.1,295.9
			c-60.4,26-165.3,9.8-208.5-33.3c-64.5-64.4,81.1-186.1,31.8-270.6c-32.1-54.9-119.9-67.2-173.5-62.9
			C718.5,488.4,652,594.3,620,572.2c-30-20.7,32.6-111-10.5-172.2c-25.7-36.6-74.9-42.5-161.7-51.7c-53-5.6-128.9-8.8-220.9,4"/>
	</g>
</g>
<g id="Layer_1" class="st44">
	<g class="st45">
		
			<image style="overflow:visible;" width="721" height="634" xlink:href="C6F2409FBE137CB9.png"  transform="matrix(1 0 0 1 -1035 67)">
		</image>
	</g>
</g>
</svg>
