<?xml version="1.0" encoding="utf-8"?>
<!-- Generator: Adobe Illustrator 26.0.0, SVG Export Plug-In . SVG Version: 6.00 Build 0)  -->
<svg version="1.1" id="Layer_1" xmlns="http://www.w3.org/2000/svg" xmlns:xlink="http://www.w3.org/1999/xlink" x="0px" y="0px"
	 viewBox="0 0 859 768" style="enable-background:new 0 0 859 768;" xml:space="preserve">
<style type="text/css">
	.st0{fill:none;stroke:#FFFFFF;stroke-miterlimit:10;}
	.st1{fill:none;stroke:#FFFBFA;stroke-miterlimit:10;}
	.st2{fill:none;stroke:#FEF7F5;stroke-miterlimit:10;}
	.st3{fill:none;stroke:#FEF4F0;stroke-miterlimit:10;}
	.st4{fill:none;stroke:#FEF0EB;stroke-miterlimit:10;}
	.st5{fill:none;stroke:#FDECE6;stroke-miterlimit:10;}
	.st6{fill:none;stroke:#FDE8E1;stroke-miterlimit:10;}
	.st7{fill:none;stroke:#FDE5DC;stroke-miterlimit:10;}
	.st8{fill:none;stroke:#FCE1D7;stroke-miterlimit:10;}
	.st9{fill:none;stroke:#FCDDD2;stroke-miterlimit:10;}
	.st10{fill:none;stroke:#FCD9CD;stroke-miterlimit:10;}
	.st11{fill:none;stroke:#FBD6C7;stroke-miterlimit:10;}
	.st12{fill:none;stroke:#FBD2C2;stroke-miterlimit:10;}
	.st13{fill:none;stroke:#FBCEBD;stroke-miterlimit:10;}
	.st14{fill:none;stroke:#FACAB8;stroke-miterlimit:10;}
	.st15{fill:none;stroke:#FAC7B3;stroke-miterlimit:10;}
	.st16{fill:none;stroke:#FAC3AE;stroke-miterlimit:10;}
	.st17{fill:none;stroke:#F9BFA9;stroke-miterlimit:10;}
	.st18{fill:none;stroke:#F9BBA4;stroke-miterlimit:10;}
	.st19{fill:none;stroke:#F9B89F;stroke-miterlimit:10;}
	.st20{fill:none;stroke:#F8B49A;stroke-miterlimit:10;}
	.st21{fill:none;stroke:#F8B095;stroke-miterlimit:10;}
	.st22{fill:none;stroke:#F7AC90;stroke-miterlimit:10;}
	.st23{fill:none;stroke:#F7A98B;stroke-miterlimit:10;}
	.st24{fill:none;stroke:#F7A586;stroke-miterlimit:10;}
	.st25{fill:none;stroke:#F6A181;stroke-miterlimit:10;}
	.st26{fill:none;stroke:#F69D7C;stroke-miterlimit:10;}
	.st27{fill:none;stroke:#F69A77;stroke-miterlimit:10;}
	.st28{fill:none;stroke:#F59672;stroke-miterlimit:10;}
	.st29{fill:none;stroke:#F5926D;stroke-miterlimit:10;}
	.st30{fill:none;stroke:#F58E68;stroke-miterlimit:10;}
	.st31{fill:none;stroke:#F48B62;stroke-miterlimit:10;}
	.st32{fill:none;stroke:#F4875D;stroke-miterlimit:10;}
	.st33{fill:none;stroke:#F48358;stroke-miterlimit:10;}
	.st34{fill:none;stroke:#F37F53;stroke-miterlimit:10;}
	.st35{fill:none;stroke:#F37C4E;stroke-miterlimit:10;}
	.st36{fill:none;stroke:#F37849;stroke-miterlimit:10;}
	.st37{fill:none;stroke:#F27444;stroke-miterlimit:10;}
	.st38{fill:none;stroke:#F2703F;stroke-miterlimit:10;}
	.st39{fill:none;stroke:#F26D3A;stroke-miterlimit:10;}
	.st40{fill:none;stroke:#F16935;stroke-miterlimit:10;}
	.st41{fill:none;stroke:#F16530;stroke-miterlimit:10;}
</style>
<g>
	<path class="st0" d="M675.6,618.9c-25.3,31.6-62.2,66.4-106.5,65.9c-53.1-0.6-73.5-51.6-119.8-45.1c-58.4,8.1-82.8,87.7-107.6,79.9
		c-29.8-9.4-1.2-128.5-35.3-143c-38.5-16.3-111.4,119.7-155.7,104.8c-18.2-6.1-33.9-38.6-29.5-144.7"/>
	<path class="st1" d="M678.7,610.8c-11.6,10.7-24.3,23.4-38.2,34.6c-20.3,16.2-41.3,31.7-68.7,32.1c-52.7,0.8-74.1-49.8-120.1-44
		c-57.8,7.3-80.7,83.3-105,74.6c-8.5-3.1-12.2-15.2-14.1-31.3c-4.7-38.9,1.1-100.1-23.4-109.5c-21.8-8.4-52.2,27.7-82.7,58.6
		c-20.6,20.9-40.3,39-58.5,43.1c-5.2,1.2-10.1,1.2-14.8-0.4c-11.2-3.8-21.6-16.8-27.9-49.3c-4.1-21.3-6.7-50.8-6.4-91.3"/>
	<path class="st2" d="M682.2,602.6c-12.9,8.5-25.9,20.4-39.8,31.3c-20.5,16-38.9,34.9-67.4,36.1c-52.2,2.1-74.8-47.9-120.4-42.9
		c-57.3,6.5-78.5,78.9-102.3,69.3c-8.3-3.3-12-15.5-14.1-31.4c-5.1-38.7-0.9-98.7-25.7-107.3c-23-8-53.4,29.4-83.8,59.2
		c-20.6,20.2-39.1,36-57.7,39.3c-5.2,0.9-10.1,0.9-14.9-0.7c-11.4-3.9-22.1-16.6-29.4-48.2c-4.7-20.7-8.6-49.3-9.6-88.3"/>
	<path class="st3" d="M685.6,594.5c-14.1,6.3-27.5,17.4-41.4,28.1c-20.7,15.9-36.5,38.2-66.2,40.1c-51.7,3.3-75.5-46.1-120.7-41.8
		c-56.8,5.6-76.3,74.5-99.6,64c-8.1-3.6-11.7-15.7-14-31.5c-5.6-38.5-2.9-97.2-27.9-105.1c-24.2-7.6-54.7,31.1-84.9,59.8
		c-20.5,19.5-37.9,33-56.8,35.6c-5.2,0.7-10.2,0.7-15-0.9c-11.6-4-22.6-16.3-30.8-47c-5.4-20.2-10.4-47.9-12.9-85.4"/>
	<path class="st4" d="M689.1,586.3c-15.4,4-29.1,14.4-42.9,24.8c-20.9,15.7-34,41.4-65,44.1c-51.2,4.4-76.2-44.3-121.1-40.6
		c-56.3,4.8-74.1,70.1-96.9,58.8c-7.8-3.9-11.5-15.9-13.9-31.5c-6.1-38.3-4.9-95.7-30.2-102.9c-25.5-7.3-55.9,32.8-86,60.3
		c-20.5,18.8-36.6,30-56,31.9c-5.2,0.5-10.2,0.4-15-1.2c-11.9-4.1-23.1-16.1-32.3-45.9c-6.1-19.6-12.3-46.4-16.1-82.5"/>
	<path class="st5" d="M692.5,578.2c-16.7,1.8-30.7,11.4-44.5,21.6c-21.1,15.5-31.5,44.6-63.8,48.1c-50.7,5.5-76.9-42.5-121.4-39.5
		c-55.8,3.8-72,65.7-94.2,53.5c-7.6-4.2-11.2-16.2-13.9-31.6c-6.6-38.1-6.9-94.1-32.5-100.7c-26.8-6.9-57.1,34.4-87.1,60.9
		c-20.5,18.1-35.4,27.1-55.1,28.2c-5.2,0.3-10.2,0.2-15.1-1.5c-12.1-4.2-23.7-15.9-33.8-44.7c-6.7-19.1-14.1-44.9-19.4-79.6"/>
	<path class="st6" d="M696,570c-17.9-0.4-32.3,8.4-46.1,18.4c-21.3,15.3-29,47.8-62.6,52.1c-50.1,6.4-77.5-40.7-121.7-38.4
		c-55.2,3-69.8,61.4-91.5,48.2c-7.4-4.5-11-16.4-13.8-31.7c-7-37.9-8.9-92.5-34.7-98.4c-28.1-6.4-58.4,36.1-88.1,61.4
		c-20.4,17.4-34.1,24.1-54.3,24.5c-5.2,0.1-10.3-0.1-15.2-1.8c-12.3-4.2-24.2-15.7-35.3-43.6c-7.4-18.5-16-43.4-22.6-76.7"/>
	<path class="st7" d="M699.4,561.7c-19.2-2.7-33.9,5.4-47.7,15.1c-21.5,15.1-26.5,50.9-61.3,56.1c-49.6,7.3-78.2-38.9-122-37.2
		c-54.7,2.1-67.6,57-88.8,43c-7.1-4.7-10.7-16.7-13.8-31.8c-7.5-37.7-11-90.9-37-96.2c-29.4-6-59.6,37.8-89.2,62
		c-20.4,16.7-32.9,21.2-53.4,20.8c-5.2-0.1-10.3-0.3-15.3-2.1c-12.5-4.3-24.7-15.5-36.8-42.4c-8-18-17.8-42-25.9-73.7"/>
	<path class="st8" d="M702.9,553.5c-20.5-4.9-35.5,2.4-49.3,11.9c-21.7,14.9-24,54.1-60.1,60.1c-49,8.1-78.9-37.1-122.3-36.1
		c-54.2,1.3-65.4,52.7-86.1,37.7c-6.9-5-10.5-16.9-13.7-31.9c-8-37.5-13.1-89.3-39.3-94c-30.7-5.6-60.9,39.4-90.3,62.6
		c-20.4,16-31.6,18.2-52.6,17c-5.2-0.3-10.3-0.6-15.4-2.4c-12.7-4.4-25.3-15.3-38.3-41.3c-8.7-17.5-19.7-40.5-29.1-70.8"/>
	<path class="st9" d="M706.3,544.9c-21.7-7.1-37.2-0.6-50.9,8.6c-21.9,14.7-21.5,57.2-58.9,64c-48.5,8.9-79.6-35.3-122.6-35
		c-53.6,0.4-63.2,48.3-83.4,32.4c-6.7-5.2-10.3-17.1-13.6-32c-8.5-37.3-15.1-87.6-41.5-91.8c-32-5.1-62.1,41.1-91.4,63.1
		c-20.3,15.3-30.3,15.3-51.7,13.3c-5.2-0.5-10.3-0.9-15.5-2.6c-12.9-4.5-25.9-15.1-39.7-40.1c-9.4-17-21.5-39-32.4-67.9"/>
	<path class="st10" d="M709.8,534.7c-23-9.3-38.8-3.6-52.4,5.4c-22.1,14.6-19,60.3-57.7,68c-48,9.6-80.3-33.5-122.9-33.8
		c-53.1-0.4-61,44-80.7,27.1c-6.4-5.5-10-17.4-13.6-32c-9-37.1-17.2-85.9-43.8-89.6c-33.4-4.6-63.4,42.8-92.5,63.7
		c-20.3,14.6-29,12.4-50.9,9.6c-5.1-0.7-10.4-1.1-15.6-2.9c-13.1-4.6-26.4-14.9-41.2-39c-10.1-16.4-23.4-37.6-35.6-65"/>
	<path class="st11" d="M713.2,524.5c-24.2-11.6-40.4-6.6-54,2.1c-22.3,14.4-16.5,63.4-56.5,72C555.3,609,521.8,567,479.5,566
		c-52.6-1.3-58.8,39.7-78,21.9c-6.2-5.8-9.8-17.6-13.5-32.1c-9.4-37-19.3-84.2-46.1-87.3c-34.7-4.1-64.6,44.5-93.6,64.3
		c-20.3,13.9-27.7,9.5-50,5.9c-5.1-0.8-10.4-1.4-15.7-3.2c-13.3-4.7-27-14.7-42.7-37.8c-10.8-15.9-25.2-36.1-38.9-62"/>
	<path class="st12" d="M716.7,514.3c-25.5-13.8-42-9.6-55.6-1.1c-22.5,14.2-13.9,66.4-55.2,76c-46.9,10.9-81.6-29.8-123.6-31.6
		c-52.1-2.2-56.6,35.4-75.3,16.6c-6-6-9.6-17.9-13.4-32.2c-9.9-36.8-21.4-82.5-48.3-85.1c-36.1-3.6-65.9,46.1-94.7,64.8
		c-20.3,13.2-26.4,6.7-49.2,2.2c-5.1-1-10.4-1.6-15.8-3.5c-13.5-4.8-27.6-14.5-44.2-36.7c-11.5-15.4-27.1-34.6-42.1-59.1"/>
	<path class="st13" d="M720.2,504c-26.8-16-43.7-12.7-57.2-4.3c-22.7,14-11.4,69.4-54,80c-46.4,11.5-82.3-28-123.9-30.4
		c-51.5-3-54.4,31.1-72.6,11.3c-5.7-6.2-9.3-18.1-13.4-32.3c-10.4-36.6-23.5-80.7-50.6-82.9c-37.4-3-67.2,47.8-95.8,65.4
		c-20.3,12.5-25.1,3.8-48.3-1.5c-5.1-1.2-10.5-1.9-15.9-3.8c-13.7-4.9-28.3-14.3-45.7-35.5c-12.2-14.9-28.9-33.1-45.4-56.2"/>
	<path class="st14" d="M723.6,493.8c-28-18.3-45.3-15.7-58.8-7.6c-22.9,13.8-8.9,72.4-52.8,84c-45.8,12.1-83-26.2-124.2-29.3
		c-51-3.8-52.2,26.8-69.9,6c-5.5-6.5-9.1-18.4-13.3-32.4c-10.9-36.4-25.6-79-52.9-80.7c-38.8-2.4-68.5,49.5-96.9,65.9
		c-20.3,11.8-23.8,1-47.5-5.3c-5.1-1.3-10.5-2.1-15.9-4.1c-13.9-4.9-28.9-14.2-47.2-34.4c-13-14.4-30.8-31.7-48.6-53.3"/>
	<path class="st15" d="M727.1,483.6c-29.3-20.5-46.9-18.7-60.3-10.8c-23.1,13.6-6.4,75.4-51.6,88c-45.3,12.6-83.6-24.4-124.5-28.2
		c-50.5-4.7-50.1,22.6-67.2,0.8c-5.3-6.7-8.9-18.6-13.2-32.4c-11.4-36.2-27.7-77.2-55.1-78.5c-40.2-1.8-69.8,51.1-98,66.5
		c-20.3,11.1-22.5-1.8-46.6-9c-5.1-1.5-10.5-2.4-16-4.3c-14.2-5-29.5-14-48.7-33.3c-13.7-13.8-32.6-30.2-51.9-50.4"/>
	<path class="st16" d="M730.5,473.3c-30.5-22.7-48.5-21.7-61.9-14.1c-23.4,13.4-3.9,78.4-50.4,92c-44.8,13.2-84.3-22.6-124.8-27.1
		c-49.9-5.5-47.9,18.3-64.5-4.5c-5.1-7-8.6-18.8-13.2-32.5c-11.9-36-29.8-75.4-57.4-76.2c-41.5-1.2-71.1,52.8-99,67.1
		c-20.3,10.3-21.2-4.6-45.8-12.7c-5.1-1.7-10.6-2.7-16.1-4.6c-14.4-5.1-30.2-13.7-50.1-32.1c-14.5-13.3-34.5-28.7-55.1-47.4"/>
	<path class="st17" d="M734,463.1c-31.8-24.9-50.2-24.7-63.5-17.3c-23.6,13.2-1.4,81.3-49.1,96c-44.3,13.7-85-20.7-125.1-25.9
		c-49.4-6.4-45.8,14-61.8-9.8c-4.8-7.2-8.4-19.1-13.1-32.6c-12.4-35.8-31.9-73.6-59.7-74c-42.9-0.6-72.4,54.4-100.1,67.6
		c-20.3,9.6-19.9-7.4-44.9-16.4c-5.1-1.8-10.6-2.9-16.2-4.9c-14.6-5.2-30.9-13.5-51.6-31c-15.2-12.8-36.3-27.3-58.4-44.5"/>
	<path class="st18" d="M737.4,452.8c-33.1-27.2-51.8-27.8-65.1-20.5c-23.8,12.9,1.1,84.2-47.9,100c-43.8,14.1-85.7-18.9-125.4-24.8
		c-48.9-7.2-43.6,9.8-59.1-15c-4.6-7.4-8.2-19.3-13.1-32.7c-13-35.6-34-71.8-61.9-71.8c-44.2,0-73.7,56.1-101.2,68.2
		c-20.3,8.9-18.6-10.2-44.1-20.1c-5.1-2-10.6-3.2-16.3-5.2c-14.8-5.3-31.6-13.3-53.1-29.8c-16-12.2-38.2-25.8-61.6-41.6"/>
	<path class="st19" d="M740.9,442.5c-34.3-29.4-53.4-30.8-66.7-23.8c-24,12.7,3.5,87.1-46.7,104c-43.3,14.6-86.4-17.1-125.8-23.7
		c-48.4-8.1-41.5,5.5-56.4-20.3c-4.4-7.7-8-19.6-13-32.8c-13.5-35.4-36.1-70-64.2-69.6c-45.6,0.7-75,57.7-102.3,68.7
		c-20.3,8.2-17.3-12.9-43.2-23.8c-5-2.1-10.6-3.4-16.4-5.5c-15-5.4-32.2-13.1-54.6-28.7c-16.7-11.7-40-24.3-64.9-38.7"/>
	<path class="st20" d="M744.3,432.3c-35.6-31.6-55.1-33.8-68.2-27c-24.2,12.5,6,89.9-45.5,108c-42.9,15-87-15.3-126.1-22.5
		c-47.8-8.9-39.4,1.3-53.7-25.6c-4.2-7.9-7.7-19.8-12.9-32.9c-14-35.2-38.1-68.2-66.5-67.4c-46.9,1.4-76.4,59.4-103.4,69.3
		c-20.4,7.5-16.1-15.7-42.4-27.5c-5-2.3-10.7-3.7-16.5-5.8c-15.2-5.5-32.9-12.8-56.1-27.5c-17.5-11.1-41.9-22.8-68.1-35.7"/>
	<path class="st21" d="M747.8,422c-36.9-33.9-56.7-36.9-69.8-30.3c-24.5,12.3,8.5,92.8-44.3,112c-42.4,15.4-87.7-13.4-126.4-21.4
		c-47.3-9.7-37.2-2.9-51-30.9c-4-8.1-7.5-20-12.9-32.9c-14.5-35-40.2-66.4-68.7-65.2c-48.3,2.1-77.7,61-104.5,69.9
		c-20.4,6.8-14.8-18.4-41.5-31.3c-5-2.4-10.7-3.9-16.6-6c-15.4-5.6-33.6-12.5-57.6-26.4c-18.3-10.6-43.7-21.4-71.4-32.8"/>
	<path class="st22" d="M751.2,411.7c-38.1-36.1-58.3-39.9-71.4-33.5c-24.7,12.1,10.9,95.6-43,116c-41.9,15.9-88.4-11.6-126.7-20.3
		c-46.8-10.6-35.1-7.2-48.3-36.1c-3.8-8.3-7.3-20.3-12.8-33c-15-34.8-42.3-64.6-71-62.9c-49.6,2.8-79,62.6-105.6,70.4
		c-20.4,6-13.6-21.2-40.7-35c-5-2.6-10.7-4.2-16.7-6.3c-15.6-5.6-34.3-12.3-59-25.2c-19.1-10-45.6-19.9-74.6-29.9"/>
	<path class="st23" d="M754.7,401.4c-39.4-38.3-60-42.9-73-36.7c-24.9,11.8,13.3,98.3-41.8,120c-41.5,16.3-89.1-9.8-127-19.1
		c-46.2-11.4-33-11.4-45.6-41.4c-3.6-8.6-7.1-20.5-12.7-33.1c-15.6-34.6-44.4-62.7-73.3-60.7c-50.9,3.5-80.4,64.2-106.7,71
		c-20.5,5.3-12.3-23.9-39.8-38.7c-5-2.7-10.8-4.5-16.7-6.6c-15.8-5.7-35-12-60.5-24.1c-19.8-9.4-47.4-18.4-77.9-27"/>
	<path class="st24" d="M758.2,391.1c-40.6-40.6-61.6-46-74.6-40c-25.2,11.6,15.7,101.1-40.6,124c-41,16.6-89.7-8-127.3-18
		c-45.7-12.2-31-15.7-42.9-46.7c-3.4-8.8-6.9-20.8-12.7-33.2c-16.1-34.4-46.5-60.9-75.5-58.5c-52.3,4.3-81.7,65.8-107.8,71.5
		c-20.5,4.5-11.1-26.6-39-42.4c-5-2.9-10.8-4.7-16.8-6.9c-16-5.8-35.7-11.7-62-22.9c-20.6-8.8-49.3-17-81.1-24.1"/>
	<path class="st25" d="M761.6,380.7c-41.9-42.8-63.3-49-76.2-43.2c-25.4,11.4,18.1,103.8-39.4,128c-40.6,17-90.4-6.1-127.6-16.9
		c-45.2-13.1-28.9-19.9-40.2-52c-3.2-9-6.7-21-12.6-33.3c-16.6-34.2-48.5-59-77.8-56.3c-53.6,5-83.1,67.4-108.9,72.1
		c-20.6,3.8-9.9-29.3-38.1-46.1c-5-3-10.8-5-16.9-7.2c-16.2-5.9-36.4-11.4-63.5-21.8C139,295.9,109.3,288.6,76,283"/>
	<path class="st26" d="M765.1,370.4c-43.2-45-64.9-52-77.7-46.5c-25.6,11.1,20.5,106.5-38.2,132c-40.2,17.4-91.1-4.3-128-15.8
		c-44.7-13.9-26.8-24.2-37.5-57.2c-3-9.3-6.4-21.2-12.6-33.4c-17.2-34-50.6-57.2-80.1-54.1c-54.9,5.8-84.5,68.9-110,72.7
		c-20.6,3-8.7-32-37.3-49.8c-5-3.1-10.8-5.2-17-7.5c-16.4-6-37.1-11.1-65-20.6c-22.2-7.6-53-14-87.6-18.2"/>
	<path class="st27" d="M768.5,360.1c-44.4-47.2-66.5-55.1-79.3-49.7c-25.9,10.9,22.9,109.2-36.9,135.9
		c-39.7,17.8-91.8-2.4-128.3-14.6c-44.1-14.7-24.7-28.4-34.8-62.5c-2.8-9.5-6.2-21.5-12.5-33.4c-17.7-33.8-52.7-55.3-82.3-51.8
		c-56.2,6.6-85.8,70.5-111,73.2c-20.6,2.2-7.5-34.7-36.4-53.6c-5-3.3-10.9-5.5-17.1-7.8c-16.7-6.1-37.8-10.8-66.5-19.5
		c-23-7-54.8-12.5-90.9-15.3"/>
	<path class="st28" d="M772,349.7c-45.7-49.5-68.2-58.1-80.9-52.9c-26.1,10.7,25.2,111.9-35.7,139.9c-39.3,18.1-92.4-0.6-128.6-13.5
		c-43.6-15.5-22.7-32.7-32.1-67.8c-2.6-9.7-6-21.7-12.4-33.5c-18.3-33.6-54.7-53.5-84.6-49.6c-57.6,7.4-87.2,72.1-112.1,73.8
		c-20.7,1.4-6.3-37.4-35.6-57.3c-5.1-3.4-10.9-5.7-17.2-8c-16.9-6.2-38.5-10.4-67.9-18.3c-23.7-6.3-56.7-11.1-94.2-12.4"/>
	<path class="st29" d="M775.4,339.3c-47-51.7-69.8-61.2-82.5-56.2c-26.4,10.4,27.6,114.5-34.5,143.9c-38.9,18.5-93.1,1.2-128.9-12.4
		c-43.1-16.4-20.6-36.9-29.4-73.1c-2.4-10-5.8-21.9-12.4-33.6c-18.8-33.4-56.8-51.6-86.9-47.4c-58.9,8.2-88.5,73.6-113.2,74.3
		c-20.7,0.6-5.1-40.1-34.7-61c-5.1-3.6-10.9-6-17.3-8.3c-17.1-6.3-39.2-10.1-69.4-17.2c-24.5-5.7-58.5-9.6-97.4-9.4"/>
	<path class="st30" d="M778.9,329.1c-48.2-53.9-71.5-64.2-84.1-59.4c-26.6,10.1,29.9,117.1-33.3,147.9
		c-38.5,18.8-93.8,3.1-129.2-11.2c-42.5-17.2-18.6-41.2-26.7-78.3c-2.2-10.2-5.6-22.2-12.3-33.7c-19.4-33.2-58.9-49.7-89.1-45.2
		c-60.2,9.1-89.9,75.1-114.3,74.9c-20.8-0.2-3.9-42.8-33.9-64.7c-5.1-3.7-11-6.3-17.4-8.6c-17.3-6.3-39.9-9.8-70.9-16
		c-25.3-5.1-60.4-8.1-100.7-6.5"/>
	<path class="st31" d="M782.3,319.2c-49.5-56.2-73.1-67.3-85.6-62.7c-26.8,9.9,32.2,119.7-32.1,151.9
		c-38.1,19.1-94.5,4.9-129.5-10.1c-42-18-16.6-45.4-24-83.6c-2-10.4-5.4-22.4-12.2-33.8c-19.9-33-60.9-47.9-91.4-43
		c-61.5,9.9-91.2,76.6-115.4,75.5c-20.8-1-2.8-45.4-33-68.4c-5.1-3.9-11-6.5-17.5-8.9c-17.5-6.4-40.5-9.4-72.4-14.9
		c-26-4.4-62.2-6.7-103.9-3.6"/>
	<path class="st32" d="M785.8,309.5c-50.7-58.4-74.8-70.3-87.2-65.9c-27.1,9.6,34.5,122.2-30.8,155.9c-37.7,19.5-95.2,6.8-129.8-9
		c-41.5-18.8-14.5-49.7-21.3-88.9c-1.9-10.7-5.2-22.6-12.2-33.9c-20.5-32.8-63-46-93.7-40.7c-62.8,10.8-92.6,78.1-116.5,76
		c-20.9-1.8-1.6-48.1-32.2-72.1c-5.1-4-11-6.8-17.5-9.2c-17.7-6.5-41.2-9.1-73.9-13.7c-26.8-3.8-64.1-5.2-107.2-0.7"/>
	<path class="st33" d="M789.2,299.9c-52-60.6-76.4-73.4-88.8-69.1c-27.3,9.3,36.7,124.7-29.6,159.9c-37.4,19.8-95.9,8.6-130.2-7.8
		c-41-19.6-12.5-53.9-18.6-94.1c-1.7-10.9-5-22.9-12.1-33.9c-21-32.5-65-44.1-95.9-38.5c-64,11.6-93.9,79.6-117.6,76.6
		c-20.9-2.7-0.4-50.8-31.3-75.9c-5.1-4.1-11-7-17.6-9.5c-17.9-6.6-41.9-8.7-75.4-12.6c-27.5-3.2-65.9-3.7-110.4,2.2"/>
	<path class="st34" d="M792.7,290.4c-53.3-62.8-78-76.4-90.4-72.4c-27.6,9.1,39,127.2-28.4,163.9c-37,20.2-96.5,10.4-130.5-6.7
		C503,354.8,533,317,527.5,275.8c-1.5-11.1-4.8-23.1-12-34c-21.6-32.3-67.1-42.3-98.2-36.3c-65.3,12.5-95.2,81.1-118.7,77.1
		c-20.9-3.5,0.7-53.5-30.5-79.6c-5.1-4.3-11.1-7.3-17.7-9.7c-18.1-6.7-42.5-8.4-76.8-11.4c-28.3-2.5-67.8-2.3-113.7,5.2"/>
	<path class="st35" d="M796.2,281.1c-54.5-65.1-79.7-79.5-92-75.6c-27.8,8.8,41.2,129.7-27.2,167.9c-36.7,20.5-97.2,12.3-130.8-5.6
		c-39.9-21.3-8.4-62.5-13.2-104.7c-1.3-11.4-4.5-23.3-12-34.1c-22.2-32.1-69.1-40.4-100.5-34.1c-66.6,13.4-96.6,82.6-119.8,77.7
		c-20.9-4.4,1.8-56.1-29.6-83.3c-5.1-4.4-11.1-7.5-17.8-10c-18.3-6.8-43.2-8-78.3-10.3c-29-1.9-69.6-0.8-116.9,8.1"/>
	<path class="st36" d="M799.6,271.8c-55.8-67.3-81.3-82.6-93.5-78.9c-28.1,8.5,43.4,132.2-26,171.9c-36.3,20.8-97.9,14.1-131.1-4.5
		c-39.4-22.1-6.4-66.8-10.5-110c-1.1-11.6-4.3-23.6-11.9-34.2c-22.7-31.9-71.2-38.5-102.7-31.9c-67.9,14.3-97.9,84-120.9,78.3
		c-20.9-5.2,3-58.8-28.8-87c-5.2-4.6-11.1-7.8-17.9-10.3c-18.5-6.9-43.8-7.7-79.8-9.1c-29.8-1.2-71.5,0.7-120.2,11"/>
	<path class="st37" d="M803.1,262.6c-57-69.5-83-85.6-95.1-82.1c-28.3,8.2,45.5,134.6-24.7,175.9c-36,21.1-98.6,16-131.4-3.3
		c-38.9-22.9-4.4-71-7.8-115.2c-0.9-11.9-4.1-23.8-11.9-34.3c-23.3-31.6-73.2-36.6-105-29.7c-69.1,15.2-99.1,85.5-122,78.8
		c-20.9-6.1,4.1-61.5-27.9-90.7c-5.2-4.7-11.2-8.1-18-10.6c-18.7-7-44.5-7.3-81.3-8c-30.5-0.6-73.3,2.2-123.4,13.9"/>
	<path class="st38" d="M806.5,253.5c-58.3-71.8-84.6-88.7-96.7-85.4c-28.6,7.9,47.7,137-23.5,179.9c-35.6,21.5-99.3,17.9-131.7-2.2
		c-38.5-23.6-2.4-75.3-5.1-120.5c-0.7-12.1-3.9-24-11.8-34.4c-23.9-31.4-75.2-34.7-107.3-27.4c-70.4,16.1-100.4,87-123,79.4
		c-20.9-7,5.2-64.1-27.1-94.4c-5.2-4.9-11.2-8.3-18.1-10.9c-18.9-7.1-45.1-6.9-82.8-6.8c-31.3,0.1-75.2,3.6-126.7,16.9"/>
	<path class="st39" d="M810,244.7c-59.6-74-86.3-91.8-98.3-88.6c-28.8,7.6,49.8,139.4-22.3,183.9c-35.3,21.8-100,19.7-132-1.1
		c-37.9-24.5-0.4-79.6-2.4-125.8c-0.6-12.3-3.7-24.2-11.7-34.4c-24.4-31.1-77.3-32.9-109.5-25.2c-71.6,17-101.7,88.4-124.1,79.9
		c-20.9-7.9,6.4-66.8-26.2-98.1c-5.2-5-11.2-8.6-18.2-11.2c-19.2-7.1-45.8-6.6-84.3-5.7c-32,0.8-77,5.1-129.9,19.8"/>
	<path class="st40" d="M813.4,235.9c-60.8-76.2-87.9-94.8-99.9-91.8c-29.1,7.3,51.9,141.8-21.1,187.9c-35,22.1-100.7,21.5-132.3,0.1
		c-37.4-25.3,1.7-83.9,0.3-131.1c-0.4-12.6-3.5-24.4-11.7-34.5c-25.1-30.8-79.3-31-111.8-23C364,161.4,334,233.3,311.7,224
		c-20.8-8.8,7.5-69.5-25.4-101.9c-5.2-5.2-11.3-8.8-18.3-11.4c-19.4-7.2-46.4-6.2-85.7-4.5c-32.7,1.4-78.9,6.6-133.2,22.7"/>
	<path class="st41" d="M816.9,227.2c-62.1-78.4-89.5-97.9-101.5-95.1c-29.3,6.9,54,144.1-19.9,191.9
		c-34.7,22.5-101.4,23.4-132.7,1.2c-46.7-33.1,30.8-123.7-8.7-170.9c-25.6-30.6-81.3-29.1-114.1-20.8
		c-74.1,18.9-104.2,91.4-126.3,81.1c-20.8-9.6,8.6-72.2-24.5-105.6c-19.8-20-50.8-18.5-105.6-15.1c-33.4,2.1-80.7,8-136.4,25.6"/>
</g>
</svg>
