<?xml version="1.0" encoding="UTF-8" standalone="no"?>
<!-- Created with Inkscape (http://www.inkscape.org/) -->

<svg
   width="170.61771mm"
   height="35.666534mm"
   viewBox="0 0 170.61771 35.666534"
   version="1.1"
   id="svg195"
   xml:space="preserve"
   inkscape:export-filename="bitmap.svg"
   inkscape:export-xdpi="96"
   inkscape:export-ydpi="96"
   xmlns:inkscape="http://www.inkscape.org/namespaces/inkscape"
   xmlns:sodipodi="http://sodipodi.sourceforge.net/DTD/sodipodi-0.dtd"
   xmlns="http://www.w3.org/2000/svg"
   xmlns:svg="http://www.w3.org/2000/svg"><sodipodi:namedview
     id="namedview197"
     pagecolor="#ffffff"
     bordercolor="#999999"
     borderopacity="1"
     inkscape:showpageshadow="0"
     inkscape:pageopacity="0"
     inkscape:pagecheckerboard="0"
     inkscape:deskcolor="#d1d1d1"
     inkscape:document-units="mm"
     showgrid="false" /><defs
     id="defs192" /><g
     inkscape:label="Lager 1"
     inkscape:groupmode="layer"
     id="layer1"
     transform="translate(-19.192278,-73.495069)"><g
       id="surface1"
       transform="matrix(0.89166343,0,0,0.89166343,-16.477743,37.828531)"><path
         style="fill:#177a57;fill-opacity:1;fill-rule:nonzero;stroke:none"
         d="m 138.85547,60 c 0,-0.574219 -0.0273,-1.136719 -0.0742,-1.691406 -0.0508,-0.554688 -0.11719,-1.101563 -0.19922,-1.652344 h -15.50781 l -4.71094,7.398438 h 11.94531 c -0.71484,2.410156 -2.07031,4.492187 -3.91796,5.972656 -1.85157,1.480469 -4.19532,2.355469 -6.87891,2.355469 -3.37109,0 -6.39844,-1.410157 -8.58203,-3.671875 -2.1836,-2.257813 -3.52735,-5.367188 -3.52735,-8.765625 0,-3.34375 1.35547,-6.410157 3.5625,-8.644532 2.20704,-2.230468 5.25782,-3.628906 8.65625,-3.628906 1.48047,0 2.85157,0.234375 4.10938,0.660156 1.26172,0.421875 2.41016,1.039063 3.45312,1.804688 l 2.08203,-3.3125 2.08204,-3.316406 c -1.58985,-1.125 -3.38282,-2 -5.34375,-2.597657 C 124.04688,40.316406 121.92188,40 119.67578,40 c -2.98437,0 -5.69922,0.546875 -8.10937,1.539063 -2.41016,0.996093 -4.51953,2.433593 -6.30078,4.214843 -4.2461,4.246094 -5.437505,8.535157 -6.289067,12.480469 -0.847657,3.945313 -1.355469,7.546875 -4.234375,10.421875 -1.203125,1.207031 -2.53125,2.125 -3.984375,2.742188 -1.453125,0.617187 -3.027344,0.933593 -4.726563,0.933593 -3.476562,0 -6.617187,-1.425781 -8.882812,-3.6875 -2.265625,-2.261718 -3.664063,-5.355468 -3.664063,-8.699218 0,-3.289063 1.398438,-6.355469 3.664063,-8.609375 2.265625,-2.253907 5.40625,-3.691407 8.882812,-3.71875 1.453125,0.02734 2.808594,0.246093 4.054688,0.652343 1.25,0.402344 2.386718,0.992188 3.398437,1.757813 l 2.109375,-3.316406 2.109375,-3.3125 c -1.589844,-1.125 -3.382812,-1.972657 -5.34375,-2.542969 C 90.402344,40.289063 88.277344,40 86.03125,40 c -3.449219,0 -6.671875,0.835938 -9.476562,2.292969 -2.8125,1.460937 -5.207032,3.542969 -7.015625,6.039062 -0.710938,-2.195312 -2.179688,-4.070312 -4.183594,-5.398437 -2.007813,-1.332031 -4.554688,-2.109375 -7.433594,-2.109375 H 40.003906 v 38.355469 h 19.78125 c 2.492188,0 4.710938,-0.589844 6.5625,-1.609375 1.847657,-1.023438 3.328125,-2.472657 4.34375,-4.199219 1.835938,2.027344 4.082032,3.683594 6.628907,4.835937 C 79.867188,79.355469 82.71875,80 85.757813,80 c 3.589843,0 6.863281,-0.835937 9.699218,-2.328125 2.835938,-1.492187 5.234379,-3.644531 7.070309,-6.273437 1.75391,2.601562 4.14844,4.753906 7.00391,6.253906 2.85938,1.5 6.17188,2.347656 9.76172,2.347656 5.50781,0 10.39844,-2.246094 13.91015,-5.871094 C 136.71875,70.507813 138.85547,65.507813 138.85547,60 Z M 48.335938,56.332031 V 47.945313 H 57.8125 c 1.207031,0 2.273438,0.4375 3.042969,1.175781 0.765625,0.742187 1.230469,1.785156 1.230469,2.988281 0,1.207031 -0.464844,2.261719 -1.230469,3.011719 -0.769531,0.757812 -1.835938,1.210937 -3.042969,1.210937 z m 0,15.722657 V 63.34375 h 11.339843 c 1.261719,0 2.398438,0.464844 3.21875,1.238281 0.824219,0.773438 1.328125,1.855469 1.328125,3.089844 0,1.234375 -0.503906,2.328125 -1.328125,3.117188 -0.820312,0.789062 -1.957031,1.265625 -3.21875,1.265625 H 48.335938"
         id="path1026" /><path
         style="fill:#177a57;fill-opacity:1;fill-rule:nonzero;stroke:none"
         d="m 157.76562,74.511719 c 0.0195,0.06641 0.0352,0.160156 0.0469,0.269531 0.008,0.109375 0.0156,0.226563 0.0156,0.335938 0,1.210937 -0.42578,2.277343 -1.16015,3.042968 -0.73438,0.765625 -1.77735,1.226563 -3.01172,1.226563 -1.23438,0 -2.33203,-0.492188 -3.12109,-1.292969 -0.78907,-0.800781 -1.26954,-1.910156 -1.26954,-3.144531 0,-1.234375 0.4961,-2.34375 1.30079,-3.148438 0.80468,-0.800781 1.92187,-1.292968 3.16406,-1.292968 0.50781,0 0.99219,0.06641 1.4414,0.195312 0.44922,0.132813 0.86329,0.328125 1.23438,0.59375 l -0.35938,0.5625 -0.35937,0.558594 c -0.28516,-0.21875 -0.58984,-0.378906 -0.91797,-0.480469 -0.32422,-0.101562 -0.67578,-0.152344 -1.05078,-0.152344 -0.85938,0 -1.62109,0.34375 -2.17188,0.910157 -0.54687,0.566406 -0.88281,1.359375 -0.88281,2.253906 0,0.894531 0.32422,1.6875 0.85938,2.257812 0.53515,0.570313 1.28906,0.914063 2.14453,0.914063 0.79297,0 1.43359,-0.25 1.90625,-0.671875 0.47265,-0.425781 0.77734,-1.015625 0.89453,-1.699219 h -2.89844 l 0.39844,-0.621094 0.39453,-0.617187 z m 14.4375,4.875 c 1.2461,0 2.3711,-0.5 3.17969,-1.300781 0.8086,-0.804688 1.3086,-1.917969 1.3086,-3.136719 0,-1.222656 -0.5,-2.332031 -1.3086,-3.136719 -0.80859,-0.804687 -1.93359,-1.304687 -3.17969,-1.304687 -1.24609,0 -2.36328,0.5 -3.17187,1.304687 -0.80859,0.804688 -1.30469,1.914063 -1.30469,3.136719 0,1.21875 0.4961,2.332031 1.30469,3.136719 0.80859,0.800781 1.92578,1.300781 3.17187,1.300781 z m 7.70313,-8.695313 v 5.21875 c 0,0.617188 0.21484,1.171875 0.58984,1.570313 0.37891,0.398437 0.91797,0.640625 1.57813,0.640625 0.64453,0 1.18359,-0.242188 1.55859,-0.640625 0.37891,-0.398438 0.59375,-0.953125 0.59375,-1.570313 v -5.21875 h 1.34766 v 5.230469 c 0,0.996094 -0.375,1.863281 -1,2.480469 -0.625,0.617187 -1.50391,0.984375 -2.51563,0.984375 -1.00781,0 -1.89062,-0.367188 -2.51953,-0.984375 -0.6289,-0.617188 -1.0039,-1.484375 -1.0039,-2.480469 v -5.230469 z m -16.70313,0 c 0.89063,0 1.61329,0.296875 2.1211,0.789063 0.5039,0.492187 0.78515,1.175781 0.78515,1.945312 0,0.640625 -0.17578,1.195313 -0.5,1.632813 -0.32421,0.4375 -0.80078,0.753906 -1.39453,0.910156 l 1.01563,1.617188 1.01172,1.621093 h -1.58985 l -0.9414,-1.542968 -0.94532,-1.535157 h -1.6289 v 3.078125 h -1.375 v -8.515625 z m 28.19922,0 c 0.89844,0 1.64063,0.304688 2.15625,0.800782 0.51953,0.5 0.8086,1.195312 0.8086,1.972656 0,0.777344 -0.28907,1.472656 -0.8086,1.96875 -0.51562,0.5 -1.25781,0.804687 -2.15625,0.804687 h -1.93359 v 2.96875 h -1.375 v -8.515625 z m -19.19922,7.417969 c -0.85546,0 -1.625,-0.347656 -2.17968,-0.917969 -0.55469,-0.570312 -0.89453,-1.359375 -0.89453,-2.242187 0,-0.882813 0.33984,-1.671875 0.89453,-2.242188 0.55468,-0.570312 1.32422,-0.921875 2.17968,-0.921875 0.85938,0 1.63282,0.351563 2.1875,0.921875 0.5586,0.570313 0.90235,1.359375 0.90235,2.242188 0,0.886719 -0.33985,1.675781 -0.89844,2.246094 -0.55469,0.566406 -1.32812,0.914062 -2.19141,0.914062 z m 19.19922,-3.089844 c 0.44141,0 0.83203,-0.144531 1.10938,-0.410156 0.27734,-0.265625 0.44531,-0.652344 0.44531,-1.132812 0,-0.460938 -0.16797,-0.84375 -0.44531,-1.113282 -0.27735,-0.265625 -0.66797,-0.417968 -1.10938,-0.417968 h -1.93359 v 3.074218 z m -28.19922,-0.121093 c 0.4336,0 0.8086,-0.140625 1.07422,-0.394532 0.26563,-0.253906 0.42188,-0.621093 0.42188,-1.078125 0,-0.449218 -0.15625,-0.820312 -0.42188,-1.078125 -0.26562,-0.257812 -0.64062,-0.402343 -1.07422,-0.402343 h -2.0664 v 2.953125 z m 68.08594,-15.320313 c 0.0195,0.06641 0.0352,0.164063 0.0469,0.269531 0.008,0.109375 0.0156,0.230469 0.0156,0.335938 0,1.210937 -0.42578,2.277344 -1.16015,3.042969 -0.73438,0.765625 -1.77735,1.230468 -3.01172,1.230468 -1.23438,0 -2.33203,-0.496093 -3.1211,-1.296875 -0.78906,-0.800781 -1.26953,-1.910156 -1.26953,-3.144531 0,-1.234375 0.4961,-2.34375 1.30078,-3.144531 0.8086,-0.800781 1.92188,-1.292969 3.16407,-1.292969 0.50781,0 0.99218,0.0625 1.4414,0.191406 0.44922,0.132813 0.86328,0.328125 1.23438,0.597657 l -0.71875,1.117187 c -0.28516,-0.21875 -0.58985,-0.375 -0.91407,-0.480469 -0.32812,-0.101562 -0.67968,-0.152343 -1.05468,-0.152343 -0.85938,0 -1.6211,0.34375 -2.17188,0.910156 -0.54687,0.570312 -0.88281,1.359375 -0.88281,2.253906 0,0.894531 0.32422,1.6875 0.85937,2.257813 0.53907,0.570312 1.28907,0.917968 2.14454,0.917968 0.79296,0 1.43359,-0.253906 1.90625,-0.675781 0.47265,-0.425781 0.77734,-1.019531 0.89062,-1.699219 h -2.89453 l 0.39844,-0.617187 0.39453,-0.621094 z m -44.05469,-3.820312 v 5.21875 c 0,0.617187 0.21485,1.171875 0.58985,1.570312 0.3789,0.398438 0.91797,0.640625 1.57812,0.640625 0.64453,0 1.1836,-0.242187 1.5586,-0.640625 0.3789,-0.398437 0.59375,-0.953125 0.59375,-1.570312 v -5.21875 h 1.34765 v 5.230468 c 0,0.996094 -0.37109,1.863282 -1,2.480469 -0.625,0.617188 -1.5039,0.984375 -2.51172,0.984375 -1.01171,0 -1.89453,-0.367187 -2.52343,-0.984375 -0.62891,-0.617187 -1.00391,-1.484375 -1.00391,-2.480469 v -5.230468 z m -6.33984,8.695312 c 0.95703,0 1.70703,-0.273437 2.21875,-0.734375 0.51563,-0.460937 0.78516,-1.109375 0.78516,-1.855469 0,-0.808593 -0.3125,-1.328125 -0.79688,-1.699218 -0.48047,-0.367188 -1.1289,-0.582032 -1.79297,-0.78125 -0.55078,-0.164063 -1.01172,-0.300782 -1.33203,-0.496094 -0.32031,-0.199219 -0.5039,-0.453125 -0.5039,-0.855469 0,-0.339844 0.12109,-0.644531 0.36328,-0.863281 0.24218,-0.21875 0.60937,-0.351563 1.10937,-0.351563 0.32813,0 0.64453,0.05469 0.95703,0.167969 0.31641,0.109375 0.62891,0.269531 0.95313,0.476563 l 0.33984,-0.542969 0.33985,-0.539063 c -0.33985,-0.242187 -0.73047,-0.445312 -1.16016,-0.585937 -0.43359,-0.136719 -0.90625,-0.214844 -1.41797,-0.214844 -0.89844,0 -1.61328,0.261719 -2.10547,0.710938 -0.48828,0.449218 -0.7539,1.085937 -0.7539,1.828125 0,0.816406 0.3125,1.335937 0.79296,1.703125 0.48047,0.363281 1.12891,0.578125 1.79688,0.777343 0.55078,0.164063 1.00781,0.304688 1.33203,0.503907 0.32031,0.195312 0.50781,0.453125 0.50781,0.847656 0,0.359375 -0.14062,0.671875 -0.41406,0.902344 -0.26953,0.226562 -0.67578,0.363281 -1.20703,0.363281 -0.42969,0 -0.83203,-0.08594 -1.21875,-0.230469 -0.38281,-0.144531 -0.75391,-0.347656 -1.125,-0.585937 l -0.34375,0.542968 -0.33984,0.539063 c 0.36718,0.261719 0.78125,0.503906 1.27734,0.683594 0.49219,0.175781 1.06641,0.289062 1.73828,0.289062 z m -18.59766,0 c 1.2461,0 2.36719,-0.496094 3.17969,-1.300781 0.8086,-0.804688 1.3086,-1.914063 1.3086,-3.136719 0,-1.222656 -0.5,-2.332031 -1.3086,-3.136719 -0.8125,-0.804687 -1.93359,-1.300781 -3.17969,-1.300781 -1.24609,0 -2.36718,0.496094 -3.17187,1.300781 -0.80859,0.804688 -1.30469,1.914063 -1.30469,3.136719 0,1.222656 0.4961,2.332031 1.30469,3.136719 0.80469,0.804687 1.92578,1.300781 3.17187,1.300781 z m -13.03125,-4.4375 c 0,1.230469 0.4961,2.34375 1.3086,3.144531 0.8125,0.800782 1.9375,1.292969 3.20312,1.292969 0.60938,0 1.1211,-0.08594 1.58203,-0.25 0.46094,-0.164062 0.86719,-0.398437 1.26563,-0.699219 l -0.35547,-0.550781 -0.35156,-0.554687 c -0.32813,0.253906 -0.66016,0.453125 -1.01953,0.585937 -0.35938,0.132813 -0.75,0.203125 -1.19532,0.203125 -0.84375,0 -1.60546,-0.34375 -2.15234,-0.914062 -0.54687,-0.570313 -0.88672,-1.363282 -0.88672,-2.257813 0,-0.894531 0.33985,-1.6875 0.88672,-2.257812 0.54688,-0.570313 1.30859,-0.917969 2.15234,-0.917969 0.44532,0 0.83594,0.07031 1.19532,0.203125 0.35937,0.136719 0.6914,0.332031 1.01953,0.585937 l 0.35156,-0.550781 0.35547,-0.554687 c -0.39844,-0.296875 -0.80469,-0.535157 -1.26563,-0.695313 -0.46093,-0.164062 -0.97265,-0.25 -1.58203,-0.25 -1.26562,0 -2.39062,0.488281 -3.20312,1.292969 -0.8125,0.796875 -1.3086,1.910156 -1.3086,3.144531 z m 61.58204,-4.257812 v 8.515625 h -1.375 v -8.515625 z m 4.72265,0 1.98828,3.21875 1.98828,3.214843 v -6.433593 h 1.3125 v 8.511718 h -1.58984 l -2.03906,-3.292968 -2.03906,-3.296875 v 6.589843 h -1.3086 v -8.511718 z m -45.14062,0 1.98828,3.21875 1.98828,3.214843 v -6.433593 h 1.3125 v 8.511718 h -1.58984 l -2.03907,-3.292968 -2.03515,-3.296875 v 6.589843 h -1.31641 v -8.511718 z m 26.28906,7.25 h 4.19531 v 1.261718 h -5.57031 v -8.511718 h 1.375 z m 10.68359,-7.25 v 1.265625 h -2.67187 v 7.246093 h -1.38672 v -7.246093 h -2.66406 v -1.265625 z m -45.10547,7.417968 c -0.85937,0 -1.625,-0.347656 -2.18359,-0.917968 -0.55469,-0.570313 -0.89453,-1.359375 -0.89453,-2.242188 0,-0.882812 0.33984,-1.671875 0.89453,-2.242187 0.55859,-0.570313 1.32422,-0.921875 2.18359,-0.921875 0.85547,0 1.62891,0.351562 2.1875,0.921875 0.5586,0.570312 0.90235,1.359375 0.90235,2.242187 0,0.886719 -0.33985,1.675781 -0.89844,2.246094 -0.55469,0.570312 -1.32812,0.914062 -2.19141,0.914062 z m -0.24218,-13.65625 c 1.24609,0 2.36718,-0.496093 3.17968,-1.300781 0.8086,-0.804687 1.3086,-1.914062 1.3086,-3.136719 0,-1.222656 -0.5,-2.332031 -1.3086,-3.136718 -0.8125,-0.804688 -1.93359,-1.304688 -3.17968,-1.304688 -1.2461,0 -2.36719,0.5 -3.17188,1.304688 -0.80859,0.804687 -1.30469,1.914062 -1.30469,3.136718 0,1.222657 0.4961,2.332032 1.30469,3.136719 0.80469,0.804688 1.92578,1.300781 3.17188,1.300781 z m 8.92578,-8.878906 c 0.5039,0.0039 0.96875,0.08203 1.39062,0.21875 0.4336,0.140625 0.82422,0.34375 1.16407,0.585938 l -0.33985,0.539062 -0.33984,0.542969 c -0.32422,-0.207031 -0.63672,-0.367188 -0.95313,-0.480469 -0.3125,-0.105469 -0.6289,-0.164062 -0.95703,-0.164062 -0.5,0 -0.86719,0.132812 -1.10937,0.351562 -0.24219,0.222656 -0.36328,0.523438 -0.36328,0.863281 0,0.402344 0.18359,0.65625 0.5039,0.855469 0.32031,0.195313 0.78125,0.332031 1.33203,0.496094 0.66407,0.199219 1.3125,0.417969 1.79297,0.785156 0.48047,0.367188 0.79688,0.886719 0.79688,1.695313 0,0.75 -0.27344,1.398437 -0.78516,1.855468 -0.51172,0.460938 -1.26172,0.734375 -2.21875,0.734375 -0.67187,0 -1.24609,-0.113281 -1.73828,-0.289062 -0.49609,-0.179688 -0.91406,-0.421875 -1.27734,-0.683594 l 0.67968,-1.082031 c 0.3711,0.238281 0.7461,0.441406 1.12891,0.585937 0.38672,0.144532 0.78906,0.230469 1.21875,0.230469 0.53125,0 0.9375,-0.136719 1.20703,-0.367187 0.27344,-0.222657 0.41016,-0.542969 0.41016,-0.898438 0,-0.394531 -0.1836,-0.652344 -0.50391,-0.851562 -0.32422,-0.195313 -0.78125,-0.332032 -1.33203,-0.5 -0.66797,-0.199219 -1.31641,-0.414063 -1.79688,-0.777344 -0.48046,-0.367188 -0.79296,-0.890625 -0.79296,-1.703125 0,-0.742188 0.26562,-1.378906 0.7539,-1.828125 0.49219,-0.449219 1.20313,-0.714844 2.10547,-0.714844 z m 16.30078,8.878906 c 1.24609,0 2.37109,-0.496093 3.17969,-1.300781 0.80859,-0.804687 1.30859,-1.914062 1.30859,-3.136719 0,-1.222656 -0.5,-2.332031 -1.30859,-3.136718 -0.8086,-0.804688 -1.9336,-1.304688 -3.17969,-1.304688 -1.24609,0 -2.36719,0.5 -3.17188,1.304688 -0.80859,0.804687 -1.30468,1.914062 -1.30468,3.136718 0,1.222657 0.49609,2.332032 1.30468,3.136719 0.80469,0.804688 1.92579,1.300781 3.17188,1.300781 z m -34.20703,-8.695312 c 0.74609,0 1.39844,0.242187 1.86719,0.644531 0.46484,0.402344 0.74609,0.972656 0.74609,1.628906 0,0.371094 -0.0977,0.710938 -0.27344,1 -0.17187,0.289063 -0.42578,0.535157 -0.73437,0.714844 0.41406,0.203125 0.74609,0.492188 0.97656,0.847656 0.23047,0.355469 0.35937,0.769532 0.35937,1.222657 0,0.6875 -0.28125,1.300781 -0.76562,1.742187 -0.48047,0.441406 -1.16016,0.714844 -1.95703,0.714844 h -3.60156 v -8.515625 z m 28.86328,0 v 1.265625 h -2.67578 v 7.25 H 177.875 v -7.25 h -2.66406 v -1.265625 z m 13.46875,0 1.98828,3.214844 1.98828,3.21875 v -6.433594 h 1.3125 v 8.515625 h -1.58984 l -4.07813,-6.59375 v 6.59375 h -1.3125 v -8.515625 z m -33.35156,7.417969 c -0.85938,0 -1.62891,-0.347657 -2.1836,-0.917969 -0.55468,-0.570313 -0.89453,-1.359375 -0.89453,-2.242188 0,-0.882812 0.33985,-1.671875 0.89453,-2.242187 0.55469,-0.570313 1.32422,-0.921875 2.1836,-0.921875 0.85547,0 1.6289,0.351562 2.1875,0.921875 0.55859,0.570312 0.90234,1.359375 0.90234,2.242187 0,0.886719 -0.33984,1.675782 -0.89844,2.246094 -0.55468,0.570313 -1.32812,0.914063 -2.1914,0.914063 z m 25.22656,0 c -0.85547,0 -1.625,-0.347657 -2.17969,-0.917969 -0.55469,-0.570313 -0.89844,-1.359375 -0.89844,-2.242188 0,-0.882812 0.34375,-1.671875 0.89844,-2.242187 0.55469,-0.570313 1.32422,-0.921875 2.17969,-0.921875 0.85937,0 1.62891,0.351562 2.1875,0.921875 0.55859,0.570312 0.90234,1.359375 0.90234,2.242187 0,0.886719 -0.33984,1.675782 -0.89843,2.246094 -0.55469,0.570313 -1.32813,0.914063 -2.19141,0.914063 z m -34.00391,-0.121094 c 0.38282,0 0.71485,-0.140625 0.95313,-0.367188 0.23437,-0.226562 0.375,-0.539062 0.375,-0.886718 0,-0.351563 -0.14063,-0.664063 -0.375,-0.890625 -0.23828,-0.222657 -0.57031,-0.359375 -0.95313,-0.359375 h -2.21093 v 2.503906 z m -0.21484,-3.699219 c 0.35937,0 0.66406,-0.125 0.88281,-0.339844 0.21485,-0.210937 0.34375,-0.507812 0.34375,-0.847656 0,-0.34375 -0.1289,-0.640625 -0.34375,-0.851562 -0.21875,-0.214844 -0.52344,-0.34375 -0.88281,-0.34375 h -1.99609 v 2.382812 h 1.99609"
         id="path1028" /></g></g></svg>
