<?xml version="1.0" encoding="UTF-8"?>
<!DOCTYPE svg PUBLIC "-//W3C//DTD SVG 1.1//EN" "http://www.w3.org/Graphics/SVG/1.1/DTD/svg11.dtd">
<svg xmlns="http://www.w3.org/2000/svg" version="1.1" width="1019px" height="200px" style="shape-rendering:geometricPrecision; text-rendering:geometricPrecision; image-rendering:optimizeQuality; fill-rule:evenodd; clip-rule:evenodd" xmlns:xlink="http://www.w3.org/1999/xlink">
<g><path style="opacity:0.977" fill="#0031ff" d="M 38.5,-0.5 C 46.5,-0.5 54.5,-0.5 62.5,-0.5C 83.8972,5.40456 96.3972,19.4046 100,41.5C 100.5,50.1603 100.666,58.8269 100.5,67.5C 89.1667,67.5 77.8333,67.5 66.5,67.5C 66.6663,60.4921 66.4996,53.4921 66,46.5C 63.3013,30.5661 54.468,25.7327 39.5,32C 36.4847,34.8634 34.6513,38.3634 34,42.5C 33.3333,80.5 33.3333,118.5 34,156.5C 34.6361,163.132 38.1361,167.298 44.5,169C 56.1833,172.242 63.35,168.076 66,156.5C 66.4998,146.506 66.6665,136.506 66.5,126.5C 77.8333,126.5 89.1667,126.5 100.5,126.5C 100.667,137.838 100.5,149.172 100,160.5C 95.7569,181.574 83.2569,194.574 62.5,199.5C 54.5,199.5 46.5,199.5 38.5,199.5C 17.6124,194.946 4.61235,182.279 -0.5,161.5C -0.5,120.167 -0.5,78.8333 -0.5,37.5C 4.61235,16.7208 17.6124,4.05413 38.5,-0.5 Z"/></g>
<g><path style="opacity:0.959" fill="#0031ff" d="M 195.5,-0.5 C 205.167,-0.5 214.833,-0.5 224.5,-0.5C 267.756,8.24911 295.589,33.9158 308,76.5C 316.38,125.896 299.213,163.396 256.5,189C 246.145,193.841 235.479,197.341 224.5,199.5C 214.833,199.5 205.167,199.5 195.5,199.5C 159.052,192.568 132.885,172.234 117,138.5C 101.059,92.7639 110.892,53.5972 146.5,21C 161.134,9.84848 177.467,2.68181 195.5,-0.5 Z M 205.5,15.5 C 215.017,14.5063 222.184,18.173 227,26.5C 229.615,31.0464 231.615,35.713 233,40.5C 230.246,38.8726 227.412,37.3726 224.5,36C 212.641,17.2364 203.141,18.4031 196,39.5C 227.05,48.9288 252.217,66.5955 271.5,92.5C 278.464,87.5687 281.964,80.902 282,72.5C 278.149,67.5561 272.983,65.0561 266.5,65C 263.203,62.7046 260.203,60.038 257.5,57C 268.697,56.088 278.531,59.2546 287,66.5C 290.426,71.1844 291.093,76.1844 289,81.5C 286.031,88.4745 281.531,94.3078 275.5,99C 282.83,110.486 285.663,122.986 284,136.5C 280.941,148.559 273.441,156.392 261.5,160C 256.522,161.247 251.522,161.913 246.5,162C 247.5,159.667 248.5,157.333 249.5,155C 274.484,150.658 282.651,136.492 274,112.5C 272.753,109.671 271.253,107.005 269.5,104.5C 244.854,121.661 217.854,133.495 188.5,140C 190.99,152.483 195.99,163.816 203.5,174C 206.967,176.786 210.634,177.12 214.5,175C 217.04,172.795 219.207,170.295 221,167.5C 225.121,159.136 228.455,150.469 231,141.5C 233.022,140.214 235.189,139.214 237.5,138.5C 236.615,150.991 232.781,162.658 226,173.5C 212.695,187.869 201.028,186.535 191,169.5C 186.526,160.246 183.36,150.58 181.5,140.5C 169.133,143.28 156.799,143.113 144.5,140C 129.576,134.446 126.243,124.946 134.5,111.5C 135.892,112.605 137.059,113.939 138,115.5C 137.892,119.157 137.892,122.823 138,126.5C 139.251,129.381 141.417,131.214 144.5,132C 156.054,134.79 167.721,135.29 179.5,133.5C 175.607,103.819 177.274,74.4855 184.5,45.5C 171.621,42.8393 159.787,45.1727 149,52.5C 141.535,63.1582 140.535,74.4915 146,86.5C 151.313,98.3008 158.479,108.801 167.5,118C 164.167,118.667 160.833,118.667 157.5,118C 144.747,104.492 137.08,88.4922 134.5,70C 135.373,54.1288 143.373,43.7955 158.5,39C 168.067,36.5363 177.734,35.8696 187.5,37C 189.955,31.9201 192.788,27.0868 196,22.5C 198.825,19.524 201.992,17.1907 205.5,15.5 Z"/></g>
<g><path style="opacity:0.979" fill="#0031ff" d="M 325.5,1.5 C 336.833,1.5 348.167,1.5 359.5,1.5C 359.5,27.8333 359.5,54.1667 359.5,80.5C 371.167,80.5 382.833,80.5 394.5,80.5C 394.5,54.1667 394.5,27.8333 394.5,1.5C 405.833,1.5 417.167,1.5 428.5,1.5C 428.5,66.8333 428.5,132.167 428.5,197.5C 417.167,197.5 405.833,197.5 394.5,197.5C 394.5,168.833 394.5,140.167 394.5,111.5C 382.833,111.5 371.167,111.5 359.5,111.5C 359.5,140.167 359.5,168.833 359.5,197.5C 348.167,197.5 336.833,197.5 325.5,197.5C 325.5,132.167 325.5,66.8333 325.5,1.5 Z"/></g>
<g><path style="opacity:0.968" fill="#0031ff" d="M 452.5,1.5 C 482.833,1.5 513.167,1.5 543.5,1.5C 543.5,11.5 543.5,21.5 543.5,31.5C 524.833,31.5 506.167,31.5 487.5,31.5C 487.5,47.8333 487.5,64.1667 487.5,80.5C 501.833,80.5 516.167,80.5 530.5,80.5C 530.5,90.8333 530.5,101.167 530.5,111.5C 516.167,111.5 501.833,111.5 487.5,111.5C 487.5,130.167 487.5,148.833 487.5,167.5C 507.167,167.5 526.833,167.5 546.5,167.5C 546.5,177.5 546.5,187.5 546.5,197.5C 515.167,197.5 483.833,197.5 452.5,197.5C 452.5,132.167 452.5,66.8333 452.5,1.5 Z"/></g>
<g><path style="opacity:0.977" fill="#0031ff" d="M 563.5,1.5 C 582.17,1.33339 600.836,1.50005 619.5,2C 648.395,3.56192 664.228,18.7286 667,47.5C 669.259,64.695 666.592,81.0283 659,96.5C 655.073,102.034 650.24,106.534 644.5,110C 653.936,138.808 663.269,167.641 672.5,196.5C 660.833,197.833 649.167,197.833 637.5,196.5C 629.365,170.261 621.532,143.928 614,117.5C 608.651,117.359 603.151,117.359 597.5,117.5C 597.5,144.167 597.5,170.833 597.5,197.5C 586.167,197.5 574.833,197.5 563.5,197.5C 563.5,132.167 563.5,66.8333 563.5,1.5 Z M 597.5,30.5 C 604.175,30.3337 610.842,30.5004 617.5,31C 624.307,32.1498 628.807,35.9831 631,42.5C 634.333,53.8333 634.333,65.1667 631,76.5C 629.066,82.7673 624.9,86.6006 618.5,88C 611.54,89.0867 604.54,89.5867 597.5,89.5C 597.5,69.8333 597.5,50.1667 597.5,30.5 Z"/></g>
<g><path style="opacity:0.968" fill="#0031ff" d="M 686.5,1.5 C 716.833,1.5 747.167,1.5 777.5,1.5C 777.5,11.5 777.5,21.5 777.5,31.5C 758.833,31.5 740.167,31.5 721.5,31.5C 721.5,47.8333 721.5,64.1667 721.5,80.5C 735.833,80.5 750.167,80.5 764.5,80.5C 764.5,90.8333 764.5,101.167 764.5,111.5C 750.167,111.5 735.833,111.5 721.5,111.5C 721.5,130.167 721.5,148.833 721.5,167.5C 741.167,167.5 760.833,167.5 780.5,167.5C 780.5,177.5 780.5,187.5 780.5,197.5C 749.167,197.5 717.833,197.5 686.5,197.5C 686.5,132.167 686.5,66.8333 686.5,1.5 Z"/></g>
<g><path style="opacity:0.967" fill="#0031ff" d="M 798.5,1.5 C 809.415,1.17966 820.248,1.51299 831,2.5C 844.53,38.7565 857.863,75.0899 871,111.5C 871.5,74.8348 871.667,38.1682 871.5,1.5C 881.833,1.5 892.167,1.5 902.5,1.5C 902.5,66.8333 902.5,132.167 902.5,197.5C 892.251,197.819 882.084,197.486 872,196.5C 858.333,157.5 844.667,118.5 831,79.5C 830.5,118.832 830.333,158.165 830.5,197.5C 819.833,197.5 809.167,197.5 798.5,197.5C 798.5,132.167 798.5,66.8333 798.5,1.5 Z"/></g>
<g><path style="opacity:0.966" fill="#0031ff" d="M 1018.5,1.5 C 1018.5,11.5 1018.5,21.5 1018.5,31.5C 1007.83,31.5 997.167,31.5 986.5,31.5C 986.5,86.8333 986.5,142.167 986.5,197.5C 974.833,197.5 963.167,197.5 951.5,197.5C 951.5,142.167 951.5,86.8333 951.5,31.5C 940.833,31.5 930.167,31.5 919.5,31.5C 919.5,21.5 919.5,11.5 919.5,1.5C 952.5,1.5 985.5,1.5 1018.5,1.5 Z"/></g>
<g><path style="opacity:0.973" fill="#0031ff" d="M 191.5,47.5 C 221.108,54.7238 245.275,70.3905 264,94.5C 264.982,95.7589 265.315,97.0922 265,98.5C 241.645,115.436 215.811,126.102 187.5,130.5C 183.864,102.594 185.197,74.9269 191.5,47.5 Z"/></g>
</svg>
