<?xml version="1.0" encoding="UTF-8" standalone="no"?>
<svg
   xmlns:dc="http://purl.org/dc/elements/1.1/"
   xmlns:cc="http://creativecommons.org/ns#"
   xmlns:rdf="http://www.w3.org/1999/02/22-rdf-syntax-ns#"
   xmlns:svg="http://www.w3.org/2000/svg"
   xmlns="http://www.w3.org/2000/svg"
   viewBox="0 0 457.57333 138.92"
   height="138.92"
   width="457.57333"
   xml:space="preserve"
   id="svg2"
   version="1.1"><metadata
     id="metadata8"><rdf:RDF><cc:Work
         rdf:about=""><dc:format>image/svg+xml</dc:format><dc:type
           rdf:resource="http://purl.org/dc/dcmitype/StillImage" /></cc:Work></rdf:RDF></metadata><defs
     id="defs6" /><g
     transform="matrix(1.3333333,0,0,-1.3333333,0,138.92)"
     id="g10"><g
       transform="scale(0.1)"
       id="g12"><path
         id="path14"
         style="fill:#163a4e;fill-opacity:1;fill-rule:evenodd;stroke:none"
         d="M 444.848,15.1289 H 560.129 L 560.121,1041.93 332.523,1006.46 v -25.124 c 42.86,-4.434 112.325,-8.867 112.325,-96.066 V 595.598 h -2.957 C 421.195,636.98 365.043,709.402 271.93,709.402 66.5,709.402 0,535.008 0,354.703 0,174.391 66.5,0 271.93,0 354.691,0 428.586,69.4688 441.891,109.371 h 2.957 V 15.1289 Z M 131.527,354.703 c 0,124.141 33.993,300.016 159.618,300.016 113.796,0 153.703,-159.625 153.703,-300.016 0,-125.625 -33.993,-300.0194 -153.703,-300.0194 -135.969,0 -159.618,171.4454 -159.618,300.0194 v 0" /><path
         id="path16"
         style="fill:#163a4e;fill-opacity:1;fill-rule:nonzero;stroke:none"
         d="m 675.211,644.852 v 40.39 h 874.909 v -40.39 H 675.211 v 0" /><path
         id="path18"
         style="fill:#163a4e;fill-opacity:1;fill-rule:evenodd;stroke:none"
         d="m 1892.83,15.1094 0.02,694.2926 -227.6,-35.476 v -25.121 c 44.33,-2.953 112.33,-7.387 112.33,-96.063 l 0.04,-537.6326 h 115.21 v 0" /><path
         id="path20"
         style="fill:#163a4e;fill-opacity:1;fill-rule:nonzero;stroke:none"
         d="M 2184.98,15.1094 V 552.898 c 0,88.641 -69.45,93.075 -112.28,96.028 v 25.117 l 227.51,35.461 V 514.488 h 2.95 c 20.69,54.66 87.17,195.016 233.44,195.016 156.6,0 171.37,-85.695 171.37,-223.082 V 15.1094 H 2592.73 V 453.902 c 0,127.067 -1.48,184.684 -98.98,184.684 -87.17,0 -193.54,-166.949 -193.54,-307.301 V 15.1094 h -115.23 z m 816.93,465.3946 h 298.44 c 0,78.301 -26.6,180.246 -140.35,180.246 -112.29,0 -158.09,-125.582 -158.09,-180.246 z M 3412.64,74.2148 V 26.9492 C 3377.17,13.6484 3326.95,0.351563 3236.82,0.351563 3007.83,0.351563 2879.3,125.934 2879.3,374.137 c 0,215.695 87.16,335.367 299.9,335.367 132.97,0 252.64,-73.871 252.64,-245.25 v -32.5 h -429.93 c 0,-124.102 60.59,-376.7384 307.31,-376.7384 33.98,0 73.87,4.4336 103.42,19.1992 v 0" /><path
         id="path22"
         style="fill:#163a4e;fill-opacity:1;fill-rule:nonzero;stroke:none"
         d="m 1350.89,15.1094 h -115.37 l 0.06,589.3436 h 115.28 l 0.03,-589.3436 z M 1235.58,725.637 v 34.011 c 0,195.086 53.2,282.282 279.32,282.282 72.42,0 162.58,-28.08 162.58,-88.676 0,-45.813 -32.51,-70.938 -70.94,-70.938 -93.11,0 -48.77,110.844 -143.36,110.844 -112.33,0 -112.33,-99.023 -112.33,-209.863 v -57.66 h -115.27 v 0" /><path
         id="path24"
         style="fill:#163a4e;fill-opacity:1;fill-rule:nonzero;stroke:none"
         d="m 1760.7,931.805 c 0,41.254 33.44,74.695 74.69,74.695 41.27,0 74.71,-33.441 74.71,-74.695 0,-41.25 -33.44,-74.696 -74.71,-74.696 -41.25,0 -74.69,33.446 -74.69,74.696 v 0" /></g></g></svg>