<?xml version="1.0" encoding="UTF-8" standalone="no"?>
<!-- Created with Inkscape (http://www.inkscape.org/) -->

<svg
   width="140.44453mm"
   height="50.051979mm"
   viewBox="0 0 140.44453 50.051979"
   version="1.1"
   id="svg195"
   xml:space="preserve"
   inkscape:export-filename="bitmap.svg"
   inkscape:export-xdpi="96"
   inkscape:export-ydpi="96"
   xmlns:inkscape="http://www.inkscape.org/namespaces/inkscape"
   xmlns:sodipodi="http://sodipodi.sourceforge.net/DTD/sodipodi-0.dtd"
   xmlns="http://www.w3.org/2000/svg"
   xmlns:svg="http://www.w3.org/2000/svg"><sodipodi:namedview
     id="namedview197"
     pagecolor="#ffffff"
     bordercolor="#999999"
     borderopacity="1"
     inkscape:showpageshadow="0"
     inkscape:pageopacity="0"
     inkscape:pagecheckerboard="0"
     inkscape:deskcolor="#d1d1d1"
     inkscape:document-units="mm"
     showgrid="false" /><defs
     id="defs192"><clipPath
       clipPathUnits="userSpaceOnUse"
       id="clipPath3729"><path
         d="M 0,595.276 H 841.89 V 0 H 0 Z"
         id="path3727"
         inkscape:connector-curvature="0" /></clipPath></defs><g
     inkscape:label="Lager 1"
     inkscape:groupmode="layer"
     id="layer1"
     transform="translate(-36.740514,-117.59105)"><g
       id="g3723"
       style="fill:#ff6400;fill-opacity:1"
       transform="matrix(0.35277777,0,0,-0.35277777,-41.5372,247.61704)"
       inkscape:export-filename="echo-state.svg"
       inkscape:export-xdpi="96"
       inkscape:export-ydpi="96"><g
         id="g3725"
         clip-path="url(#clipPath3729)"
         style="fill:#ff6400;fill-opacity:1"><g
           id="g3731"
           transform="translate(348.5288,289.9182)"
           style="fill:#ff6400;fill-opacity:1"><path
             d="m 0,0 c -0.214,-1.375 -0.954,-2.825 -1.738,-4.359 -0.658,-1.294 -1.34,-2.631 -1.821,-4.117 -0.481,-1.477 -0.734,-2.943 -0.977,-4.361 -0.109,-0.637 -0.223,-1.252 -0.348,-1.848 -0.239,-0.364 -0.477,-0.728 -0.722,-1.102 -0.065,-0.095 -0.129,-0.196 -0.193,-0.291 0.238,1.583 0.309,3.156 0.373,4.64 0.089,2.008 0.168,3.905 0.622,5.595 0.385,1.436 1.851,3.204 3.271,4.915 0.505,0.609 1.022,1.237 1.528,1.885 C 0.019,0.912 0.043,0.865 0.064,0.82 0.059,0.535 0.04,0.26 0,0 m -11.002,-4.187 c -0.634,-2.367 -0.735,-4.708 -0.832,-6.975 -0.117,-2.725 -0.23,-5.298 -1.323,-7.184 -1.606,-2.778 -4.068,-5.041 -6.669,-7.43 -1.025,-0.944 -2.085,-1.916 -3.106,-2.939 -1.791,-1.79 -3.083,-4.024 -4.332,-6.185 -1.459,-2.525 -2.84,-4.913 -4.661,-5.965 -1.698,-0.983 -4.388,-0.904 -7.241,-0.821 -2.604,0.08 -5.298,0.157 -7.872,-0.532 -2.359,-0.628 -4.517,-1.845 -6.605,-3.021 -2.543,-1.429 -4.942,-2.782 -7.164,-2.782 -2.225,0 -4.576,1.05 -7.055,2.241 -0.902,1.53 -2.077,2.858 -3.908,3.384 -1.579,0.459 -3.192,0.597 -4.795,0.597 -0.683,0 -1.363,-0.027 -2.039,-0.061 -3.395,0.967 -6.602,2.06 -9.5,3.737 -1.831,1.059 -3.505,2.335 -5.114,3.737 -1.176,1.867 -2.412,3.768 -4.01,5.43 -1.818,1.894 -4.105,3.256 -6.314,4.572 -0.765,0.459 -1.515,0.909 -2.228,1.368 -0.144,0.125 -0.281,0.254 -0.422,0.382 -0.318,0.707 -0.619,1.454 -0.925,2.223 -0.474,1.196 -0.964,2.432 -1.591,3.66 -0.744,1.457 -1.325,2.99 -1.87,4.581 -0.006,0.185 -0.009,0.368 -0.015,0.555 -0.065,2.365 -0.129,4.81 -0.775,7.225 -0.32,1.198 -0.67,2.364 -1.009,3.493 -1.014,3.385 -1.972,6.584 -1.972,10.06 0,0.315 -0.003,0.628 -0.003,0.94 0.006,0.351 0.016,0.704 0.019,1.055 l 0.002,0.101 c 0.019,0.808 0,1.613 -0.03,2.415 0.012,3.361 0.15,6.568 0.958,9.586 0.493,1.854 0.664,3.789 0.762,5.704 0.434,0.668 0.964,1.344 1.512,2.042 0.949,1.206 1.928,2.452 2.684,3.936 0.704,1.38 1.181,2.776 1.641,4.122 0.557,1.625 1.08,3.159 1.904,4.289 0.155,0.217 0.333,0.428 0.514,0.636 0.865,0.517 1.811,1.01 2.782,1.512 2.344,1.222 4.765,2.482 6.779,4.417 1.239,1.187 2.133,2.671 2.874,4.263 0.535,0.306 1.077,0.615 1.625,0.924 0.756,0.426 1.512,0.851 2.259,1.282 1.974,1.145 4.437,1.322 7.296,1.534 2.152,0.156 4.376,0.318 6.645,0.924 4.853,1.298 8.59,2.051 13.319,2.051 2.905,0 5.61,1.041 8.227,2.047 2.081,0.799 4.064,1.564 5.625,1.564 0.336,0 0.652,-0.036 0.946,-0.116 2.03,-0.542 3.911,-2.482 5.907,-4.536 1.732,-1.784 3.522,-3.627 5.726,-4.903 2.008,-1.16 4.169,-1.916 6.256,-2.647 2.733,-0.958 5.316,-1.861 6.954,-3.501 3.767,-3.768 6.91,-7.747 9.086,-11.512 2.822,-4.875 4.805,-9.417 5.895,-13.49 0.304,-1.138 0.652,-2.32 0.991,-3.465 1.108,-3.752 2.253,-7.63 2.253,-11.174 0,-1.745 -1.793,-3.905 -3.528,-5.996 -1.861,-2.24 -3.787,-4.558 -4.533,-7.354 m -62.421,-52.318 c -1.179,0.27 -2.868,3.339 -3.991,5.371 -0.039,0.074 -0.079,0.148 -0.119,0.224 0.052,-0.018 0.104,-0.037 0.159,-0.055 0.778,-0.251 1.546,-0.523 2.314,-0.793 1.16,-0.41 2.338,-0.823 3.565,-1.187 0.588,-1.158 1.286,-2.311 2.216,-3.275 0.184,-0.189 0.371,-0.361 0.56,-0.526 -1.677,-0.108 -3.287,-0.083 -4.704,0.241 M 6.422,4.869 c -0.049,1.325 -0.095,2.58 -0.095,3.847 -0.003,2.032 0.437,4.178 0.906,6.449 0.722,3.501 1.469,7.122 0.602,10.727 -0.93,3.854 -3.981,6.29 -6.877,8.202 -0.539,1.347 -1.141,2.721 -1.839,4.093 -0.068,0.128 -0.143,0.247 -0.211,0.376 -0.092,1.2 0.012,2.672 0.113,4.116 0.254,3.566 0.542,7.609 -1.849,10.617 -2.482,3.131 -6.821,3.34 -10.651,3.526 -0.499,0.024 -1.024,0.05 -1.551,0.083 -0.908,0.627 -1.833,1.187 -2.745,1.735 -1.001,0.603 -1.947,1.175 -2.807,1.799 -0.122,0.09 -0.242,0.188 -0.361,0.283 -0.269,0.771 -0.523,1.603 -0.762,2.392 -1.087,3.609 -2.323,7.695 -5.944,9.442 -3.439,1.662 -7.349,2.412 -11.125,3.132 -1.408,0.272 -2.736,0.526 -4.018,0.82 -4.313,0.994 -9.957,2.136 -15.35,2.151 h -0.033 c -3.608,0 -6.755,-1.735 -9.537,-3.265 -0.976,-0.542 -1.925,-1.059 -2.837,-1.481 -0.214,-0.056 -0.429,-0.114 -0.637,-0.169 -0.333,-0.088 -0.67,-0.181 -1.016,-0.266 -0.762,-0.19 -1.6,-0.312 -2.482,-0.41 -1.199,0.113 -2.583,0.426 -3.935,0.731 -3.398,0.759 -7.245,1.625 -10.603,0.015 -3.635,-1.747 -4.774,-6.066 -5.778,-9.873 -0.009,-0.037 -0.018,-0.074 -0.027,-0.11 -0.184,-0.41 -0.355,-0.826 -0.521,-1.243 -0.247,-0.162 -0.495,-0.33 -0.74,-0.508 -1.962,-1.429 -3.205,-3.415 -4.3,-5.172 -0.172,-0.269 -0.34,-0.539 -0.505,-0.799 -0.236,-0.108 -0.469,-0.217 -0.71,-0.324 -2.66,-1.206 -5.675,-2.571 -7.906,-5.356 -0.838,-1.044 -1.726,-2.045 -2.668,-3.104 -2.317,-2.611 -4.717,-5.313 -6.4,-8.796 -0.689,-1.426 -1.711,-2.889 -2.795,-4.441 -1.842,-2.641 -3.935,-5.631 -4.746,-9.167 -0.818,-3.543 0.091,-7.06 0.893,-10.163 0.505,-1.956 0.983,-3.801 0.976,-5.378 -0.006,-1.68 -0.453,-3.562 -0.93,-5.555 -0.766,-3.201 -1.555,-6.513 -0.78,-9.928 0.899,-3.963 2.76,-7.593 4.56,-11.104 0.554,-1.083 1.083,-2.109 1.573,-3.131 1.561,-3.254 4.56,-5.166 7.204,-6.855 1.27,-0.811 2.489,-1.589 3.438,-2.431 0.324,-0.379 0.661,-0.734 1.009,-1.074 0.953,-1.242 1.632,-2.959 2.348,-4.778 1.13,-2.874 2.412,-6.13 5.221,-8.382 2.727,-2.186 5.926,-2.963 9.02,-3.716 1.901,-0.459 3.694,-0.897 5.215,-1.631 1.05,-0.506 2.491,-3.119 3.541,-5.025 1.968,-3.57 4.196,-7.609 8.169,-8.525 1.475,-0.34 2.993,-0.465 4.508,-0.465 2.225,0 4.441,0.27 6.494,0.521 1.944,0.232 3.784,0.456 5.28,0.413 3.884,-0.123 7.226,1.976 10.17,3.823 1.13,0.706 2.219,1.392 3.214,1.869 0.003,0 0.007,0 0.012,-0.003 1.647,-0.079 3.346,-0.165 5.007,0.248 3.78,0.934 6.721,3.557 9.561,6.094 1.76,1.57 3.419,3.052 5.112,3.984 0.379,0.209 0.737,0.429 1.099,0.65 2.347,0.688 4.7,1.566 6.846,3.366 1.322,1.109 2.825,2.051 4.416,3.052 2.688,1.686 5.466,3.433 7.566,6.137 3.299,4.254 5.604,8.909 7.639,13.016 0.337,0.679 0.676,1.352 1.01,2.02 2.075,4.129 4.034,8.024 4.955,12.015 0.698,3.036 -0.302,5.813 -1.53,8.334 -0.021,0.855 -0.046,1.704 -0.076,2.55"
             style="fill:#ff6400;fill-opacity:1;fill-rule:nonzero;stroke:none"
             id="path3733"
             inkscape:connector-curvature="0" /></g><g
           id="g3735"
           transform="translate(420.5073,314.5744)"
           style="fill:#ff6400;fill-opacity:1"><path
             d="m 0,0 h -26.074 v 18.028 h 22.84 v 8.613 h -22.84 v 18.15 H 0 V 53.44 H -35.614 V -8.649 H 0 Z"
             style="fill:#ff6400;fill-opacity:1;fill-rule:nonzero;stroke:none"
             id="path3737"
             inkscape:connector-curvature="0" /></g><g
           id="g3739"
           transform="translate(460.543,304.8694)"
           style="fill:#ff6400;fill-opacity:1"><path
             d="m 0,0 c 8.613,0 17.382,3.721 23.122,9.54 l -6.79,6.468 C 12.251,11.685 6.187,9.096 0,9.096 c -12.774,0 -22.798,9.945 -22.798,22.758 0,12.813 10.024,22.761 22.798,22.761 6.187,0 12.251,-2.589 16.332,-6.915 l 6.79,6.468 C 17.382,59.988 8.613,63.708 0,63.708 -18.189,63.708 -32.338,49.802 -32.338,31.854 -32.338,13.906 -18.189,0 0,0"
             style="fill:#ff6400;fill-opacity:1;fill-rule:nonzero;stroke:none"
             id="path3741"
             inkscape:connector-curvature="0" /></g><g
           id="g3743"
           transform="translate(504.4033,332.5197)"
           style="fill:#ff6400;fill-opacity:1"><path
             d="m 0,0 h 30.48 v -26.84 h 9.54 V 35.25 H 30.48 V 8.53 H 0 V 35.25 H -9.54 V -26.84 H 0 Z"
             style="fill:#ff6400;fill-opacity:1;fill-rule:nonzero;stroke:none"
             id="path3745"
             inkscape:connector-curvature="0" /></g><g
           id="g3747"
           transform="translate(587.7021,359.4846)"
           style="fill:#ff6400;fill-opacity:1"><path
             d="M 0,0 C 12.73,0 22.758,-9.987 22.758,-22.761 22.758,-35.536 12.73,-45.519 0,-45.519 c -12.734,0 -22.798,9.983 -22.798,22.758 C -22.798,-9.987 -12.734,0 0,0 m 0,-54.615 c 18.11,0 32.298,13.988 32.298,31.854 C 32.298,-4.893 18.11,9.093 0,9.093 c -18.149,0 -32.34,-13.986 -32.34,-31.854 0,-17.866 14.191,-31.854 32.34,-31.854"
             style="fill:#ff6400;fill-opacity:1;fill-rule:nonzero;stroke:none"
             id="path3749"
             inkscape:connector-curvature="0" /></g><g
           id="g3751"
           transform="translate(406.3208,262.259)"
           style="fill:#ff6400;fill-opacity:1"><path
             d="m 0,0 c -6.977,2.915 -12.853,5.124 -12.853,11.038 0,4.888 3.942,7.451 8.634,7.451 4.535,0 9.029,-1.737 13.604,-6.386 l 5.201,6.386 c -4.729,4.772 -11.077,8.084 -18.725,8.084 -9.895,0 -17.74,-6.153 -17.74,-16.365 0,-10.486 8.12,-14.191 16.242,-17.662 6.822,-2.916 12.733,-5.32 12.733,-11.471 0,-5.321 -4.374,-8.555 -10.25,-8.555 -6.031,0 -11.71,3.312 -15.533,8.2 l -5.875,-6.702 c 5.008,-5.637 13.13,-9.579 21.647,-9.579 10.366,0 19.158,5.834 19.158,17.107 C 16.243,-7.335 7.806,-3.313 0,0"
             style="fill:#ff6400;fill-opacity:1;fill-rule:nonzero;stroke:none"
             id="path3753"
             inkscape:connector-curvature="0" /></g><g
           id="g3755"
           transform="translate(473.2832,288.0412)"
           style="fill:#ff6400;fill-opacity:1"><path
             d="m 0,0 h -41.515 v -8.436 h 16.123 v -52.12 h 9.304 v 52.12 H 0 Z"
             style="fill:#ff6400;fill-opacity:1;fill-rule:nonzero;stroke:none"
             id="path3757"
             inkscape:connector-curvature="0" /></g><g
           id="g3759"
           transform="translate(490.4326,248.7736)"
           style="fill:#ff6400;fill-opacity:1"><path
             d="M 0,0 11.196,29.334 22.434,0 Z m 6.188,39.268 -24.009,-60.556 h 9.66 L -3.154,-8.2 h 28.701 l 5.007,-13.088 h 9.62 l -24.01,60.556 z"
             style="fill:#ff6400;fill-opacity:1;fill-rule:nonzero;stroke:none"
             id="path3761"
             inkscape:connector-curvature="0" /></g><g
           id="g3763"
           transform="translate(529.9355,279.6057)"
           style="fill:#ff6400;fill-opacity:1"><path
             d="M 0,0 H 16.126 V -52.12 H 25.43 V 0 H 41.514 V 8.436 H 0 Z"
             style="fill:#ff6400;fill-opacity:1;fill-rule:nonzero;stroke:none"
             id="path3765"
             inkscape:connector-curvature="0" /></g><g
           id="g3767"
           transform="translate(582.1348,227.4855)"
           style="fill:#ff6400;fill-opacity:1"><path
             d="M 0,0 H 34.732 V 8.436 H 9.305 v 17.585 h 22.273 v 8.397 H 9.305 V 52.12 h 25.427 v 8.436 H 0 Z"
             style="fill:#ff6400;fill-opacity:1;fill-rule:nonzero;stroke:none"
             id="path3769"
             inkscape:connector-curvature="0" /></g></g></g></g></svg>
