<?xml version="1.0" encoding="UTF-8" standalone="no"?>
<!-- Created with Inkscape (http://www.inkscape.org/) -->

<svg
   width="44.216866mm"
   height="56.399216mm"
   viewBox="0 0 44.216866 56.399216"
   version="1.1"
   id="svg195"
   xml:space="preserve"
   xmlns:inkscape="http://www.inkscape.org/namespaces/inkscape"
   xmlns:sodipodi="http://sodipodi.sourceforge.net/DTD/sodipodi-0.dtd"
   xmlns="http://www.w3.org/2000/svg"
   xmlns:svg="http://www.w3.org/2000/svg"><sodipodi:namedview
     id="namedview197"
     pagecolor="#ffffff"
     bordercolor="#999999"
     borderopacity="1"
     inkscape:showpageshadow="0"
     inkscape:pageopacity="0"
     inkscape:pagecheckerboard="0"
     inkscape:deskcolor="#d1d1d1"
     inkscape:document-units="mm"
     showgrid="false" /><defs
     id="defs192" /><g
     inkscape:label="Lager 1"
     inkscape:groupmode="layer"
     id="layer1"
     transform="translate(-84.439447,-73.019529)"><path
       style="fill:#000000;stroke-width:0.264583"
       d="m 87.147345,128.99892 c -0.582083,-0.27679 -1.311559,-0.78686 -1.621056,-1.13347 -0.309498,-0.34662 -0.708631,-1.08563 -0.886963,-1.64225 -0.190743,-0.59535 -0.25315,-1.48608 -0.151576,-2.16342 0.09496,-0.63327 0.4374,-1.54425 0.760967,-2.02439 0.323567,-0.48014 0.990031,-1.14371 1.481031,-1.47459 0.639146,-0.43072 1.276179,-0.60149 2.242662,-0.6012 0.756937,2.3e-4 1.754409,0.20362 2.270703,0.46302 0.506422,0.25444 1.191031,0.86717 1.521354,1.36163 0.330322,0.49447 0.600586,1.10629 0.600586,1.35962 0,0.31246 -0.276552,0.50888 -0.859895,0.61071 -0.472943,0.0826 -1.752865,0.22163 -2.844271,0.30902 -1.091406,0.0874 -2.252266,0.21396 -2.579688,0.28125 -0.403336,0.0829 -0.594993,0.31269 -0.594323,0.71261 5.56e-4,0.32465 0.224612,0.95699 0.49793,1.4052 0.273317,0.4482 0.939292,1.02483 1.479942,1.28139 0.672758,0.31924 1.272133,0.41222 1.899107,0.2946 0.503857,-0.0945 1.388397,-0.59855 1.965644,-1.12006 0.577247,-0.52151 1.117525,-0.88021 1.200618,-0.79711 0.08309,0.0831 -0.06638,0.51921 -0.332172,0.96915 -0.265788,0.44994 -0.934385,1.13071 -1.485771,1.51282 -0.633745,0.43919 -1.463062,0.73227 -2.254508,0.79674 -0.857921,0.0699 -1.585101,-0.0564 -2.310321,-0.40127 z m 3.373438,-6.03103 c 0.254661,-0.0737 0.46302,-0.28713 0.46302,-0.47435 0,-0.18723 -0.291971,-0.65545 -0.648824,-1.04051 -0.460675,-0.49707 -0.914208,-0.70009 -1.56398,-0.70009 -0.697101,0 -1.078366,0.19396 -1.600134,0.81405 -0.376738,0.44773 -0.684978,1.05691 -0.684978,1.35374 0,0.5076 0.106181,0.52903 1.785937,0.36039 0.982266,-0.0986 1.994297,-0.23957 2.248959,-0.31323 z m 11.432287,6.03378 c -0.58811,-0.27528 -1.38457,-0.87521 -1.76992,-1.33317 -0.416635,-0.49515 -0.774529,-1.32544 -0.88294,-2.04836 -0.107002,-0.71355 -0.05607,-1.63705 0.123317,-2.23578 0.168093,-0.56104 0.614293,-1.3869 0.991553,-1.83525 0.37726,-0.44835 1.02301,-0.98949 1.43502,-1.20255 0.412,-0.21305 1.29461,-0.38737 1.96135,-0.38737 0.66675,0 1.60517,0.16416 2.08539,0.36481 0.48021,0.20065 1.13382,0.69624 1.45246,1.10132 0.31863,0.40509 0.65058,1.02037 0.73765,1.36731 0.0871,0.34693 0.10809,0.68102 0.0467,0.74241 -0.0614,0.0614 -1.29608,0.24213 -2.74375,0.40164 -1.44767,0.1595 -3.01995,0.34741 -3.49396,0.41757 -0.7832,0.11592 -0.84642,0.19283 -0.69287,0.84281 0.0929,0.39339 0.44375,1.08476 0.77958,1.53638 0.33584,0.45162 0.97307,0.97126 1.41606,1.15475 0.49438,0.20478 1.18308,0.26278 1.78323,0.1502 0.59092,-0.11086 1.3359,-0.54156 1.88295,-1.08861 0.49784,-0.49785 1.01233,-0.90517 1.1433,-0.90517 0.13097,0 0.23812,0.0819 0.23812,0.18206 0,0.10014 -0.25715,0.55736 -0.57145,1.01605 -0.3143,0.45869 -0.97276,1.10896 -1.46324,1.44504 -0.52154,0.35737 -1.41023,0.65328 -2.14053,0.71274 -0.84939,0.0692 -1.59069,-0.0584 -2.31801,-0.39883 z m 3.38438,-6.03378 c 0.25466,-0.0737 0.46302,-0.25414 0.46302,-0.40105 0,-0.14691 -0.34803,-0.61513 -0.7734,-1.0405 -0.5097,-0.5097 -1.04295,-0.7734 -1.56398,-0.7734 -0.55799,0 -0.9921,0.23949 -1.47556,0.81405 -0.37674,0.44773 -0.68498,1.05691 -0.68498,1.35374 0,0.5076 0.10619,0.52903 1.78594,0.36039 0.98227,-0.0986 1.9943,-0.23957 2.24896,-0.31323 z m -9.85573,-0.46685 c 0,-5.88238 0.05209,-6.73856 0.418514,-6.87917 0.230184,-0.0883 0.725259,-0.1606 1.100168,-0.1606 h 0.681652 l -0.173378,4.96094 c -0.09536,2.72852 -0.173714,5.82414 -0.174125,6.87917 l -7.48e-4,1.91823 H 96.407762 95.48172 Z m 15.4224,2.22036 c -1.24181,-2.56049 -2.06075,-4.54828 -1.91177,-4.64035 0.14334,-0.0886 0.62543,-0.0809 1.07131,0.017 0.73206,0.16078 0.9652,0.50277 2.40334,3.52533 l 1.59263,3.34728 1.28669,-2.77813 c 0.70768,-1.52797 1.43898,-3.06623 1.62511,-3.41837 0.18613,-0.35213 0.48724,-0.68948 0.66914,-0.74965 0.1819,-0.0602 0.33073,0.0807 0.33073,0.31311 0,0.23238 -0.11868,0.62925 -0.26373,0.88194 -0.14506,0.25269 -1.02754,2.12631 -1.96107,4.1636 -1.21942,2.66118 -1.83428,3.72012 -2.18366,3.76085 -0.3845,0.0448 -0.94118,-0.88118 -2.65872,-4.4226 z m 8.12552,0.14189 c 0,-4.03617 0.0376,-4.37645 0.51177,-4.63021 0.28147,-0.15064 0.75772,-0.27389 1.05833,-0.27389 0.40483,0 0.54656,0.16946 0.54656,0.65348 v 0.65349 l 0.98102,-0.66574 c 0.76144,-0.51672 1.25001,-0.64819 2.18281,-0.58734 1.15424,0.0753 1.20518,0.11384 1.28737,0.97406 0.0744,0.77891 0.0227,0.86932 -0.39687,0.69358 -0.26535,-0.11114 -0.74814,-0.25976 -1.07288,-0.33026 -0.32473,-0.0705 -0.89331,-0.0521 -1.2635,0.0408 -0.37019,0.0929 -0.90817,0.40403 -1.19551,0.69137 -0.46447,0.46446 -0.52244,0.88941 -0.52244,3.82972 v 3.3073 h -1.05833 -1.05833 z m 7.73281,-0.20775 0.0724,-4.56406 0.8599,-0.0829 0.8599,-0.0829 v 4.64697 4.64698 h -0.93229 -0.93229 z m 0.39629,-7.11318 c -0.2509,-0.14042 -0.45619,-0.4637 -0.45619,-0.7184 0,-0.25471 0.14288,-0.60598 0.3175,-0.7806 0.17463,-0.17463 0.52763,-0.3175 0.78444,-0.3175 0.25682,0 0.57411,0.20835 0.70508,0.46302 0.13098,0.25466 0.18432,0.61321 0.11855,0.79678 -0.0658,0.18357 -0.32066,0.44136 -0.5664,0.57288 -0.2711,0.14509 -0.62618,0.13872 -0.90298,-0.0162 z m -15.66973,-7.64316 c -0.58208,-0.11684 -1.72571,-0.46309 -2.5414,-0.76945 -0.81568,-0.30636 -2.04557,-0.9296 -2.73308,-1.38499 -0.68751,-0.45539 -1.9512,-1.64267 -2.8082,-2.63839 -0.85699,-0.99573 -1.74246,-2.16679 -1.9677,-2.60236 -0.22524,-0.43558 -0.48017,-1.30732 -0.56651,-1.93722 -0.0863,-0.629895 -0.0142,-1.852338 0.16037,-2.716536 0.17454,-0.864201 0.78671,-2.450571 1.36037,-3.525266 0.57367,-1.074698 1.00289,-1.994134 0.95383,-2.043192 -0.0491,-0.04906 -1.09461,0.500073 -2.32344,1.220292 -1.22883,0.720217 -2.509956,1.312233 -2.846945,1.315585 -0.336989,0.0034 -0.848704,-0.120202 -1.137144,-0.274571 -0.288441,-0.154368 -0.633034,-0.566303 -0.765764,-0.915408 -0.171582,-0.451294 -0.101117,-1.039256 0.243818,-2.034433 0.266829,-0.769834 0.848215,-2.054541 1.291967,-2.854906 0.443753,-0.800364 1.500593,-2.407169 2.348538,-3.570677 0.84794,-1.163508 2.98729,-3.555887 4.75411,-5.316398 2.03152,-2.024257 4.19149,-3.863247 5.87582,-5.002646 2.25687,-1.526706 2.84357,-1.80563 3.84376,-1.827352 0.9075,-0.01971 1.33822,0.122642 1.86325,0.615798 0.5319,0.499601 0.68289,0.896833 0.68289,1.796478 0,0.635342 -0.23961,1.624721 -0.53253,2.198905 -0.2929,0.574122 -1.19337,2.05766 -2.00105,3.296751 -0.80768,1.23909 -1.52837,2.252891 -1.60152,2.252891 -0.0732,0 -0.36332,-0.123251 -0.64479,-0.273892 -0.28148,-0.150641 -0.51177,-0.481876 -0.51177,-0.736078 0,-0.254203 0.63486,-1.351342 1.4108,-2.438087 0.77595,-1.086746 1.60938,-2.484326 1.85209,-3.105734 0.2427,-0.621409 0.44127,-1.42508 0.44127,-1.785938 0,-0.360857 -0.0444,-0.656104 -0.0987,-0.656104 -0.0543,0 -0.63996,0.239447 -1.30156,0.532104 -0.6616,0.292657 -2.31385,1.499907 -3.67166,2.682777 -1.35781,1.182871 -3.45976,3.116315 -4.67101,4.296543 -1.21124,1.180227 -2.90342,3.110714 -3.76039,4.289971 -0.85697,1.179257 -2.04799,3.052289 -2.646722,4.162293 -0.598729,1.110004 -1.049677,2.206902 -1.002109,2.437552 0.06616,0.320775 0.761494,-0.018 2.957761,-1.441054 1.5792,-1.023228 3.11143,-1.93664 3.40496,-2.029804 0.29354,-0.09316 0.81519,-0.01873 1.15924,0.165395 0.34406,0.18413 0.69337,0.54845 0.77625,0.809599 0.0924,0.290951 -0.30956,1.273491 -1.03788,2.537324 -0.65371,1.134379 -1.57235,2.883556 -2.0414,3.887057 -0.70074,1.499171 -0.85546,2.159743 -0.8676,3.704171 -0.0113,1.43402 0.12701,2.17143 0.58328,3.11056 0.32892,0.67703 1.17255,1.76834 1.87472,2.42514 0.70218,0.6568 1.86554,1.49258 2.58526,1.85729 0.71971,0.36471 2.01544,0.7821 2.8794,0.92754 0.86396,0.14545 2.4638,0.34345 3.55521,0.44002 1.0914,0.0966 2.1332,0.29908 2.3151,0.45003 0.1819,0.15095 0.33073,0.37894 0.33073,0.50664 0,0.1277 -0.98227,0.21914 -2.18281,0.2032 -1.20055,-0.016 -2.65907,-0.12459 -3.24115,-0.24142 z"
       id="path423" /></g></svg>
