<?xml version="1.0" encoding="UTF-8" standalone="no"?>
<svg
   xmlns:dc="http://purl.org/dc/elements/1.1/"
   xmlns:cc="http://creativecommons.org/ns#"
   xmlns:rdf="http://www.w3.org/1999/02/22-rdf-syntax-ns#"
   xmlns:svg="http://www.w3.org/2000/svg"
   xmlns="http://www.w3.org/2000/svg"
   viewBox="0 0 151.38667 109.32"
   height="109.32"
   width="151.38667"
   xml:space="preserve"
   id="svg2"
   version="1.1"><metadata
     id="metadata8"><rdf:RDF><cc:Work
         rdf:about=""><dc:format>image/svg+xml</dc:format><dc:type
           rdf:resource="http://purl.org/dc/dcmitype/StillImage" /></cc:Work></rdf:RDF></metadata><defs
     id="defs6" /><g
     transform="matrix(1.3333333,0,0,-1.3333333,0,109.32)"
     id="g10"><g
       transform="scale(0.1)"
       id="g12"><path
         id="path14"
         style="fill:#346cbe;fill-opacity:1;fill-rule:evenodd;stroke:none"
         d="M 369.242,245.953 H 470.68 v 140.883 h 117.465 v 73.262 H 470.68 v 67.621 h 151.062 v 73.258 h -252.5 V 245.953" /><path
         id="path16"
         style="fill:#346cbe;fill-opacity:1;fill-rule:evenodd;stroke:none"
         d="m 980.418,422.563 c 0,113.164 -63.895,184.093 -169.551,184.093 -105.664,0 -169.531,-70.929 -169.531,-184.093 0,-113.184 63.867,-184.09 169.531,-184.09 105.656,0 169.551,70.906 169.551,184.09 z M 810.867,536.207 c 39.449,0 62.461,-23.48 62.461,-113.644 0,-95.336 -28.183,-113.645 -62.461,-113.645 -34.754,0 -62.453,18.309 -62.453,113.645 0,85.933 21.594,113.644 62.453,113.644" /><path
         id="path18"
         style="fill:#346cbe;fill-opacity:1;fill-rule:evenodd;stroke:none"
         d="m 1033.94,245.043 h 101.43 V 600.074 H 1033.94 V 245.043" /><path
         id="path20"
         style="fill:#fbe11e;fill-opacity:1;fill-rule:evenodd;stroke:none"
         d="m 142.426,54.3711 h -20.02 l -6.562,123.7499 v 602.586 l 26.582,37.82 26.57,-37.82 V 178.121 L 162.445,54.3711 h -20.019" /><path
         id="path22"
         style="fill:none;stroke:#121212;stroke-width:1.57718003;stroke-linecap:butt;stroke-linejoin:miter;stroke-miterlimit:3.86369991;stroke-dasharray:none;stroke-opacity:1"
         d="m 142.426,54.3711 h -20.02 l -6.562,123.7499 v 602.586 l 26.582,37.82 26.57,-37.82 V 178.121 L 162.445,54.3711 Z" /><path
         id="path24"
         style="fill:#fbe11e;fill-opacity:1;fill-rule:evenodd;stroke:none"
         d="m 122.523,54.2148 -5.574,-9.9023 6.121,-27.7266 H 162 l 6.113,27.7266 -5.55,9.9023 h -40.04" /><path
         id="path26"
         style="fill:none;stroke:#121212;stroke-width:1.57718003;stroke-linecap:butt;stroke-linejoin:miter;stroke-miterlimit:3.86369991;stroke-dasharray:none;stroke-opacity:1"
         d="m 122.523,54.2148 -5.574,-9.9023 6.121,-27.7266 H 162 l 6.113,27.7266 -5.55,9.9023 z" /><path
         id="path28"
         style="fill:#fbe11e;fill-opacity:1;fill-rule:evenodd;stroke:none"
         d="m 115.688,213.871 -89.5474,11.348 v -31.524 l 89.5474,-15.574 h 53.14 l 89.539,15.574 v 31.524 l -89.539,-11.348 h -53.14" /><path
         id="path30"
         style="fill:none;stroke:#121212;stroke-width:1.57718003;stroke-linecap:butt;stroke-linejoin:miter;stroke-miterlimit:3.86369991;stroke-dasharray:none;stroke-opacity:1"
         d="m 115.688,213.871 -89.5474,11.348 v -31.524 l 89.5474,-15.574 h 53.14 l 89.539,15.574 v 31.524 l -89.539,-11.348 z" /><path
         id="path32"
         style="fill:none;stroke:#121212;stroke-width:1.57718003;stroke-linecap:butt;stroke-linejoin:miter;stroke-miterlimit:3.86369991;stroke-dasharray:none;stroke-opacity:1"
         d="m 116.395,164.887 22.121,13.234" /><path
         id="path34"
         style="fill:none;stroke:#121212;stroke-width:1.57718003;stroke-linecap:butt;stroke-linejoin:miter;stroke-miterlimit:3.86369991;stroke-dasharray:none;stroke-opacity:1"
         d="m 117.734,140.434 50.524,29.863" /><path
         id="path36"
         style="fill:none;stroke:#121212;stroke-width:1.57718003;stroke-linecap:butt;stroke-linejoin:miter;stroke-miterlimit:3.86369991;stroke-dasharray:none;stroke-opacity:1"
         d="m 118.809,115.863 48.367,28.957" /><path
         id="path38"
         style="fill:none;stroke:#121212;stroke-width:1.57718003;stroke-linecap:butt;stroke-linejoin:miter;stroke-miterlimit:3.86369991;stroke-dasharray:none;stroke-opacity:1"
         d="M 120.711,91.6172 165.477,118.16" /><path
         id="path40"
         style="fill:none;stroke:#121212;stroke-width:1.57718003;stroke-linecap:butt;stroke-linejoin:miter;stroke-miterlimit:3.86369991;stroke-dasharray:none;stroke-opacity:1"
         d="m 121.824,67.543 42.332,24.3086" /><path
         id="path42"
         style="fill:none;stroke:#121212;stroke-width:1.57718003;stroke-linecap:butt;stroke-linejoin:miter;stroke-miterlimit:3.86369991;stroke-dasharray:none;stroke-opacity:1"
         d="m 142.059,54.2227 20.957,12.1679" /><path
         id="path44"
         style="fill:none;stroke:#121212;stroke-width:1.41531003;stroke-linecap:butt;stroke-linejoin:miter;stroke-miterlimit:3.86369991;stroke-dasharray:none;stroke-opacity:1"
         d="M 142.438,239.008 V 818.043" /><path
         id="path46"
         style="fill:none;stroke:#121212;stroke-width:1.57718003;stroke-linecap:butt;stroke-linejoin:miter;stroke-miterlimit:3.86369991;stroke-dasharray:none;stroke-opacity:1"
         d="m 115.906,213.871 26.633,25.137 26.488,-25.137" /><path
         id="path48"
         style="fill:none;stroke:#121212;stroke-width:1.57718003;stroke-linecap:butt;stroke-linejoin:miter;stroke-miterlimit:3.86369991;stroke-dasharray:none;stroke-opacity:1"
         d="m 115.688,213.871 0.156,-35.75" /><path
         id="path50"
         style="fill:none;stroke:#121212;stroke-width:1.57718003;stroke-linecap:butt;stroke-linejoin:miter;stroke-miterlimit:3.86369991;stroke-dasharray:none;stroke-opacity:1"
         d="m 168.828,213.871 0.168,-35.75" /><path
         id="path52"
         style="fill:#346cbe;fill-opacity:1;fill-rule:evenodd;stroke:none"
         d="m 142.438,246.195 c -2.684,7.61 -24.915,8.625 -56.7271,14.219 C 44.418,267.711 16.5,275.648 16.5,314.73 l 0.0078,224.083 H 269.215 V 314.73 c 0,-39.082 -27.899,-47.019 -69.215,-54.316 -31.812,-5.594 -54.867,-6.609 -57.562,-14.219" /><path
         id="path54"
         style="fill:none;stroke:#121212;stroke-width:1.57816005;stroke-linecap:butt;stroke-linejoin:miter;stroke-miterlimit:3.86369991;stroke-dasharray:none;stroke-opacity:1"
         d="m 142.438,246.195 c -2.684,7.61 -24.915,8.625 -56.7271,14.219 C 44.418,267.711 16.5,275.648 16.5,314.73 l 0.0078,224.083 H 269.215 V 314.73 c 0,-39.082 -27.899,-47.019 -69.215,-54.316 -31.812,-5.594 -54.867,-6.609 -57.562,-14.219 z" /><path
         id="path56"
         style="fill:#e2283a;fill-opacity:1;fill-rule:evenodd;stroke:none"
         d="m 16.918,609.098 c 0,0 9.2695,11.422 15.2343,25.418 4.6602,10.937 48.1055,35.422 110.4887,35.422 62.406,0 105.175,-26.176 110.504,-35.422 7.937,-13.739 3.652,-11.555 11.64,-24.844 l 3.129,-14.176 -8.637,-13.058 c 0,0 -230.1715,0 -229.5075,0 0.6758,0 -11.7382,7.304 -11.7382,7.304 l -1.1133,19.356" /><path
         id="path58"
         style="fill:none;stroke:#121212;stroke-width:1.57718003;stroke-linecap:butt;stroke-linejoin:miter;stroke-miterlimit:3.86369991;stroke-dasharray:none;stroke-opacity:1"
         d="m 16.918,609.098 c 0,0 9.2695,11.422 15.2343,25.418 4.6602,10.937 48.1055,35.422 110.4887,35.422 62.406,0 105.175,-26.176 110.504,-35.422 7.937,-13.739 3.652,-11.555 11.64,-24.844 l 3.129,-14.176 -8.637,-13.058 c 0,0 -230.1715,0 -229.5075,0 0.6758,0 -11.7382,7.304 -11.7382,7.304 z" /><path
         id="path60"
         style="fill:#346cbe;fill-opacity:1;fill-rule:nonzero;stroke:none"
         d="m 125.473,721.77 c 0,9.421 7.636,17.058 17.062,17.058 9.418,0 17.051,-7.637 17.051,-17.058 0,-9.422 -7.633,-17.059 -17.051,-17.059 -9.426,0 -17.062,7.637 -17.062,17.059" /><path
         id="path62"
         style="fill:none;stroke:#121212;stroke-width:1.57718003;stroke-linecap:butt;stroke-linejoin:miter;stroke-miterlimit:3.86369991;stroke-dasharray:none;stroke-opacity:1"
         d="m 125.473,721.77 c 0,9.421 7.636,17.058 17.062,17.058 9.418,0 17.051,-7.637 17.051,-17.058 0,-9.422 -7.633,-17.059 -17.051,-17.059 -9.426,0 -17.062,7.637 -17.062,17.059 z" /><path
         id="path64"
         style="fill:#fbe11e;fill-opacity:1;fill-rule:evenodd;stroke:none"
         d="m 139.125,737.949 v 8.821 c 0,0 -3.852,0 -4.98,0 -1.098,0 -2.211,-1.114 -2.211,-1.114 l -0.09,8.594 c 0,0 1.203,-1.109 2.301,-1.109 1.128,0 4.796,0.047 4.796,0.047 0,0 0,4.246 0,5.363 0,1.101 -1.109,2.207 -1.109,2.207 h 9.141 c 0,0 -1.02,-1.27 -1.02,-2.383 0,-1.105 -0.019,-5.187 -0.019,-5.187 0,0 3.675,-0.047 4.793,-0.047 1.109,0 2.304,1.109 2.304,1.109 l -0.086,-8.594 c 0,0 -1.109,1.114 -2.218,1.114 -1.118,0 -4.793,0 -4.793,0 l -0.012,-8.821 c 0,0 -2.227,0.215 -3.348,0.215 -1.109,0 -3.449,-0.215 -3.449,-0.215" /><path
         id="path66"
         style="fill:none;stroke:#121212;stroke-width:1.57718003;stroke-linecap:butt;stroke-linejoin:miter;stroke-miterlimit:3.86369991;stroke-dasharray:none;stroke-opacity:1"
         d="m 139.125,737.949 v 8.821 c 0,0 -3.852,0 -4.98,0 -1.098,0 -2.211,-1.114 -2.211,-1.114 l -0.09,8.594 c 0,0 1.203,-1.109 2.301,-1.109 1.128,0 4.796,0.047 4.796,0.047 0,0 0,4.246 0,5.363 0,1.101 -1.109,2.207 -1.109,2.207 h 9.141 c 0,0 -1.02,-1.27 -1.02,-2.383 0,-1.105 -0.019,-5.187 -0.019,-5.187 0,0 3.675,-0.047 4.793,-0.047 1.109,0 2.304,1.109 2.304,1.109 l -0.086,-8.594 c 0,0 -1.109,1.114 -2.218,1.114 -1.118,0 -4.793,0 -4.793,0 l -0.012,-8.821 c 0,0 -2.227,0.215 -3.348,0.215 -1.109,0 -3.449,-0.215 -3.449,-0.215 z" /><path
         id="path68"
         style="fill:#fbe11e;fill-opacity:1;fill-rule:evenodd;stroke:none"
         d="m 142.574,738.926 c 1.106,0 3.367,-0.395 3.367,-0.395 v -14.32 h 13.383 c 0,0 0.403,-1.641 0.403,-3.41 0,-1.774 -1.02,-3.02 -0.571,-3.02 0.438,0 -16.457,0 -16.457,0 0,0 -17.23,0 -16.781,0 0.426,0 -0.391,1.246 -0.391,3.02 0,1.769 0.184,3.41 0.184,3.41 h 13.379 v 14.316 c 0,0 2.355,0.399 3.484,0.399" /><path
         id="path70"
         style="fill:none;stroke:#121212;stroke-width:1.57718003;stroke-linecap:butt;stroke-linejoin:miter;stroke-miterlimit:3.86369991;stroke-dasharray:none;stroke-opacity:1"
         d="m 142.574,738.926 c 1.106,0 3.367,-0.395 3.367,-0.395 v -14.32 h 13.383 c 0,0 0.403,-1.641 0.403,-3.41 0,-1.774 -1.02,-3.02 -0.571,-3.02 0.438,0 -16.457,0 -16.457,0 0,0 -17.23,0 -16.781,0 0.426,0 -0.391,1.246 -0.391,3.02 0,1.769 0.184,3.41 0.184,3.41 h 13.379 v 14.316 c 0,0 2.355,0.399 3.484,0.399 z" /><path
         id="path72"
         style="fill:#fbe11e;fill-opacity:1;fill-rule:evenodd;stroke:none"
         d="m 22.0547,615.953 c 11.1172,32.266 35.7422,58.715 67.418,72.899 l 3.875,-1.633 C 61.5508,673.32 36.6875,647.09 25.2969,614.918 l -3.2422,1.035" /><path
         id="path74"
         style="fill:none;stroke:#121212;stroke-width:1.57718003;stroke-linecap:butt;stroke-linejoin:miter;stroke-miterlimit:3.86369991;stroke-dasharray:none;stroke-opacity:1"
         d="m 22.0547,615.953 c 11.1172,32.266 35.7422,58.715 67.418,72.899 l 3.875,-1.633 C 61.5508,673.32 36.6875,647.09 25.2969,614.918 Z" /><path
         id="path76"
         style="fill:#fbe11e;fill-opacity:1;fill-rule:evenodd;stroke:none"
         d="m 142.535,700.727 c -27.148,0 -49.0702,-24.204 -49.0702,-54.055 0,-3.797 -0.4492,-7.75 -0.6679,-10.848 l -6.4141,-5.105 1.5469,-3.098 8.6562,7.098 c 0.0508,3.324 0.4024,7.472 0.4024,11.73 0,27.899 20.4887,51.047 45.4377,51.047 l 0.109,3.231" /><path
         id="path78"
         style="fill:none;stroke:#121212;stroke-width:1.57718003;stroke-linecap:butt;stroke-linejoin:miter;stroke-miterlimit:3.86369991;stroke-dasharray:none;stroke-opacity:1"
         d="m 142.535,700.727 c -27.148,0 -49.0702,-24.204 -49.0702,-54.055 0,-3.797 -0.4492,-7.75 -0.6679,-10.848 l -6.4141,-5.105 1.5469,-3.098 8.6562,7.098 c 0.0508,3.324 0.4024,7.472 0.4024,11.73 0,27.899 20.4887,51.047 45.4377,51.047 z" /><path
         id="path80"
         style="fill:#fbe11e;fill-opacity:1;fill-rule:evenodd;stroke:none"
         d="M 142.535,700.727 C 115.43,700.66 93.5781,676.484 93.5781,646.672 c 0,-3.797 -0.4531,-7.75 -0.6718,-10.848 L 74.9609,621.871 63.2422,634.273 c 0.957,37.196 36.0781,66.454 79.2928,66.454" /><path
         id="path82"
         style="fill:none;stroke:#121212;stroke-width:1.57718003;stroke-linecap:butt;stroke-linejoin:miter;stroke-miterlimit:3.86369991;stroke-dasharray:none;stroke-opacity:1"
         d="M 142.535,700.727 C 115.43,700.66 93.5781,676.484 93.5781,646.672 c 0,-3.797 -0.4531,-7.75 -0.6718,-10.848 L 74.9609,621.871 63.2422,634.273 c 0.957,37.196 36.0781,66.454 79.2928,66.454 z" /><path
         id="path84"
         style="fill:#fbe11e;fill-opacity:1;fill-rule:evenodd;stroke:none"
         d="m 142.535,616.988 -16.844,13.289 0.227,4.442 16.617,-13.078 v -4.653" /><path
         id="path86"
         style="fill:none;stroke:#121212;stroke-width:1.57718003;stroke-linecap:butt;stroke-linejoin:miter;stroke-miterlimit:3.86369991;stroke-dasharray:none;stroke-opacity:1"
         d="m 142.535,616.988 -16.844,13.289 0.227,4.442 16.617,-13.078 z" /><path
         id="path88"
         style="fill:#fbe11e;fill-opacity:1;fill-rule:evenodd;stroke:none"
         d="m 262.992,615.953 c -11.113,32.266 -35.738,58.715 -67.41,72.899 l -3.859,-1.633 c 31.793,-13.899 56.64,-40.129 68.05,-72.301 l 3.219,1.035" /><path
         id="path90"
         style="fill:none;stroke:#121212;stroke-width:1.57718003;stroke-linecap:butt;stroke-linejoin:miter;stroke-miterlimit:3.86369991;stroke-dasharray:none;stroke-opacity:1"
         d="m 262.992,615.953 c -11.113,32.266 -35.738,58.715 -67.41,72.899 l -3.859,-1.633 c 31.793,-13.899 56.64,-40.129 68.05,-72.301 z" /><path
         id="path92"
         style="fill:#fbe11e;fill-opacity:1;fill-rule:evenodd;stroke:none"
         d="m 142.535,700.727 c 27.141,0 49.063,-24.204 49.063,-54.055 0,-3.797 0.441,-7.75 0.656,-10.848 l 6.437,-5.105 -1.546,-3.098 -8.665,7.098 c -0.046,3.324 -0.406,7.472 -0.406,11.73 0,27.899 -20.492,51.047 -45.433,51.047 l -0.106,3.231" /><path
         id="path94"
         style="fill:none;stroke:#121212;stroke-width:1.57718003;stroke-linecap:butt;stroke-linejoin:miter;stroke-miterlimit:3.86369991;stroke-dasharray:none;stroke-opacity:1"
         d="m 142.535,700.727 c 27.141,0 49.063,-24.204 49.063,-54.055 0,-3.797 0.441,-7.75 0.656,-10.848 l 6.437,-5.105 -1.546,-3.098 -8.665,7.098 c -0.046,3.324 -0.406,7.472 -0.406,11.73 0,27.899 -20.492,51.047 -45.433,51.047 z" /><path
         id="path96"
         style="fill:#fbe11e;fill-opacity:1;fill-rule:evenodd;stroke:none"
         d="m 142.535,700.727 c 27.094,-0.067 48.953,-24.243 48.953,-54.055 0,-3.797 0.446,-7.75 0.664,-10.848 l 17.946,-13.953 11.715,12.402 c -0.946,37.196 -36.075,66.454 -79.278,66.454" /><path
         id="path98"
         style="fill:none;stroke:#121212;stroke-width:1.57718003;stroke-linecap:butt;stroke-linejoin:miter;stroke-miterlimit:3.86369991;stroke-dasharray:none;stroke-opacity:1"
         d="m 142.535,700.727 c 27.094,-0.067 48.953,-24.243 48.953,-54.055 0,-3.797 0.446,-7.75 0.664,-10.848 l 17.946,-13.953 11.715,12.402 c -0.946,37.196 -36.075,66.454 -79.278,66.454 z" /><path
         id="path100"
         style="fill:#fbe11e;fill-opacity:1;fill-rule:evenodd;stroke:none"
         d="m 142.535,616.988 16.836,13.289 -0.226,4.442 -16.61,-13.078 v -4.653" /><path
         id="path102"
         style="fill:none;stroke:#121212;stroke-width:1.57718003;stroke-linecap:butt;stroke-linejoin:miter;stroke-miterlimit:3.86369991;stroke-dasharray:none;stroke-opacity:1"
         d="m 142.535,616.988 16.836,13.289 -0.226,4.442 -16.61,-13.078 z" /><path
         id="path104"
         style="fill:#fbe11e;fill-opacity:1;fill-rule:evenodd;stroke:none"
         d="m 142.535,706.934 h -8.863 l -7.754,-72.215 16.617,-13.078 16.61,13.078 -7.754,72.215 h -8.856" /><path
         id="path106"
         style="fill:none;stroke:#121212;stroke-width:1.57718003;stroke-linecap:butt;stroke-linejoin:miter;stroke-miterlimit:3.86369991;stroke-dasharray:none;stroke-opacity:1"
         d="m 142.535,706.934 h -8.863 l -7.754,-72.215 16.617,-13.078 16.61,13.078 -7.754,72.215 z" /><path
         id="path108"
         style="fill:#fbe11e;fill-opacity:1;fill-rule:evenodd;stroke:none"
         d="m 260.488,578.438 c 2.332,0 3.887,-1.727 3.887,-3.883 0,-2.133 -1.742,-3.871 -3.887,-3.871 -2.14,0 -236.2419,0 -236.2419,0 -2.1289,0 -3.8594,1.738 -3.8594,3.871 0,2.156 1.7305,3.883 3.8594,3.883 2.1602,0 236.2419,0 236.2419,0" /><path
         id="path110"
         style="fill:none;stroke:#121212;stroke-width:1.57718003;stroke-linecap:butt;stroke-linejoin:miter;stroke-miterlimit:3.86369991;stroke-dasharray:none;stroke-opacity:1"
         d="m 260.488,578.438 c 2.332,0 3.887,-1.727 3.887,-3.883 0,-2.133 -1.742,-3.871 -3.887,-3.871 -2.14,0 -236.2419,0 -236.2419,0 -2.1289,0 -3.8594,1.738 -3.8594,3.871 0,2.156 1.7305,3.883 3.8594,3.883 2.1602,0 236.2419,0 236.2419,0 z" /><path
         id="path112"
         style="fill:#fbe11e;fill-opacity:1;fill-rule:evenodd;stroke:none"
         d="M 24.8984,570.684 H 259.496 V 547.598 H 24.8984 v 23.086" /><path
         id="path114"
         style="fill:none;stroke:#121212;stroke-width:1.57718003;stroke-linecap:butt;stroke-linejoin:miter;stroke-miterlimit:3.86369991;stroke-dasharray:none;stroke-opacity:1"
         d="M 24.8984,570.684 H 259.496 V 547.598 H 24.8984 Z" /><path
         id="path116"
         style="fill:#fbe11e;fill-opacity:1;fill-rule:evenodd;stroke:none"
         d="m 142.535,570.195 19.485,-11.086 -19.485,-10.847 -19.504,10.847 19.504,11.086" /><path
         id="path118"
         style="fill:none;stroke:#121212;stroke-width:1.57718003;stroke-linecap:butt;stroke-linejoin:miter;stroke-miterlimit:3.86369991;stroke-dasharray:none;stroke-opacity:1"
         d="m 142.535,570.195 19.485,-11.086 -19.485,-10.847 -19.504,10.847 z" /><path
         id="path120"
         style="fill:#e2283a;fill-opacity:1;fill-rule:evenodd;stroke:none"
         d="m 154.715,559.109 -12.176,7.118 -12.637,-7.118 12.664,-7.078 12.149,7.078" /><path
         id="path122"
         style="fill:none;stroke:#121212;stroke-width:1.57718003;stroke-linecap:butt;stroke-linejoin:miter;stroke-miterlimit:3.86369991;stroke-dasharray:none;stroke-opacity:1"
         d="m 154.715,559.109 -12.176,7.118 -12.637,-7.118 12.664,-7.078 z" /><path
         id="path124"
         style="fill:#fbe11e;fill-opacity:1;fill-rule:evenodd;stroke:none"
         d="m 25.332,570.195 19.5118,-11.086 -19.5118,-10.847 -8.625,10.847 8.625,11.086" /><path
         id="path126"
         style="fill:none;stroke:#121212;stroke-width:1.57718003;stroke-linecap:butt;stroke-linejoin:miter;stroke-miterlimit:3.86369991;stroke-dasharray:none;stroke-opacity:1"
         d="M 25.332,570.195 44.8438,559.109 25.332,548.262 16.707,559.109 Z" /><path
         id="path128"
         style="fill:#e2283a;fill-opacity:1;fill-rule:evenodd;stroke:none"
         d="m 37.9648,559.164 -15.0976,7.707 -6.125,-7.707 6.2031,-8.07 15.0195,8.07" /><path
         id="path130"
         style="fill:none;stroke:#121212;stroke-width:1.57718003;stroke-linecap:butt;stroke-linejoin:miter;stroke-miterlimit:3.86369991;stroke-dasharray:none;stroke-opacity:1"
         d="m 37.9648,559.164 -15.0976,7.707 -6.125,-7.707 6.2031,-8.07 z" /><path
         id="path132"
         style="fill:#fbe11e;fill-opacity:1;fill-rule:evenodd;stroke:none"
         d="m 259.727,570.195 -19.512,-11.086 19.512,-10.847 8.628,10.847 -8.628,11.086" /><path
         id="path134"
         style="fill:none;stroke:#121212;stroke-width:1.57718003;stroke-linecap:butt;stroke-linejoin:miter;stroke-miterlimit:3.86369991;stroke-dasharray:none;stroke-opacity:1"
         d="m 259.727,570.195 -19.512,-11.086 19.512,-10.847 8.628,10.847 z" /><path
         id="path136"
         style="fill:#e2283a;fill-opacity:1;fill-rule:evenodd;stroke:none"
         d="m 247.32,559.109 15.106,7.711 5.929,-7.711 -6.367,-7.875 -14.668,7.875" /><path
         id="path138"
         style="fill:none;stroke:#121212;stroke-width:1.57718003;stroke-linecap:butt;stroke-linejoin:miter;stroke-miterlimit:3.86369991;stroke-dasharray:none;stroke-opacity:1"
         d="m 247.32,559.109 15.106,7.711 5.929,-7.711 -6.367,-7.875 z" /><path
         id="path140"
         style="fill:#fbe11e;fill-opacity:1;fill-rule:evenodd;stroke:none"
         d="m 188.613,550.699 c -4.644,0 -8.429,3.77 -8.429,8.41 0,4.661 3.785,8.426 8.429,8.426 h 24.985 c 4.64,0 8.414,-3.765 8.414,-8.426 0,-4.64 -3.774,-8.41 -8.414,-8.41 -4.649,0 -20.336,0 -24.985,0" /><path
         id="path142"
         style="fill:none;stroke:#121212;stroke-width:1.57718003;stroke-linecap:butt;stroke-linejoin:miter;stroke-miterlimit:3.86369991;stroke-dasharray:none;stroke-opacity:1"
         d="m 188.613,550.699 c -4.644,0 -8.429,3.77 -8.429,8.41 0,4.661 3.785,8.426 8.429,8.426 h 24.985 c 4.64,0 8.414,-3.765 8.414,-8.426 0,-4.64 -3.774,-8.41 -8.414,-8.41 -4.649,0 -20.336,0 -24.985,0 z" /><path
         id="path144"
         style="fill:#ffffff;fill-opacity:1;fill-rule:nonzero;stroke:none"
         d="m 226.98,564.258 c 0,2.324 1.883,4.215 4.208,4.215 2.328,0 4.21,-1.891 4.21,-4.215 0,-2.313 -1.882,-4.207 -4.21,-4.207 -2.325,0 -4.208,1.894 -4.208,4.207" /><path
         id="path146"
         style="fill:none;stroke:#121212;stroke-width:1.57718003;stroke-linecap:butt;stroke-linejoin:miter;stroke-miterlimit:3.86369991;stroke-dasharray:none;stroke-opacity:1"
         d="m 226.98,564.258 c 0,2.324 1.883,4.215 4.208,4.215 2.328,0 4.21,-1.891 4.21,-4.215 0,-2.313 -1.882,-4.207 -4.21,-4.207 -2.325,0 -4.208,1.894 -4.208,4.207 z" /><path
         id="path148"
         style="fill:#ffffff;fill-opacity:1;fill-rule:nonzero;stroke:none"
         d="m 226.941,553.852 c 0,2.316 1.875,4.199 4.196,4.199 2.328,0 4.218,-1.883 4.218,-4.199 0,-2.325 -1.89,-4.219 -4.218,-4.219 -2.321,0 -4.196,1.894 -4.196,4.219" /><path
         id="path150"
         style="fill:none;stroke:#121212;stroke-width:1.57718003;stroke-linecap:butt;stroke-linejoin:miter;stroke-miterlimit:3.86369991;stroke-dasharray:none;stroke-opacity:1"
         d="m 226.941,553.852 c 0,2.316 1.875,4.199 4.196,4.199 2.328,0 4.218,-1.883 4.218,-4.199 0,-2.325 -1.89,-4.219 -4.218,-4.219 -2.321,0 -4.196,1.894 -4.196,4.219 z" /><path
         id="path152"
         style="fill:#ffffff;fill-opacity:1;fill-rule:nonzero;stroke:none"
         d="m 166.641,564.258 c 0,2.324 1.879,4.215 4.214,4.215 2.313,0 4.2,-1.891 4.2,-4.215 0,-2.313 -1.887,-4.207 -4.2,-4.207 -2.335,0 -4.214,1.894 -4.214,4.207" /><path
         id="path154"
         style="fill:none;stroke:#121212;stroke-width:1.57718003;stroke-linecap:butt;stroke-linejoin:miter;stroke-miterlimit:3.86369991;stroke-dasharray:none;stroke-opacity:1"
         d="m 166.641,564.258 c 0,2.324 1.879,4.215 4.214,4.215 2.313,0 4.2,-1.891 4.2,-4.215 0,-2.313 -1.887,-4.207 -4.2,-4.207 -2.335,0 -4.214,1.894 -4.214,4.207 z" /><path
         id="path156"
         style="fill:#ffffff;fill-opacity:1;fill-rule:nonzero;stroke:none"
         d="m 166.895,553.852 c 0,2.316 1.89,4.199 4.218,4.199 2.321,0 4.203,-1.883 4.203,-4.199 0,-2.325 -1.882,-4.219 -4.203,-4.219 -2.328,0 -4.218,1.894 -4.218,4.219" /><path
         id="path158"
         style="fill:none;stroke:#121212;stroke-width:1.57718003;stroke-linecap:butt;stroke-linejoin:miter;stroke-miterlimit:3.86369991;stroke-dasharray:none;stroke-opacity:1"
         d="m 166.895,553.852 c 0,2.316 1.89,4.199 4.218,4.199 2.321,0 4.203,-1.883 4.203,-4.199 0,-2.325 -1.882,-4.219 -4.203,-4.219 -2.328,0 -4.218,1.894 -4.218,4.219 z" /><path
         id="path160"
         style="fill:#fbe11e;fill-opacity:1;fill-rule:evenodd;stroke:none"
         d="m 96.4531,550.699 c 4.6489,0 8.4139,3.77 8.4139,8.41 0,4.661 -3.765,8.426 -8.4139,8.426 H 71.4648 c -4.6484,0 -8.4179,-3.765 -8.4179,-8.426 0,-4.64 3.7695,-8.41 8.4179,-8.41 4.6485,0 20.3477,0 24.9883,0" /><path
         id="path162"
         style="fill:none;stroke:#121212;stroke-width:1.57718003;stroke-linecap:butt;stroke-linejoin:miter;stroke-miterlimit:3.86369991;stroke-dasharray:none;stroke-opacity:1"
         d="m 96.4531,550.699 c 4.6489,0 8.4139,3.77 8.4139,8.41 0,4.661 -3.765,8.426 -8.4139,8.426 H 71.4648 c -4.6484,0 -8.4179,-3.765 -8.4179,-8.426 0,-4.64 3.7695,-8.41 8.4179,-8.41 4.6485,0 20.3477,0 24.9883,0 z" /><path
         id="path164"
         style="fill:#ffffff;fill-opacity:1;fill-rule:nonzero;stroke:none"
         d="m 49.668,564.258 c 0,2.324 1.8828,4.215 4.2148,4.215 2.3242,0 4.2031,-1.891 4.2031,-4.215 0,-2.313 -1.8789,-4.207 -4.2031,-4.207 -2.332,0 -4.2148,1.894 -4.2148,4.207" /><path
         id="path166"
         style="fill:none;stroke:#121212;stroke-width:1.57718003;stroke-linecap:butt;stroke-linejoin:miter;stroke-miterlimit:3.86369991;stroke-dasharray:none;stroke-opacity:1"
         d="m 49.668,564.258 c 0,2.324 1.8828,4.215 4.2148,4.215 2.3242,0 4.2031,-1.891 4.2031,-4.215 0,-2.313 -1.8789,-4.207 -4.2031,-4.207 -2.332,0 -4.2148,1.894 -4.2148,4.207 z" /><path
         id="path168"
         style="fill:#ffffff;fill-opacity:1;fill-rule:nonzero;stroke:none"
         d="m 49.7148,553.852 c 0,2.316 1.875,4.199 4.1993,4.199 2.3203,0 4.2187,-1.883 4.2187,-4.199 0,-2.325 -1.8984,-4.219 -4.2187,-4.219 -2.3243,0 -4.1993,1.894 -4.1993,4.219" /><path
         id="path170"
         style="fill:none;stroke:#121212;stroke-width:1.57718003;stroke-linecap:butt;stroke-linejoin:miter;stroke-miterlimit:3.86369991;stroke-dasharray:none;stroke-opacity:1"
         d="m 49.7148,553.852 c 0,2.316 1.875,4.199 4.1993,4.199 2.3203,0 4.2187,-1.883 4.2187,-4.199 0,-2.325 -1.8984,-4.219 -4.2187,-4.219 -2.3243,0 -4.1993,1.894 -4.1993,4.219 z" /><path
         id="path172"
         style="fill:#ffffff;fill-opacity:1;fill-rule:nonzero;stroke:none"
         d="m 110.008,564.258 c 0,2.324 1.883,4.215 4.215,4.215 2.324,0 4.211,-1.891 4.211,-4.215 0,-2.313 -1.887,-4.207 -4.211,-4.207 -2.332,0 -4.215,1.894 -4.215,4.207" /><path
         id="path174"
         style="fill:none;stroke:#121212;stroke-width:1.57718003;stroke-linecap:butt;stroke-linejoin:miter;stroke-miterlimit:3.86369991;stroke-dasharray:none;stroke-opacity:1"
         d="m 110.008,564.258 c 0,2.324 1.883,4.215 4.215,4.215 2.324,0 4.211,-1.891 4.211,-4.215 0,-2.313 -1.887,-4.207 -4.211,-4.207 -2.332,0 -4.215,1.894 -4.215,4.207 z" /><path
         id="path176"
         style="fill:#ffffff;fill-opacity:1;fill-rule:nonzero;stroke:none"
         d="m 109.977,553.852 c 0,2.316 1.878,4.199 4.191,4.199 2.328,0 4.227,-1.883 4.227,-4.199 0,-2.325 -1.899,-4.219 -4.227,-4.219 -2.313,0 -4.191,1.894 -4.191,4.219" /><path
         id="path178"
         style="fill:none;stroke:#121212;stroke-width:1.57718003;stroke-linecap:butt;stroke-linejoin:miter;stroke-miterlimit:3.86369991;stroke-dasharray:none;stroke-opacity:1"
         d="m 109.977,553.852 c 0,2.316 1.878,4.199 4.191,4.199 2.328,0 4.227,-1.883 4.227,-4.199 0,-2.325 -1.899,-4.219 -4.227,-4.219 -2.313,0 -4.191,1.894 -4.191,4.219 z" /><path
         id="path180"
         style="fill:#ffffff;fill-opacity:1;fill-rule:evenodd;stroke:none"
         d="m 203.664,694.324 c 0,3.293 -2.66,5.946 -5.949,5.946 -3.274,0 -5.942,-2.653 -5.942,-5.946 0,-3.277 2.668,-5.941 5.942,-5.941 3.289,0 5.949,2.664 5.949,5.941" /><path
         id="path182"
         style="fill:none;stroke:#121212;stroke-width:1.57718003;stroke-linecap:butt;stroke-linejoin:miter;stroke-miterlimit:3.86369991;stroke-dasharray:none;stroke-opacity:1"
         d="m 203.664,694.324 c 0,3.293 -2.66,5.946 -5.949,5.946 -3.274,0 -5.942,-2.653 -5.942,-5.946 0,-3.277 2.668,-5.941 5.942,-5.941 3.289,0 5.949,2.664 5.949,5.941 z" /><path
         id="path184"
         style="fill:#ffffff;fill-opacity:1;fill-rule:evenodd;stroke:none"
         d="m 81.3945,694.324 c 0,3.293 2.668,5.946 5.9375,5.946 3.2969,0 5.9571,-2.653 5.9571,-5.946 0,-3.277 -2.6602,-5.941 -5.9571,-5.941 -3.2695,0 -5.9375,2.664 -5.9375,5.941" /><path
         id="path186"
         style="fill:none;stroke:#121212;stroke-width:1.57718003;stroke-linecap:butt;stroke-linejoin:miter;stroke-miterlimit:3.86369991;stroke-dasharray:none;stroke-opacity:1"
         d="m 81.3945,694.324 c 0,3.293 2.668,5.946 5.9375,5.946 3.2969,0 5.9571,-2.653 5.9571,-5.946 0,-3.277 -2.6602,-5.941 -5.9571,-5.941 -3.2695,0 -5.9375,2.664 -5.9375,5.941 z" /><path
         id="path188"
         style="fill:#ffffff;fill-opacity:1;fill-rule:evenodd;stroke:none"
         d="m 137.211,707.602 c 0,2.925 2.398,5.308 5.324,5.308 2.942,0 5.305,-2.383 5.305,-5.308 0,-2.95 -2.363,-5.325 -5.305,-5.325 -2.926,0 -5.324,2.375 -5.324,5.325" /><path
         id="path190"
         style="fill:none;stroke:#121212;stroke-width:1.57718003;stroke-linecap:butt;stroke-linejoin:miter;stroke-miterlimit:3.86369991;stroke-dasharray:none;stroke-opacity:1"
         d="m 137.211,707.602 c 0,2.925 2.398,5.308 5.324,5.308 2.942,0 5.305,-2.383 5.305,-5.308 0,-2.95 -2.363,-5.325 -5.305,-5.325 -2.926,0 -5.324,2.375 -5.324,5.325 z" /><path
         id="path192"
         style="fill:#ffffff;fill-opacity:1;fill-rule:evenodd;stroke:none"
         d="m 149.32,696.332 c 0,-3.672 -2.972,-6.644 -6.656,-6.644 -3.66,0 -6.625,2.972 -6.625,6.644 0,3.672 2.965,6.652 6.625,6.652 3.684,0 6.656,-2.98 6.656,-6.652" /><path
         id="path194"
         style="fill:none;stroke:#121212;stroke-width:1.57718003;stroke-linecap:butt;stroke-linejoin:miter;stroke-miterlimit:3.86369991;stroke-dasharray:none;stroke-opacity:1"
         d="m 149.32,696.332 c 0,-3.672 -2.972,-6.644 -6.656,-6.644 -3.66,0 -6.625,2.972 -6.625,6.644 0,3.672 2.965,6.652 6.625,6.652 3.684,0 6.656,-2.98 6.656,-6.652 z" /><path
         id="path196"
         style="fill:#ffffff;fill-opacity:1;fill-rule:evenodd;stroke:none"
         d="m 150.664,682.047 c 0,-4.41 -3.57,-7.977 -8,-7.977 -4.387,0 -7.957,3.567 -7.957,7.977 0,4.402 3.57,7.965 7.957,7.965 4.43,0 8,-3.563 8,-7.965" /><path
         id="path198"
         style="fill:none;stroke:#121212;stroke-width:1.57718003;stroke-linecap:butt;stroke-linejoin:miter;stroke-miterlimit:3.86369991;stroke-dasharray:none;stroke-opacity:1"
         d="m 150.664,682.047 c 0,-4.41 -3.57,-7.977 -8,-7.977 -4.387,0 -7.957,3.567 -7.957,7.977 0,4.402 3.57,7.965 7.957,7.965 4.43,0 8,-3.563 8,-7.965 z" /><path
         id="path200"
         style="fill:#ffffff;fill-opacity:1;fill-rule:evenodd;stroke:none"
         d="m 151.758,665.531 c 0,-5.129 -4.156,-9.293 -9.309,-9.293 -5.129,0 -9.297,4.164 -9.297,9.293 0,5.157 4.168,9.309 9.297,9.309 5.153,0 9.309,-4.152 9.309,-9.309" /><path
         id="path202"
         style="fill:none;stroke:#121212;stroke-width:1.57718003;stroke-linecap:butt;stroke-linejoin:miter;stroke-miterlimit:3.86369991;stroke-dasharray:none;stroke-opacity:1"
         d="m 151.758,665.531 c 0,-5.129 -4.156,-9.293 -9.309,-9.293 -5.129,0 -9.297,4.164 -9.297,9.293 0,5.157 4.168,9.309 9.297,9.309 5.153,0 9.309,-4.152 9.309,-9.309 z" /><path
         id="path204"
         style="fill:#ffffff;fill-opacity:1;fill-rule:evenodd;stroke:none"
         d="m 131.895,646.008 c 0,5.879 4.761,10.644 10.64,10.644 5.867,0 10.645,-4.765 10.645,-10.644 0,-5.871 -4.778,-10.637 -10.645,-10.637 -5.879,0 -10.64,4.766 -10.64,10.637" /><path
         id="path206"
         style="fill:none;stroke:#121212;stroke-width:1.57718003;stroke-linecap:butt;stroke-linejoin:miter;stroke-miterlimit:3.86369991;stroke-dasharray:none;stroke-opacity:1"
         d="m 131.895,646.008 c 0,5.879 4.761,10.644 10.64,10.644 5.867,0 10.645,-4.765 10.645,-10.644 0,-5.871 -4.778,-10.637 -10.645,-10.637 -5.879,0 -10.64,4.766 -10.64,10.637 z" /><path
         id="path208"
         style="fill:#ffffff;fill-opacity:1;fill-rule:evenodd;stroke:none"
         d="m 68.1641,646.652 c 0,5.871 4.7539,10.633 10.6328,10.633 5.8594,0 10.625,-4.762 10.625,-10.633 0,-5.871 -4.7656,-10.625 -10.625,-10.625 -5.8789,0 -10.6328,4.754 -10.6328,10.625" /><path
         id="path210"
         style="fill:none;stroke:#121212;stroke-width:1.57718003;stroke-linecap:butt;stroke-linejoin:miter;stroke-miterlimit:3.86369991;stroke-dasharray:none;stroke-opacity:1"
         d="m 68.1641,646.652 c 0,5.871 4.7539,10.633 10.6328,10.633 5.8594,0 10.625,-4.762 10.625,-10.633 0,-5.871 -4.7656,-10.625 -10.625,-10.625 -5.8789,0 -10.6328,4.754 -10.6328,10.625 z" /><path
         id="path212"
         style="fill:#ffffff;fill-opacity:1;fill-rule:evenodd;stroke:none"
         d="m 82.8203,657.527 c -5.2773,0 -9.5742,4.286 -9.5742,9.563 0,5.289 4.2969,9.574 9.5742,9.574 5.2852,0 9.5781,-4.285 9.5781,-9.574 0,-5.277 -4.2929,-9.563 -9.5781,-9.563" /><path
         id="path214"
         style="fill:none;stroke:#121212;stroke-width:1.57718003;stroke-linecap:butt;stroke-linejoin:miter;stroke-miterlimit:3.86369991;stroke-dasharray:none;stroke-opacity:1"
         d="m 82.8203,657.527 c -5.2773,0 -9.5742,4.286 -9.5742,9.563 0,5.289 4.2969,9.574 9.5742,9.574 5.2852,0 9.5781,-4.285 9.5781,-9.574 0,-5.277 -4.2929,-9.563 -9.5781,-9.563 z" /><path
         id="path216"
         style="fill:#ffffff;fill-opacity:1;fill-rule:evenodd;stroke:none"
         d="m 91.4648,674.652 c -4.6875,0 -8.4921,3.809 -8.4921,8.5 0,4.707 3.8046,8.52 8.4921,8.52 4.711,0 8.5118,-3.813 8.5118,-8.52 0,-4.691 -3.8008,-8.5 -8.5118,-8.5" /><path
         id="path218"
         style="fill:none;stroke:#121212;stroke-width:1.57718003;stroke-linecap:butt;stroke-linejoin:miter;stroke-miterlimit:3.86369991;stroke-dasharray:none;stroke-opacity:1"
         d="m 91.4648,674.652 c -4.6875,0 -8.4921,3.809 -8.4921,8.5 0,4.707 3.8046,8.52 8.4921,8.52 4.711,0 8.5118,-3.813 8.5118,-8.52 0,-4.691 -3.8008,-8.5 -8.5118,-8.5 z" /><path
         id="path220"
         style="fill:#ffffff;fill-opacity:1;fill-rule:evenodd;stroke:none"
         d="m 102.285,687.395 c -4.1131,0 -7.4412,3.332 -7.4412,7.445 0,4.109 3.3281,7.441 7.4412,7.441 4.106,0 7.438,-3.332 7.438,-7.441 0,-4.113 -3.332,-7.445 -7.438,-7.445" /><path
         id="path222"
         style="fill:none;stroke:#121212;stroke-width:1.57718003;stroke-linecap:butt;stroke-linejoin:miter;stroke-miterlimit:3.86369991;stroke-dasharray:none;stroke-opacity:1"
         d="m 102.285,687.395 c -4.1131,0 -7.4412,3.332 -7.4412,7.445 0,4.109 3.3281,7.441 7.4412,7.441 4.106,0 7.438,-3.332 7.438,-7.441 0,-4.113 -3.332,-7.445 -7.438,-7.445 z" /><path
         id="path224"
         style="fill:#ffffff;fill-opacity:1;fill-rule:evenodd;stroke:none"
         d="m 113.895,695.992 c -3.536,0 -6.391,2.852 -6.391,6.375 0,3.531 2.855,6.387 6.391,6.387 3.507,0 6.367,-2.856 6.367,-6.387 0,-3.523 -2.86,-6.375 -6.367,-6.375" /><path
         id="path226"
         style="fill:none;stroke:#121212;stroke-width:1.57718003;stroke-linecap:butt;stroke-linejoin:miter;stroke-miterlimit:3.86369991;stroke-dasharray:none;stroke-opacity:1"
         d="m 113.895,695.992 c -3.536,0 -6.391,2.852 -6.391,6.375 0,3.531 2.855,6.387 6.391,6.387 3.507,0 6.367,-2.856 6.367,-6.387 0,-3.523 -2.86,-6.375 -6.367,-6.375 z" /><path
         id="path228"
         style="fill:#ffffff;fill-opacity:1;fill-rule:evenodd;stroke:none"
         d="m 119.91,706.008 c 0,2.933 2.36,5.32 5.289,5.32 2.946,0 5.328,-2.387 5.328,-5.32 0,-2.942 -2.382,-5.32 -5.328,-5.32 -2.929,0 -5.289,2.378 -5.289,5.32" /><path
         id="path230"
         style="fill:none;stroke:#121212;stroke-width:1.57718003;stroke-linecap:butt;stroke-linejoin:miter;stroke-miterlimit:3.86369991;stroke-dasharray:none;stroke-opacity:1"
         d="m 119.91,706.008 c 0,2.933 2.36,5.32 5.289,5.32 2.946,0 5.328,-2.387 5.328,-5.32 0,-2.942 -2.382,-5.32 -5.328,-5.32 -2.929,0 -5.289,2.378 -5.289,5.32 z" /><path
         id="path232"
         style="fill:#ffffff;fill-opacity:1;fill-rule:evenodd;stroke:none"
         d="m 75.5898,696.191 c 3.8125,0 6.875,-3.121 6.875,-6.933 0,-3.789 -3.0625,-6.871 -6.875,-6.871 -3.8046,0 -6.8828,3.082 -6.8828,6.871 0,3.812 3.0782,6.933 6.8828,6.933" /><path
         id="path234"
         style="fill:none;stroke:#121212;stroke-width:1.57718003;stroke-linecap:butt;stroke-linejoin:miter;stroke-miterlimit:3.86369991;stroke-dasharray:none;stroke-opacity:1"
         d="m 75.5898,696.191 c 3.8125,0 6.875,-3.121 6.875,-6.933 0,-3.789 -3.0625,-6.871 -6.875,-6.871 -3.8046,0 -6.8828,3.082 -6.8828,6.871 0,3.812 3.0782,6.933 6.8828,6.933 z" /><path
         id="path236"
         style="fill:#ffffff;fill-opacity:1;fill-rule:evenodd;stroke:none"
         d="m 62.7617,690.277 c 4.3281,0 7.8242,-3.582 7.8242,-7.898 0,-4.32 -3.4961,-7.816 -7.8242,-7.816 -4.3203,0 -7.8203,3.496 -7.8203,7.816 0,4.316 3.5,7.898 7.8203,7.898" /><path
         id="path238"
         style="fill:none;stroke:#121212;stroke-width:1.57718003;stroke-linecap:butt;stroke-linejoin:miter;stroke-miterlimit:3.86369991;stroke-dasharray:none;stroke-opacity:1"
         d="m 62.7617,690.277 c 4.3281,0 7.8242,-3.582 7.8242,-7.898 0,-4.32 -3.4961,-7.816 -7.8242,-7.816 -4.3203,0 -7.8203,3.496 -7.8203,7.816 0,4.316 3.5,7.898 7.8203,7.898 z" /><path
         id="path240"
         style="fill:#ffffff;fill-opacity:1;fill-rule:evenodd;stroke:none"
         d="m 49.4688,681.625 c 4.832,0 8.7578,-4.031 8.7578,-8.871 0,-4.84 -3.9258,-8.754 -8.7578,-8.754 -4.8399,0 -8.7579,3.914 -8.7579,8.754 0,4.84 3.918,8.871 8.7579,8.871" /><path
         id="path242"
         style="fill:none;stroke:#121212;stroke-width:1.57718003;stroke-linecap:butt;stroke-linejoin:miter;stroke-miterlimit:3.86369991;stroke-dasharray:none;stroke-opacity:1"
         d="m 49.4688,681.625 c 4.832,0 8.7578,-4.031 8.7578,-8.871 0,-4.84 -3.9258,-8.754 -8.7578,-8.754 -4.8399,0 -8.7579,3.914 -8.7579,8.754 0,4.84 3.918,8.871 8.7579,8.871 z" /><path
         id="path244"
         style="fill:#ffffff;fill-opacity:1;fill-rule:evenodd;stroke:none"
         d="m 36.1133,669.938 c 5.3476,0 9.6875,-4.489 9.6875,-9.848 0,-5.348 -4.3399,-9.695 -9.6875,-9.695 -5.3672,0 -9.6992,4.347 -9.6992,9.695 0,5.359 4.332,9.848 9.6992,9.848" /><path
         id="path246"
         style="fill:none;stroke:#121212;stroke-width:1.57718003;stroke-linecap:butt;stroke-linejoin:miter;stroke-miterlimit:3.86369991;stroke-dasharray:none;stroke-opacity:1"
         d="m 36.1133,669.938 c 5.3476,0 9.6875,-4.489 9.6875,-9.848 0,-5.348 -4.3399,-9.695 -9.6875,-9.695 -5.3672,0 -9.6992,4.347 -9.6992,9.695 0,5.359 4.332,9.848 9.6992,9.848 z" /><path
         id="path248"
         style="fill:#ffffff;fill-opacity:1;fill-rule:evenodd;stroke:none"
         d="m 12.8516,644.07 c 0,5.879 4.7617,10.825 10.6445,10.825 5.8672,0 10.6328,-4.946 10.6328,-10.825 0,-5.871 -4.7656,-10.629 -10.6328,-10.629 -5.8828,0 -10.6445,4.758 -10.6445,10.629" /><path
         id="path250"
         style="fill:none;stroke:#121212;stroke-width:1.57718003;stroke-linecap:butt;stroke-linejoin:miter;stroke-miterlimit:3.86369991;stroke-dasharray:none;stroke-opacity:1"
         d="m 12.8516,644.07 c 0,5.879 4.7617,10.825 10.6445,10.825 5.8672,0 10.6328,-4.946 10.6328,-10.825 0,-5.871 -4.7656,-10.629 -10.6328,-10.629 -5.8828,0 -10.6445,4.758 -10.6445,10.629 z" /><path
         id="path252"
         style="fill:#ffffff;fill-opacity:1;fill-rule:evenodd;stroke:none"
         d="m 216.91,646.652 c 0,5.871 -4.765,10.633 -10.644,10.633 -5.875,0 -10.633,-4.762 -10.633,-10.633 0,-5.871 4.758,-10.625 10.633,-10.625 5.879,0 10.644,4.754 10.644,10.625" /><path
         id="path254"
         style="fill:none;stroke:#121212;stroke-width:1.57718003;stroke-linecap:butt;stroke-linejoin:miter;stroke-miterlimit:3.86369991;stroke-dasharray:none;stroke-opacity:1"
         d="m 216.91,646.652 c 0,5.871 -4.765,10.633 -10.644,10.633 -5.875,0 -10.633,-4.762 -10.633,-10.633 0,-5.871 4.758,-10.625 10.633,-10.625 5.879,0 10.644,4.754 10.644,10.625 z" /><path
         id="path256"
         style="fill:#ffffff;fill-opacity:1;fill-rule:evenodd;stroke:none"
         d="m 202.242,657.527 c 5.281,0 9.563,4.286 9.563,9.563 0,5.289 -4.282,9.574 -9.563,9.574 -5.293,0 -9.566,-4.285 -9.566,-9.574 0,-5.277 4.273,-9.563 9.566,-9.563" /><path
         id="path258"
         style="fill:none;stroke:#121212;stroke-width:1.57718003;stroke-linecap:butt;stroke-linejoin:miter;stroke-miterlimit:3.86369991;stroke-dasharray:none;stroke-opacity:1"
         d="m 202.242,657.527 c 5.281,0 9.563,4.286 9.563,9.563 0,5.289 -4.282,9.574 -9.563,9.574 -5.293,0 -9.566,-4.285 -9.566,-9.574 0,-5.277 4.273,-9.563 9.566,-9.563 z" /><path
         id="path260"
         style="fill:#ffffff;fill-opacity:1;fill-rule:evenodd;stroke:none"
         d="m 193.594,674.652 c 4.703,0 8.5,3.809 8.5,8.5 0,4.707 -3.797,8.52 -8.5,8.52 -4.699,0 -8.508,-3.813 -8.508,-8.52 0,-4.691 3.809,-8.5 8.508,-8.5" /><path
         id="path262"
         style="fill:none;stroke:#121212;stroke-width:1.57718003;stroke-linecap:butt;stroke-linejoin:miter;stroke-miterlimit:3.86369991;stroke-dasharray:none;stroke-opacity:1"
         d="m 193.594,674.652 c 4.703,0 8.5,3.809 8.5,8.5 0,4.707 -3.797,8.52 -8.5,8.52 -4.699,0 -8.508,-3.813 -8.508,-8.52 0,-4.691 3.809,-8.5 8.508,-8.5 z" /><path
         id="path264"
         style="fill:#ffffff;fill-opacity:1;fill-rule:evenodd;stroke:none"
         d="m 182.781,687.395 c 4.11,0 7.442,3.332 7.442,7.445 0,4.109 -3.332,7.441 -7.442,7.441 -4.121,0 -7.445,-3.332 -7.445,-7.441 0,-4.113 3.324,-7.445 7.445,-7.445" /><path
         id="path266"
         style="fill:none;stroke:#121212;stroke-width:1.57718003;stroke-linecap:butt;stroke-linejoin:miter;stroke-miterlimit:3.86369991;stroke-dasharray:none;stroke-opacity:1"
         d="m 182.781,687.395 c 4.11,0 7.442,3.332 7.442,7.445 0,4.109 -3.332,7.441 -7.442,7.441 -4.121,0 -7.445,-3.332 -7.445,-7.441 0,-4.113 3.324,-7.445 7.445,-7.445 z" /><path
         id="path268"
         style="fill:#ffffff;fill-opacity:1;fill-rule:evenodd;stroke:none"
         d="m 171.176,695.992 c 3.527,0 6.371,2.852 6.371,6.375 0,3.531 -2.844,6.387 -6.371,6.387 -3.52,0 -6.375,-2.856 -6.375,-6.387 0,-3.523 2.855,-6.375 6.375,-6.375" /><path
         id="path270"
         style="fill:none;stroke:#121212;stroke-width:1.57718003;stroke-linecap:butt;stroke-linejoin:miter;stroke-miterlimit:3.86369991;stroke-dasharray:none;stroke-opacity:1"
         d="m 171.176,695.992 c 3.527,0 6.371,2.852 6.371,6.375 0,3.531 -2.844,6.387 -6.371,6.387 -3.52,0 -6.375,-2.856 -6.375,-6.387 0,-3.523 2.855,-6.375 6.375,-6.375 z" /><path
         id="path272"
         style="fill:#ffffff;fill-opacity:1;fill-rule:evenodd;stroke:none"
         d="m 165.164,706.008 c 0,2.933 -2.375,5.32 -5.316,5.32 -2.938,0 -5.321,-2.387 -5.321,-5.32 0,-2.942 2.383,-5.32 5.321,-5.32 2.941,0 5.316,2.378 5.316,5.32" /><path
         id="path274"
         style="fill:none;stroke:#121212;stroke-width:1.57718003;stroke-linecap:butt;stroke-linejoin:miter;stroke-miterlimit:3.86369991;stroke-dasharray:none;stroke-opacity:1"
         d="m 165.164,706.008 c 0,2.933 -2.375,5.32 -5.316,5.32 -2.938,0 -5.321,-2.387 -5.321,-5.32 0,-2.942 2.383,-5.32 5.321,-5.32 2.941,0 5.316,2.378 5.316,5.32 z" /><path
         id="path276"
         style="fill:#ffffff;fill-opacity:1;fill-rule:evenodd;stroke:none"
         d="m 209.469,696.191 c -3.801,0 -6.883,-3.121 -6.883,-6.933 0,-3.789 3.082,-6.871 6.883,-6.871 3.812,0 6.883,3.082 6.883,6.871 0,3.812 -3.071,6.933 -6.883,6.933" /><path
         id="path278"
         style="fill:none;stroke:#121212;stroke-width:1.57718003;stroke-linecap:butt;stroke-linejoin:miter;stroke-miterlimit:3.86369991;stroke-dasharray:none;stroke-opacity:1"
         d="m 209.469,696.191 c -3.801,0 -6.883,-3.121 -6.883,-6.933 0,-3.789 3.082,-6.871 6.883,-6.871 3.812,0 6.883,3.082 6.883,6.871 0,3.812 -3.071,6.933 -6.883,6.933 z" /><path
         id="path280"
         style="fill:#ffffff;fill-opacity:1;fill-rule:evenodd;stroke:none"
         d="m 222.293,690.277 c -4.316,0 -7.824,-3.582 -7.824,-7.898 0,-4.32 3.508,-7.816 7.824,-7.816 4.324,0 7.824,3.496 7.824,7.816 0,4.316 -3.5,7.898 -7.824,7.898" /><path
         id="path282"
         style="fill:none;stroke:#121212;stroke-width:1.57718003;stroke-linecap:butt;stroke-linejoin:miter;stroke-miterlimit:3.86369991;stroke-dasharray:none;stroke-opacity:1"
         d="m 222.293,690.277 c -4.316,0 -7.824,-3.582 -7.824,-7.898 0,-4.32 3.508,-7.816 7.824,-7.816 4.324,0 7.824,3.496 7.824,7.816 0,4.316 -3.5,7.898 -7.824,7.898 z" /><path
         id="path284"
         style="fill:#ffffff;fill-opacity:1;fill-rule:evenodd;stroke:none"
         d="m 235.594,681.625 c -4.836,0 -8.754,-4.031 -8.754,-8.871 0,-4.84 3.918,-8.754 8.754,-8.754 4.832,0 8.758,3.914 8.758,8.754 0,4.84 -3.926,8.871 -8.758,8.871" /><path
         id="path286"
         style="fill:none;stroke:#121212;stroke-width:1.57718003;stroke-linecap:butt;stroke-linejoin:miter;stroke-miterlimit:3.86369991;stroke-dasharray:none;stroke-opacity:1"
         d="m 235.594,681.625 c -4.836,0 -8.754,-4.031 -8.754,-8.871 0,-4.84 3.918,-8.754 8.754,-8.754 4.832,0 8.758,3.914 8.758,8.754 0,4.84 -3.926,8.871 -8.758,8.871 z" /><path
         id="path288"
         style="fill:#ffffff;fill-opacity:1;fill-rule:evenodd;stroke:none"
         d="m 248.961,669.938 c -5.363,0 -9.695,-4.489 -9.695,-9.848 0,-5.348 4.332,-9.695 9.695,-9.695 5.34,0 9.699,4.347 9.699,9.695 0,5.359 -4.359,9.848 -9.699,9.848" /><path
         id="path290"
         style="fill:none;stroke:#121212;stroke-width:1.57718003;stroke-linecap:butt;stroke-linejoin:miter;stroke-miterlimit:3.86369991;stroke-dasharray:none;stroke-opacity:1"
         d="m 248.961,669.938 c -5.363,0 -9.695,-4.489 -9.695,-9.848 0,-5.348 4.332,-9.695 9.695,-9.695 5.34,0 9.699,4.347 9.699,9.695 0,5.359 -4.359,9.848 -9.699,9.848 z" /><path
         id="path292"
         style="fill:#ffffff;fill-opacity:1;fill-rule:evenodd;stroke:none"
         d="m 272.207,644.07 c 0,5.879 -4.75,10.825 -10.629,10.825 -5.887,0 -10.644,-4.946 -10.644,-10.825 0,-5.871 4.757,-10.629 10.644,-10.629 5.879,0 10.629,4.758 10.629,10.629" /><path
         id="path294"
         style="fill:none;stroke:#121212;stroke-width:1.57718003;stroke-linecap:butt;stroke-linejoin:miter;stroke-miterlimit:3.86369991;stroke-dasharray:none;stroke-opacity:1"
         d="m 272.207,644.07 c 0,5.879 -4.75,10.825 -10.629,10.825 -5.887,0 -10.644,-4.946 -10.644,-10.825 0,-5.871 4.757,-10.629 10.644,-10.629 5.879,0 10.629,4.758 10.629,10.629 z" /><path
         id="path296"
         style="fill:#346cbe;fill-opacity:1;fill-rule:nonzero;stroke:none"
         d="m 189.273,564.648 h 23.485 c 2.933,0 5.308,-2.371 5.308,-5.3 v -0.45 c 0,-2.937 -2.375,-5.328 -5.308,-5.328 h -23.485 c -2.937,0 -5.308,2.391 -5.308,5.328 v 0.45 c 0,2.929 2.371,5.3 5.308,5.3 v 0" /><path
         id="path298"
         style="fill:none;stroke:#121212;stroke-width:1.57718003;stroke-linecap:butt;stroke-linejoin:miter;stroke-miterlimit:3.86369991;stroke-dasharray:none;stroke-opacity:1"
         d="m 189.273,564.648 h 23.485 c 2.933,0 5.308,-2.371 5.308,-5.3 v -0.45 c 0,-2.937 -2.375,-5.328 -5.308,-5.328 h -23.485 c -2.937,0 -5.308,2.391 -5.308,5.328 v 0.45 c 0,2.929 2.371,5.3 5.308,5.3 z" /><path
         id="path300"
         style="fill:#346cbe;fill-opacity:1;fill-rule:nonzero;stroke:none"
         d="m 72.3047,564.648 h 23.4805 c 2.9336,0 5.3278,-2.371 5.3278,-5.3 v -0.45 c 0,-2.937 -2.3942,-5.328 -5.3278,-5.328 H 72.3047 c -2.9336,0 -5.3086,2.391 -5.3086,5.328 v 0.45 c 0,2.929 2.375,5.3 5.3086,5.3 v 0" /><path
         id="path302"
         style="fill:none;stroke:#121212;stroke-width:1.57718003;stroke-linecap:butt;stroke-linejoin:miter;stroke-miterlimit:3.86369991;stroke-dasharray:none;stroke-opacity:1"
         d="m 72.3047,564.648 h 23.4805 c 2.9336,0 5.3278,-2.371 5.3278,-5.3 v -0.45 c 0,-2.937 -2.3942,-5.328 -5.3278,-5.328 H 72.3047 c -2.9336,0 -5.3086,2.391 -5.3086,5.328 v 0.45 c 0,2.929 2.375,5.3 5.3086,5.3 z" /><path
         id="path304"
         style="fill:#fbe11e;fill-opacity:1;fill-rule:evenodd;stroke:none"
         d="m 262.273,547.598 c 2.321,0 3.868,-2.266 3.868,-4.41 0,-2.149 -1.731,-4.415 -3.868,-4.415 -2.152,0 -239.7925,0 -239.7925,0 -2.1407,0 -3.8633,2.266 -3.8633,4.415 0,2.144 1.7226,4.41 3.8633,4.41 2.1445,0 239.7925,0 239.7925,0" /><path
         id="path306"
         style="fill:none;stroke:#121212;stroke-width:1.57718003;stroke-linecap:butt;stroke-linejoin:miter;stroke-miterlimit:3.86369991;stroke-dasharray:none;stroke-opacity:1"
         d="m 262.273,547.598 c 2.321,0 3.868,-2.266 3.868,-4.41 0,-2.149 -1.731,-4.415 -3.868,-4.415 -2.152,0 -239.7925,0 -239.7925,0 -2.1407,0 -3.8633,2.266 -3.8633,4.415 0,2.144 1.7226,4.41 3.8633,4.41 2.1445,0 239.7925,0 239.7925,0 z" /><path
         id="path308"
         style="fill:#ffffff;fill-opacity:1;fill-rule:nonzero;stroke:none"
         d="m 4.96484,610.59 c 0,3.308 2.66797,5.976 5.97656,5.976 3.3008,0 5.9766,-2.668 5.9766,-5.976 0,-3.305 -2.6758,-5.977 -5.9766,-5.977 -3.30859,0 -5.97656,2.672 -5.97656,5.977" /><path
         id="path310"
         style="fill:none;stroke:#121212;stroke-width:1.57718003;stroke-linecap:butt;stroke-linejoin:miter;stroke-miterlimit:3.86369991;stroke-dasharray:none;stroke-opacity:1"
         d="m 4.96484,610.59 c 0,3.308 2.66797,5.976 5.97656,5.976 3.3008,0 5.9766,-2.668 5.9766,-5.976 0,-3.305 -2.6758,-5.977 -5.9766,-5.977 -3.30859,0 -5.97656,2.672 -5.97656,5.977 z" /><path
         id="path312"
         style="fill:#ffffff;fill-opacity:1;fill-rule:nonzero;stroke:none"
         d="m 269.027,610.773 c 0,3.305 2.668,5.981 5.977,5.981 3.297,0 5.98,-2.676 5.98,-5.981 0,-3.296 -2.683,-5.992 -5.98,-5.992 -3.309,0 -5.977,2.696 -5.977,5.992" /><path
         id="path314"
         style="fill:none;stroke:#121212;stroke-width:1.57718003;stroke-linecap:butt;stroke-linejoin:miter;stroke-miterlimit:3.86369991;stroke-dasharray:none;stroke-opacity:1"
         d="m 269.027,610.773 c 0,3.305 2.668,5.981 5.977,5.981 3.297,0 5.98,-2.676 5.98,-5.981 0,-3.296 -2.683,-5.992 -5.98,-5.992 -3.309,0 -5.977,2.696 -5.977,5.992 z" /><path
         id="path316"
         style="fill:#fbe11e;fill-opacity:1;fill-rule:evenodd;stroke:none"
         d="m 25.8594,578.473 c -3.7617,1.328 -6.6797,6.547 -6.6797,6.547 -3.3242,6.195 -4.3594,14.691 -7.4922,23.972 -3.68359,10.985 -4.65234,20.379 -10.17969,27.906 4.86719,0.219 9.90629,-3.976 12.57419,-8.867 0.2149,2.449 0,6.074 0,8.953 5.086,-2.437 5.8868,-6.281 7.2149,-9.613 1.1211,-2.797 0.5937,-5.75 1.0429,-7.98 1.7618,1.55 3.7227,2.351 4.5938,2.617 2.9258,0.937 6.9102,0.937 9.8008,-0.059 3.1875,-1.121 4.4219,-3.176 4.4219,-3.176 0.5507,-0.398 -2.6602,-3.363 -2.6602,-3.363 0,0 5.0937,0.153 4.8828,-4.722 0.2109,-4.868 -4.8828,-4.59 -4.8828,-4.59 0,0 3.2109,-2.957 2.6602,-3.368 0,0 -1.2188,-2.121 -4.4219,-3.16 -3.7774,-1.215 -9.7578,-1.215 -15.2617,4.641 -0.6954,-2.77 -0.9649,-4.762 -0.6954,-6.746 0.4493,-3.324 4.211,-8.356 12.3946,-8.645 6.2109,-0.211 11.7929,4.215 14.0156,9.082 2.2031,-4.867 7.4883,-9.113 13.6914,-8.886 8.1875,0.293 11.957,5.316 12.3984,8.636 0.2657,2 0,3.989 -0.7109,6.727 -5.4883,-5.832 -11.4726,-5.832 -15.2422,-4.621 -3.2148,1.047 -4.4336,3.168 -4.4336,3.168 -0.5508,0.41 2.6602,3.375 2.6602,3.375 0,0 -5.0938,-0.301 -4.8672,4.582 -0.2266,4.863 4.8672,4.719 4.8672,4.719 0,0 -3.207,2.976 -2.6602,3.363 0,0 1.2461,2.062 4.4336,3.168 2.8789,1.004 7.3594,1.851 9.793,0.07 -1.7656,2.438 -0.3633,6.25 0.6445,9.137 1.1055,3.176 3.1641,4.426 3.1641,4.426 0.4062,0.558 3.375,-2.668 3.375,-2.668 0,0 -0.1602,5.09 4.7109,4.875 4.8711,0.215 4.586,-4.875 4.586,-4.875 0,0 2.9726,3.226 3.375,2.668 0,0 2.0546,-1.25 3.164,-4.426 0.9961,-2.887 2.0196,-6.828 0.25,-9.274 2.4336,1.774 6.8164,0.84 9.6913,-0.148 3.203,-1.113 4.434,-3.168 4.434,-3.168 0.566,-0.406 -2.66,-3.367 -2.66,-3.367 0,0 5.101,0.16 4.875,-4.719 0.226,-4.871 -4.875,-4.59 -4.875,-4.59 0,0 3.226,-2.972 2.66,-3.375 0,0 -1.215,-2.125 -4.434,-3.156 -3.7616,-1.227 -9.7421,-1.227 -15.2382,4.629 -0.7109,-2.754 -0.9726,-4.746 -0.7109,-6.734 0.457,-3.321 4.2149,-8.344 12.4141,-8.649 6.195,-0.203 11.969,4.215 14.168,9.094 2.223,-4.879 7.984,-9.297 14.18,-9.094 8.191,0.305 11.968,5.328 12.41,8.649 0.273,1.988 0,3.98 -0.703,6.734 -5.504,-5.856 -11.481,-5.856 -15.25,-4.629 -3.207,1.031 -4.43,3.156 -4.43,3.156 -0.555,0.403 2.66,3.375 2.66,3.375 0,0 -5.105,-0.281 -4.871,4.59 -0.234,4.879 4.871,4.719 4.871,4.719 0,0 -3.215,2.961 -2.66,3.367 0,0 1.246,2.055 4.43,3.168 2.886,0.988 7.265,1.922 9.695,0.148 -1.777,2.446 -0.746,6.387 0.25,9.274 1.109,3.176 3.16,4.426 3.16,4.426 0.406,0.558 3.379,-2.668 3.379,-2.668 0,0 -0.293,5.09 4.582,4.875 4.875,0.215 4.723,-4.875 4.723,-4.875 0,0 2.976,3.226 3.371,2.668 0,0 2.055,-1.25 3.164,-4.426 1,-2.887 2.406,-6.699 0.644,-9.137 2.43,1.781 6.899,0.934 9.789,-0.07 3.188,-1.106 4.43,-3.168 4.43,-3.168 0.563,-0.387 -2.668,-3.363 -2.668,-3.363 0,0 5.11,0.144 4.891,-4.719 0.219,-4.883 -4.891,-4.582 -4.891,-4.582 0,0 3.231,-2.965 2.668,-3.375 0,0 -1.211,-2.121 -4.43,-3.168 -3.769,-1.211 -9.746,-1.211 -15.25,4.621 -0.703,-2.738 -0.968,-4.727 -0.703,-6.727 0.442,-3.32 4.215,-8.343 12.418,-8.636 6.192,-0.227 11.735,4.207 13.942,9.082 2.222,-4.875 7.988,-9.309 14.183,-9.082 8.2,0.293 11.957,5.316 12.399,8.636 0.261,2 0,3.989 -0.707,6.727 -5.489,-5.832 -11.473,-5.832 -15.242,-4.621 -3.215,1.047 -4.434,3.168 -4.434,3.168 -0.547,0.41 2.66,3.375 2.66,3.375 0,0 -5.09,-0.301 -4.867,4.582 -0.223,4.863 4.867,4.719 4.867,4.719 0,0 -3.207,2.968 -2.66,3.363 0,0 1.25,2.062 4.434,3.168 2.886,1.004 7.371,1.851 9.793,0.07 -1.774,2.438 -0.364,6.25 0.644,9.137 1.113,3.176 3.172,4.426 3.172,4.426 0.394,0.558 3.359,-2.668 3.359,-2.668 0,0 -0.152,5.09 4.719,4.875 4.887,0.215 4.59,-4.875 4.59,-4.875 0,0 2.969,3.226 3.367,2.668 0,0 2.063,-1.25 3.168,-4.426 0.996,-2.887 2.023,-6.828 0.242,-9.274 2.449,1.774 6.821,0.84 9.699,-0.148 3.196,-1.113 4.43,-3.168 4.43,-3.168 0.57,-0.406 -2.656,-3.367 -2.656,-3.367 0,0 5.094,0.16 4.875,-4.719 0.219,-4.871 -4.875,-4.59 -4.875,-4.59 0,0 3.226,-2.972 2.656,-3.375 0,0 -1.199,-2.125 -4.43,-3.156 -3.753,-1.227 -9.738,-1.227 -15.242,4.629 -0.695,-2.754 -0.972,-4.746 -0.695,-6.734 0.437,-3.321 4.211,-8.344 12.398,-8.649 6.207,-0.203 11.739,4.414 13.957,9.301 2.215,-4.887 7.981,-9.317 14.184,-9.09 8.184,0.301 12.324,5.32 12.758,8.633 0.265,2 0,4 -0.711,6.738 -5.496,-5.851 -11.477,-5.851 -15.246,-4.621 -3.211,1.035 -4.422,3.156 -4.422,3.156 -0.559,0.407 2.648,3.371 2.648,3.371 0,0 -5.089,-0.285 -4.867,4.586 -0.222,4.879 4.867,4.735 4.867,4.735 0,0 -3.207,2.961 -2.648,3.367 0,0 1.234,2.047 4.422,3.152 2.875,0.996 6.875,1.004 9.797,0.078 0.867,-0.277 2.84,-1.066 4.601,-2.621 0.442,2.223 -0.832,5.176 0.281,7.977 1.333,3.328 2.122,7.179 7.231,9.617 0,-2.871 -0.231,-6.52 0,-8.949 2.652,4.879 8.441,9.082 13.32,8.859 -5.543,-7.531 -6.504,-16.922 -10.199,-27.906 -3.105,-9.289 -2.769,-15.387 -7.488,-23.977 -2.02,-3.707 -6.688,-6.722 -6.688,-6.722 H 25.8594" /><path
         id="path318"
         style="fill:none;stroke:#121212;stroke-width:1.57718003;stroke-linecap:butt;stroke-linejoin:miter;stroke-miterlimit:3.86369991;stroke-dasharray:none;stroke-opacity:1"
         d="m 25.8594,578.473 c -3.7617,1.328 -6.6797,6.547 -6.6797,6.547 -3.3242,6.195 -4.3594,14.691 -7.4922,23.972 -3.68359,10.985 -4.65234,20.379 -10.17969,27.906 4.86719,0.219 9.90629,-3.976 12.57419,-8.867 0.2149,2.449 0,6.074 0,8.953 5.086,-2.437 5.8868,-6.281 7.2149,-9.613 1.1211,-2.797 0.5937,-5.75 1.0429,-7.98 1.7618,1.55 3.7227,2.351 4.5938,2.617 2.9258,0.937 6.9102,0.937 9.8008,-0.059 3.1875,-1.121 4.4219,-3.176 4.4219,-3.176 0.5507,-0.398 -2.6602,-3.363 -2.6602,-3.363 0,0 5.0937,0.153 4.8828,-4.722 0.2109,-4.868 -4.8828,-4.59 -4.8828,-4.59 0,0 3.2109,-2.957 2.6602,-3.368 0,0 -1.2188,-2.121 -4.4219,-3.16 -3.7774,-1.215 -9.7578,-1.215 -15.2617,4.641 -0.6954,-2.77 -0.9649,-4.762 -0.6954,-6.746 0.4493,-3.324 4.211,-8.356 12.3946,-8.645 6.2109,-0.211 11.7929,4.215 14.0156,9.082 2.2031,-4.867 7.4883,-9.113 13.6914,-8.886 8.1875,0.293 11.957,5.316 12.3984,8.636 0.2657,2 0,3.989 -0.7109,6.727 -5.4883,-5.832 -11.4726,-5.832 -15.2422,-4.621 -3.2148,1.047 -4.4336,3.168 -4.4336,3.168 -0.5508,0.41 2.6602,3.375 2.6602,3.375 0,0 -5.0938,-0.301 -4.8672,4.582 -0.2266,4.863 4.8672,4.719 4.8672,4.719 0,0 -3.207,2.976 -2.6602,3.363 0,0 1.2461,2.062 4.4336,3.168 2.8789,1.004 7.3594,1.851 9.793,0.07 -1.7656,2.438 -0.3633,6.25 0.6445,9.137 1.1055,3.176 3.1641,4.426 3.1641,4.426 0.4062,0.558 3.375,-2.668 3.375,-2.668 0,0 -0.1602,5.09 4.7109,4.875 4.8711,0.215 4.586,-4.875 4.586,-4.875 0,0 2.9726,3.226 3.375,2.668 0,0 2.0546,-1.25 3.164,-4.426 0.9961,-2.887 2.0196,-6.828 0.25,-9.274 2.4336,1.774 6.8164,0.84 9.6913,-0.148 3.203,-1.113 4.434,-3.168 4.434,-3.168 0.566,-0.406 -2.66,-3.367 -2.66,-3.367 0,0 5.101,0.16 4.875,-4.719 0.226,-4.871 -4.875,-4.59 -4.875,-4.59 0,0 3.226,-2.972 2.66,-3.375 0,0 -1.215,-2.125 -4.434,-3.156 -3.7616,-1.227 -9.7421,-1.227 -15.2382,4.629 -0.7109,-2.754 -0.9726,-4.746 -0.7109,-6.734 0.457,-3.321 4.2149,-8.344 12.4141,-8.649 6.195,-0.203 11.969,4.215 14.168,9.094 2.223,-4.879 7.984,-9.297 14.18,-9.094 8.191,0.305 11.968,5.328 12.41,8.649 0.273,1.988 0,3.98 -0.703,6.734 -5.504,-5.856 -11.481,-5.856 -15.25,-4.629 -3.207,1.031 -4.43,3.156 -4.43,3.156 -0.555,0.403 2.66,3.375 2.66,3.375 0,0 -5.105,-0.281 -4.871,4.59 -0.234,4.879 4.871,4.719 4.871,4.719 0,0 -3.215,2.961 -2.66,3.367 0,0 1.246,2.055 4.43,3.168 2.886,0.988 7.265,1.922 9.695,0.148 -1.777,2.446 -0.746,6.387 0.25,9.274 1.109,3.176 3.16,4.426 3.16,4.426 0.406,0.558 3.379,-2.668 3.379,-2.668 0,0 -0.293,5.09 4.582,4.875 4.875,0.215 4.723,-4.875 4.723,-4.875 0,0 2.976,3.226 3.371,2.668 0,0 2.055,-1.25 3.164,-4.426 1,-2.887 2.406,-6.699 0.644,-9.137 2.43,1.781 6.899,0.934 9.789,-0.07 3.188,-1.106 4.43,-3.168 4.43,-3.168 0.563,-0.387 -2.668,-3.363 -2.668,-3.363 0,0 5.11,0.144 4.891,-4.719 0.219,-4.883 -4.891,-4.582 -4.891,-4.582 0,0 3.231,-2.965 2.668,-3.375 0,0 -1.211,-2.121 -4.43,-3.168 -3.769,-1.211 -9.746,-1.211 -15.25,4.621 -0.703,-2.738 -0.968,-4.727 -0.703,-6.727 0.442,-3.32 4.215,-8.343 12.418,-8.636 6.192,-0.227 11.735,4.207 13.942,9.082 2.222,-4.875 7.988,-9.309 14.183,-9.082 8.2,0.293 11.957,5.316 12.399,8.636 0.261,2 0,3.989 -0.707,6.727 -5.489,-5.832 -11.473,-5.832 -15.242,-4.621 -3.215,1.047 -4.434,3.168 -4.434,3.168 -0.547,0.41 2.66,3.375 2.66,3.375 0,0 -5.09,-0.301 -4.867,4.582 -0.223,4.863 4.867,4.719 4.867,4.719 0,0 -3.207,2.968 -2.66,3.363 0,0 1.25,2.062 4.434,3.168 2.886,1.004 7.371,1.851 9.793,0.07 -1.774,2.438 -0.364,6.25 0.644,9.137 1.113,3.176 3.172,4.426 3.172,4.426 0.394,0.558 3.359,-2.668 3.359,-2.668 0,0 -0.152,5.09 4.719,4.875 4.887,0.215 4.59,-4.875 4.59,-4.875 0,0 2.969,3.226 3.367,2.668 0,0 2.063,-1.25 3.168,-4.426 0.996,-2.887 2.023,-6.828 0.242,-9.274 2.449,1.774 6.821,0.84 9.699,-0.148 3.196,-1.113 4.43,-3.168 4.43,-3.168 0.57,-0.406 -2.656,-3.367 -2.656,-3.367 0,0 5.094,0.16 4.875,-4.719 0.219,-4.871 -4.875,-4.59 -4.875,-4.59 0,0 3.226,-2.972 2.656,-3.375 0,0 -1.199,-2.125 -4.43,-3.156 -3.753,-1.227 -9.738,-1.227 -15.242,4.629 -0.695,-2.754 -0.972,-4.746 -0.695,-6.734 0.437,-3.321 4.211,-8.344 12.398,-8.649 6.207,-0.203 11.739,4.414 13.957,9.301 2.215,-4.887 7.981,-9.317 14.184,-9.09 8.184,0.301 12.324,5.32 12.758,8.633 0.265,2 0,4 -0.711,6.738 -5.496,-5.851 -11.477,-5.851 -15.246,-4.621 -3.211,1.035 -4.422,3.156 -4.422,3.156 -0.559,0.407 2.648,3.371 2.648,3.371 0,0 -5.089,-0.285 -4.867,4.586 -0.222,4.879 4.867,4.735 4.867,4.735 0,0 -3.207,2.961 -2.648,3.367 0,0 1.234,2.047 4.422,3.152 2.875,0.996 6.875,1.004 9.797,0.078 0.867,-0.277 2.84,-1.066 4.601,-2.621 0.442,2.223 -0.832,5.176 0.281,7.977 1.333,3.328 2.122,7.179 7.231,9.617 0,-2.871 -0.231,-6.52 0,-8.949 2.652,4.879 8.441,9.082 13.32,8.859 -5.543,-7.531 -6.504,-16.922 -10.199,-27.906 -3.105,-9.289 -2.769,-15.387 -7.488,-23.977 -2.02,-3.707 -6.688,-6.722 -6.688,-6.722 z" /><path
         id="path320"
         style="fill:#ffffff;fill-opacity:1;fill-rule:nonzero;stroke:none"
         d="m 136.547,610.957 c 0,3.301 2.68,5.981 5.988,5.981 3.305,0 5.981,-2.68 5.981,-5.981 0,-3.305 -2.676,-5.98 -5.981,-5.98 -3.308,0 -5.988,2.675 -5.988,5.98" /><path
         id="path322"
         style="fill:none;stroke:#121212;stroke-width:1.57718003;stroke-linecap:butt;stroke-linejoin:miter;stroke-miterlimit:3.86369991;stroke-dasharray:none;stroke-opacity:1"
         d="m 136.547,610.957 c 0,3.301 2.68,5.981 5.988,5.981 3.305,0 5.981,-2.68 5.981,-5.981 0,-3.305 -2.676,-5.98 -5.981,-5.98 -3.308,0 -5.988,2.675 -5.988,5.98 z" /><path
         id="path324"
         style="fill:none;stroke:#121212;stroke-width:1.57718003;stroke-linecap:butt;stroke-linejoin:miter;stroke-miterlimit:3.86369991;stroke-dasharray:none;stroke-opacity:1"
         d="m 224.93,610.957 c 0,0 -5.977,0 -11.063,1.543" /><path
         id="path326"
         style="fill:none;stroke:#121212;stroke-width:1.57718003;stroke-linecap:butt;stroke-linejoin:miter;stroke-miterlimit:3.86369991;stroke-dasharray:none;stroke-opacity:1"
         d="m 224.93,610.957 c 0,0 -5.977,0 -11.063,-1.555" /><path
         id="path328"
         style="fill:none;stroke:#121212;stroke-width:1.57718003;stroke-linecap:butt;stroke-linejoin:miter;stroke-miterlimit:3.86369991;stroke-dasharray:none;stroke-opacity:1"
         d="m 205.883,630.016 c 0,0 0,-5.985 -1.547,-11.075" /><path
         id="path330"
         style="fill:none;stroke:#121212;stroke-width:1.57718003;stroke-linecap:butt;stroke-linejoin:miter;stroke-miterlimit:3.86369991;stroke-dasharray:none;stroke-opacity:1"
         d="m 205.883,630.016 c 0,0 0,-5.985 1.562,-11.075" /><path
         id="path332"
         style="fill:#ffffff;fill-opacity:1;fill-rule:nonzero;stroke:none"
         d="m 199.906,611.621 c 0,3.297 2.68,5.973 5.977,5.973 3.312,0 5.98,-2.676 5.98,-5.973 0,-3.301 -2.668,-5.973 -5.98,-5.973 -3.297,0 -5.977,2.672 -5.977,5.973" /><path
         id="path334"
         style="fill:none;stroke:#121212;stroke-width:1.57718003;stroke-linecap:butt;stroke-linejoin:miter;stroke-miterlimit:3.86369991;stroke-dasharray:none;stroke-opacity:1"
         d="m 199.906,611.621 c 0,3.297 2.68,5.973 5.977,5.973 3.312,0 5.98,-2.676 5.98,-5.973 0,-3.301 -2.668,-5.973 -5.98,-5.973 -3.297,0 -5.977,2.672 -5.977,5.973 z" /><path
         id="path336"
         style="fill:none;stroke:#121212;stroke-width:1.57718003;stroke-linecap:butt;stroke-linejoin:miter;stroke-miterlimit:3.86369991;stroke-dasharray:none;stroke-opacity:1"
         d="m 186.836,610.957 c 0,0 5.984,0 11.078,-1.555" /><path
         id="path338"
         style="fill:none;stroke:#121212;stroke-width:1.57718003;stroke-linecap:butt;stroke-linejoin:miter;stroke-miterlimit:3.86369991;stroke-dasharray:none;stroke-opacity:1"
         d="m 186.836,610.957 c 0,0 5.984,0 11.078,1.543" /><path
         id="path340"
         style="fill:none;stroke:#121212;stroke-width:1.57718003;stroke-linecap:butt;stroke-linejoin:miter;stroke-miterlimit:3.86369991;stroke-dasharray:none;stroke-opacity:1"
         d="m 97.3398,610.957 c 0,0 -5.9843,0 -11.0664,1.543" /><path
         id="path342"
         style="fill:none;stroke:#121212;stroke-width:1.57718003;stroke-linecap:butt;stroke-linejoin:miter;stroke-miterlimit:3.86369991;stroke-dasharray:none;stroke-opacity:1"
         d="m 97.3398,610.957 c 0,0 -5.9843,0 -11.0664,-1.555" /><path
         id="path344"
         style="fill:none;stroke:#121212;stroke-width:1.57718003;stroke-linecap:butt;stroke-linejoin:miter;stroke-miterlimit:3.86369991;stroke-dasharray:none;stroke-opacity:1"
         d="m 78.2891,630.016 c 0,0 0,-5.985 -1.5625,-11.075" /><path
         id="path346"
         style="fill:none;stroke:#121212;stroke-width:1.57718003;stroke-linecap:butt;stroke-linejoin:miter;stroke-miterlimit:3.86369991;stroke-dasharray:none;stroke-opacity:1"
         d="m 78.2891,630.016 c 0,0 0,-5.985 1.539,-11.075" /><path
         id="path348"
         style="fill:none;stroke:#121212;stroke-width:1.57718003;stroke-linecap:butt;stroke-linejoin:miter;stroke-miterlimit:3.86369991;stroke-dasharray:none;stroke-opacity:1"
         d="m 59.2383,610.957 c 0,0 5.9805,0 11.0781,-1.555" /><path
         id="path350"
         style="fill:none;stroke:#121212;stroke-width:1.57718003;stroke-linecap:butt;stroke-linejoin:miter;stroke-miterlimit:3.86369991;stroke-dasharray:none;stroke-opacity:1"
         d="m 59.2383,610.957 c 0,0 5.9805,0 11.0781,1.543" /><path
         id="path352"
         style="fill:none;stroke:#121212;stroke-width:1.57718003;stroke-linecap:butt;stroke-linejoin:miter;stroke-miterlimit:3.86369991;stroke-dasharray:none;stroke-opacity:1"
         d="m 123.492,610.957 c 0,0 5.969,0 11.059,1.543" /><path
         id="path354"
         style="fill:none;stroke:#121212;stroke-width:1.57718003;stroke-linecap:butt;stroke-linejoin:miter;stroke-miterlimit:3.86369991;stroke-dasharray:none;stroke-opacity:1"
         d="m 123.492,610.957 c 0,0 5.969,0 11.059,-1.555" /><path
         id="path356"
         style="fill:none;stroke:#121212;stroke-width:1.57718003;stroke-linecap:butt;stroke-linejoin:miter;stroke-miterlimit:3.86369991;stroke-dasharray:none;stroke-opacity:1"
         d="m 142.535,630.016 c 0,0 0,-5.985 1.551,-11.075" /><path
         id="path358"
         style="fill:none;stroke:#121212;stroke-width:1.57718003;stroke-linecap:butt;stroke-linejoin:miter;stroke-miterlimit:3.86369991;stroke-dasharray:none;stroke-opacity:1"
         d="m 142.535,630.016 c 0,0 0,-5.985 -1.543,-11.075" /><path
         id="path360"
         style="fill:none;stroke:#121212;stroke-width:1.57718003;stroke-linecap:butt;stroke-linejoin:miter;stroke-miterlimit:3.86369991;stroke-dasharray:none;stroke-opacity:1"
         d="m 161.582,610.957 c 0,0 -5.992,0 -11.074,-1.555" /><path
         id="path362"
         style="fill:none;stroke:#121212;stroke-width:1.57718003;stroke-linecap:butt;stroke-linejoin:miter;stroke-miterlimit:3.86369991;stroke-dasharray:none;stroke-opacity:1"
         d="m 161.582,610.957 c 0,0 -5.992,0 -11.074,1.543" /><path
         id="path364"
         style="fill:none;stroke:#121212;stroke-width:1.57718003;stroke-linecap:butt;stroke-linejoin:miter;stroke-miterlimit:3.86369991;stroke-dasharray:none;stroke-opacity:1"
         d="m 252.762,610.941 c 0,0 9.738,-0.207 14.84,-1.757" /><path
         id="path366"
         style="fill:none;stroke:#121212;stroke-width:1.57718003;stroke-linecap:butt;stroke-linejoin:miter;stroke-miterlimit:3.86369991;stroke-dasharray:none;stroke-opacity:1"
         d="m 252.762,610.941 c 0,0 9.738,-0.207 14.84,1.34" /><path
         id="path368"
         style="fill:none;stroke:#121212;stroke-width:1.57718003;stroke-linecap:butt;stroke-linejoin:miter;stroke-miterlimit:3.86369991;stroke-dasharray:none;stroke-opacity:1"
         d="m 32.6563,610.98 c 0,0 -9.7618,-0.207 -14.8399,-1.761" /><path
         id="path370"
         style="fill:none;stroke:#121212;stroke-width:1.57718003;stroke-linecap:butt;stroke-linejoin:miter;stroke-miterlimit:3.86369991;stroke-dasharray:none;stroke-opacity:1"
         d="m 32.6563,610.98 c 0,0 -9.7618,-0.207 -14.8399,1.34" /><path
         id="path372"
         style="fill:#ffffff;fill-opacity:1;fill-rule:nonzero;stroke:none"
         d="m 72.3047,610.805 c 0,3.3 2.6836,5.968 5.9844,5.968 3.2968,0 5.9687,-2.668 5.9687,-5.968 0,-3.317 -2.6719,-5.989 -5.9687,-5.989 -3.3008,0 -5.9844,2.672 -5.9844,5.989" /><path
         id="path374"
         style="fill:none;stroke:#121212;stroke-width:1.57718003;stroke-linecap:butt;stroke-linejoin:miter;stroke-miterlimit:3.86369991;stroke-dasharray:none;stroke-opacity:1"
         d="m 72.3047,610.805 c 0,3.3 2.6836,5.968 5.9844,5.968 3.2968,0 5.9687,-2.668 5.9687,-5.968 0,-3.317 -2.6719,-5.989 -5.9687,-5.989 -3.3008,0 -5.9844,2.672 -5.9844,5.989 z" /><path
         id="path376"
         style="fill:#fbe11e;fill-opacity:1;fill-rule:nonzero;stroke:none"
         d="m 192.324,388.785 c 0,4.86 20.887,11.469 21.414,41.332 0.481,27.492 -17.82,39.903 -16.39,53.129 -3.285,-3.176 -3.93,-11.308 -3.856,-14.07 0.41,-17.836 -8.281,-20.785 -6.418,-38.36 -7.777,16.309 -1.035,25.532 -1.363,38.34 -0.906,34.735 -21.449,31.219 -22.59,48.582 -5.719,-4.828 -5.832,-9.441 -4.933,-14.308 4.121,-22.321 -8.161,-24.637 -4.95,-40.035 -14.812,19.765 13.211,32.527 -14.644,68.164 7.777,-26.825 -55.3323,-62.008 -28.805,-108.18 -4.117,2.191 -13.3281,6.402 -19.5859,18.07 -6.5234,12.196 -2.6679,20.684 -11.6484,30.715 1.375,-18.687 -8.8594,-27.934 -7.0313,-51.828 1.8438,-24.324 19.5508,-25.641 20.0821,-31.551 H 192.324" /><path
         id="path378"
         style="fill:#346cbe;fill-opacity:1;fill-rule:nonzero;stroke:none"
         d="M 132.051,433.93 C 114.16,417.617 127.5,394.027 127.5,394.027 l -1.445,0.309 c -2.473,1.566 -10.129,10.117 -8.274,24.098 0.957,7.097 8.414,16.511 11.211,19.129 4.723,4.949 8.914,7.906 11.211,14.082 0.969,2.617 0.797,9.605 0,12.078 18.027,-7.336 22.027,-20.508 18.516,-28.137 -3.145,-6.813 -3.508,-13.219 -2.508,-16.934 7.41,3.715 11.469,15.645 11.914,18.188 17.324,-16.918 2.488,-42.152 -6.672,-42.481 5.539,4.153 15.145,24.368 7.863,36.262 -0.679,-5.269 -6.371,-12.769 -15.843,-16.582 -2.969,7.617 -1.231,17.875 0.254,22.527 2.043,6.403 -0.653,15.079 -7.926,19.43 0.926,-8.32 -5.442,-14.496 -13.75,-22.066" /><path
         id="path380"
         style="fill:#fbe11e;fill-opacity:1;fill-rule:evenodd;stroke:none"
         d="m 99.1406,437.371 c 0,0 -9.6797,7.164 -8.2578,29.531 0.5625,8.891 4.5117,11.5 7.8086,20.164 4.0116,10.528 1.9566,26.114 1.9566,26.114 0,0 19.008,-12.754 7.754,-30.524 -17.5231,-27.644 -9.2614,-45.285 -9.2614,-45.285" /><path
         id="path382"
         style="fill:#fbe11e;fill-opacity:1;fill-rule:nonzero;stroke:none"
         d="M 84.7031,377.383 H 199.676 l -3.426,7.125 H 87.9844 l -3.2813,-7.125" /><path
         id="path384"
         style="fill:#fbe11e;fill-opacity:1;fill-rule:evenodd;stroke:none"
         d="M 91.7852,372.914 H 192.109 c 0,0 -12.339,-2.625 -21.011,-11.355 h -56.5 c 0,0 -8.66,8.058 -22.8128,11.355" /><path
         id="path386"
         style="fill:#fbe11e;fill-opacity:1;fill-rule:evenodd;stroke:none"
         d="m 120.711,357.555 8.551,-89.035 c 0,0 0.16,-6.817 12.093,-6.817 h 0.665 c 11.925,0 12.089,6.817 12.089,6.817 l 10.45,89.035 h -43.848" /><path
         id="path388"
         style="fill:#346cbe;fill-opacity:1;fill-rule:evenodd;stroke:none"
         d="m 146.875,343.785 c -0.012,-0.012 -2.445,-61.094 -2.633,-66.008 -0.429,-0.75 -1,-1.132 -1.676,-0.984 -0.671,0.137 -1.371,0.82 -1.394,1.844 -0.012,0.019 -2.887,65.148 -2.887,65.148 0.004,3.164 1.383,4.531 4.672,4.805 1.652,-0.277 4.078,-1.274 3.918,-4.805 z m 2.387,-0.101 c 0.187,3.793 -2.012,6.496 -5.664,7.214 0,0 -0.532,0.118 -0.805,0.102 -0.168,0.016 -0.313,0.051 -0.473,0.059 -2.168,0.136 -4.156,-0.563 -5.617,-1.922 -1.433,-1.367 -2.203,-3.235 -2.203,-5.41 l 3.68,-66.407 c 0.121,-2.121 1.406,-3.105 4.07,-3.105 1.852,0 2.941,0.301 3.648,1.023 l 0.473,1.438 c 0.039,0.078 0.09,0.117 0.133,0.183 l -0.059,0.02 0.176,0.547 c 0,-0.078 2.641,66.258 2.641,66.258" /><path
         id="path390"
         style="fill:#121212;fill-opacity:1;fill-rule:nonzero;stroke:none"
         d="m 386.605,177.457 h -18.988 v 4.801 h 44.071 l -0.399,-4.801 h -19.191 v -63.766 h -5.493 v 63.766" /><path
         id="path392"
         style="fill:#121212;fill-opacity:1;fill-rule:nonzero;stroke:none"
         d="m 445.699,124.688 c 1.797,4.097 2.395,7.191 2.395,12.988 0,7.101 -1,12.094 -2.899,15.691 -1.996,4 -6.496,6.801 -11.793,6.801 -5.496,0 -9.695,-2.902 -11.492,-6.199 -1.902,-3.399 -3,-8.196 -3,-14.395 0,-7.094 1.301,-13.09 3.399,-16.488 1.898,-3.098 6.097,-5.996 11.496,-5.996 5.996,0 9.992,3.297 11.894,7.598 z m -28.086,-3.797 c -3,4.496 -4.601,10.386 -4.601,17.886 0,7.7 1.898,14.192 5.199,18.59 3.098,4.098 8.297,7.297 15.289,7.297 8.199,0 13.395,-4.098 16.293,-8.496 2.898,-4.395 4.395,-10.195 4.395,-18.094 0,-6.797 -1.395,-12.09 -3.793,-16.187 -3.102,-5.496 -8.899,-9.293 -16.696,-9.293 -7.695,0 -12.992,3.597 -16.086,8.297" /><path
         id="path394"
         style="fill:#121212;fill-opacity:1;fill-rule:nonzero;stroke:none"
         d="m 472.605,114.191 c -2.699,1.602 -3.894,4.598 -3.894,9.192 v 35.98 h -6.5 v 4.098 h 6.5 c 0,5.098 0.594,11.695 0.797,12.793 l 5.801,1.203 c -0.305,-1.004 -1.106,-7.398 -1.106,-13.996 h 12.293 l -1.695,-4.098 h -10.797 v -34.578 c 0,-5.5 1.699,-8.191 6.699,-8.191 2.301,0 3.797,0.394 5.195,1.097 l 0.801,-3.597 c -2.199,-1.102 -4.601,-1.699 -7.797,-1.699 -2.8,0 -4.699,0.8 -6.297,1.796" /><path
         id="path396"
         style="fill:#121212;fill-opacity:1;fill-rule:nonzero;stroke:none"
         d="m 522.391,124.285 c -0.098,0.598 0,3.899 0,4.699 0,1.996 0.203,8.891 0.203,10.59 -1.203,0.106 -3,0.203 -4.5,0.203 -13.09,0 -19.188,-4.097 -19.188,-12.793 0,-6 2.899,-10.293 10.692,-10.293 5.3,0 10.093,2.899 12.793,7.594 z m 0.699,-4.894 c -4.297,-4.7 -8.692,-6.797 -14.391,-6.797 -12.293,0 -15.789,7.195 -15.789,13.89 0,11.293 9.692,17.09 25.485,17.09 2,0 3.898,-0.097 4.398,-0.199 v 4.598 c 0,4.797 -0.402,7.394 -1.996,9.195 -1.699,1.797 -3.902,2.902 -7.301,2.902 -5.894,0 -12.394,-2.902 -16.09,-6.101 l -2.699,3.898 c 5.898,4.098 12.496,6.699 19.492,6.699 5.996,0 10.094,-2.203 12.09,-6.199 1.801,-3.597 1.899,-7.297 1.801,-11.594 l -0.399,-17.89 c -0.203,-7.899 0.399,-10.895 4.297,-12.793 l -2.8,-3.899 c -3.196,1.102 -5.297,3.602 -6.098,7.2" /><path
         id="path398"
         style="fill:#121212;fill-opacity:1;fill-rule:nonzero;stroke:none"
         d="m 545.605,121.289 v 53.969 c 0,6.297 -0.996,9.597 -1.195,10.195 l 5.395,0.996 c 0.199,-0.496 1.297,-4.094 1.297,-11.39 v -52.575 c 0,-4.191 0.8,-5.394 3.101,-5.394 0.5,0 1.195,0.199 1.399,0.297 l 1.199,-3.598 c -1.602,-0.699 -2.5,-0.898 -4.098,-0.898 -4.797,0 -7.098,2.5 -7.098,8.398" /><path
         id="path400"
         style="fill:#121212;fill-opacity:1;fill-rule:nonzero;stroke:none"
         d="m 569.008,159.363 h -4.793 v 4.098 h 4.793 v 9.297 c 0,6.195 2.597,9.097 4.398,10.597 2,1.7 4.5,2.696 7.996,2.696 3.7,0 6.996,-0.899 9.594,-2.598 l -2.101,-3.898 c -1.895,1.203 -4.497,2.199 -6.993,2.199 -4.597,0 -7.195,-3.297 -7.195,-9.094 v -9.199 h 13.191 l -1.601,-4.098 h -11.59 v -45.672 h -5.699 v 45.672" /><path
         id="path402"
         style="fill:#121212;fill-opacity:1;fill-rule:nonzero;stroke:none"
         d="m 616.695,175.355 c 0,2.102 1.7,3.801 3.797,3.801 2.102,0 3.801,-1.699 3.801,-3.801 0,-2.097 -1.699,-3.796 -3.699,-3.796 -2.098,0 -3.899,1.699 -3.899,3.796 z m -17.09,0 c 0,2.102 1.7,3.801 3.7,3.801 2.093,0 3.793,-1.699 3.793,-3.801 0,-2.097 -1.594,-3.796 -3.696,-3.796 -2.097,0 -3.797,1.699 -3.797,3.796 z m 24.59,-50.667 c 1.797,4.097 2.395,7.191 2.395,12.988 0,7.101 -1,12.094 -2.899,15.691 -1.996,4 -6.496,6.801 -11.793,6.801 -5.496,0 -9.695,-2.902 -11.492,-6.199 -1.902,-3.399 -3,-8.196 -3,-14.395 0,-7.094 1.301,-13.09 3.399,-16.488 1.898,-3.098 6.097,-5.996 11.496,-5.996 5.996,0 9.992,3.297 11.894,7.598 z m -28.086,-3.797 c -3,4.496 -4.601,10.386 -4.601,17.886 0,7.7 1.898,14.192 5.199,18.59 3.098,4.098 8.297,7.297 15.289,7.297 8.199,0 13.395,-4.098 16.293,-8.496 2.899,-4.395 4.395,-10.195 4.395,-18.094 0,-6.797 -1.395,-12.09 -3.793,-16.187 -3.102,-5.496 -8.895,-9.293 -16.696,-9.293 -7.695,0 -12.992,3.597 -16.086,8.297" /><path
         id="path404"
         style="fill:#121212;fill-opacity:1;fill-rule:nonzero;stroke:none"
         d="m 646.91,152.969 c 0,6.597 -1.301,9.394 -1.597,9.996 l 5.394,1.398 c 0.297,-0.5 1.699,-3.297 1.5,-8.394 1.402,2.097 3.301,4.101 5.395,5.597 2.902,2.2 5.699,3.098 8.496,3.098 1.3,0 2.597,-0.402 2.699,-0.5 l -2.195,-5.797 c -0.504,0.199 -1.403,0.399 -2.204,0.399 -3.093,0 -6.093,-1.196 -8.695,-3.793 -2.598,-2.606 -3.394,-4.403 -3.394,-8.403 v -32.879 h -5.399 v 39.278" /><path
         id="path406"
         style="fill:#121212;fill-opacity:1;fill-rule:nonzero;stroke:none"
         d="m 671.609,117.289 2.102,4 c 4.496,-2.898 9.793,-4.496 15.488,-4.496 7.196,0 11.598,4.098 11.598,10.094 0,4.695 -2.402,7.992 -9.098,9.39 l -6.195,1.203 c -7.695,1.598 -12.098,6.094 -12.098,13.09 0,8.297 6.399,14.293 16.594,14.293 5.297,0 10.395,-1.5 14.195,-3.894 l -2.203,-4 c -3.695,2.097 -7.695,3.597 -12.191,3.597 -6.895,0 -10.797,-4 -10.797,-9.394 0,-4.801 2.699,-7.399 8.297,-8.598 l 6.394,-1.301 c 9.098,-1.898 12.793,-6.593 12.793,-13.386 0,-9.098 -6.894,-15.399 -17.586,-15.399 -6.3,0 -12.695,1.805 -17.293,4.801" /><path
         id="path408"
         style="fill:#121212;fill-opacity:1;fill-rule:nonzero;stroke:none"
         d="m 710.914,163.164 5.594,1.199 13.195,-38.578 c 0.899,-2.597 1.594,-5.597 1.797,-6.297 h 0.199 c 0.102,0.602 0.801,3.399 1.801,6.196 l 13.188,37.777 h 5.8 l -18.39,-50.266 h -5.399 l -17.785,49.969" /><path
         id="path410"
         style="fill:#121212;fill-opacity:1;fill-rule:nonzero;stroke:none"
         d="m 787.488,124.285 c -0.097,0.598 0,3.899 0,4.699 0,1.996 0.203,8.891 0.203,10.59 -1.203,0.106 -3,0.203 -4.5,0.203 -13.089,0 -19.187,-4.097 -19.187,-12.793 0,-6 2.898,-10.293 10.691,-10.293 5.301,0 10.094,2.899 12.793,7.594 z m 0.7,-4.894 c -4.297,-4.7 -8.692,-6.797 -14.391,-6.797 -12.293,0 -15.789,7.195 -15.789,13.89 0,11.293 9.691,17.09 25.484,17.09 2,0 3.899,-0.097 4.399,-0.199 v 4.598 c 0,4.797 -0.403,7.394 -1.996,9.195 -1.7,1.797 -3.903,2.902 -7.301,2.902 -5.895,0 -12.395,-2.902 -16.09,-6.101 l -2.699,3.898 c 5.898,4.098 12.496,6.699 19.492,6.699 5.996,0 10.094,-2.203 12.09,-6.199 1.801,-3.597 1.898,-7.297 1.801,-11.594 l -0.399,-17.89 c -0.203,-7.899 0.399,-10.895 4.297,-12.793 l -2.801,-3.899 c -3.195,1.102 -5.297,3.602 -6.097,7.2" /><path
         id="path412"
         style="fill:#121212;fill-opacity:1;fill-rule:nonzero;stroke:none"
         d="m 810.707,152.969 c 0,6.597 -1.297,9.394 -1.598,9.996 l 5.399,1.398 c 0.297,-0.5 1.699,-3.297 1.496,-8.394 1.402,2.097 3.301,4.101 5.398,5.597 2.899,2.2 5.696,3.098 8.496,3.098 1.297,0 2.598,-0.402 2.7,-0.5 l -2.2,-5.797 c -0.5,0.199 -1.398,0.399 -2.199,0.399 -3.097,0 -6.094,-1.196 -8.699,-3.793 -2.598,-2.606 -3.391,-4.403 -3.391,-8.403 v -32.879 h -5.402 v 39.278" /><path
         id="path414"
         style="fill:#121212;fill-opacity:1;fill-rule:nonzero;stroke:none"
         d="m 869.988,142.574 c 0,6 -1,9.793 -2.601,12.399 -1.899,3.093 -5.492,5.293 -10.094,5.293 -7.492,0 -12.992,-5.895 -13.488,-17.692 z m -32.383,-3.594 c 0,8.493 1.903,14.188 5.895,18.887 3.398,3.996 8,6.699 14.094,6.699 5.297,0 9.496,-2.101 12.492,-5.097 3.801,-4 5.699,-8.696 5.699,-19.895 v -1.097 h -31.98 v -2.598 c 0.097,-5.297 1.394,-9.594 3.293,-12.395 2.703,-3.996 7.199,-6.195 12.793,-6.195 5,0 9.195,1.399 12.593,4.496 l 2.204,-3.492 c -4.2,-3.602 -9.497,-5.602 -15.895,-5.602 -13.691,0 -21.188,10.594 -21.188,26.289" /><path
         id="path416"
         style="fill:#121212;fill-opacity:1;fill-rule:nonzero;stroke:none"
         d="m 893.402,114.191 c -2.699,1.602 -3.894,4.598 -3.894,9.192 v 35.98 h -6.5 v 4.098 h 6.5 c 0,5.098 0.594,11.695 0.793,12.793 l 5.801,1.203 C 895.801,176.453 895,170.059 895,163.461 h 12.293 l -1.699,-4.098 h -10.789 v -34.578 c 0,-5.5 1.695,-8.191 6.695,-8.191 2.297,0 3.797,0.394 5.195,1.097 l 0.801,-3.597 c -2.199,-1.102 -4.601,-1.699 -7.801,-1.699 -2.797,0 -4.695,0.8 -6.293,1.796" /><path
         id="path418"
         style="fill:#121212;fill-opacity:1;fill-rule:nonzero;stroke:none"
         d="m 913.402,117.289 2.102,4 c 4.496,-2.898 9.793,-4.496 15.488,-4.496 7.196,0 11.594,4.098 11.594,10.094 0,4.695 -2.402,7.992 -9.094,9.39 l -6.199,1.203 c -7.695,1.598 -12.094,6.094 -12.094,13.09 0,8.297 6.399,14.293 16.594,14.293 5.297,0 10.395,-1.5 14.191,-3.894 l -2.199,-4 c -3.699,2.097 -7.695,3.597 -12.195,3.597 -6.895,0 -10.793,-4 -10.793,-9.394 0,-4.801 2.699,-7.399 8.293,-8.598 l 6.398,-1.301 c 9.098,-1.898 12.793,-6.593 12.793,-13.386 0,-9.098 -6.894,-15.399 -17.59,-15.399 -6.296,0 -12.695,1.805 -17.289,4.801" /><path
         id="path420"
         style="fill:#121212;fill-opacity:1;fill-rule:nonzero;stroke:none"
         d="m 375.008,64.3633 h -4.793 v 4.0976 h 4.793 v 9.2969 c 0,6.1953 2.597,9.0977 4.402,10.5977 1.996,1.6992 4.496,2.6953 7.992,2.6953 3.7,0 6.996,-0.8985 9.594,-2.5977 l -2.098,-3.8984 c -1.894,1.2031 -4.5,2.1992 -6.992,2.1992 -4.601,0 -7.199,-3.2969 -7.199,-9.0937 v -9.1993 h 13.195 l -1.601,-4.0976 H 380.707 V 18.6914 h -5.699 v 45.6719" /><path
         id="path422"
         style="fill:#121212;fill-opacity:1;fill-rule:nonzero;stroke:none"
         d="m 430.199,29.6875 c 1.797,4.0977 2.399,7.1914 2.399,12.9883 0,7.1015 -1,12.0937 -2.903,15.6914 -1.996,4 -6.492,6.8008 -11.789,6.8008 -5.5,0 -9.699,-2.9024 -11.496,-6.1992 -1.898,-3.3985 -2.996,-8.1954 -2.996,-14.3946 0,-7.0937 1.297,-13.0898 3.399,-16.4883 1.898,-3.0976 6.097,-5.9961 11.492,-5.9961 5.996,0 9.996,3.2969 11.894,7.5977 z m -28.086,-3.7969 c -2.996,4.4961 -4.597,10.3867 -4.597,17.8867 0,7.6993 1.898,14.1915 5.199,18.5899 3.094,4.0976 8.297,7.2969 15.289,7.2969 8.195,0 13.391,-4.0977 16.293,-8.4961 2.894,-4.3946 4.394,-10.1953 4.394,-18.0938 0,-6.7969 -1.398,-12.0898 -3.793,-16.1875 -3.101,-5.4961 -8.898,-9.2929 -16.695,-9.2929 -7.695,0 -12.992,3.5976 -16.09,8.2968" /><path
         id="path424"
         style="fill:#121212;fill-opacity:1;fill-rule:nonzero;stroke:none"
         d="m 452.91,57.9688 c 0,6.5976 -1.301,9.3945 -1.597,9.996 l 5.394,1.3985 c 0.301,-0.5 1.699,-3.2969 1.5,-8.3945 1.402,2.0976 3.301,4.1015 5.395,5.5976 2.902,2.1992 5.699,3.0977 8.496,3.0977 1.3,0 2.597,-0.4024 2.703,-0.5 l -2.199,-5.7969 c -0.504,0.1992 -1.403,0.3984 -2.204,0.3984 -3.093,0 -6.093,-1.1953 -8.691,-3.7929 -2.602,-2.6055 -3.398,-4.4024 -3.398,-8.4024 V 18.6914 h -5.399 v 39.2774" /><path
         id="path426"
         style="fill:#121212;fill-opacity:1;fill-rule:nonzero;stroke:none"
         d="m 477.617,22.2891 2.098,4 c 4.5,-2.8985 9.797,-4.4961 15.488,-4.4961 7.199,0 11.598,4.0976 11.598,10.0937 0,4.6953 -2.403,7.9922 -9.098,9.3906 l -6.195,1.2032 c -7.695,1.5976 -12.094,6.0937 -12.094,13.0898 0,8.2969 6.395,14.293 16.59,14.293 5.301,0 10.398,-1.5 14.195,-3.8945 l -2.203,-4 c -3.695,2.0976 -7.695,3.5976 -12.191,3.5976 -6.895,0 -10.797,-4 -10.797,-9.3945 0,-4.8008 2.703,-7.3985 8.297,-8.5977 l 6.398,-1.3008 c 9.094,-1.8984 12.793,-6.5937 12.793,-13.3867 0,-9.0976 -6.894,-15.3984 -17.59,-15.3984 -6.297,0 -12.695,1.8047 -17.289,4.8008" /><path
         id="path428"
         style="fill:#121212;fill-opacity:1;fill-rule:nonzero;stroke:none"
         d="m 531.102,46.6758 20.488,21.7851 h 6.797 L 537.5,46.6758 562.387,18.6914 h -7.196 z m -6.098,33.7851 c 0,6.293 -1.098,9.6914 -1.297,10.1914 l 5.395,1.1016 c 0.199,-0.5039 1.304,-4.1016 1.304,-11.4961 V 18.6914 h -5.402 v 61.7695" /><path
         id="path430"
         style="fill:#121212;fill-opacity:1;fill-rule:nonzero;stroke:none"
         d="m 571.207,57.9688 c 0,5.5 -0.996,8.1992 -1.699,9.8984 l 5.297,1.3945 c 0.199,-0.3984 1.601,-3.4961 1.601,-7.8945 4.899,5.1992 10.293,7.9961 15.992,7.9961 5.098,0 9.192,-2.3985 11.094,-5.8945 1.196,-1.9024 1.899,-4.2969 1.899,-6.8985 V 18.6914 h -5.403 v 35.082 c 0,4.6993 -0.8,6.5938 -2.297,8.4922 -1.3,1.4024 -3.699,2.4024 -6.496,2.4024 -4.496,0 -10.691,-3.1016 -14.691,-7.6953 V 18.6914 h -5.297 v 39.2774" /><path
         id="path432"
         style="fill:#121212;fill-opacity:1;fill-rule:nonzero;stroke:none"
         d="m 622.699,68.4609 5.602,0.9024 V 18.6914 h -5.602 z m -1.5,15.6954 c 0,2.3984 2.004,4.3984 4.403,4.3984 2.394,0 4.394,-1.8984 4.394,-4.3984 0,-2.3985 -2,-4.3985 -4.394,-4.3985 -2.399,0 -4.403,2 -4.403,4.3985" /><path
         id="path434"
         style="fill:#121212;fill-opacity:1;fill-rule:nonzero;stroke:none"
         d="m 645.801,57.9688 c 0,5.5 -0.996,8.1992 -1.699,9.8984 l 5.296,1.3945 c 0.2,-0.3984 1.602,-3.4961 1.602,-7.8945 4.898,5.1992 10.293,7.9961 15.992,7.9961 5.098,0 9.196,-2.3985 11.094,-5.8945 1.195,-1.9024 1.898,-4.2969 1.898,-6.8985 V 18.6914 h -5.398 v 35.082 c 0,4.6993 -0.797,6.5938 -2.301,8.4922 -1.301,1.4024 -3.695,2.4024 -6.496,2.4024 -4.496,0 -10.691,-3.1016 -14.691,-7.6953 V 18.6914 h -5.297 v 39.2774" /><path
         id="path436"
         style="fill:#121212;fill-opacity:1;fill-rule:nonzero;stroke:none"
         d="m 723.184,53.1758 c 0,7.293 -3.801,11.6914 -11.293,11.6914 -7.399,0 -11.594,-4.3008 -11.594,-11.9961 0,-6.5977 4.195,-11.293 11.594,-11.293 7.195,0 11.293,3.9961 11.293,11.5977 z M 692.898,12.793 c 0,2.0039 0.403,3.5976 1.102,5.4023 l 5.695,0.4961 c -0.695,-1.2969 -1.398,-3.1992 -1.398,-4.8984 0,-2.8985 1.199,-5.29691 3.398,-6.79691 2.7,-1.69921 6.7,-2.69921 11.692,-2.69921 8.496,0 13.894,2.89843 13.894,10.50002 0,2.7969 -0.898,5.1914 -2.898,6.6914 -1.801,1.4023 -5,2.3008 -10.297,2.3008 -2.996,0 -7.391,-0.1993 -8.891,-0.1993 -6.097,0 -8.898,2.5 -8.898,6.3946 0,3.8008 3.199,6.4961 9.695,8.3945 -7.195,1.8984 -11.793,7.8945 -11.793,14.3945 0,9.8946 7.196,16.5899 17.793,16.5899 7.192,0 8.793,-2.7969 14.688,-2.7969 2.601,0 4.5,0.6992 6.797,2.2969 l 3.3,-3.3985 c -2.699,-1.996 -5,-2.7968 -7.894,-2.7968 -1.5,0 -2.703,0.1992 -3.703,0.5976 2.797,-2.5976 4.3,-5.9961 4.3,-9.9922 0,-6.0937 -2.898,-10.9921 -7.5,-13.5937 -2.894,-1.5977 -6.492,-2.0977 -9.691,-2 -6.5,-2.1953 -10.094,-4.2969 -10.094,-6.6953 0,-1.6992 1.5,-2.8985 4.996,-2.8985 0.5,0 7.399,0.1016 9.098,0.1016 5.895,0 9.09,-0.9023 11.688,-2.6992 3.703,-2.5 5.203,-6.0977 5.203,-10.1953 C 733.18,4.60156 725.484,0 713.887,0 698.797,0 692.898,5.69922 692.898,12.793" /><path
         id="path438"
         style="fill:#121212;fill-opacity:1;fill-rule:nonzero;stroke:none"
         d="m 741.004,22.2891 2.101,4 c 4.497,-2.8985 9.793,-4.4961 15.489,-4.4961 7.195,0 11.597,4.0976 11.597,10.0937 0,4.6953 -2.402,7.9922 -9.097,9.3906 l -6.196,1.2032 c -7.695,1.5976 -12.097,6.0937 -12.097,13.0898 0,8.2969 6.398,14.293 16.594,14.293 5.296,0 10.394,-1.5 14.195,-3.8945 l -2.203,-4 c -3.696,2.0976 -7.696,3.5976 -12.192,3.5976 -6.894,0 -10.797,-4 -10.797,-9.3945 0,-4.8008 2.7,-7.3985 8.297,-8.5977 l 6.395,-1.3008 c 9.098,-1.8984 12.793,-6.5937 12.793,-13.3867 0,-9.0976 -6.895,-15.3984 -17.586,-15.3984 -6.301,0 -12.695,1.8047 -17.293,4.8008" /><path
         id="path440"
         style="fill:#121212;fill-opacity:1;fill-rule:nonzero;stroke:none"
         d="m 788.398,68.4609 5.594,0.9024 V 18.6914 h -5.594 z m -1.5,15.6954 c 0,2.3984 2.004,4.3984 4.399,4.3984 2.398,0 4.394,-1.8984 4.394,-4.3984 0,-2.3985 -1.996,-4.3985 -4.394,-4.3985 -2.395,0 -4.399,2 -4.399,4.3985" /><path
         id="path442"
         style="fill:#121212;fill-opacity:1;fill-rule:nonzero;stroke:none"
         d="m 811.5,57.9688 c 0,5.5 -0.996,8.1992 -1.699,9.8984 l 5.297,1.3945 c 0.199,-0.3984 1.601,-3.4961 1.601,-7.8945 4.899,5.1992 10.293,7.9961 15.992,7.9961 5.098,0 9.192,-2.3985 11.094,-5.8945 1.195,-1.9024 1.899,-4.2969 1.899,-6.8985 V 18.6914 h -5.403 v 35.082 c 0,4.6993 -0.801,6.5938 -2.297,8.4922 -1.3,1.4024 -3.699,2.4024 -6.496,2.4024 -4.496,0 -10.691,-3.1016 -14.691,-7.6953 V 18.6914 H 811.5 v 39.2774" /><path
         id="path444"
         style="fill:#121212;fill-opacity:1;fill-rule:nonzero;stroke:none"
         d="m 857.203,22.2891 2.098,4 c 4.496,-2.8985 9.797,-4.4961 15.488,-4.4961 7.199,0 11.598,4.0976 11.598,10.0937 0,4.6953 -2.403,7.9922 -9.098,9.3906 l -6.195,1.2032 C 863.398,44.0781 859,48.5742 859,55.5703 c 0,8.2969 6.395,14.293 16.59,14.293 5.297,0 10.394,-1.5 14.195,-3.8945 l -2.203,-4 c -3.695,2.0976 -7.695,3.5976 -12.191,3.5976 -6.895,0 -10.797,-4 -10.797,-9.3945 0,-4.8008 2.699,-7.3985 8.297,-8.5977 l 6.394,-1.3008 c 9.098,-1.8984 12.793,-6.5937 12.793,-13.3867 0,-9.0976 -6.894,-15.3984 -17.586,-15.3984 -6.301,0 -12.695,1.8047 -17.289,4.8008" /><path
         id="path446"
         style="fill:#121212;fill-opacity:1;fill-rule:nonzero;stroke:none"
         d="m 908.797,19.1914 c -2.699,1.6016 -3.895,4.5977 -3.895,9.1914 v 35.9805 h -6.5 v 4.0976 h 6.5 c 0,5.0977 0.594,11.6954 0.797,12.793 l 5.801,1.2031 c -0.305,-1.0039 -1.105,-7.3984 -1.105,-13.9961 h 12.296 l -1.699,-4.0976 H 910.195 V 29.7852 c 0,-5.5 1.7,-8.1914 6.7,-8.1914 2.3,0 3.796,0.3945 5.195,1.0976 l 0.801,-3.5976 c -2.2,-1.1016 -4.602,-1.6993 -7.797,-1.6993 -2.801,0 -4.699,0.8008 -6.297,1.7969" /><path
         id="path448"
         style="fill:#121212;fill-opacity:1;fill-rule:nonzero;stroke:none"
         d="m 933.594,68.4609 5.594,0.9024 V 18.6914 h -5.594 z m -1.5,15.6954 c 0,2.3984 2.004,4.3984 4.398,4.3984 2.399,0 4.395,-1.8984 4.395,-4.3984 0,-2.3985 -1.996,-4.3985 -4.395,-4.3985 -2.394,0 -4.398,2 -4.398,4.3985" /><path
         id="path450"
         style="fill:#121212;fill-opacity:1;fill-rule:nonzero;stroke:none"
         d="m 960.895,19.1914 c -2.704,1.6016 -3.899,4.5977 -3.899,9.1914 v 35.9805 h -6.5 v 4.0976 h 6.5 c 0,5.0977 0.598,11.6954 0.797,12.793 l 5.801,1.2031 c -0.305,-1.0039 -1.106,-7.3984 -1.106,-13.9961 h 12.297 l -1.699,-4.0976 H 962.293 V 29.7852 c 0,-5.5 1.695,-8.1914 6.695,-8.1914 2.301,0 3.801,0.3945 5.196,1.0976 l 0.8,-3.5976 c -2.195,-1.1016 -4.597,-1.6993 -7.796,-1.6993 -2.797,0 -4.7,0.8008 -6.293,1.7969" /><path
         id="path452"
         style="fill:#121212;fill-opacity:1;fill-rule:nonzero;stroke:none"
         d="m 1013.87,25.2891 c -3.89,-5.0977 -9.39,-7.8946 -15.991,-7.8946 -5.793,0 -9.793,2.2969 -11.691,5.793 -1.301,1.9023 -2,4.6992 -2,7.8984 v 37.0782 l 5.3,1.0976 V 32.6875 c 0,-4.3047 0.899,-6.7969 3.094,-8.4961 1.602,-1.3008 4.098,-2.2031 6.797,-2.2031 5.201,0 10.601,3.3008 13.991,8.9961 v 37.1797 l 5.4,0.8984 V 31.0859 c 0,-5.9961 0.8,-8.2968 2.7,-10.3984 l -3.6,-3.5977 c -2.4,2.2032 -3.5,4.3008 -4,8.1993" /><path
         id="path454"
         style="fill:#121212;fill-opacity:1;fill-rule:nonzero;stroke:none"
         d="m 1040.49,19.1914 c -2.7,1.6016 -3.9,4.5977 -3.9,9.1914 v 35.9805 h -6.5 v 4.0976 h 6.5 c 0,5.0977 0.6,11.6954 0.8,12.793 l 5.8,1.2031 c -0.3,-1.0039 -1.11,-7.3984 -1.11,-13.9961 h 12.3 l -1.7,-4.0976 h -10.8 V 29.7852 c 0,-5.5 1.7,-8.1914 6.7,-8.1914 2.3,0 3.8,0.3945 5.2,1.0976 l 0.8,-3.5976 c -2.2,-1.1016 -4.6,-1.6993 -7.8,-1.6993 -2.8,0 -4.7,0.8008 -6.29,1.7969" /></g></g></svg>