<?xml version="1.0" encoding="UTF-8" standalone="no"?>
<svg
   xmlns:dc="http://purl.org/dc/elements/1.1/"
   xmlns:cc="http://creativecommons.org/ns#"
   xmlns:rdf="http://www.w3.org/1999/02/22-rdf-syntax-ns#"
   xmlns:svg="http://www.w3.org/2000/svg"
   xmlns="http://www.w3.org/2000/svg"
   viewBox="0 0 733.44 181.64"
   height="181.64"
   width="733.44"
   xml:space="preserve"
   id="svg2"
   version="1.1"><metadata
     id="metadata8"><rdf:RDF><cc:Work
         rdf:about=""><dc:format>image/svg+xml</dc:format><dc:type
           rdf:resource="http://purl.org/dc/dcmitype/StillImage" /></cc:Work></rdf:RDF></metadata><defs
     id="defs6" /><g
     transform="matrix(1.3333333,0,0,-1.3333333,0,181.64)"
     id="g10"><g
       transform="scale(0.1)"
       id="g12"><path
         id="path14"
         style="fill:#152456;fill-opacity:1;fill-rule:nonzero;stroke:none"
         d="m 4818.68,1362.31 c -101.34,0 -197.31,-22.06 -283.76,-61.65 l 25.16,-396.316 c 10.6,1.324 18.85,1.617 20.02,-0.071 3.27,-4.621 15.96,-35.687 17.21,-41.257 0.77,-3.375 -0.74,-7.192 -3.27,-10.969 12.03,-3.52 33.82,-9.609 34.55,-9.609 0,0 61.17,82.777 78.93,93.007 4.62,2.68 53.39,24.575 73.6,33.633 2.13,2.313 3.45,4.582 3.71,6.746 0.84,7.629 5.24,43.936 6.19,52.886 0.74,6.38 14.45,18.59 17.39,28.17 2.79,9.57 2.05,56.92 3.15,61.16 1.65,7.24 41.48,33.77 51.35,40.23 5.94,4.05 51.01,2.11 57.18,0.93 19.58,-3.66 36.08,-21.29 36.3,-27.5 0.15,-6.18 -2.01,-70.38 -2.01,-70.38 0,-5.69 22.19,-41.37 22.19,-52.34 0,-11 -2.32,-36.343 -2.32,-41.882 0,-1.504 1.32,-5.282 3.05,-9.942 13.93,-8.394 64.62,-39.054 73.35,-44.597 10.2,-6.305 42.25,-152.715 42.25,-152.715 l 42.14,-82.235 c 0,0 12.18,3.34 15.07,1.067 3.08,-2.278 6.57,-97.485 6.57,-97.485 v -0.109 c 5.42,-10.711 19.14,-38.473 19.14,-46.906 0,-10.086 -10.12,-18.817 -21.45,-25.492 0.25,-1.797 0.47,-3.594 0.47,-5.5 -0.14,-9.059 -3.3,-17.313 -8.39,-23.473 15.4,-7.555 41.33,-20.613 41.33,-22.371 0,-5.942 0.62,-11.078 -0.26,-147.949 0,0 -16.98,-13.641 -18.41,-13.641 -1.03,0 -57.76,3.262 -93.67,5.68 2.46,-26.621 3.82,-48.34 2.2,-54.86 -16.06,-7.961 -58.24,-12.332 -86.55,-14.34 -5.91,-21.199 -24.54,-87.218 -29.42,-86.921 -5.86,0.25 -11.62,0.179 -11.62,0.179 0,0 -35.36,-50.6872 -35.61,-55.4177 -0.26,-4.6914 13.24,-48.1484 13.24,-48.1484 l 34.14,-28.793 c 307.95,65.6797 539,339.3201 539,667.0861 0,376.665 -305.41,682.095 -682.14,682.095 z m -70.9,-1183.15 c -0.77,2.86 -5.57,46.32 -6.71,57.281 -50.83,4.368 -75.15,8.95 -81.56,16.688 -7.04,8.512 58.46,406.035 63.3,413.074 3.26,4.621 19.25,16.836 20.9,21.09 1.54,3.742 0.37,85.832 0.11,106.219 h -2.38 c -3.12,0 -89.45,-84.434 -117.4,-81.465 -20.13,2.09 -42.06,13.937 -53.1,20.695 l 44.59,-704.0311 c 48.38,-15 98.99,-24.74996 151.29,-28.7109 l 14.74,24.0898 0.44,38.1797 -20.65,110.1405 c 0,0 -12.72,3.41 -13.57,6.75 z m 245.87,542.02 h -1.46 c 0.77,-18.004 2.27,-48.961 2.27,-48.961 l 14.27,-25.453 c 4.99,-8.25 43.02,-188.989 43.02,-188.989 l 47.64,23.766 c -4.44,6.016 -6.93,13.719 -6.82,22.152 0,3.559 0.4,6.895 1.32,10.086 -1.76,0.332 -13.42,1.797 -15.44,5.282 -2.05,3.558 -3.12,41.113 1.39,50.136 -0.69,1.574 -1.69,3.41 -3.44,5.61 -6.72,8.804 -34.26,39.207 -33.78,44.343 0.29,4.657 5.32,10.856 5.32,10.856 z m 156.87,-395.801 0.33,111.312 -0.85,0.805 -32.86,-59.598 0.11,-1.097 32.53,-52.301 z m -91.22,107.973 -0.88,-0.731 2.9,-102.25 0.92,-0.769 27.32,47.636 -0.07,1.395 z m 19.44,8.253 -0.59,-1.32 24.61,-44.23 h 1.21 l 22.23,43.422 -0.51,1.066 z m 46.8,-120.664 0.44,1.18 -22.48,34.617 h -0.85 l -19.29,-31.906 0.26,-0.883 41.92,-3.008" /><path
         id="path16"
         style="fill:#152456;fill-opacity:1;fill-rule:nonzero;stroke:none"
         d="m 4502.43,779.063 c -8.73,7.777 -23.77,42.984 -22.96,63.082 0.84,19.293 13.38,42.066 17.71,48.96 0.99,1.579 5.06,3.411 10.86,5.172 l -24.24,382.603 c -211.62,-115.83 -355.13,-340.462 -355.13,-598.739 0,-288.856 179.76,-535.161 433.35,-634.6605 l -46.06,726.5785 c -5.06,1.687 -9.98,3.851 -13.53,7.004" /><path
         id="path18"
         style="fill:#152456;fill-opacity:1;fill-rule:nonzero;stroke:none"
         d="m 3755.32,668.336 c 0.79,45.93 -47.52,94.238 -103.75,94.238 -55.43,0 -102.16,-38.804 -108.49,-94.238 z m -309.65,-34.055 c 0,121.164 81.57,207.489 205.9,207.489 121.97,0 197.99,-82.364 197.99,-210.661 0,-11.086 0,-21.379 -0.79,-30.882 h -304.9 c 6.34,-52.27 52.27,-94.243 115.63,-94.243 51.47,0 95.82,18.215 130.67,51.477 l 38.01,-68.109 C 3787,449.758 3725.23,426.789 3659.5,426.789 c -137.01,0 -213.83,83.156 -213.83,207.492 z m -274.8,-128.297 c 64.15,0 98.99,58.606 98.99,128.297 0,70.481 -35.63,128.293 -95.03,128.293 -59.4,0 -103.75,-57.812 -103.75,-128.293 0,-69.691 40.39,-128.297 99.79,-128.297 z m -197.19,128.297 c 0,123.543 78.4,207.489 190.86,207.489 49.1,0 96.61,-23.758 116.41,-59.395 v 49.891 h 86.32 V 464.012 c 0,-114.043 -72.86,-195.614 -204.32,-195.614 -81.57,0 -140.97,24.551 -177.39,77.614 l 57.01,58.605 c 19.8,-25.344 55.44,-55.437 120.38,-55.437 89.49,0 106.91,72.066 106.91,118.789 v 11.879 c -21.38,-28.508 -59.39,-53.059 -114.04,-53.059 -108.5,0 -182.14,84.738 -182.14,207.492 z m -76.81,-197.988 h -97.41 v 395.973 h 97.41 z M 2847.77,1016 c 32.47,0 60.18,-27.723 60.18,-60.191 0,-32.469 -27.71,-60.188 -60.18,-60.188 -32.47,0 -60.19,27.719 -60.19,60.188 0,32.468 27.72,60.191 60.19,60.191 z M 2501.7,505.984 c 59.4,0 103.75,42.766 103.75,128.297 0,86.321 -44.35,128.293 -102.96,128.293 -50.68,0 -102.95,-41.972 -102.95,-128.293 0,-85.531 56.23,-128.297 102.16,-128.297 z m -199.57,128.297 c 0,123.543 77.61,207.489 194.82,207.489 44.35,0 89.49,-19.797 108.5,-46.723 v 195.609 h 97.41 V 436.293 h -86.33 v 55.434 c -17.42,-34.051 -60.18,-64.938 -123.54,-64.938 -114.83,0 -190.86,84.738 -190.86,207.492 z m -72.85,-197.988 h -97.41 v 395.973 h 97.41 z M 2180.18,1016 c 32.47,0 60.19,-27.723 60.19,-60.191 0,-32.469 -27.72,-60.188 -60.19,-60.188 -32.47,0 -60.19,27.719 -60.19,60.188 0,32.468 27.72,60.191 60.19,60.191 z M 1878.46,841.77 c 76.03,0 135.42,-24.551 163.14,-67.317 l -68.9,-58.601 c -22.96,29.3 -57.81,46.722 -95.82,46.722 -39.6,0 -68.11,-11.879 -68.11,-35.636 0,-26.926 25.34,-35.637 98.2,-47.516 102.95,-16.633 147.3,-53.856 147.3,-121.961 0,-76.027 -71.27,-130.672 -175.02,-130.672 -86.32,0 -151.26,26.926 -184.52,78.402 l 71.28,60.981 c 22.17,-34.051 72.85,-60.188 117.99,-60.188 41.19,0 72.86,18.215 72.86,42.766 0,30.883 -23.75,42.762 -98.2,53.852 -98.2,15.046 -147.3,49.89 -147.3,112.457 0,75.234 66.52,126.711 167.1,126.711 z m -517.13,-9.504 v -53.852 c 21.38,38.805 72.06,63.356 128.29,63.356 84.74,0 143.35,-61.774 143.35,-152.055 V 436.293 h -97.41 v 239.961 c 0,52.266 -27.72,87.906 -80.78,87.906 -44.35,0 -82.37,-35.64 -82.37,-96.621 V 436.293 H 1275 v 395.973 z m -258.17,-163.93 c 0.8,45.93 -47.51,94.238 -103.738,94.238 -55.438,0 -102.164,-38.804 -108.5,-94.238 z M 793.512,634.281 c 0,121.164 81.574,207.489 205.91,207.489 121.958,0 197.988,-82.364 197.988,-210.661 0,-11.086 0,-21.379 -0.8,-30.882 H 891.715 c 6.336,-52.27 52.269,-94.243 115.625,-94.243 51.48,0 95.82,18.215 130.67,51.477 l 38.01,-68.109 c -41.18,-39.594 -102.95,-62.563 -168.68,-62.563 -137.008,0 -213.828,83.156 -213.828,207.492 z M 668.391,1016 c 32.472,0 60.191,-27.723 60.191,-60.191 0,-32.469 -27.719,-60.188 -60.191,-60.188 -32.469,0 -60.188,27.719 -60.188,60.188 0,32.468 27.719,60.191 60.188,60.191 z m -66.52,-747.602 c -20.594,0 -38.808,3.172 -53.855,9.512 v 83.149 c 9.504,-3.168 16.632,-3.957 26.132,-3.957 27.723,0 45.938,15.836 45.938,45.929 v 429.235 h 97.406 V 399.863 c 0,-82.363 -43.554,-131.465 -115.621,-131.465 z M 280.355,512.32 c 91.864,0 153.637,64.149 156.012,145.719 H 294.609 v 87.906 h 236.793 c 2.375,-17.425 3.168,-34.054 3.168,-50.683 0,-159.977 -94.242,-268.473 -254.215,-268.473 C 112.461,426.789 -0.789063,543.996 0.00390625,713.473 0.796875,882.156 113.254,1000.16 281.145,1000.16 c 95.828,0 183.734,-46.726 216.996,-114.043 l -72.86,-53.851 c -26.926,49.101 -84.738,82.363 -144.136,82.363 -102.161,0 -178.981,-86.32 -178.981,-201.156 0,-115.621 75.234,-201.153 178.191,-201.153" /></g></g></svg>