<?xml version="1.0" encoding="utf-8"?>
<!-- Generator: Adobe Illustrator 26.0.2, SVG Export Plug-In . SVG Version: 6.00 Build 0)  -->
<svg version="1.1" id="Layer_1" xmlns="http://www.w3.org/2000/svg" xmlns:xlink="http://www.w3.org/1999/xlink" x="0px" y="0px"
	 viewBox="0 0 909.11 317.88" style="enable-background:new 0 0 909.11 317.88;" xml:space="preserve">
<style type="text/css">
	.st0{fill:#010101;}
</style>
<path class="st0" d="M838.36,128.98c-7.88-16.88-27.01-27.01-45.01-27.01s-32.63,10.13-41.63,23.63v-21.38h-18v149.65h18v-56.26
	c10.13,16.88,21.38,23.63,41.63,23.63s36.01-10.13,45.01-27.01C847.36,173.99,847.36,146.99,838.36,128.98z M825.98,161.61
	c0,23.63-12.38,43.88-37.13,43.88s-37.13-21.38-37.13-45.01c0-22.5,14.63-42.76,37.13-42.76
	C810.23,117.73,825.98,135.73,825.98,161.61z M717.96,139.11c-2.25-23.63-20.25-37.13-43.88-37.13c-23.63,0-43.88,12.38-43.88,34.88
	c0,19.13,14.63,30.38,36.01,30.38h7.88c14.63,0,27.01,2.25,27.01,18c0,13.5-12.38,19.13-27.01,19.13c-13.5,0-24.75-9-27.01-21.38
	h-19.13c4.5,28.13,28.13,38.26,46.13,38.26c23.63,0,46.13-12.38,46.13-36.01s-18-33.76-40.51-33.76h-5.63
	c-13.5,0-24.75-2.25-24.75-14.63s12.38-19.13,24.75-19.13c13.5,0,22.5,7.88,24.75,21.38H717.96z M612.19,195.37v-54.01
	c0-12.38-3.38-22.5-10.13-29.26c-7.88-6.75-19.13-10.13-33.76-10.13c-14.63,0-27.01,3.38-34.88,10.13
	c-7.88,6.75-12.38,15.75-13.5,27.01h19.13c2.25-12.38,14.63-21.38,29.26-21.38c12.38,0,24.75,4.5,24.75,18
	c0,11.25-10.13,13.5-22.5,13.5H559.3c-13.5,0-24.75,2.25-32.63,9c-6.75,5.63-11.25,14.63-11.25,25.88c0,12.38,4.5,21.38,11.25,27.01
	c7.88,6.75,18,10.13,29.26,10.13c9,0,16.88-2.25,24.75-6.75c6.75-4.5,11.25-11.25,14.63-19.13v2.25c0,6.75,1.13,11.25,4.5,14.63
	c4.5,4.5,9,5.63,15.75,5.63h4.5v-15.75h-2.25C614.44,202.12,612.19,199.87,612.19,195.37z M594.19,150.36v14.63
	c0,13.5-3.38,23.63-10.13,30.38s-14.63,10.13-24.75,10.13c-15.75,0-24.75-10.13-24.75-21.38c0-12.38,12.38-19.13,24.75-19.13h6.75
	c7.88,0,14.63-1.13,19.13-3.38S593.06,154.86,594.19,150.36z M515.42,117.73v-15.75h-10.13c-9,0-15.75,2.25-21.38,6.75
	c-5.63,3.38-10.13,9-13.5,15.75v-20.25h-18v113.65h19.13v-61.89c0-12.38,2.25-22.5,7.88-28.13c5.63-6.75,15.75-10.13,24.75-10.13
	H515.42z M315.13,145.86c0-33.76,20.25-58.51,51.76-58.51c23.63,0,43.88,13.5,48.38,41.63h18c-3.38-36.01-30.38-58.51-66.39-58.51
	c-37.13,0-70.89,27.01-70.89,75.39c0,37.13,21.38,75.39,68.64,75.39c21.38,0,42.76-9,50.63-28.13v24.75h18v-58.51
	c0-10.13-6.75-11.25-10.13-11.25h-58.51v16.88h49.51c-4.5,23.63-22.5,39.38-47.26,39.38C334.26,204.37,315.13,177.37,315.13,145.86z
	 M185.93,232H70.07c-2.21,0-4-1.79-4-4v-24c0-2.21,1.79-4,4-4h115.86c2.21,0,4,1.79,4,4v24C189.93,230.21,188.14,232,185.93,232z
	 M228.01,189.93h-24c-2.21,0-4-1.79-4-4V70.07c0-2.21,1.79-4,4-4h24c2.21,0,4,1.79,4,4v115.86
	C232,188.14,230.21,189.93,228.01,189.93z M192,128c0,35.35-28.65,64-64,64s-64-28.65-64-64s28.65-64,64-64S192,92.66,192,128z"/>
</svg>
