<?xml version="1.0" encoding="UTF-8" standalone="no"?>
<svg
   xmlns:dc="http://purl.org/dc/elements/1.1/"
   xmlns:cc="http://creativecommons.org/ns#"
   xmlns:rdf="http://www.w3.org/1999/02/22-rdf-syntax-ns#"
   xmlns:svg="http://www.w3.org/2000/svg"
   xmlns="http://www.w3.org/2000/svg"
   viewBox="0 0 227 224.56"
   height="224.56"
   width="227"
   xml:space="preserve"
   id="svg2"
   version="1.1"><metadata
     id="metadata8"><rdf:RDF><cc:Work
         rdf:about=""><dc:format>image/svg+xml</dc:format><dc:type
           rdf:resource="http://purl.org/dc/dcmitype/StillImage" /></cc:Work></rdf:RDF></metadata><defs
     id="defs6" /><g
     transform="matrix(1.3333333,0,0,-1.3333333,0,224.56)"
     id="g10"><g
       transform="scale(0.1)"
       id="g12"><path
         id="path14"
         style="fill:#2f77c5;fill-opacity:1;fill-rule:nonzero;stroke:none"
         d="m 1417.73,841.746 c 0,-308.484 -253.84,-558.445 -566.949,-558.445 -313.105,0 -566.906,249.961 -566.906,558.445 0,308.384 253.801,558.414 566.906,558.414 313.109,0 566.949,-250.03 566.949,-558.414" /><path
         id="path16"
         style="fill:#ffffff;fill-opacity:1;fill-rule:nonzero;stroke:none"
         d="m 777.949,992.801 c -0.734,-2.524 0.848,-5.793 4.383,-5.793 l 48.254,0.656 c 0,0 -64.941,-260.277 -78.086,-312.953 -16.469,-66.133 -43.09,-133.492 -62.023,-157.332 -16.961,-21.367 -28.274,-27.969 -39.786,-27.969 -16.062,-0.019 -24.406,11.578 -28.992,30.68 -3.086,13.789 -12.043,32.672 -31.957,32.672 -20.652,0 -49,-23.461 -49,-51.774 0,-38.289 63.953,-46.886 85.34,-46.886 42.16,0 96.652,26.828 133.367,68.898 46.711,52.809 72.641,119.039 96.899,212.277 l 59.297,252.793 62.109,-1.078 c 5.027,0 7.281,3.52 8.211,6.133 l 8.047,23.145 c 0.898,2.65 -0.52,5.95 -4.442,5.95 l -64.132,0.01 c 15.312,53.61 38.332,132.79 81.952,176.42 3.83,3.85 14.7,13.19 24.64,13.3 17.42,0.16 22.31,-9.81 29.57,-25.89 7.12,-15.82 5.91,-43.01 29.95,-43.01 27.76,0 48.65,31.04 48.65,52.46 0,29.1 -50.44,47.9 -90.72,47.9 -47.42,0 -92.675,-20.23 -125.574,-53.14 -47.289,-48.07 -68.984,-119.07 -83.508,-168.06 l -48.308,0.65 c -3.305,0 -6.059,-2.83 -6.797,-5.21 l -7.344,-24.849" /><path
         id="path18"
         style="fill:#ffffff;fill-opacity:1;fill-rule:nonzero;stroke:none"
         d="m 1027.36,728.969 c -0.54,-12.559 -7.76,-48.418 -47.419,-48.418 -23.242,0 -39.613,15.078 -38.437,41.515 1.152,27.02 20.398,49.059 46.855,49.696 18.841,0 40.371,-11.973 39.001,-42.793" /><path
         id="path20"
         style="fill:#ffffff;fill-opacity:1;fill-rule:nonzero;stroke:none"
         d="m 1165.53,728.969 c -0.54,-12.559 -7.77,-48.418 -47.42,-48.418 -23.25,0 -39.62,15.078 -38.45,41.515 1.16,27.02 20.41,49.059 46.86,49.696 18.84,0 40.37,-11.973 39.01,-42.793" /><path
         id="path22"
         style="fill:#ffffff;fill-opacity:1;fill-rule:nonzero;stroke:none"
         d="m 1303.73,728.969 c -0.53,-12.559 -7.76,-48.418 -47.43,-48.418 -23.24,0 -39.6,15.078 -38.45,41.515 1.17,27.02 20.42,49.059 46.87,49.696 18.83,0 40.38,-11.973 39.01,-42.793" /><path
         id="path24"
         style="fill:#ffffff;fill-opacity:1;fill-rule:nonzero;stroke:none"
         d="m 708.621,1196.91 c -28.191,-0.67 -49.043,-24.11 -50.848,-52.93 -1.699,-28.16 15.438,-44.28 40.235,-44.28 42.195,0 50.574,38.25 51.426,51.66 2,32.84 -20.676,45.55 -40.813,45.55" /><path
         id="path26"
         style="fill:#ffffff;fill-opacity:1;fill-rule:nonzero;stroke:none"
         d="m 639.766,826.496 44.363,107.082 c 9.18,21.461 20.168,49.195 20.168,67.542 0,23.74 -18.027,29.51 -31.016,29.51 -59.687,0 -123.73,-69.732 -148.488,-97.794 -1.758,-2.066 -2.957,-5.504 0.695,-9.027 l 11.231,-10.715 c 2.117,-1.934 5.906,-2.051 8.242,0.508 0,0 29.394,31.968 40.125,39.836 2.863,2.195 7.449,5.156 10.117,5.156 3.82,0 5.684,-5.699 5.684,-8.774 0,-9.953 -10.008,-33.66 -14.617,-45.902 L 540.273,787.543 c -16.046,-39.023 -23.574,-59.727 -23.574,-77.324 0,-19.883 11.121,-35.59 38.692,-35.59 63.847,-0.008 144.422,96.187 144.422,96.187 3.156,3.582 1.582,7.079 -0.364,8.883 l -11.914,11.399 c -1.961,1.914 -5.633,2.605 -8.523,-0.352 0,0 -43.125,-47.988 -57.813,-47.988 -6.629,0 -6.445,8.125 -6.445,9.433 0,7.071 4.355,19.981 6.621,26.114 l 18.391,48.191" /></g></g></svg>