<?xml version="1.0" encoding="UTF-8" standalone="no"?>
<!-- Created with Inkscape (http://www.inkscape.org/) -->

<svg
   width="183.42343mm"
   height="71.401779mm"
   viewBox="0 0 183.42343 71.401779"
   version="1.1"
   id="svg5"
   xml:space="preserve"
   xmlns:inkscape="http://www.inkscape.org/namespaces/inkscape"
   xmlns:sodipodi="http://sodipodi.sourceforge.net/DTD/sodipodi-0.dtd"
   xmlns="http://www.w3.org/2000/svg"
   xmlns:svg="http://www.w3.org/2000/svg"><sodipodi:namedview
     id="namedview7"
     pagecolor="#ffffff"
     bordercolor="#999999"
     borderopacity="1"
     inkscape:showpageshadow="0"
     inkscape:pageopacity="0"
     inkscape:pagecheckerboard="0"
     inkscape:deskcolor="#d1d1d1"
     inkscape:document-units="mm"
     showgrid="false" /><defs
     id="defs2" /><g
     inkscape:label="Lager 1"
     inkscape:groupmode="layer"
     id="layer1"
     transform="translate(-14.204909,-24.843089)"><path
       style="fill:#000000;stroke-width:0.071785"
       d="m 48.186126,96.212963 c -0.812498,-0.032 -2.72309,-0.22809 -3.732823,-0.3831 -6.717235,-1.0312 -12.981935,-3.96571 -18.161617,-8.50727 -1.066428,-0.93504 -3.137545,-3.07386 -3.982573,-4.11275 -4.048474,-4.97725 -6.611983,-10.59542 -7.643659,-16.75178 -0.377982,-2.25555 -0.460393,-3.31282 -0.460545,-5.90842 -1.44e-4,-2.45938 0.06946,-3.44214 0.391473,-5.52745 1.341282,-8.6859 5.959838,-16.66775 12.879757,-22.25896 9.458023,-7.64197 22.152019,-9.93522 33.685584,-6.08552 1.063518,0.35499 1.237843,0.45664 1.237843,0.7218 0,0.17786 -1.400498,3.93621 -1.525991,4.09513 -0.118915,0.15059 -0.385488,0.10424 -1.527684,-0.26558 -3.165159,-1.02482 -5.996297,-1.46446 -9.436924,-1.46543 -2.479122,-7e-4 -4.100856,0.16012 -6.394604,0.63411 -8.32669,1.72068 -15.792612,7.09053 -20.189934,14.52158 -2.240419,3.78609 -3.608139,7.94879 -4.114309,12.52204 -0.16652,1.5045 -0.166983,4.70805 -8.98e-4,6.20795 0.428031,3.86553 1.43795,7.33707 3.097406,10.64716 0.604105,1.205 0.969555,1.82985 1.868291,3.19444 6.915482,10.50003 19.535574,15.74768 31.844119,13.24134 7.730707,-1.57416 14.554933,-6.06034 19.131588,-12.57691 1.609549,-2.29179 2.964828,-4.9662 3.891827,-7.67986 3.555886,-10.40936 1.282237,-21.92643 -5.954796,-30.16375 -1.398214,-1.59148 -3.133482,-3.20483 -4.78377,-4.44769 -0.595345,-0.44837 -0.735797,-0.58902 -0.735797,-0.73686 0,-0.11867 0.393604,-0.75274 1.1229,-1.80892 0.617594,-0.89442 1.188532,-1.69889 1.268751,-1.78773 0.251365,-0.27836 0.436677,-0.20731 1.439614,0.55194 7.524159,5.69603 12.462149,14.04236 13.826789,23.37043 0.260198,1.7786 0.322492,2.76823 0.323078,5.13263 5.74e-4,2.36312 -0.05248,3.18967 -0.327195,5.09674 -1.420474,9.86077 -7.03491,18.80183 -15.320923,24.39877 -2.850172,1.9252 -5.521695,3.24801 -8.721884,4.31868 -4.210826,1.4088 -8.404259,1.99401 -12.993094,1.81324 z m 0.14357,-7.6031 c -0.21715,-0.0152 -0.878848,-0.078 -1.470443,-0.13958 -8.599678,-0.89466 -16.434457,-5.87112 -20.988844,-13.3316 -0.322463,-0.52822 -0.36531,-0.76082 -0.17095,-0.92803 0.216776,-0.1865 3.723992,-1.996 3.866457,-1.99484 0.222597,0.002 0.283343,0.0711 0.945881,1.07848 2.302821,3.50152 5.605595,6.38206 9.397099,8.19574 5.876435,2.81101 12.69798,3.00058 18.767809,0.52154 3.870108,-1.58063 7.339221,-4.30062 9.919455,-7.77743 2.303414,-3.10381 3.802293,-6.89717 4.329323,-10.95667 0.152063,-1.17128 0.171931,-4.03107 0.03591,-5.16852 -0.389838,-3.25987 -1.310073,-6.15662 -2.803289,-8.82429 -5.166422,-9.22996 -15.771149,-13.81471 -25.991941,-11.23712 -4.019337,1.01363 -7.722712,3.12523 -10.696333,6.09885 -2.998107,2.99811 -5.095085,6.69585 -6.126918,10.80401 -0.714458,2.84457 -0.875593,6.12984 -0.438348,8.93724 0.191759,1.23122 0.192957,1.24963 0.09026,1.38644 -0.06976,0.0929 -0.661997,0.27214 -2.069439,0.62619 -2.047615,0.51509 -2.365689,0.56617 -2.502076,0.40184 -0.10341,-0.12461 -0.324888,-1.32633 -0.487758,-2.64656 -0.178144,-1.44403 -0.177399,-4.8434 0.0014,-6.30035 0.393429,-3.20622 1.24151,-6.12959 2.599726,-8.96135 0.896476,-1.86908 2.103189,-3.78121 3.450405,-5.46744 0.952648,-1.19238 3.00001,-3.25042 4.155102,-4.17678 3.807451,-3.05348 8.098475,-5.02617 12.771202,-5.87123 2.820439,-0.51008 6.129241,-0.56326 8.979669,-0.14434 5.651195,0.83054 10.742597,3.25126 14.967183,7.11619 8.098211,7.40877 11.12654,18.87235 7.745678,29.32087 -1.692731,5.23136 -4.909572,9.88122 -9.217272,13.32333 -4.148292,3.31473 -9.160749,5.38669 -14.464688,5.97915 -0.999593,0.11165 -3.772362,0.19389 -4.594243,0.13626 z m 57.320364,-0.78786 c -0.11844,-0.0164 -0.52223,-0.065 -0.89731,-0.10801 -1.52235,-0.17441 -3.32335,-0.63119 -4.809605,-1.21983 -0.955,-0.37824 -2.30618,-1.05813 -2.34611,-1.18052 -0.0279,-0.0854 2.18015,-3.73188 2.25811,-3.72918 0.0287,9.9e-4 0.520505,0.23398 1.092995,0.51774 2.21843,1.09963 4.2979,1.59592 6.30786,1.50545 1.01784,-0.0458 1.55285,-0.16465 2.23399,-0.49622 0.9349,-0.45509 1.43628,-1.22329 1.43628,-2.20064 0,-0.68497 -0.16028,-1.09658 -0.60092,-1.54326 -0.67535,-0.6846 -1.59803,-1.05908 -4.53172,-1.83923 -3.36984,-0.89613 -4.7916,-1.51923 -5.981685,-2.62152 -1.13582,-1.05206 -1.7291,-2.37441 -1.84948,-4.1223 -0.19042,-2.76474 1.22259,-5.1504 3.829105,-6.46485 0.65374,-0.32968 1.631,-0.66469 2.3869,-0.81823 2.89676,-0.58843 6.70902,-0.0828 10.06666,1.33527 0.46457,0.1962 0.84467,0.365 0.84467,0.37509 0,0.0101 -0.38747,0.83884 -0.86103,1.84165 -0.47357,1.00281 -0.87069,1.85171 -0.88247,1.88644 -0.0118,0.0347 -0.28252,-0.0516 -0.60162,-0.19195 -1.12447,-0.4944 -2.43124,-0.88067 -3.72116,-1.09993 -1.02613,-0.17442 -2.99586,-0.17552 -3.61896,-0.002 -1.42689,0.39733 -2.26544,1.24052 -2.35603,2.36908 -0.0928,1.1555 0.63382,1.98934 2.26586,2.60037 0.34255,0.12825 1.54682,0.47704 2.67617,0.77509 2.20694,0.58244 3.34454,0.95777 4.26029,1.40561 2.56376,1.25378 3.77215,3.16388 3.77215,5.96263 0,1.25171 -0.19244,2.11977 -0.69041,3.11411 -0.97209,1.9411 -3.06701,3.28375 -5.90587,3.78514 -0.79586,0.14056 -3.19468,0.24473 -3.77666,0.16401 z m 18.8615,-0.0347 c -0.66896,-0.087 -1.50133,-0.33343 -1.98949,-0.58907 -0.25325,-0.13263 -0.65829,-0.45154 -0.97499,-0.76768 -0.61986,-0.61877 -0.97092,-1.25766 -1.23159,-2.24139 -0.15435,-0.5825 -0.159,-0.72403 -0.19735,-6.01631 l -0.0393,-5.41977 -1.45365,-0.0194 -1.45365,-0.0194 v -1.75725 -1.75724 h 1.4716 1.47159 v -2.26123 -2.26123 h 2.47659 2.47658 v 2.26123 2.26123 h 2.04587 2.04588 v 1.75873 1.75873 h -2.04588 -2.04587 v 4.75863 c 0,5.17554 0.0108,5.33256 0.40156,5.84489 0.2499,0.32764 0.55744,0.46726 1.11747,0.50733 0.67764,0.0485 1.33172,-0.0961 2.0381,-0.45066 l 0.6093,-0.3058 0.73814,1.19373 c 0.40597,0.65655 0.81481,1.31982 0.90853,1.47394 l 0.17039,0.28021 -0.203,0.16186 c -0.34414,0.27441 -1.25283,0.76756 -1.8736,1.01681 -1.42718,0.57304 -2.99523,0.78003 -4.46325,0.58917 z m 29.23449,-9.8e-4 c -4.1114,-0.56677 -6.84418,-3.2465 -7.57841,-7.43131 -0.19246,-1.09696 -0.21295,-2.97209 -0.0435,-3.97763 0.67818,-4.02364 3.40583,-6.82753 7.29885,-7.50286 0.88752,-0.15396 2.6066,-0.15286 3.48125,0.002 1.73716,0.30803 3.12627,1.02848 4.23975,2.19892 0.97769,1.0277 1.59545,2.31435 1.94711,4.05536 0.17706,0.87665 0.16292,3.13461 -0.0258,4.1186 l -0.1308,0.68196 -5.88637,0.0359 -5.88637,0.0359 0.0211,0.17946 c 0.0975,0.82988 0.66593,2.01452 1.24423,2.59313 0.76872,0.76913 1.71792,1.09328 3.18535,1.08777 1.472,-0.006 2.70921,-0.33016 4.1941,-1.10051 0.45111,-0.23404 0.82356,-0.41774 0.82767,-0.40823 0.004,0.01 0.23039,0.35647 0.50286,0.77103 0.27246,0.41456 0.73206,1.11782 1.02132,1.56282 l 0.52593,0.80907 -0.44919,0.28965 c -0.72476,0.46736 -2.25293,1.18258 -3.11405,1.45744 -1.22349,0.39053 -2.24011,0.55307 -3.65221,0.58392 -0.67119,0.0147 -1.44647,-0.004 -1.72284,-0.0426 z m 4.75129,-12.00032 c -0.12086,-1.63634 -0.80276,-2.79289 -1.89807,-3.21925 -0.57144,-0.22245 -1.76424,-0.27404 -2.35991,-0.10208 -0.64117,0.18509 -1.19327,0.51022 -1.64783,0.97039 -0.6708,0.67906 -1.06576,1.42088 -1.34728,2.5304 l -0.10472,0.41277 h 3.70077 3.70078 z m 14.59478,12.03289 c -2.81955,-0.35738 -4.99585,-1.6055 -6.36789,-3.65198 -1.9767,-2.9484 -2.20914,-7.53008 -0.54543,-10.75131 0.81461,-1.57725 2.15736,-2.90736 3.74247,-3.70725 0.63084,-0.31834 1.79175,-0.69561 2.56068,-0.83216 0.85609,-0.15203 2.65313,-0.15149 3.51715,0.001 3.36646,0.59436 5.54738,2.81655 6.18968,6.30679 0.22018,1.19647 0.1318,3.657 -0.16729,4.65741 -0.0352,0.11756 -0.39548,0.12632 -5.90115,0.14357 l -5.86373,0.0184 0.0236,0.21535 c 0.0508,0.46465 0.46138,1.51575 0.77821,1.99232 0.76306,1.14782 1.88416,1.66128 3.61302,1.65476 1.50393,-0.006 2.80242,-0.3489 4.28145,-1.13171 l 0.74936,-0.39661 0.76126,1.16596 c 0.41869,0.64127 0.88521,1.3491 1.03671,1.57293 l 0.27544,0.40698 -0.5192,0.33452 c -1.28993,0.83111 -3.11179,1.5495 -4.64682,1.8323 -0.80146,0.14765 -2.8924,0.24795 -3.51747,0.16872 z m 4.49801,-12.03289 c -0.092,-1.19411 -0.41524,-2.00954 -1.04826,-2.64437 -0.54755,-0.54912 -1.01194,-0.72518 -2.02323,-0.76706 -0.57886,-0.024 -0.86463,-0.002 -1.18445,0.0901 -1.49153,0.43058 -2.58308,1.69457 -2.9975,3.47101 l -0.10324,0.44255 h 3.70115 3.70116 z m 13.53935,12.00145 c -2.22382,-0.28927 -3.55852,-1.38157 -4.14,-3.38813 -0.29395,-1.01437 -0.32999,-1.76569 -0.32999,-6.88014 v -4.80199 h -1.4357 -1.4357 v -1.75873 -1.75873 h 1.4357 1.4357 v -2.26123 -2.26123 h 2.51248 2.51248 v 2.26123 2.26123 h 2.04587 2.04588 v 1.75873 1.75873 h -2.04588 -2.04587 v 4.83246 c 0,5.3192 7.2e-4,5.32675 0.43713,5.82397 0.33186,0.37796 0.73434,0.49965 1.48507,0.44902 0.68712,-0.0463 1.26076,-0.21791 1.84371,-0.55144 l 0.37972,-0.21725 0.88832,1.44884 c 0.48857,0.79686 0.89775,1.47131 0.90929,1.49878 0.0317,0.0754 -1.0881,0.77398 -1.66592,1.03936 -1.4647,0.67269 -3.26351,0.95058 -4.83229,0.74652 z m -57.80628,-9.47103 v -9.1167 h 2.28913 2.28914 l 0.0398,0.2333 c 0.0219,0.12832 0.0974,0.74208 0.16765,1.36392 0.0703,0.62184 0.14478,1.12952 0.16555,1.12819 0.0208,-0.001 0.21542,-0.26725 0.43257,-0.59092 1.24032,-1.84872 2.91963,-2.71723 5.06085,-2.61736 0.88404,0.0412 1.82078,0.23041 1.87789,0.37924 0.0313,0.0816 -0.60639,4.40172 -0.65955,4.46823 -0.01,0.0119 -0.28751,-0.0482 -0.6178,-0.13348 -0.7534,-0.19453 -1.97729,-0.26225 -2.5892,-0.14326 -0.24862,0.0483 -0.66201,0.18643 -0.91864,0.30685 -0.65015,0.30508 -1.69045,1.36102 -2.20739,2.24058 l -0.37687,0.64124 v 5.47844 5.47844 h -2.47658 -2.47659 z m -85.172966,2.64536 c -8.796262,-0.76874 -16.108952,-7.03582 -18.203132,-15.60032 -0.418182,-1.71023 -0.525017,-2.67728 -0.527624,-4.77594 -0.0025,-1.99056 0.06977,-2.76561 0.401441,-4.3071 1.266767,-5.88741 5.137739,-11.00266 10.468851,-13.83397 2.097735,-1.11408 4.403067,-1.86128 6.855473,-2.22198 1.217573,-0.17908 4.243228,-0.17864 5.455664,7.8e-4 5.880599,0.87028 10.884152,3.96173 14.192699,8.76898 3.730796,5.42078 4.597774,12.43794 2.301508,18.628 -0.284163,0.76602 -0.398656,0.93343 -0.638372,0.93343 -0.229948,0 -3.824571,-1.93773 -3.953259,-2.13105 -0.09481,-0.14244 -0.0777,-0.2393 0.184856,-1.04632 1.267191,-3.89504 0.980672,-8.00733 -0.812431,-11.66053 -1.108044,-2.25748 -2.681164,-4.16852 -4.646478,-5.64459 -3.090948,-2.32148 -7.039317,-3.43672 -10.838289,-3.06133 -7.760517,0.76683 -13.787733,7.14516 -14.107786,14.92961 -0.131384,3.19557 0.815051,6.56525 2.586149,9.20773 3.949347,5.89243 11.228415,8.41386 17.885695,6.19552 1.946702,-0.64868 3.515471,-1.53968 5.329005,-3.02668 0.128154,-0.10508 0.312512,-0.19105 0.409684,-0.19105 0.207679,0 0.177556,-0.0245 1.997403,1.6213 1.660868,1.50199 1.646519,1.47345 1.025869,2.04069 -1.76141,1.60983 -4.293767,3.14136 -6.59617,3.98926 -2.773368,1.02135 -5.866176,1.43941 -8.770756,1.18557 z m 55.591906,-22.78478 c -1.17911,-0.21352 -2.2979,-0.65476 -3.27487,-1.29158 -0.577935,-0.37671 -2.057575,-1.72202 -2.015445,-1.83246 0.0108,-0.0285 0.7707,-0.73075 1.688555,-1.56066 l 1.66884,-1.50892 0.44883,0.47117 c 0.89638,0.94101 1.73624,1.31907 2.92541,1.31688 0.80595,-0.001 1.2799,-0.12571 1.79038,-0.46923 0.60244,-0.40542 0.97701,-0.91438 1.24362,-1.68981 l 0.16044,-0.4666 0.0359,-8.50653 0.0359,-8.50653 h 2.54837 2.54837 v 8.61421 c 0,7.99557 -0.009,8.66241 -0.1291,9.2855 -0.6734,3.50167 -2.73198,5.55816 -6.14679,6.14055 -0.83509,0.14243 -2.75201,0.14461 -3.52839,0.004 z m 17.26993,-0.003 c -1.13867,-0.253 -1.89082,-0.65515 -2.66366,-1.42417 -0.68738,-0.68397 -1.02699,-1.31525 -1.21747,-2.26303 -0.43283,-2.15377 0.46972,-4.17227 2.43393,-5.44331 1.55191,-1.00424 4.33137,-1.78159 7.11821,-1.9908 0.31586,-0.0237 0.65038,-0.0588 0.7434,-0.078 l 0.16911,-0.0349 -0.0291,-1.09145 c -0.0253,-0.94987 -0.0509,-1.14073 -0.19724,-1.47144 -0.34953,-0.78992 -1.11122,-1.16338 -2.37275,-1.16338 -1.27717,0 -2.67675,0.37983 -4.6397,1.25915 -0.56932,0.25503 -1.06094,0.46369 -1.09249,0.46369 -0.0316,0 -0.44796,-0.80592 -0.92535,-1.79094 -0.62338,-1.28627 -0.84441,-1.80901 -0.78438,-1.85506 0.046,-0.0353 0.45508,-0.22744 0.90912,-0.42706 1.45682,-0.6405 3.05543,-1.13065 4.66602,-1.43067 1.06817,-0.19898 3.51573,-0.17851 4.5169,0.0378 1.45286,0.31386 2.4601,0.81518 3.27068,1.62787 0.56333,0.56479 0.90414,1.09453 1.16302,1.80775 0.40129,1.10551 0.39847,1.06675 0.44544,6.12208 0.0434,4.67009 0.0448,4.70363 0.20025,4.95317 0.19621,0.31487 0.50859,0.50174 0.9424,0.56374 l 0.33675,0.0481 0.0193,1.715 0.0193,1.71499 -1.06015,-0.043 c -2.43267,-0.0987 -3.7272,-0.60197 -4.55017,-1.76894 l -0.3034,-0.4301 -0.51695,0.49105 c -0.91895,0.87292 -2.03084,1.51006 -3.15534,1.80811 -0.77845,0.20632 -2.70324,0.25866 -3.44568,0.0937 z m 4.557,-3.6581 c 0.58146,-0.18369 1.22827,-0.56164 1.71737,-1.00351 l 0.29396,-0.26557 v -1.76068 -1.76068 l -0.65548,0.0495 c -2.43607,0.18389 -4.22116,0.99259 -4.73717,2.14607 -0.23056,0.51538 -0.23759,1.39235 -0.0145,1.80911 0.27099,0.50625 0.7345,0.84212 1.33884,0.97014 0.46106,0.0977 1.44267,0.01 2.05699,-0.18437 z m 38.6576,3.72408 c -0.11845,-0.0148 -0.53577,-0.0934 -0.92738,-0.17462 -3.65416,-0.75766 -6.04908,-3.36254 -6.75776,-7.35021 -0.17747,-0.99857 -0.17823,-3.0351 -0.002,-4.01996 0.8158,-4.54645 4.34492,-7.50154 8.95876,-7.50154 4.36489,0 7.25849,2.33787 7.99641,6.46066 0.21489,1.20057 0.1652,3.00473 -0.12207,4.43273 l -0.0758,0.37687 h -5.87949 -5.87949 l 0.0439,0.2333 c 0.33884,1.80157 1.38908,3.05588 2.90512,3.46962 0.56339,0.15375 1.72208,0.20563 2.44251,0.10937 1.21272,-0.16204 2.51678,-0.60633 3.58159,-1.22024 l 0.48747,-0.28105 0.99278,1.51428 c 0.54602,0.83286 1.00246,1.55257 1.01428,1.59936 0.0483,0.19121 -1.85458,1.23321 -3.00024,1.64287 -1.45287,0.51951 -2.92017,0.76246 -4.50732,0.7463 -0.581,-0.006 -1.15327,-0.0229 -1.27172,-0.0377 z m 4.67747,-11.95755 c -0.17553,-2.27835 -1.30676,-3.49952 -3.24177,-3.49952 -1.0745,0 -1.90781,0.35301 -2.69775,1.14283 -0.70957,0.70946 -1.10258,1.48853 -1.38801,2.75151 l -0.0446,0.1974 h 3.70889 3.70889 z m -31.77633,2.53042 v -9.1167 h 2.33301 c 1.28316,0 2.33331,0.0242 2.33367,0.0538 0.002,0.1905 0.22548,1.91907 0.25108,1.94467 0.0173,0.0174 0.23731,-0.16093 0.48879,-0.39618 1.58438,-1.48211 3.71558,-2.23088 5.78775,-2.03344 0.94658,0.0902 1.48482,0.23237 2.22396,0.58746 1.12502,0.54047 2.01664,1.64868 2.441,3.03395 0.3557,1.16114 0.36356,1.34309 0.36387,8.42093 v 6.62217 h -2.47658 -2.47659 v -6.3039 c 0,-4.25353 -0.0255,-6.44244 -0.0785,-6.72985 -0.24438,-1.32636 -0.99709,-1.92814 -2.3981,-1.91722 -1.22031,0.009 -2.22917,0.47461 -3.28417,1.51405 l -0.55633,0.54814 v 6.44439 6.44439 h -2.47658 -2.47659 v -9.1167 z"
       id="path179" /></g></svg>
