<?xml version="1.0" encoding="UTF-8" standalone="no"?>
<svg
   xmlns:dc="http://purl.org/dc/elements/1.1/"
   xmlns:cc="http://creativecommons.org/ns#"
   xmlns:rdf="http://www.w3.org/1999/02/22-rdf-syntax-ns#"
   xmlns:svg="http://www.w3.org/2000/svg"
   xmlns="http://www.w3.org/2000/svg"
   viewBox="0 0 326.53333 68.959999"
   height="68.959999"
   width="326.53333"
   xml:space="preserve"
   id="svg2"
   version="1.1"><metadata
     id="metadata8"><rdf:RDF><cc:Work
         rdf:about=""><dc:format>image/svg+xml</dc:format><dc:type
           rdf:resource="http://purl.org/dc/dcmitype/StillImage" /></cc:Work></rdf:RDF></metadata><defs
     id="defs6" /><g
     transform="matrix(1.3333333,0,0,-1.3333333,0,68.96)"
     id="g10"><g
       transform="scale(0.1)"
       id="g12"><path
         id="path14"
         style="fill:#1c4f9c;fill-opacity:1;fill-rule:nonzero;stroke:none"
         d="M 0,0 H 517.109 V 517.203 H 0 Z" /><path
         id="path16"
         style="fill:#1c4f9c;fill-opacity:1;fill-rule:nonzero;stroke:none"
         d="M 644.453,0 H 1161.68 V 517.203 H 644.453 Z" /><path
         id="path18"
         style="fill:#1c4f9c;fill-opacity:1;fill-rule:nonzero;stroke:none"
         d="m 1289.3,0 h 517.148 V 517.203 H 1289.3 Z" /><path
         id="path20"
         style="fill:#1c4f9c;fill-opacity:1;fill-rule:nonzero;stroke:none"
         d="m 1931.84,0 h 517.148 V 517.203 H 1931.84 Z" /><path
         id="path22"
         style="fill:#ffffff;fill-opacity:1;fill-rule:nonzero;stroke:none"
         d="m 247.891,200.469 c 0,-20.703 1.328,-40.703 8.007,-48.672 5.313,-5.313 15.938,-10 52.657,-10 50.664,0 61.328,3.359 81.367,51.328 5.273,3.359 14.648,2.656 18.594,-2.656 -2.657,-24.688 -11.289,-59.375 -19.297,-76.016 -17.969,0.703 -37.305,1.328 -56.719,1.328 -18.633,0.625 -36.562,0.625 -53.281,0.625 h -66.68 c -26.601,0 -52.031,-0.625 -75.976,-1.953 -4.688,2.656 -5.977,15.313 -0.743,19.297 l 13.399,1.328 c 24.648,3.36 26.679,12.735 26.679,56.719 v 138.648 c 0,43.985 -2.031,53.321 -26.679,56.016 l -15.313,1.992 c -5.39,4.024 -4.023,16.68 0.664,19.336 25.938,-1.328 51.368,-1.992 77.969,-1.992 25.391,0 50.742,0.664 74.688,1.992 4.648,-2.656 6.054,-15.312 0.742,-19.336 l -13.438,-1.328 c -24.609,-3.359 -26.64,-12.695 -26.64,-56.68 V 200.469" /><path
         id="path24"
         style="fill:#ffffff;fill-opacity:1;fill-rule:nonzero;stroke:none"
         d="m 983.555,134.531 c 5.312,-4.062 3.984,-16.718 -0.742,-19.297 -26.602,1.25 -51.875,1.954 -77.227,1.954 -26.68,0 -52.07,-0.704 -79.414,-1.954 -4.609,2.579 -5.977,15.235 -0.586,19.297 l 16.641,1.953 c 24.726,2.735 26.64,12.032 26.64,56.016 v 13.359 c 0,16.016 -5.976,32.032 -17.969,54 l -50.664,90 c -15.937,27.969 -21.367,34.024 -41.289,38.008 l -8.007,1.328 c -4.727,4.024 -4.727,16.68 1.914,19.375 24.687,-1.367 45.39,-2.031 65.39,-2.031 25.352,0 49.961,0.664 73.281,2.031 6.719,-2.695 6.719,-15.351 1.993,-19.375 l -7.266,-1.328 c -13.359,-2.656 -18.672,-4.648 -18.672,-8.672 0,-3.984 2.656,-11.328 9.336,-24.648 15.352,-30.664 34.649,-64.649 48.008,-90 11.953,19.961 24.609,43.32 44.023,79.297 11.328,20.664 16.641,31.367 16.641,34.687 0,4.688 -3.32,6.68 -13.984,8.672 l -10.743,1.992 c -6.64,5.352 -6.64,16.016 0,19.375 25.352,-1.367 38.672,-2.031 54.771,-2.031 15.94,0 31.95,0.664 50.63,2.031 5.31,-4.726 5.31,-14.726 1.4,-19.375 l -12.07,-2.656 c -22.69,-4.687 -30.04,-11.328 -53.36,-48.672 l -35.98,-57.344 c -15.312,-23.984 -25.312,-47.32 -25.312,-61.304 V 192.5 c 0,-43.984 1.953,-53.281 26.601,-56.016 l 16.016,-1.953" /><path
         id="path26"
         style="fill:#ffffff;fill-opacity:1;fill-rule:nonzero;stroke:none"
         d="m 1691.72,190.859 c 0,-13.359 0,-67.343 1.25,-78.046 -1.95,-2.657 -9.29,-6.016 -12.65,-6.016 -1.96,0 -3.95,0 -6.56,0.703 -6.76,9.297 -18.76,23.984 -58.76,66.016 L 1513.68,281.5 c -23.36,25.352 -40,44.023 -48.01,50.664 -1.37,-13.984 -1.37,-35.976 -1.37,-56.641 v -44.664 c 0,-28.671 2.03,-50.703 2.74,-58.671 1.91,-26.016 6.64,-35.313 27.3,-37.344 l 15.39,-1.328 c 5.31,-3.985 5.31,-16.016 -1.44,-19.375 -22.62,1.328 -37.89,2.031 -57.23,2.031 -19.3,0 -32.03,-0.703 -57.46,-2.031 -5.98,2.656 -7.23,15.39 -1.25,19.375 l 15.35,1.953 c 18.63,3.359 22.62,12.031 24.65,36.015 0.66,8.672 1.95,30.704 1.95,59.375 v 89.977 c 0,38.008 -1.29,45.352 -7.97,53.32 -4.68,5.352 -24.02,10.703 -30.7,12.032 l -5.98,1.992 c -4.65,4.023 -3.28,17.343 2.03,19.336 25.32,-1.993 46.65,-1.993 65.4,-1.993 14.57,0 24.6,0.665 43.86,1.993 6.06,-15.313 18.71,-34.024 51.37,-68.008 l 60.66,-64.649 c 14.03,-14.687 40,-41.343 47.35,-47.359 1.36,5.313 1.36,10.703 1.36,25.332 v 38.004 c 0,28.672 -2.03,50.703 -2.69,58.711 -1.95,25.976 -6.6,34.609 -24.65,36.641 l -17.97,1.992 c -5.31,4.023 -5.31,16.015 1.33,19.336 21.29,-1.328 36.64,-1.993 57.3,-1.993 19.34,0 32.08,0.665 57.31,1.993 5.98,-2.657 7.34,-15.313 1.33,-19.336 l -15.28,-1.992 c -18.63,-3.321 -23.36,-12.032 -24.72,-36.016 -0.67,-8.633 -1.92,-30.664 -1.92,-59.336 v -99.977" /><path
         id="path28"
         style="fill:#ffffff;fill-opacity:1;fill-rule:nonzero;stroke:none"
         d="m 2367.47,133.281 c 5.39,-3.359 5.39,-16.718 -0.67,-19.375 -28.59,1.328 -48.67,2.032 -76.01,2.032 -24.65,0 -49.3,-0.704 -75.94,-2.032 -6.09,2.032 -9.38,14.688 -2.11,19.375 l 13.98,1.953 c 6.1,1.329 12.07,3.985 12.07,8.047 0,2.657 -1.32,6.641 -11.36,20 -8.64,11.953 -41.96,60 -49.96,68.672 -8.01,-10.078 -44.07,-63.359 -52,-78.047 -2.69,-3.984 -4.02,-7.968 -4.02,-10 0,-4.687 4.02,-7.968 11.29,-8.672 l 11.99,-1.953 c 6.06,-4.062 5.39,-17.343 -1.29,-19.375 -25.31,1.328 -40.08,2.032 -57.34,2.032 -20,0 -37.97,-0.704 -59.34,-2.032 -5.97,2.032 -7.34,16.016 -1.36,19.375 l 11.99,1.953 c 24.65,4.688 38.75,15.313 54.76,32.657 13.25,16.015 36.61,43.984 58.64,75.996 3.98,6.015 7.93,10.699 7.93,13.355 0,2.656 -2.62,7.344 -6.57,12.696 -16.13,23.281 -50.04,67.304 -68.67,91.289 -12.07,16.015 -22.69,20.039 -44.06,24.023 l -11.99,2.695 c -5.39,4.649 -4.73,17.969 2.61,19.297 16.72,-1.328 45.39,-1.992 73.32,-1.992 39.42,0 57.39,0.664 74.11,1.992 6.64,-2.656 6.64,-15.312 1.91,-19.297 l -5.98,-1.367 c -8.67,-1.992 -16.01,-4.023 -16.01,-8.672 0,-3.984 3.36,-9.961 8.08,-16.679 15.94,-21.329 29.3,-38.633 40.67,-53.985 16.05,20.664 28.59,39.375 37.97,52.696 3.28,5.351 10.04,15.351 10.04,18.632 0,2.696 -3.36,4.688 -12.07,6.68 l -11.96,2.695 c -4.65,3.321 -4.65,17.969 3.36,19.297 21.25,-1.328 40,-1.992 56.6,-1.992 18.09,0 34.03,0.664 52.07,1.992 6.61,-2.656 6.61,-15.312 1.96,-19.297 l -15.94,-2.695 c -16.06,-2.695 -26.68,-9.961 -35.35,-18.672 -10.74,-10.664 -38.09,-39.336 -59.34,-67.344 -5.31,-7.304 -8.67,-11.992 -8.67,-14.648 0,-2.656 1.91,-7.344 6.64,-14.023 36.64,-51.969 60,-84 75.35,-104 16.64,-21.954 31.41,-27.969 45.98,-30.625 l 14.69,-2.657" /></g></g></svg>