<svg xmlns="http://www.w3.org/2000/svg" xmlns:xlink="http://www.w3.org/1999/xlink" viewBox="0 0 886.87 307.27"><defs><style>.cls-1,.cls-2,.cls-3{fill-rule:evenodd;}.cls-1{fill:url(#GradientFill_1);}.cls-3{fill:#ff5c47;}</style><linearGradient id="GradientFill_1" x1="102.58" y1="208.26" x2="177.04" y2="79.3" gradientUnits="userSpaceOnUse"><stop offset="0" stop-color="#eb5848"/><stop offset="1" stop-color="#f6a64a"/></linearGradient></defs><g id="Lager_2" data-name="Lager 2"><g id="Layer_1" data-name="Layer 1"><path class="cls-1" d="M12,221.14h0a24.08,24.08,0,0,0,32.79-8.78l1.09-1.9,34.66-60,12-20.79,12-20.79L132,61.23,160.46,12A24.08,24.08,0,0,1,193.25,3.2h0A24.09,24.09,0,0,1,202,36L173.61,85.24h0l-39.5,68.4-12,20.78L94.63,222,66.2,271.28a24,24,0,1,0,41.57,24L136.2,246h0l39.49-68.4,12-20.79L222,97.42l1.09-1.89c6.6-11.42,20.65-14,32.79-8.78,1.47.64,19.44,14.34,8.79,32.79l-1.09,1.89-34.31,59.42-12,20.8-12,20.78-14,24.31-1.09,1.89c-6.6,11.43-1.76,24.85,8.79,32.79,1.28,1,22.14,9.66,32.79-8.79l1.09-1.89,14-24.3,12-20.79-20.78-12h0l-20.8-12-20.79-12h0l-20.78-12-20.79-12h0l-20.79-12-20.78-12h0l-20.78-12-20.79-12h0L51,105.62l-20.79-12h0l-20.79-12,12-20.79,14-24.3,1.1-1.89c6.6-11.43,20.64-13.95,32.78-8.78,1.48.63,19.44,14.34,8.79,32.78L77,60.54,63,84.84,51,105.62l-12,20.8-34.67,60-1.09,1.9A24.08,24.08,0,0,0,12,221.14Z"/><path class="cls-2" d="M394,156.21a52.41,52.41,0,0,0-1.3-12.81,32.29,32.29,0,0,1,14.16-3.51c13,0,15.92,6.12,15.92,18.18v49.65h17.1V156.21c0-16.24-3.69-29.85-28.83-29.85a71.8,71.8,0,0,0-25.92,5c-4.31-3.13-10.68-5-19.95-5-12.51,0-24.95,2.83-33.47,7-.45,4.84-.67,9.46-.67,14.72v59.63h17.09V153.33a105.71,105.71,0,0,1,.5-10.78A31.07,31.07,0,0,1,361,139.89c13,0,15.92,6.12,15.92,18.18v49.65H394V156.21ZM886.8,207.72V140.39l-17.25-9.73v77.06Zm-78.41,1.06c15,0,27-2,35.92-7,.45-4.87.68-9.48.68-14.77V151.57c0-20.4-14.59-25.21-32.26-25.21a184.18,184.18,0,0,0-31,2.93l1.4,12.46a232.13,232.13,0,0,1,27.93-2c12.23,0,17.09,5.57,17.09,16.7-9.92.4-19.6.77-28.45,2.1-15.54,2.33-21.63,11.11-21.63,25.19,0,16.55,8.55,25.05,30.28,25.05Zm19.8-26.37a98.49,98.49,0,0,1-.5,10.82c-5,2.36-11.53,2.76-16.77,2.76-10.27,0-15.86-2.43-15.86-12.53,0-9.43,3-12,11.3-14,6.54-1.53,14.76-1.68,21.83-1.93v14.84ZM740,186.89c0,11.16,2.83,18.38,8.07,24.37L763,204.19c-4.19-5.57-5.87-10.65-5.87-18.05V96.27H740v90.62Zm-41.58-5.11a102.25,102.25,0,0,1-.51,10.75c-3.46,1.81-9.42,2.71-14.51,2.71-16.37,0-18.57-5.39-18.57-18.2V127.41h-17.1V178.9c0,16.67,2.83,29.88,31,29.88,15.14,0,27-2.59,36.12-7.05.46-4.86.68-9.45.68-14.74V127.41H698.41v54.37Zm-92.73-53.22a77.09,77.09,0,0,0-17.54-2.2c-24.52,0-35.12,10.2-35.12,41.16,0,31.43,11.1,41.23,37.5,41.23,10.5,0,22.61-2,31.58-7,.45-4.89.68-9.48.68-14.74V96.27h-17.1v32.29Zm0,13.26V182.1a105.72,105.72,0,0,1-.5,10.76c-3.48,1.8-9.52,2.71-14.66,2.71-19.18,0-20.21-13.29-20.21-28,0-16.17.41-27.93,21.84-27.93a47.14,47.14,0,0,1,13.53,2.23Zm-71.41,25.72c0-29.45-9.43-41.16-35.67-41.16s-35.75,11.21-35.75,41.16,9.48,41.21,35.75,41.21,35.67-11.71,35.67-41.21Zm-54.12,0c0-22.08,4-27.52,18.45-27.52s18.58,6.34,18.58,27.52-4.07,27.57-18.58,27.57S480.15,189.68,480.15,167.54Z"/><path class="cls-3" d="M878.25,95.29h0a8.65,8.65,0,0,1,8.62,8.62v22l-17.24-9.73V103.91A8.65,8.65,0,0,1,878.25,95.29Z"/></g></g></svg>