<?xml version="1.0" encoding="UTF-8" standalone="no"?>
<!-- Created with Inkscape (http://www.inkscape.org/) -->

<svg
   version="1.1"
   id="svg2"
   xml:space="preserve"
   width="1513.3333"
   height="277.33334"
   viewBox="0 0 1513.3333 277.33334"
   sodipodi:docname="northvolt.eps"
   xmlns:inkscape="http://www.inkscape.org/namespaces/inkscape"
   xmlns:sodipodi="http://sodipodi.sourceforge.net/DTD/sodipodi-0.dtd"
   xmlns="http://www.w3.org/2000/svg"
   xmlns:svg="http://www.w3.org/2000/svg"><defs
     id="defs6" /><sodipodi:namedview
     id="namedview4"
     pagecolor="#ffffff"
     bordercolor="#666666"
     borderopacity="1.0"
     inkscape:pageshadow="2"
     inkscape:pageopacity="0.0"
     inkscape:pagecheckerboard="0" /><g
     id="g8"
     inkscape:groupmode="layer"
     inkscape:label="ink_ext_XXXXXX"
     transform="matrix(1.3333333,0,0,-1.3333333,0,277.33333)"><g
       id="g10"
       transform="scale(0.1)"><path
         d="m 3040,30 h 445 v 885 c 0,90 20,125 52.5,152.5 35,30 80,42.5 172.5,42.5 h 385 V 630 c 0,-200 62.5,-337.5 162.5,-437.5 C 4357.5,92.5 4497.5,30 4725,30 h 357.5 V 450 H 4765 c -92.5,0 -137.5,12.5 -172.5,42.5 C 4560,520 4540,555 4540,645 v 467.5 l 677.5,-2.5 V 30 h 435 v 1080 h 270 c 92.5,0 137.5,-12.5 172.5,-42.5 32.5,-27.5 52.5,-62.5 52.5,-152.5 V 30 h 435 v 900 c 0,200 -62.5,337.5 -162.5,437.5 -100,100 -240,162.5 -467.5,162.5 h -305 v 550 h -425 V 1532.5 H 5220 4535 V 2080 h -435 v -550 h -430 c -227.5,0 -367.5,-62.5 -467.5,-162.5 C 3102.5,1267.5 3040,1130 3040,930 Z M -0.00390625,30 H 434.996 v 885 c 0,90 20,125 52.5,152.5 35,30 80,42.5 172.5,42.5 h 45 c 92.5,0 137.5,-12.5 172.5,-42.5 32.5,-27.5 52.5,-62.5 52.5,-152.5 V 30 H 1365 v 900 c 0,200 -62.5,337.5 -162.5,437.5 -100,100 -240.004,162.5 -467.504,162.5 h -105 c -227.5,0 -367.5,-62.5 -467.5,-162.5 C 62.4961,1267.5 -0.00390625,1130 -0.00390625,930 Z M 2202.5,10 c 390,0 732.5,260 732.5,755 v 30 c 0,495 -342.5,755 -732.5,755 -390,0 -732.5,-260 -732.5,-755 v -30 c 0,-495 342.5,-755 732.5,-755 z m 0,420 c -185,0 -297.5,142.5 -297.5,335 v 30 c 0,192.5 112.5,335 297.5,335 185,0 297.5,-142.5 297.5,-335 V 765 C 2500,572.5 2387.5,430 2202.5,430 Z M 7392.5,0 c 67.5,0 127.5,15 180,55 42.5,35 82.5,87.5 152.5,245 l 550,1230 H 7790 L 7397.5,597.5 6995,1530 H 6500 L 7052.5,300 c 72.5,-160 115,-212.5 160,-245 55,-40 115,-55 180,-55 z M 8880,10 c 390,0 737.5,260 737.5,755 v 30 c 0,495 -347.5,755 -737.5,755 -390,0 -732.5,-260 -732.5,-755 V 765 C 8147.5,270 8490,10 8880,10 Z m 0,420 c -185,0 -297.5,142.5 -297.5,335 v 30 c 0,192.5 112.5,335 297.5,335 185,0 302.5,-142.5 302.5,-335 V 765 C 9182.5,572.5 9065,430 8880,430 Z M 9722.5,30 h 435 v 2050 h -435 z m 1215,0 h 412.5 v 420 h -385 c -92.5,0 -137.5,12.5 -172.5,42.5 C 10760,520 10740,555 10740,645 v 465 h 595 v 420 h -602.5 v 550 h -425 V 630 c 0,-200 60,-337.5 160,-437.5 100,-100 242.5,-162.5 470,-162.5"
         style="fill:#231f20;fill-opacity:1;fill-rule:nonzero;stroke:none"
         id="path12" /></g></g></svg>
