<?xml version="1.0" encoding="UTF-8" standalone="no"?>
<!-- Created with Inkscape (http://www.inkscape.org/) -->

<svg
   version="1.1"
   id="svg2"
   xml:space="preserve"
   width="2666.6667"
   height="1165.9733"
   viewBox="0 0 2666.6667 1165.9733"
   sodipodi:docname="okg.eps"
   xmlns:inkscape="http://www.inkscape.org/namespaces/inkscape"
   xmlns:sodipodi="http://sodipodi.sourceforge.net/DTD/sodipodi-0.dtd"
   xmlns="http://www.w3.org/2000/svg"
   xmlns:svg="http://www.w3.org/2000/svg"><defs
     id="defs6" /><sodipodi:namedview
     id="namedview4"
     pagecolor="#ffffff"
     bordercolor="#666666"
     borderopacity="1.0"
     inkscape:pageshadow="2"
     inkscape:pageopacity="0.0"
     inkscape:pagecheckerboard="0" /><g
     id="g8"
     inkscape:groupmode="layer"
     inkscape:label="ink_ext_XXXXXX"
     transform="matrix(1.3333333,0,0,-1.3333333,0,1165.9733)"><g
       id="g10"
       transform="scale(0.1)"><path
         d="m 15384.1,3174.89 1186.6,1110.77 -777.9,0.15 -1407.9,-1335.63 499.7,2567.74 -987.1,0.52 -826.7,-4260.25 988.6,-0.15 319.7,1663.63 660.4,-1663.79 1193.6,0.16 -849,1916.85"
         style="fill:#3e71c1;fill-opacity:1;fill-rule:nonzero;stroke:none"
         id="path12" /><path
         d="m 18918.7,3831.24 -359.9,-1893.08 c 0,0 -160.4,-164.23 -401.1,-164.23 -165.3,0 -284.8,55.94 -388.4,181.78 -226.8,275.12 -151.1,776.67 -122.6,923.72 31,158.97 221.5,952.42 940.4,950.28 202.1,-0.53 331.6,1.53 331.6,1.53 z M 16544.1,2736.8 c -85.1,-437.14 1.9,-852.29 238.5,-1139.39 210.2,-254.89 516.8,-389.59 886.7,-389.59 460.2,0 757.5,285.35 760.4,288.7 l 110.2,125.16 c 0,0 -40.9,-278.24 -93.9,-540.54 -40.1,-199.261 -158.7,-275.12 -261.7,-335.249 -91,-53.039 -301.2,-56.559 -490.9,-55.942 l -1296.7,0.153 -100.8,-538.481 1373,-1.762 c 246.9,0 825.5,0 1144.5,165.532 452.2,234.82 577.1,852.899 597.1,941.199 4.5,19.92 512.7,2627.23 589.5,3030.1 -295.1,-0.23 -1660.7,-0.46 -1660.7,-0.46 -981,-0.68 -1645.6,-780.02 -1795.2,-1549.43"
         style="fill:#3e71c1;fill-opacity:1;fill-rule:nonzero;stroke:none"
         id="path14" /><path
         d="m 11693.2,2669.57 c -2.3,-10 -248.6,-1008.21 -816.8,-1015 -425.9,-5.03 -605.1,550.69 -416,1241.58 2.7,10.03 248.8,1012.09 817,1014.99 500,2.67 521.7,-797.84 415.8,-1241.57 z m -326.1,1672.95 c -1152,-0.58 -1801.95,-701.35 -1989.95,-1485.07 -251.34,-1048.26 287.46,-1643.37 1387.35,-1642.68 1151.9,0.45 1830.6,745.52 1990,1484.94 190,884.12 -106,1643.26 -1387.4,1642.81"
         style="fill:#3e71c1;fill-opacity:1;fill-rule:nonzero;stroke:none"
         id="path16" /><path
         d="M 3371.99,151.621 H 0 V 690.102 H 3472.85 L 3371.99,151.621"
         style="fill:#3e71c1;fill-opacity:1;fill-rule:nonzero;stroke:none"
         id="path18" /><path
         d="m 7507.37,1368.54 v 1025.19 h 230.64 V 1368.54 h -230.64"
         style="fill:#7a7e82;fill-opacity:1;fill-rule:nonzero;stroke:none"
         id="path20" /><path
         d="m 2923.68,1368.54 v 1288.21 h 230.76 V 1368.54 h -230.76"
         style="fill:#7a7e82;fill-opacity:1;fill-rule:nonzero;stroke:none"
         id="path22" /><path
         d="m 1758.7,1368.54 v 1288.21 h 230.71 V 1368.54 H 1758.7"
         style="fill:#7a7e82;fill-opacity:1;fill-rule:nonzero;stroke:none"
         id="path24" /><path
         d="m 5235.55,1368.54 v 1175.52 h 230.76 V 1368.54 h -230.76"
         style="fill:#7a7e82;fill-opacity:1;fill-rule:nonzero;stroke:none"
         id="path26" /><path
         d="M 6090.84,1368.54 V 2544.06 H 6321.6 V 1368.54 h -230.76"
         style="fill:#7a7e82;fill-opacity:1;fill-rule:nonzero;stroke:none"
         id="path28" /><path
         d="M 574.25,1380.22 V 2656.75 H 805.047 V 1380.22 H 574.25"
         style="fill:#7a7e82;fill-opacity:1;fill-rule:nonzero;stroke:none"
         id="path30" /><path
         d="m 4496.46,3361.97 593.77,-315.48 V 1368.54 h -629.41 l -732.13,0.19 v 2960.58 l 767.94,-408.86 V 3362.2 l -0.17,-0.23"
         style="fill:#7a7e82;fill-opacity:1;fill-rule:nonzero;stroke:none"
         id="path32" /><path
         d="m 2086.04,4260.44 h -445.97 v 4484.38 h 445.97 V 4260.44"
         style="fill:#7a7e82;fill-opacity:1;fill-rule:nonzero;stroke:none"
         id="path34" /><path
         d="M 2309.07,4495.89 H 1367.53 V 4248 h 941.54 v 247.89"
         style="fill:#7a7e82;fill-opacity:1;fill-rule:nonzero;stroke:none"
         id="path36" /><path
         d="M 5256.2,3782.51 H 4810.23 V 6205.37 H 5256.2 V 3782.51"
         style="fill:#7a7e82;fill-opacity:1;fill-rule:nonzero;stroke:none"
         id="path38" /><path
         d="m 6419.11,3807.35 h -396.38 v 3636.77 h 396.38 V 3807.35"
         style="fill:#7a7e82;fill-opacity:1;fill-rule:nonzero;stroke:none"
         id="path40" /><path
         d="m 6629.74,1368.54 v 2451.18 l 706.24,-408.75 V 1368.54 h -706.24"
         style="fill:#7a7e82;fill-opacity:1;fill-rule:nonzero;stroke:none"
         id="path42" /><path
         d="m 8150.91,1368.54 v 1722.02 l 557.51,-333.54 V 1368.54 h -557.51"
         style="fill:#7a7e82;fill-opacity:1;fill-rule:nonzero;stroke:none"
         id="path44" /><path
         d="m 3749.69,315.672 c -5.26,0 -7.4,2.641 -6.33,7.937 l 13.47,76.934 c 1.07,5.297 3.97,7.93 8.74,7.93 h 219.71 c 5.3,0 7.4,-2.633 6.33,-7.93 l -13.47,-76.934 c -1.07,-5.296 -3.97,-7.937 -8.74,-7.937 h -219.71"
         style="fill:#7a7e82;fill-opacity:1;fill-rule:nonzero;stroke:none"
         id="path46" /><path
         d="m 4407.23,232.379 c 29.07,0 50.75,14.531 65.05,43.652 3.17,6.328 6.19,14.758 9.12,25.371 2.9,10.571 5.54,21.52 7.94,32.891 2.37,11.379 4.2,22.629 5.53,33.738 1.34,11.102 1.99,20.328 1.99,27.739 0,18.5 -3.86,32.929 -11.49,43.23 -7.67,10.34 -20.75,15.492 -39.26,15.492 -29.12,0 -50.79,-14.57 -65.06,-43.652 -3.17,-6.34 -6.22,-14.649 -9.12,-24.957 -2.9,-10.34 -5.53,-21.293 -7.94,-32.934 -2.36,-11.629 -4.23,-23.008 -5.53,-34.109 -1.34,-11.098 -1.98,-20.379 -1.98,-27.738 0,-18.539 3.81,-32.93 11.48,-43.231 7.67,-10.34 20.76,-15.492 39.27,-15.492 z M 4204.95,8.69922 c -5.26,0 -7.4,2.67188 -6.33,7.93358 l 89.63,510.8162 c 1.07,5.262 3.97,7.942 8.74,7.942 h 91.2 c 5.3,0 7.4,-2.68 6.37,-7.942 l -4.77,-29.34 h 0.8 c 10.57,13.731 24.57,24.84 42.01,33.313 17.48,8.469 38.35,12.699 62.66,12.699 36.51,0 63.99,-11.25 82.49,-33.73 18.51,-22.469 27.78,-53.27 27.78,-92.418 0,-12.66 -0.91,-27.352 -2.78,-43.993 -1.87,-16.679 -4.51,-33.73 -7.94,-51.167 -3.44,-17.442 -7.52,-34.383 -12.29,-50.75 -4.77,-16.411 -10.3,-30.68 -16.63,-42.852 -15.38,-31.211 -34.54,-53.422 -57.55,-66.629 -22.97,-13.203 -50.36,-19.84 -82.07,-19.84 -25.38,0 -45.33,4.66 -59.87,13.891 -14.58,9.238 -24.73,20.226 -30.57,32.93 h -0.8 l -30.1,-172.9302 c -1.07,-5.2617 -3.97,-7.93358 -8.74,-7.93358 h -91.24"
         style="fill:#7a7e82;fill-opacity:1;fill-rule:nonzero;stroke:none"
         id="path48" /><path
         d="m 4793.53,222.07 c 22.75,0 41.14,4.621 55.14,13.891 14.01,9.238 22.32,23.129 25,41.629 l 4.73,29.351 c 0.53,3.161 -0.77,4.77 -3.93,4.77 h -53.96 c -26.44,0 -45.48,-4.621 -57.12,-13.891 -11.64,-9.238 -17.44,-22.59 -17.44,-40.07 0,-10.57 3.97,-19.148 11.91,-25.758 7.93,-6.64 19.84,-9.922 35.67,-9.922 z m 65.86,-70.59 c -5.3,0 -7.44,2.629 -6.37,7.942 l 3.97,26.168 h -0.8 c -11.1,-12.699 -25.64,-23.008 -43.62,-30.938 -17.97,-7.941 -39.91,-11.91 -65.82,-11.91 -14.27,0 -27.78,2.25 -40.44,6.758 -12.71,4.5 -23.81,10.832 -33.32,19.039 -9.54,8.203 -16.94,18.352 -22.2,30.524 -5.31,12.179 -7.94,25.91 -7.94,41.25 0,46.519 15.45,81.808 46.4,105.886 30.91,24.082 74.41,36.102 130.46,36.102 h 66.62 c 3.17,0 5.31,1.601 6.38,4.769 l 3.16,17.43 c 3.17,18.512 0.38,32.133 -8.32,40.871 -8.73,8.699 -28.46,13.09 -59.1,13.09 -19.04,0 -35.83,-2.52 -50.37,-7.559 -14.54,-5.031 -26.86,-10.98 -36.9,-17.851 -4.73,-3.172 -7.94,-2.371 -9.5,2.398 l -23.81,59.492 c -1.56,4.77 -0.27,8.43 3.97,11.098 17.44,11.641 38.88,20.871 64.26,27.742 25.37,6.871 52.08,10.34 80.09,10.34 56.59,0 96.39,-10.449 119.39,-31.32 23.01,-20.91 30,-56.481 21.03,-106.692 l -44.42,-246.687 c -1.06,-5.313 -3.96,-7.942 -8.73,-7.942 h -84.07"
         style="fill:#7a7e82;fill-opacity:1;fill-rule:nonzero;stroke:none"
         id="path50" /><path
         d="m 5054.49,151.48 c -5.83,0 -8.2,2.629 -7.17,7.942 l 65.06,368.027 c 1.07,5.262 3.97,7.942 8.74,7.942 h 91.19 c 5.31,0 7.41,-2.68 6.38,-7.942 l -6.38,-34.109 h 0.81 c 11.63,15.871 26.29,28.269 44.03,37.281 17.71,9 37.39,13.5 59.07,13.5 13.24,0 25.11,-1.98 35.71,-5.949 10.57,-3.973 19.04,-9.652 25.38,-17.063 3.17,-4.23 3.43,-7.929 0.8,-11.097 l -53.96,-76.961 c -3.7,-3.699 -7.4,-4.238 -11.1,-1.571 -7.4,5.27 -15.07,9.5 -23.01,12.672 -7.93,3.207 -16.63,4.77 -26.17,4.77 -20.61,0 -37.02,-7.402 -49.15,-22.211 -12.17,-14.801 -20.64,-36.211 -25.41,-64.262 l -35.68,-203.027 c -1.07,-5.313 -3.7,-7.942 -7.94,-7.942 h -91.2"
         style="fill:#7a7e82;fill-opacity:1;fill-rule:nonzero;stroke:none"
         id="path52" /><path
         d="m 5497.85,146.711 c -43.88,0 -72.69,10.461 -86.47,31.332 -13.73,20.906 -16.9,52.77 -9.5,95.578 l 33.31,179.27 c 0.54,3.172 -0.8,4.769 -3.97,4.769 h -23.77 c -4.77,0 -6.64,2.629 -5.57,7.942 l 11.11,61.847 c 1.06,5.262 3.96,7.942 8.73,7.942 h 23.78 c 2.63,0 4.5,1.601 5.57,4.769 l 18.24,103.102 c 1.06,5.258 4.23,7.929 9.5,7.929 h 89.63 c 5.3,0 7.4,-2.671 6.37,-7.929 L 5556.57,540.16 c -1.07,-3.168 0,-4.769 3.17,-4.769 h 48.38 c 5.27,0 7.41,-2.68 6.34,-7.942 l -10.3,-61.847 c -1.07,-5.313 -4.24,-7.942 -9.54,-7.942 h -49.15 c -2.67,0 -4.27,-1.597 -4.77,-4.769 L 5508.19,277.59 c -2.67,-15.34 -1.99,-25.75 1.95,-31.328 3.96,-5.532 12.55,-8.313 25.79,-8.313 h 17.44 c 5.3,0 7.4,-2.668 6.37,-7.937 l -13.51,-75.36 c -1.07,-5.273 -3.97,-7.941 -8.7,-7.941 h -39.68"
         style="fill:#7a7e82;fill-opacity:1;fill-rule:nonzero;stroke:none"
         id="path54" /><path
         d="m 5974.55,232.379 c 29.08,0 50.75,14.531 65.06,43.652 3.17,6.871 6.34,15.719 9.5,26.559 3.17,10.832 5.96,22.051 8.32,33.691 2.4,11.641 4.24,22.891 5.57,33.731 1.3,10.84 1.99,19.418 1.99,25.758 0,18.5 -3.97,32.929 -11.91,43.23 -7.94,10.34 -21.18,15.492 -39.64,15.492 -29.12,0 -50.79,-14.57 -65.06,-43.652 -3.17,-6.871 -6.34,-15.719 -9.5,-26.559 -3.21,-10.84 -5.96,-22.09 -8.36,-33.691 -2.37,-11.641 -4.24,-22.899 -5.53,-33.731 -1.34,-10.839 -1.99,-19.429 -1.99,-25.757 0,-18.539 3.97,-32.93 11.91,-43.231 7.93,-10.34 21.14,-15.492 39.64,-15.492 z m -14.27,-89.637 c -44.41,0 -79.6,11.91 -105.5,35.719 -25.91,23.769 -38.85,57.879 -38.85,102.301 0,11.097 0.76,23.808 2.37,38.078 1.56,14.269 3.81,28.699 6.75,43.23 2.9,14.539 6.45,28.7 10.68,42.43 4.24,13.742 9.01,26.18 14.28,37.281 17.97,36.481 42.05,62.66 72.19,78.532 30.14,15.878 65.29,23.808 105.51,23.808 44.41,0 79.56,-11.898 105.46,-35.711 25.91,-23.769 38.89,-57.89 38.89,-102.301 0,-11.109 -0.8,-23.808 -2.37,-38.078 -1.6,-14.281 -3.85,-28.699 -6.75,-43.242 -2.9,-14.527 -6.49,-28.687 -10.73,-42.43 -4.23,-13.769 -8.96,-26.168 -14.27,-37.277 -17.97,-36.48 -42.05,-62.652 -72.15,-78.531 -30.15,-15.871 -65.33,-23.809 -105.51,-23.809"
         style="fill:#7a7e82;fill-opacity:1;fill-rule:nonzero;stroke:none"
         id="path56" /><path
         d="m 6232.35,151.48 c -5.84,0 -8.21,2.629 -7.14,7.942 l 51.55,293.469 c 0.54,3.172 -0.53,4.769 -3.17,4.769 h -23.81 c -4.73,0 -6.6,2.629 -5.53,7.942 l 11.1,61.847 c 1.03,5.262 3.71,7.942 7.94,7.942 h 23.77 c 2.64,0 4.51,1.601 5.57,4.769 l 3.17,19.801 c 8.43,47.09 24.84,80.66 49.19,100.738 24.3,20.102 58.68,30.141 103.1,30.141 h 42.05 c 5.26,0 7.4,-2.629 6.33,-7.938 l -12.7,-70.589 c -1.03,-5.262 -3.93,-7.942 -8.7,-7.942 h -22.21 c -17.48,0 -29.76,-2.902 -36.9,-8.699 -7.13,-5.832 -12.02,-17.203 -14.65,-34.109 l -3.97,-20.602 c -0.53,-3.738 0.76,-5.57 3.97,-5.57 h 60.25 c 5.84,0 8.2,-2.68 7.17,-7.942 l -11.14,-61.847 c -1.03,-5.313 -4.23,-7.942 -9.5,-7.942 h -60.29 c -3.17,0 -5.04,-1.597 -5.53,-4.769 l -50.79,-293.469 c -1.07,-5.313 -3.7,-7.942 -7.94,-7.942 h -91.19"
         style="fill:#7a7e82;fill-opacity:1;fill-rule:nonzero;stroke:none"
         id="path58" /><path
         d="m 6776.44,146.711 c -43.89,0 -72.69,10.461 -86.47,31.332 -13.74,20.906 -16.9,52.77 -9.5,95.578 l 33.31,179.27 c 0.54,3.172 -0.8,4.769 -3.97,4.769 h -23.77 c -4.77,0 -6.64,2.629 -5.57,7.942 l 11.1,61.847 c 1.07,5.262 3.97,7.942 8.74,7.942 h 23.77 c 2.64,0 4.51,1.601 5.57,4.769 l 18.24,103.102 c 1.07,5.258 4.24,7.929 9.51,7.929 h 89.63 c 5.3,0 7.4,-2.671 6.37,-7.929 L 6835.16,540.16 c -1.07,-3.168 0,-4.769 3.17,-4.769 h 48.38 c 5.27,0 7.4,-2.68 6.34,-7.942 l -10.31,-61.847 c -1.07,-5.313 -4.23,-7.942 -9.54,-7.942 h -49.14 c -2.67,0 -4.28,-1.597 -4.77,-4.769 L 6786.78,277.59 c -2.67,-15.34 -1.99,-25.75 1.94,-31.328 3.97,-5.532 12.56,-8.313 25.8,-8.313 h 17.44 c 5.3,0 7.4,-2.668 6.37,-7.937 l -13.51,-75.36 c -1.07,-5.273 -3.97,-7.941 -8.7,-7.941 h -39.68"
         style="fill:#7a7e82;fill-opacity:1;fill-rule:nonzero;stroke:none"
         id="path60" /><path
         d="m 7134.97,151.48 c -5.31,0 -7.41,2.672 -6.34,7.981 l 38.85,221.039 c 3.7,22.82 1.98,40.832 -5.16,54.109 -7.13,13.243 -20.22,19.883 -39.26,19.883 -18.51,0 -34.11,-6.492 -46.78,-19.5 -12.71,-12.972 -21.18,-30.601 -25.38,-52.883 l -38.88,-222.648 c -1.07,-5.309 -3.7,-7.981 -7.94,-7.981 h -91.19 c -5.84,0 -8.21,2.629 -7.18,7.942 l 92.84,523.48 c 1.03,5.309 3.97,7.938 8.7,7.938 h 91.24 c 5.26,0 7.4,-2.629 6.33,-7.938 L 7071.51,498.91 h 0.8 c 11.1,12.672 25.38,23.391 42.81,32.129 17.48,8.703 38.08,13.082 61.9,13.082 20.6,0 38.19,-3.578 52.73,-10.719 14.54,-7.132 25.91,-17.172 34.11,-30.14 8.21,-12.981 13.47,-28.16 15.88,-45.602 2.36,-17.441 1.67,-36.48 -1.99,-57.117 L 7234.1,159.422 c -1.07,-5.313 -3.97,-7.942 -8.7,-7.942 h -90.43"
         style="fill:#7a7e82;fill-opacity:1;fill-rule:nonzero;stroke:none"
         id="path62" /><path
         d="m 7579.92,382.301 c 2.63,0 4.51,1.601 5.57,4.769 1.57,7.93 2.37,15.071 2.37,21.403 0,35.949 -18.51,53.957 -55.52,53.957 -15.34,0 -29.11,-3.739 -41.25,-11.11 -12.17,-7.437 -21.71,-18.007 -28.54,-31.738 -2.67,-4.769 -4.66,-9.5 -5.95,-14.269 -1.34,-4.77 -2.52,-10.571 -3.59,-17.442 -0.53,-3.738 0.53,-5.57 3.17,-5.57 z m -95.96,-239.559 c -47.09,0 -83.57,11.91 -109.48,35.719 -25.91,23.769 -38.84,58.68 -38.84,104.699 0,11.602 0.65,24.313 1.98,38.051 1.3,13.769 3.28,27.512 5.92,41.238 2.67,13.781 5.95,27.25 9.92,40.492 3.96,13.2 8.58,25.11 13.89,35.68 16.9,34.379 39.79,60.551 68.6,78.531 28.81,17.969 65.44,26.969 109.86,26.969 20.11,0 38.88,-2.93 56.32,-8.73 17.44,-5.84 32.51,-14.43 45.22,-25.801 12.7,-11.367 22.59,-25.367 29.72,-42.008 7.17,-16.68 10.72,-36.102 10.72,-58.312 0,-10.598 -0.64,-22.618 -1.98,-36.09 -1.34,-13.469 -4.08,-31.328 -8.32,-53.539 -1.07,-5.301 -4.23,-7.93 -9.54,-7.93 h -224.44 c -3.21,0 -5.04,-1.609 -5.57,-4.77 -0.54,-2.64 -0.8,-6.609 -0.8,-11.91 0,-24.308 5.95,-41.519 17.85,-51.551 11.91,-10.039 28.97,-15.07 51.17,-15.07 16.91,0 33.32,3.582 49.19,10.723 15.83,7.129 30.14,15.988 42.81,26.558 4.24,3.7 8.21,3.7 11.91,0 l 38.84,-46.781 c 3.7,-4.238 3.44,-8.48 -0.76,-12.711 -20.11,-18.508 -43.65,-33.687 -70.59,-45.597 -26.98,-11.903 -58.19,-17.86 -93.6,-17.86"
         style="fill:#7a7e82;fill-opacity:1;fill-rule:nonzero;stroke:none"
         id="path64" /><path
         d="m 8176.38,382.301 c 2.64,0 4.51,1.601 5.57,4.769 1.57,7.93 2.37,15.071 2.37,21.403 0,35.949 -18.51,53.957 -55.52,53.957 -15.32,0 -29.09,-3.739 -41.23,-11.11 -12.17,-7.437 -21.71,-18.007 -28.54,-31.738 -2.67,-4.769 -4.66,-9.5 -5.95,-14.269 -1.34,-4.77 -2.52,-10.571 -3.59,-17.442 -0.53,-3.738 0.53,-5.57 3.17,-5.57 z m -95.94,-239.559 c -47.09,0 -83.57,11.91 -109.48,35.719 -25.91,23.769 -38.84,58.68 -38.84,104.699 0,11.602 0.65,24.313 1.98,38.051 1.3,13.769 3.28,27.512 5.92,41.238 2.67,13.781 5.95,27.25 9.92,40.492 3.97,13.2 8.58,25.11 13.89,35.68 16.9,34.379 39.79,60.551 68.6,78.531 28.81,17.969 65.44,26.969 109.84,26.969 20.11,0 38.88,-2.93 56.32,-8.73 17.44,-5.84 32.51,-14.43 45.22,-25.801 12.7,-11.367 22.59,-25.367 29.72,-42.008 7.18,-16.68 10.73,-36.102 10.73,-58.312 0,-10.598 -0.65,-22.618 -1.99,-36.09 -1.33,-13.469 -4.08,-31.328 -8.32,-53.539 -1.07,-5.301 -4.23,-7.93 -9.54,-7.93 h -224.42 c -3.21,0 -5.04,-1.609 -5.57,-4.77 -0.54,-2.64 -0.8,-6.609 -0.8,-11.91 0,-24.308 5.95,-41.519 17.85,-51.551 11.91,-10.039 28.97,-15.07 51.17,-15.07 16.91,0 33.3,3.582 49.17,10.723 15.84,7.129 30.14,15.988 42.81,26.558 4.24,3.7 8.21,3.7 11.91,0 l 38.84,-46.781 c 3.7,-4.238 3.44,-8.48 -0.76,-12.711 -20.11,-18.508 -43.65,-33.687 -70.59,-45.597 -26.98,-11.903 -58.17,-17.86 -93.58,-17.86"
         style="fill:#7a7e82;fill-opacity:1;fill-rule:nonzero;stroke:none"
         id="path66" /><path
         d="m 8553.15,151.48 c -5.3,0 -7.4,2.672 -6.33,7.981 l 38.84,221.039 c 3.7,22.82 1.99,40.832 -5.15,54.109 -7.13,13.243 -20.22,19.883 -39.26,19.883 -18.51,0 -34.12,-6.492 -46.78,-19.5 -12.71,-12.972 -21.18,-30.601 -25.38,-52.883 l -38.88,-222.648 c -1.07,-5.309 -3.7,-7.981 -7.94,-7.981 h -91.2 c -5.83,0 -8.2,2.629 -7.17,7.942 l 65.06,368.027 c 1.07,5.262 3.97,7.942 8.74,7.942 h 91.2 c 5.3,0 7.4,-2.68 6.37,-7.942 l -5.57,-28.539 h 0.8 c 11.1,12.672 25.37,23.391 42.81,32.129 17.48,8.703 38.08,13.082 61.89,13.082 20.61,0 38.2,-3.578 52.74,-10.719 14.53,-7.132 25.91,-17.062 34.11,-29.722 8.2,-12.707 13.47,-27.778 15.87,-45.219 2.37,-17.481 1.68,-36.52 -1.98,-57.121 l -43.65,-241.918 c -1.07,-5.313 -3.97,-7.942 -8.7,-7.942 h -90.44"
         style="fill:#7a7e82;fill-opacity:1;fill-rule:nonzero;stroke:none"
         id="path68" /><path
         d="m 8998.11,382.301 c 2.63,0 4.5,1.601 5.57,4.769 1.56,7.93 2.37,15.071 2.37,21.403 0,35.949 -18.51,53.957 -55.52,53.957 -15.34,0 -29.12,-3.739 -41.25,-11.11 -12.17,-7.437 -21.71,-18.007 -28.54,-31.738 -2.67,-4.769 -4.66,-9.5 -5.96,-14.269 -1.33,-4.77 -2.51,-10.571 -3.58,-17.442 -0.54,-3.738 0.53,-5.57 3.16,-5.57 z m -95.97,-239.559 c -47.08,0 -83.56,11.91 -109.47,35.719 -25.91,23.769 -38.85,58.68 -38.85,104.699 0,11.602 0.65,24.313 1.99,38.051 1.3,13.769 3.28,27.512 5.91,41.238 2.67,13.781 5.96,27.25 9.92,40.492 3.97,13.2 8.59,25.11 13.89,35.68 16.91,34.379 39.8,60.551 68.61,78.531 28.81,17.969 65.44,26.969 109.86,26.969 20.11,0 38.88,-2.93 56.32,-8.73 17.44,-5.84 32.51,-14.43 45.21,-25.801 12.71,-11.367 22.59,-25.367 29.73,-42.008 7.17,-16.68 10.72,-36.102 10.72,-58.312 0,-10.598 -0.65,-22.618 -1.98,-36.09 -1.34,-13.469 -4.09,-31.328 -8.32,-53.539 -1.07,-5.301 -4.24,-7.93 -9.54,-7.93 H 8861.7 c -3.21,0 -5.04,-1.609 -5.58,-4.77 -0.53,-2.64 -0.8,-6.609 -0.8,-11.91 0,-24.308 5.96,-41.519 17.86,-51.551 11.91,-10.039 28.96,-15.07 51.17,-15.07 16.9,0 33.31,3.582 49.19,10.723 15.83,7.129 30.14,15.988 42.81,26.558 4.23,3.7 8.2,3.7 11.9,0 l 38.85,-46.781 c 3.7,-4.238 3.43,-8.48 -0.76,-12.711 -20.11,-18.508 -43.66,-33.687 -70.6,-45.597 -26.97,-11.903 -58.19,-17.86 -93.6,-17.86"
         style="fill:#7a7e82;fill-opacity:1;fill-rule:nonzero;stroke:none"
         id="path70" /><path
         d="m 9152.8,151.48 c -5.84,0 -8.2,2.629 -7.17,7.942 l 65.06,368.027 c 1.06,5.262 3.96,7.942 8.73,7.942 h 91.2 c 5.3,0 7.4,-2.68 6.37,-7.942 l -6.37,-34.109 h 0.8 c 11.64,15.871 26.29,28.269 44.04,37.281 17.7,9 37.39,13.5 59.06,13.5 13.24,0 25.11,-1.98 35.72,-5.949 10.57,-3.973 19.04,-9.652 25.37,-17.063 3.17,-4.23 3.44,-7.929 0.81,-11.097 l -53.96,-76.961 c -3.7,-3.699 -7.4,-4.238 -11.1,-1.571 -7.41,5.27 -15.08,9.5 -23.01,12.672 -7.94,3.207 -16.64,4.77 -26.18,4.77 -20.6,0 -37.01,-7.402 -49.15,-22.211 -12.17,-14.801 -20.64,-36.211 -25.41,-64.262 l -35.68,-203.027 c -1.06,-5.313 -3.7,-7.942 -7.93,-7.942 h -91.2"
         style="fill:#7a7e82;fill-opacity:1;fill-rule:nonzero;stroke:none"
         id="path72" /><path
         d="m 9626.8,255.383 c 26.78,0 47.04,14.238 60.7,42.66 3.13,6.336 6.03,13.547 8.67,21.719 2.63,8.16 4.88,16.859 6.71,26.097 1.83,9.192 3.28,18.161 4.35,26.86 1.03,8.664 1.57,16.711 1.57,24.082 0,18.429 -3.82,32.66 -11.45,42.66 -7.63,9.988 -20.38,15.031 -38.24,15.031 -26.78,0 -47.04,-14.23 -60.7,-42.66 -3.13,-6.332 -6.03,-13.582 -8.67,-21.75 -2.63,-8.16 -4.84,-16.832 -6.71,-26.062 -1.83,-9.231 -3.28,-18.321 -4.31,-27.25 -1.07,-8.957 -1.57,-16.86 -1.57,-23.727 0,-18.434 3.78,-32.621 11.41,-42.66 7.63,-10 20.38,-15 38.24,-15 z M 9574.75,0 c -31.21,0 -58.57,5.94922 -82.08,17.8125 -23.54,11.9102 -41.13,26.8672 -52.77,44.8398 -3.66,4.7696 -3.17,9.0079 1.6,12.668 l 58.69,49.1797 c 4.77,3.711 9,3.711 12.7,0 10.57,-10.57 21.14,-19.039 31.71,-25.3672 10.57,-6.3437 23.55,-9.5 38.89,-9.5 50.21,0 80.36,29.0662 90.43,87.2262 l 6.33,34.911 h -0.8 c -10.57,-14.27 -24.19,-25.528 -40.83,-33.727 -16.67,-8.211 -36.89,-12.293 -60.7,-12.293 -37.55,0 -65.18,11.109 -82.88,33.313 -17.71,22.207 -26.56,52.089 -26.56,89.636 0,10.571 0.76,23.012 2.36,37.281 1.61,14.27 3.82,28.961 6.76,44.032 2.9,15.07 6.45,29.879 10.68,44.418 4.24,14.531 9.01,27.351 14.31,38.461 28.54,60.82 74.79,91.23 138.78,91.23 23.81,0 42.97,-4.379 57.51,-13.082 14.53,-8.738 24.72,-20 30.56,-33.738 h 0.76 l 5.57,30.148 c 1.07,5.262 3.97,7.942 8.74,7.942 h 88.83 c 5.27,0 7.41,-2.68 6.34,-7.942 l -58.69,-338.687 c -5.84,-34.383 -14.27,-63.449 -25.37,-87.27 C 9744.51,77.7188 9730.47,58.3008 9713.57,43.2305 9696.62,28.1602 9676.67,17.1719 9653.7,10.3008 9630.69,3.42969 9604.36,0 9574.75,0"
         style="fill:#7a7e82;fill-opacity:1;fill-rule:nonzero;stroke:none"
         id="path74" /><path
         d="m 9867.46,8.69922 c -5.84,0 -7.94,2.63278 -6.38,7.86328 l 12.71,73.9102 c 1.03,5.2578 4.24,7.8593 9.5,7.8593 h 16.68 c 13.73,0 24.99,3.051 33.69,9.16 8.74,6.098 17.06,16.821 24.99,32.16 l 14.27,29.418 -74.56,358.379 c -1.07,5.262 1.07,7.942 6.38,7.942 h 94.36 c 4.8,0 7.4,-2.68 7.9,-7.942 l 35,-227.648 h 1.5 l 111.1,227.648 c 2.1,5.262 5.8,7.942 11.1,7.942 h 95.2 c 6.3,0 8.2,-2.68 5.5,-7.942 L 10042,118.172 c -11.2,-21.1407 -22.1,-38.7306 -33,-52.7306 -10.82,-14.0117 -22.07,-25.2617 -33.67,-33.7422 -11.64,-8.4297 -24.08,-14.3789 -37.28,-17.8476 -13.24,-3.4414 -28.05,-5.15238 -44.42,-5.15238 h -26.17"
         style="fill:#7a7e82;fill-opacity:1;fill-rule:nonzero;stroke:none"
         id="path76" /><path
         d="m 10627.3,232.379 c 29.1,0 50.7,14.531 65,43.652 3.2,6.328 6.2,14.758 9.2,25.371 2.9,10.571 5.5,21.52 7.9,32.891 2.4,11.379 4.2,22.629 5.5,33.738 1.4,11.102 2,20.328 2,27.739 0,18.5 -3.8,32.929 -11.5,43.23 -7.6,10.34 -20.7,15.492 -39.2,15.492 -29.1,0 -50.8,-14.57 -65.1,-43.652 -3.2,-6.34 -6.2,-14.649 -9.1,-24.957 -2.9,-10.34 -5.5,-21.293 -7.9,-32.934 -2.4,-11.629 -4.3,-23.008 -5.6,-34.109 -1.3,-11.098 -2,-20.379 -2,-27.738 0,-18.539 3.9,-32.93 11.5,-43.231 7.7,-10.34 20.8,-15.492 39.3,-15.492 z m 19,-89.637 c -25.3,0 -45.3,4.66 -59.8,13.891 -14.6,9.238 -24.8,20.226 -30.6,32.93 h -0.8 l -5.5,-30.141 c -1.1,-5.313 -3.7,-7.942 -8,-7.942 h -91.2 c -5.8,0 -8.2,2.629 -7.1,7.942 l 92.8,523.48 c 1,5.309 4,7.938 8.7,7.938 h 91.2 c 5.3,0 7.4,-2.629 6.4,-7.938 l -32.5,-184.793 h 0.8 c 10.5,13.731 24.5,24.84 42,33.313 17.4,8.469 38.3,12.699 62.6,12.699 36.5,0 64,-11.25 82.5,-33.73 18.5,-22.469 27.8,-53.27 27.8,-92.418 0,-12.66 -0.9,-27.352 -2.8,-43.993 -1.9,-16.679 -4.5,-33.73 -7.9,-51.167 -3.5,-17.442 -7.5,-34.383 -12.3,-50.75 -4.8,-16.411 -10.3,-30.68 -16.7,-42.852 -15.3,-31.211 -34.5,-53.422 -57.5,-66.629 -23,-13.203 -50.4,-19.84 -82.1,-19.84"
         style="fill:#7a7e82;fill-opacity:1;fill-rule:nonzero;stroke:none"
         id="path78" /><path
         d="m 11023.9,535.391 c 5.8,0 8.2,-2.68 7.1,-7.981 l -39.6,-221.847 c -4.3,-22.282 -2.7,-40.063 4.8,-53.301 7.4,-13.25 20.4,-19.883 39,-19.883 18.6,0 34.1,6.48 46.7,19.492 12.4,12.981 20.8,30.609 25.1,52.891 l 39,222.648 c 1.1,5.301 3.7,7.981 8,7.981 h 91.2 c 5.8,0 8.2,-2.68 7.1,-7.942 l -65.8,-368.027 c -1.1,-5.313 -4,-7.942 -8.7,-7.942 h -90.5 c -5.2,0 -7.4,2.629 -6.3,7.942 l 4.8,28.539 h -0.8 c -12.2,-13.199 -26.6,-24.078 -43.3,-32.512 -16.6,-8.469 -36.6,-12.707 -59.8,-12.707 -20.7,0 -38.1,3.481 -52.4,10.34 -14.3,6.867 -25.5,16.641 -33.7,29.348 -8.2,12.672 -13.4,27.742 -15.5,45.211 -2.1,17.441 -1.3,36.75 2.4,57.89 l 42.8,241.918 c 1.1,5.262 3.7,7.942 8,7.942 h 90.4"
         style="fill:#7a7e82;fill-opacity:1;fill-rule:nonzero;stroke:none"
         id="path80" /><path
         d="m 11431.6,142.742 c -38.6,0 -71.4,6.219 -98.4,18.66 -27,12.399 -48.1,26.289 -63.5,41.629 -1,1.071 -1.4,2.789 -1.1,5.149 0.2,2.41 1.1,4.39 2.8,5.961 l 57,53.148 c 4.3,3.172 8,3.172 11.1,0 14.8,-12.707 31.3,-22.629 49.2,-29.758 18,-7.14 37,-10.691 57.1,-10.691 21.2,0 37.7,4.769 49.6,14.269 11.9,9.5 17.9,20.071 17.9,31.711 0,9.012 -3.3,15.762 -9.9,20.262 -6.7,4.469 -18.4,7.52 -35.3,9.117 l -40.5,3.973 c -33.8,3.668 -59.7,13.848 -77.7,30.527 -18,16.641 -27,38.461 -27,65.442 0,22.699 4.4,42.961 13.1,60.672 8.7,17.699 20.7,32.507 36.1,44.417 15.3,11.903 33.6,21.02 54.7,27.352 21.1,6.379 44.2,9.539 69,9.539 30.1,0 57.8,-4.769 82.9,-14.308 25.1,-9.5 44.8,-20.872 59.1,-34.071 3.1,-3.703 2.9,-7.441 -0.8,-11.101 l -50.8,-51.59 c -3.7,-3.699 -7.4,-4.238 -11.1,-1.571 -11.6,8.442 -25.2,15.571 -40.8,21.411 -15.6,5.8 -32.9,8.742 -52,8.742 -17.9,0 -31.8,-3.973 -41.6,-11.91 -9.8,-7.942 -14.7,-17.211 -14.7,-27.782 0,-7.902 2.8,-14.121 8.3,-18.621 5.6,-4.5 17.3,-7.82 35.3,-9.918 l 39.7,-3.972 c 38.1,-4.231 65.6,-14.649 82.5,-31.328 16.9,-16.633 25.4,-37.922 25.4,-63.832 0,-22.739 -4.3,-43.5 -12.7,-62.278 -8.5,-18.769 -20.6,-34.762 -36.5,-48 -15.9,-13.203 -35.3,-23.39 -58.3,-30.519 -23,-7.141 -49,-10.731 -78.1,-10.731"
         style="fill:#7a7e82;fill-opacity:1;fill-rule:nonzero;stroke:none"
         id="path82" /><path
         d="m 11754.4,599.641 c -5.3,0 -7.4,2.64 -6.3,7.941 l 14.3,75.32 c 1,5.309 3.9,7.938 8.7,7.938 h 91.2 c 5.3,0 7.4,-2.629 6.3,-7.938 l -13.4,-75.32 c -1.1,-5.301 -4,-7.941 -8.8,-7.941 z m -77.7,-448.161 c -5.8,0 -8.2,2.629 -7.2,7.942 l 65.1,368.027 c 1.1,5.262 4,7.942 8.7,7.942 h 91.2 c 5.3,0 7.4,-2.68 6.4,-7.942 l -65.1,-368.027 c -1,-5.313 -3.7,-7.942 -7.9,-7.942 h -91.2"
         style="fill:#7a7e82;fill-opacity:1;fill-rule:nonzero;stroke:none"
         id="path84" /><path
         d="m 12101,151.48 c -5.3,0 -7.4,2.672 -6.3,7.981 l 38.8,221.039 c 3.7,22.82 2,40.832 -5.1,54.109 -7.2,13.243 -20.2,19.883 -39.3,19.883 -18.5,0 -34.1,-6.492 -46.8,-19.5 -12.7,-12.972 -21.1,-30.601 -25.3,-52.883 l -38.9,-222.648 c -1.1,-5.309 -3.7,-7.981 -8,-7.981 h -91.2 c -5.8,0 -8.2,2.629 -7.1,7.942 l 65,368.027 c 1.1,5.262 4,7.942 8.8,7.942 h 91.2 c 5.3,0 7.4,-2.68 6.3,-7.942 l -5.5,-28.539 h 0.8 c 11.1,12.672 25.3,23.391 42.8,32.129 17.4,8.703 38.1,13.082 61.9,13.082 20.6,0 38.2,-3.578 52.7,-10.719 14.5,-7.132 25.9,-17.062 34.1,-29.722 8.2,-12.707 13.5,-27.778 15.9,-45.219 2.4,-17.481 1.7,-36.52 -2,-57.121 l -43.7,-241.918 c -1,-5.313 -3.9,-7.942 -8.7,-7.942 h -90.4"
         style="fill:#7a7e82;fill-opacity:1;fill-rule:nonzero;stroke:none"
         id="path86" /><path
         d="m 12546,382.301 c 2.6,0 4.5,1.601 5.6,4.769 1.5,7.93 2.3,15.071 2.3,21.403 0,35.949 -18.5,53.957 -55.5,53.957 -15.3,0 -29.1,-3.739 -41.2,-11.11 -12.2,-7.437 -21.7,-18.007 -28.6,-31.738 -2.6,-4.769 -4.6,-9.5 -5.9,-14.269 -1.4,-4.77 -2.5,-10.571 -3.6,-17.442 -0.5,-3.738 0.5,-5.57 3.2,-5.57 z m -96,-239.559 c -47,0 -83.5,11.91 -109.4,35.719 -25.9,23.769 -38.9,58.68 -38.9,104.699 0,11.602 0.7,24.313 2,38.051 1.3,13.769 3.3,27.512 5.9,41.238 2.7,13.781 6,27.25 9.9,40.492 4,13.2 8.6,25.11 13.9,35.68 16.9,34.379 39.8,60.551 68.6,78.531 28.8,17.969 65.5,26.969 109.9,26.969 20.1,0 38.9,-2.93 56.3,-8.73 17.5,-5.84 32.5,-14.43 45.2,-25.801 12.7,-11.367 22.6,-25.367 29.8,-42.008 7.1,-16.68 10.7,-36.102 10.7,-58.312 0,-10.598 -0.7,-22.618 -2,-36.09 -1.3,-13.469 -4.1,-31.328 -8.3,-53.539 -1.1,-5.301 -4.3,-7.93 -9.6,-7.93 h -224.4 c -3.2,0 -5,-1.609 -5.6,-4.77 -0.5,-2.64 -0.8,-6.609 -0.8,-11.91 0,-24.308 6,-41.519 17.9,-51.551 11.9,-10.039 28.9,-15.07 51.2,-15.07 16.9,0 33.3,3.582 49.1,10.723 15.9,7.129 30.2,15.988 42.8,26.558 4.3,3.7 8.3,3.7 12,0 l 38.8,-46.781 c 3.7,-4.238 3.4,-8.48 -0.8,-12.711 -20.1,-18.508 -43.6,-33.687 -70.6,-45.597 -26.9,-11.903 -58.1,-17.86 -93.6,-17.86"
         style="fill:#7a7e82;fill-opacity:1;fill-rule:nonzero;stroke:none"
         id="path88" /><path
         d="m 12841.8,142.742 c -38.6,0 -71.3,6.219 -98.3,18.66 -27,12.399 -48.1,26.289 -63.5,41.629 -1,1.071 -1.4,2.789 -1.2,5.149 0.3,2.41 1.2,4.39 2.8,5.961 l 57.1,53.148 c 4.2,3.172 7.9,3.172 11.1,0 14.8,-12.707 31.2,-22.629 49.2,-29.758 18,-7.14 37,-10.691 57.1,-10.691 21.2,0 37.7,4.769 49.6,14.269 11.9,9.5 17.8,20.071 17.8,31.711 0,9.012 -3.3,15.762 -9.9,20.262 -6.6,4.469 -18.4,7.52 -35.3,9.117 l -40.4,3.973 c -33.9,3.668 -59.8,13.848 -77.7,30.527 -18.1,16.641 -27,38.461 -27,65.442 0,22.699 4.3,42.961 13.1,60.672 8.7,17.699 20.7,32.507 36.1,44.417 15.3,11.903 33.5,21.02 54.7,27.352 21.1,6.379 44.1,9.539 69,9.539 30.1,0 57.7,-4.769 82.9,-14.308 25.1,-9.5 44.8,-20.872 59.1,-34.071 3.1,-3.703 2.9,-7.441 -0.8,-11.101 l -50.8,-51.59 c -3.7,-3.699 -7.4,-4.238 -11.1,-1.571 -11.6,8.442 -25.3,15.571 -40.8,21.411 -15.6,5.8 -33,8.742 -52,8.742 -18,0 -31.9,-3.973 -41.6,-11.91 -9.8,-7.942 -14.7,-17.211 -14.7,-27.782 0,-7.902 2.8,-14.121 8.3,-18.621 5.6,-4.5 17.3,-7.82 35.3,-9.918 l 39.7,-3.972 c 38.1,-4.231 65.5,-14.649 82.5,-31.328 16.9,-16.633 25.3,-37.922 25.3,-63.832 0,-22.739 -4.2,-43.5 -12.7,-62.278 -8.4,-18.769 -20.6,-34.762 -36.4,-48 -15.9,-13.203 -35.3,-23.39 -58.3,-30.519 -23.1,-7.141 -49.1,-10.731 -78.2,-10.731"
         style="fill:#7a7e82;fill-opacity:1;fill-rule:nonzero;stroke:none"
         id="path90" /><path
         d="m 13228.2,142.742 c -38.7,0 -71.4,6.219 -98.4,18.66 -27,12.399 -48.1,26.289 -63.5,41.629 -1,1.071 -1.4,2.789 -1.2,5.149 0.3,2.41 1.2,4.39 2.8,5.961 l 57.1,53.148 c 4.3,3.172 8,3.172 11.1,0 14.8,-12.707 31.2,-22.629 49.2,-29.758 18,-7.14 37,-10.691 57.1,-10.691 21.2,0 37.7,4.769 49.6,14.269 11.9,9.5 17.8,20.071 17.8,31.711 0,9.012 -3.3,15.762 -9.9,20.262 -6.6,4.469 -18.4,7.52 -35.3,9.117 l -40.4,3.973 c -33.9,3.668 -59.8,13.848 -77.7,30.527 -18.1,16.641 -27,38.461 -27,65.442 0,22.699 4.3,42.961 13.1,60.672 8.7,17.699 20.7,32.507 36.1,44.417 15.3,11.903 33.5,21.02 54.7,27.352 21.1,6.379 44.1,9.539 69,9.539 30.1,0 57.7,-4.769 82.9,-14.308 25.1,-9.5 44.8,-20.872 59.1,-34.071 3.1,-3.703 2.9,-7.441 -0.8,-11.101 l -50.8,-51.59 c -3.7,-3.699 -7.4,-4.238 -11.1,-1.571 -11.6,8.442 -25.3,15.571 -40.8,21.411 -15.6,5.8 -33,8.742 -52,8.742 -18,0 -31.9,-3.973 -41.6,-11.91 -9.8,-7.942 -14.7,-17.211 -14.7,-27.782 0,-7.902 2.8,-14.121 8.3,-18.621 5.6,-4.5 17.3,-7.82 35.3,-9.918 l 39.7,-3.972 c 38.1,-4.231 65.5,-14.649 82.5,-31.328 16.9,-16.633 25.4,-37.922 25.4,-63.832 0,-22.739 -4.3,-43.5 -12.8,-62.278 -8.4,-18.769 -20.6,-34.762 -36.4,-48 -15.9,-13.203 -35.3,-23.39 -58.3,-30.519 -23,-7.141 -49.1,-10.731 -78.1,-10.731"
         style="fill:#7a7e82;fill-opacity:1;fill-rule:nonzero;stroke:none"
         id="path92" /><path
         d="m 13869.8,142.742 c -31.2,0 -58.8,4.66 -82.9,13.891 -24,9.238 -43.7,22.738 -59.1,40.449 -15.3,17.699 -25.7,39.68 -31.3,65.859 -5.5,26.18 -5.4,55.899 0.4,89.211 l 58.7,330.75 c 1,5.309 3.7,7.938 7.9,7.938 h 96 c 5.8,0 8.2,-2.629 7.1,-7.938 l -59.4,-337.082 c -5.9,-33.847 -2,-59.64 11.4,-77.347 13.6,-17.703 33.8,-26.563 60.8,-26.563 26.4,0 48,7.41 65,22.211 16.9,14.809 29.1,42.051 36.5,81.699 l 60.2,337.082 c 1.1,5.309 4,7.938 8.8,7.938 h 95.1 c 5.9,0 8.2,-2.629 7.2,-7.938 l -60.3,-338.679 c -6.3,-37.551 -16,-69.153 -28.9,-94.793 -13,-25.641 -28.7,-46.399 -47.2,-62.27 -18.5,-15.84 -40.1,-27.211 -64.7,-34.078 -24.6,-6.859 -51.7,-10.34 -81.3,-10.34"
         style="fill:#7a7e82;fill-opacity:1;fill-rule:nonzero;stroke:none"
         id="path94" /><path
         d="m 14383.8,151.48 c -5.3,0 -7.4,2.672 -6.3,7.981 l 38.8,221.039 c 3.7,22.82 2,40.832 -5.1,54.109 -7.2,13.243 -20.3,19.883 -39.3,19.883 -18.5,0 -34.1,-6.492 -46.8,-19.5 -12.7,-12.972 -21.2,-30.601 -25.4,-52.883 l -38.8,-222.648 c -1.1,-5.309 -3.7,-7.981 -8,-7.981 h -91.2 c -5.8,0 -8.2,2.629 -7.2,7.942 l 65.1,368.027 c 1.1,5.262 4,7.942 8.7,7.942 h 91.2 c 5.3,0 7.4,-2.68 6.4,-7.942 l -5.6,-28.539 h 0.8 c 11.1,12.672 25.4,23.391 42.9,32.129 17.4,8.703 38,13.082 61.8,13.082 20.7,0 38.2,-3.578 52.8,-10.719 14.5,-7.132 25.9,-17.062 34.1,-29.722 8.2,-12.707 13.5,-27.778 15.9,-45.219 2.3,-17.481 1.6,-36.52 -2,-57.121 l -43.7,-241.918 c -1,-5.313 -3.9,-7.942 -8.7,-7.942 h -90.4"
         style="fill:#7a7e82;fill-opacity:1;fill-rule:nonzero;stroke:none"
         id="path96" /><path
         d="m 14662.2,599.641 c -5.3,0 -7.4,2.64 -6.4,7.941 l 14.3,75.32 c 1.1,5.309 4,7.938 8.7,7.938 h 91.3 c 5.2,0 7.4,-2.629 6.3,-7.938 l -13.5,-75.32 c -1,-5.301 -3.9,-7.941 -8.7,-7.941 z m -77.7,-448.161 c -5.9,0 -8.2,2.629 -7.2,7.942 l 65.1,368.027 c 1,5.262 3.9,7.942 8.7,7.942 h 91.2 c 5.3,0 7.4,-2.68 6.4,-7.942 l -65.1,-368.027 c -1.1,-5.313 -3.7,-7.942 -7.9,-7.942 h -91.2"
         style="fill:#7a7e82;fill-opacity:1;fill-rule:nonzero;stroke:none"
         id="path98" /><path
         d="m 14963.6,232.379 c 29.1,0 50.8,14.531 65.1,43.652 3.1,6.328 6.1,14.758 9.1,25.371 2.9,10.571 5.5,21.52 7.9,32.891 2.4,11.379 4.2,22.629 5.6,33.738 1.3,11.102 1.9,20.328 1.9,27.739 0,18.5 -3.8,32.929 -11.4,43.23 -7.7,10.34 -20.8,15.492 -39.3,15.492 -29.1,0 -50.8,-14.57 -65.1,-43.652 -3.1,-6.34 -6.2,-14.649 -9.1,-24.957 -2.9,-10.34 -5.5,-21.293 -7.9,-32.934 -2.4,-11.629 -4.3,-23.008 -5.6,-34.109 -1.3,-11.098 -1.9,-20.379 -1.9,-27.738 0,-18.539 3.8,-32.93 11.4,-43.231 7.7,-10.34 20.8,-15.492 39.3,-15.492 z M 14761.3,8.69922 c -5.2,0 -7.4,2.67188 -6.3,7.93358 l 89.6,510.8162 c 1.1,5.262 4,7.942 8.8,7.942 h 91.2 c 5.3,0 7.4,-2.68 6.3,-7.942 l -4.7,-29.34 h 0.8 c 10.5,13.731 24.5,24.84 42,33.313 17.5,8.469 38.3,12.699 62.6,12.699 36.6,0 64,-11.25 82.5,-33.73 18.5,-22.469 27.8,-53.27 27.8,-92.418 0,-12.66 -0.9,-27.352 -2.8,-43.993 -1.8,-16.679 -4.5,-33.73 -7.9,-51.167 -3.4,-17.442 -7.5,-34.383 -12.3,-50.75 -4.8,-16.411 -10.3,-30.68 -16.6,-42.852 -15.4,-31.211 -34.6,-53.422 -57.6,-66.629 -22.9,-13.203 -50.3,-19.84 -82.1,-19.84 -25.3,0 -45.3,4.66 -59.8,13.891 -14.6,9.238 -24.8,20.226 -30.6,32.93 h -0.8 l -30.1,-172.9302 c -1.1,-5.2617 -4,-7.93358 -8.7,-7.93358 h -91.3"
         style="fill:#7a7e82;fill-opacity:1;fill-rule:nonzero;stroke:none"
         id="path100" /><path
         d="m 15451.4,382.301 c 2.6,0 4.5,1.601 5.6,4.769 1.5,7.93 2.3,15.071 2.3,21.403 0,35.949 -18.5,53.957 -55.5,53.957 -15.3,0 -29.1,-3.739 -41.2,-11.11 -12.2,-7.437 -21.7,-18.007 -28.6,-31.738 -2.6,-4.769 -4.6,-9.5 -5.9,-14.269 -1.3,-4.77 -2.5,-10.571 -3.6,-17.442 -0.5,-3.738 0.5,-5.57 3.2,-5.57 z m -96,-239.559 c -47,0 -83.5,11.91 -109.4,35.719 -25.9,23.769 -38.9,58.68 -38.9,104.699 0,11.602 0.7,24.313 2,38.051 1.3,13.769 3.3,27.512 5.9,41.238 2.7,13.781 6,27.25 9.9,40.492 4,13.2 8.6,25.11 13.9,35.68 16.9,34.379 39.8,60.551 68.6,78.531 28.9,17.969 65.5,26.969 109.9,26.969 20.1,0 38.9,-2.93 56.3,-8.73 17.5,-5.84 32.5,-14.43 45.2,-25.801 12.7,-11.367 22.6,-25.367 29.8,-42.008 7.1,-16.68 10.7,-36.102 10.7,-58.312 0,-10.598 -0.7,-22.618 -2,-36.09 -1.3,-13.469 -4.1,-31.328 -8.3,-53.539 -1.1,-5.301 -4.3,-7.93 -9.6,-7.93 H 15315 c -3.2,0 -5,-1.609 -5.6,-4.77 -0.5,-2.64 -0.8,-6.609 -0.8,-11.91 0,-24.308 6,-41.519 17.9,-51.551 11.9,-10.039 28.9,-15.07 51.2,-15.07 16.9,0 33.3,3.582 49.1,10.723 15.9,7.129 30.2,15.988 42.9,26.558 4.2,3.7 8.2,3.7 11.9,0 l 38.8,-46.781 c 3.7,-4.238 3.4,-8.48 -0.8,-12.711 -20.1,-18.508 -43.6,-33.687 -70.6,-45.597 -26.9,-11.903 -58.1,-17.86 -93.6,-17.86"
         style="fill:#7a7e82;fill-opacity:1;fill-rule:nonzero;stroke:none"
         id="path102" /><path
         d="m 15606.1,151.48 c -5.8,0 -8.2,2.629 -7.2,7.942 l 65.1,368.027 c 1.1,5.262 4,7.942 8.7,7.942 h 91.2 c 5.3,0 7.4,-2.68 6.4,-7.942 l -6.4,-34.109 h 0.8 c 11.7,15.871 26.3,28.269 44.1,37.281 17.7,9 37.4,13.5 59,13.5 13.3,0 25.1,-1.98 35.7,-5.949 10.6,-3.973 19.1,-9.652 25.4,-17.063 3.2,-4.23 3.5,-7.929 0.8,-11.097 l -53.9,-76.961 c -3.7,-3.699 -7.4,-4.238 -11.1,-1.571 -7.4,5.27 -15.1,9.5 -23,12.672 -8,3.207 -16.7,4.77 -26.2,4.77 -20.6,0 -37,-7.402 -49.2,-22.211 -12.1,-14.801 -20.6,-36.211 -25.4,-64.262 l -35.7,-203.027 c -1,-5.313 -3.7,-7.942 -7.9,-7.942 h -91.2"
         style="fill:#7a7e82;fill-opacity:1;fill-rule:nonzero;stroke:none"
         id="path104" /></g></g></svg>
