<?xml version="1.0" encoding="UTF-8" standalone="no"?>
<!-- Created with Inkscape (http://www.inkscape.org/) -->

<svg
   version="1.1"
   id="svg2"
   xml:space="preserve"
   width="520.41333"
   height="63.746666"
   viewBox="0 0 520.41333 63.746666"
   sodipodi:docname="proximion.eps"
   xmlns:inkscape="http://www.inkscape.org/namespaces/inkscape"
   xmlns:sodipodi="http://sodipodi.sourceforge.net/DTD/sodipodi-0.dtd"
   xmlns="http://www.w3.org/2000/svg"
   xmlns:svg="http://www.w3.org/2000/svg"><defs
     id="defs6"><clipPath
       clipPathUnits="userSpaceOnUse"
       id="clipPath18"><path
         d="M 0,478 H 3900 V 0 H 0 Z"
         id="path16" /></clipPath></defs><sodipodi:namedview
     id="namedview4"
     pagecolor="#ffffff"
     bordercolor="#666666"
     borderopacity="1.0"
     inkscape:pageshadow="2"
     inkscape:pageopacity="0.0"
     inkscape:pagecheckerboard="0" /><g
     id="g8"
     inkscape:groupmode="layer"
     inkscape:label="ink_ext_XXXXXX"
     transform="matrix(1.3333333,0,0,-1.3333333,0,63.746667)"><g
       id="g10"
       transform="scale(0.1)"><g
         id="g12"><g
           id="g14"
           clip-path="url(#clipPath18)"><path
             d="m 295.199,321.84 c 0,-50.399 -38.879,-90 -89.277,-90 H 186.48 v -57.598 h 38.161 c 82.082,0 146.879,66.957 146.879,147.598 0,82.082 -64.797,146.879 -146.879,146.879 H 186.48 v -56.156 h 19.442 c 50.398,0 89.277,-40.321 89.277,-90.723 z m -108.719,-90 H 77.7617 V 412.563 H 186.48 v 56.156 H 0 V 10.082 h 77.7617 v 164.16 H 186.48 v 57.598"
             style="fill:#f36717;fill-opacity:1;fill-rule:nonzero;stroke:none"
             id="path20" /><path
             d="m 770.402,321.84 c 0,-50.399 -39.605,-90 -88.562,-90 H 662.398 V 148.32 L 748.801,10.082 H 834.48 L 730.797,178.559 C 797.762,192.242 846,252.004 846,321.84 c 0,82.082 -64.801,146.879 -145.441,146.879 h -38.161 v -56.156 h 19.442 c 48.957,0 88.562,-40.321 88.562,-90.723 z m -108.004,-90 H 553.684 v 180.723 h 108.714 v 56.156 H 475.199 V 10.082 h 78.485 v 164.16 h 92.156 l 16.558,-25.922 v 83.52"
             style="fill:#f36717;fill-opacity:1;fill-rule:nonzero;stroke:none"
             id="path22" /><path
             d="m 1264.32,182.883 c 0,-66.961 -54,-124.5627 -120.96,-124.5627 V 0.722656 c 0,0 0,-0.722656 0.72,-0.722656 109.44,0 198.72,88.5586 198.72,198.723 v 82.8 c 0,102.235 -76.32,185.04 -174.96,196.559 h -24.48 v -55.441 c 66.96,0 120.96,-54.719 120.96,-121.68 z M 1143.36,58.3203 h -0.72 c -66.96,0 -120.24,53.9997 -120.24,120.9607 v 116.641 c 0,66.961 53.28,126.719 120.24,126.719 h 0.72 v 55.441 h -20.88 C 1023.12,467.281 945.359,383.758 945.359,281.523 v -82.8 C 945.359,88.5586 1033.2,0.722656 1143.36,0.722656 V 58.3203"
             style="fill:#f36717;fill-opacity:1;fill-rule:nonzero;stroke:none"
             id="path24" /><path
             d="m 1722.96,10.082 -120.24,182.16 -120.24,-182.16 h -84.96 l 164.16,244.801 -145.44,215.996 h 87.12 l 110.16,-166.32 110.88,166.32 h 84.96 L 1653.12,242.641 1810.08,10.082 h -87.12"
             style="fill:#f36717;fill-opacity:1;fill-rule:nonzero;stroke:none"
             id="path26" /><path
             d="m 1942.56,10.082 h 77.043 v 458.637 h -77.043 z"
             style="fill:#f36717;fill-opacity:1;fill-rule:nonzero;stroke:none"
             id="path28" /><path
             d="M 2559.6,10.082 V 314.645 L 2432.88,10.082 h -50.4 l -126,304.563 V 10.082 h -76.32 v 458.637 h 85.68 l 142.56,-357.117 141.84,357.117 h 87.84 V 10.082 h -78.48"
             style="fill:#f36717;fill-opacity:1;fill-rule:nonzero;stroke:none"
             id="path30" /><path
             d="m 2789.28,10.082 h 78.4805 V 468.719 H 2789.28 Z"
             style="fill:#f36717;fill-opacity:1;fill-rule:nonzero;stroke:none"
             id="path32" /><path
             d="m 3314.16,182.883 c 0,-66.961 -54,-124.5627 -120.96,-124.5627 V 0.722656 c 0.72,0 0.72,-0.722656 0.72,-0.722656 110.16,0 199.44,88.5586 199.44,198.723 v 82.8 c 0,97.196 -69.12,177.118 -161.28,194.399 h -38.88 v -53.281 c 66.96,0 120.96,-54.719 120.96,-121.68 z M 3193.2,58.3203 v 0 c -67.68,0 -120.96,53.9997 -120.96,120.9607 v 116.641 c 0,66.961 53.28,126.719 120.96,126.719 v 53.281 h -34.56 c -92.88,-16.563 -162.72,-97.203 -162.72,-194.399 v -82.8 C 2995.92,88.5586 3083.76,0.722656 3193.2,0.722656 V 58.3203"
             style="fill:#f36717;fill-opacity:1;fill-rule:nonzero;stroke:none"
             id="path34" /><path
             d="M 3817.44,10.082 3585.6,350.641 V 10.082 h -74.88 v 458.637 h 78.48 l 239.04,-354.957 v 354.957 h 74.88 V 10.082 h -85.68"
             style="fill:#f36717;fill-opacity:1;fill-rule:nonzero;stroke:none"
             id="path36" /></g></g></g></g></svg>
