<?xml version="1.0" standalone="no"?>
<!DOCTYPE svg PUBLIC "-//W3C//DTD SVG 20010904//EN"
 "http://www.w3.org/TR/2001/REC-SVG-20010904/DTD/svg10.dtd">
<svg version="1.0" xmlns="http://www.w3.org/2000/svg"
 width="1564.000000pt" height="1564.000000pt" viewBox="0 0 1564.000000 1564.000000"
 preserveAspectRatio="xMidYMid meet">

<g transform="translate(0.000000,1564.000000) scale(0.100000,-0.100000)"
fill="#000000" stroke="none">
<path d="M6198 12511 c-2 -12 -438 -340 -1184 -889 -649 -478 -1190 -874
-1201 -881 -12 -6 -42 -11 -67 -11 l-46 0 114 -169 c63 -93 120 -188 126 -210
16 -59 30 -193 30 -283 l0 -78 -747 0 -748 0 -193 36 c-106 20 -195 35 -197
32 -3 -2 -39 -182 -80 -399 -119 -622 -166 -863 -172 -882 -4 -17 -14 -18 -96
-15 -51 3 -154 15 -230 27 -76 13 -141 20 -144 17 -7 -7 -124 -727 -120 -745
3 -20 397 -85 397 -66 0 8 50 320 55 343 l5 22 265 0 265 0 -6 -182 c-3 -101
-7 -188 -9 -195 -5 -16 46 -22 242 -26 160 -4 163 -3 163 17 0 12 4 125 9 251
6 127 13 302 16 391 l6 161 -198 7 c-109 4 -199 8 -200 9 -2 3 146 769 152
785 3 9 166 12 769 12 421 0 767 -3 769 -7 2 -5 -11 -174 -29 -378 -44 -509
-62 -764 -75 -1085 -12 -292 -7 -798 11 -1035 10 -137 50 -528 54 -532 1 -1
81 3 177 9 222 15 1406 16 3905 4 1503 -7 1922 -7 1928 3 6 9 11 9 21 1 11 -9
230 184 1062 940 576 523 1056 958 1065 967 13 12 15 20 8 34 -6 11 -9 218 -8
546 l3 528 584 3 584 2 -8 -222 c-4 -123 -11 -311 -14 -418 l-6 -195 -55 -3
c-30 -2 -63 1 -75 7 -18 8 -313 41 -372 41 -15 0 -24 -7 -28 -22 -9 -41 -76
-731 -71 -735 7 -7 377 -45 391 -39 8 3 16 54 24 148 7 78 14 155 17 171 l6
27 299 0 c281 0 300 -1 295 -17 -2 -10 -8 -104 -11 -209 l-7 -192 148 -6 c82
-4 172 -9 201 -12 l52 -5 5 43 c5 39 37 712 36 764 0 21 -5 22 -167 29 -93 4
-192 8 -221 8 -29 0 -55 3 -57 7 -2 4 0 133 5 286 28 816 30 928 21 937 -5 5
-321 8 -795 8 l-786 -1 0 1159 c0 762 -3 1162 -10 1166 -6 3 -10 52 -10 111
l0 104 -2919 0 c-2862 0 -2920 0 -2923 -19z m5102 -405 c-20 -19 -1575 -1325
-1612 -1354 -14 -11 -57 -11 -255 2 -474 32 -650 37 -1398 43 -865 6 -1269 -1
-3362 -61 -95 -3 -173 -3 -173 -1 0 2 350 262 778 576 427 315 849 626 937
691 l159 118 2470 0 c2120 0 2468 -2 2456 -14z m350 -1181 l0 -935 -425 0
-425 0 0 -200 0 -200 425 0 425 0 0 -468 0 -468 -827 -751 c-455 -414 -829
-751 -831 -748 -2 2 2 70 8 152 28 336 28 1064 1 1473 -7 96 -28 366 -48 600
-31 356 -37 471 -37 710 -1 157 2 296 7 310 5 16 301 272 860 742 468 394 855
717 860 717 4 1 7 -420 7 -934z m-2825 -545 c305 -12 622 -29 653 -36 22 -4
22 -6 22 -187 0 -181 12 -369 50 -812 66 -771 82 -1237 59 -1745 -11 -263 -41
-616 -53 -627 -8 -8 -1035 -7 -3771 5 l-1520 7 -9 90 c-5 50 -9 333 -10 630
-1 570 3 666 59 1310 58 664 67 791 68 990 1 116 -2 235 -6 266 l-8 56 388 6
c213 4 597 14 853 22 442 13 1230 32 1630 39 309 5 1329 -4 1595 -14z"/>
<path d="M5545 9975 c-161 -37 -281 -102 -390 -210 -143 -141 -207 -292 -208
-490 -1 -128 15 -199 72 -320 98 -207 275 -356 477 -401 97 -21 257 -15 359
15 135 39 231 96 330 196 106 106 163 203 195 336 27 114 26 197 -5 305 -80
278 -264 478 -510 554 -89 27 -237 35 -320 15z m248 -425 c124 -62 220 -248
188 -366 -35 -131 -186 -237 -337 -236 -73 1 -118 18 -172 67 -51 45 -85 103
-107 179 -20 69 -15 127 19 201 68 150 268 225 409 155z"/>
<path d="M8195 9980 c-318 -65 -531 -298 -595 -650 -13 -72 -10 -99 26 -220
88 -295 286 -499 539 -555 118 -27 324 -17 430 19 205 70 352 216 427 423 17
48 22 89 26 231 4 164 3 176 -22 255 -74 235 -279 429 -521 492 -64 16 -240
19 -310 5z m262 -421 c57 -24 137 -101 164 -157 19 -38 23 -63 22 -146 0 -121
-13 -165 -65 -222 -58 -63 -123 -87 -235 -86 -113 1 -160 19 -221 86 -103 112
-133 246 -81 357 54 114 137 176 253 189 73 8 107 3 163 -21z"/>
<path d="M3209 5929 c-108 -16 -215 -68 -291 -142 -92 -89 -134 -204 -125
-339 14 -211 154 -342 467 -438 314 -96 349 -114 335 -168 -16 -67 -90 -99
-205 -89 -126 11 -208 67 -230 158 l-12 49 -194 0 -194 0 0 -265 0 -265 184 0
c210 0 188 -11 201 102 l7 58 54 -49 c111 -101 255 -148 428 -138 182 10 294
55 397 157 88 87 113 148 113 280 1 88 -1 100 -32 162 -64 130 -179 205 -462
303 -273 94 -330 129 -330 200 0 113 193 146 319 54 46 -33 91 -113 91 -161
l0 -28 190 0 190 0 0 265 0 265 -179 0 -180 0 -6 -47 c-3 -27 -8 -65 -11 -86
l-6 -37 -33 43 c-63 83 -171 137 -309 156 -86 12 -96 12 -177 0z"/>
<path d="M4718 5897 c-228 -83 -401 -286 -465 -545 -26 -106 -23 -324 6 -432
66 -246 226 -414 466 -490 95 -30 308 -39 413 -16 147 31 316 123 419 228 l51
53 -121 132 -121 133 -72 -70 c-120 -116 -235 -154 -357 -118 -59 18 -139 96
-171 167 -102 228 -11 574 164 621 122 33 237 -61 259 -209 l6 -46 188 -3 187
-2 0 300 0 300 -164 0 -164 0 -22 -55 c-12 -30 -25 -55 -27 -55 -3 0 -24 16
-46 36 -70 63 -137 87 -257 91 -92 3 -114 1 -172 -20z"/>
<path d="M6010 5766 l0 -135 43 -3 44 -3 -140 -457 -140 -457 -71 -3 -71 -3
-3 -137 -3 -138 336 0 335 0 0 140 0 140 -80 0 c-44 0 -80 4 -80 8 0 4 9 36
21 70 l21 62 213 0 213 0 21 -62 c12 -34 21 -65 21 -70 0 -4 -44 -9 -97 -10
l-98 -3 -3 -137 -3 -138 426 0 426 0 -3 138 -3 137 -74 5 -74 5 -164 525 c-90
289 -172 555 -184 593 l-20 67 -404 0 -405 0 0 -134z m495 -443 c36 -116 65
-214 65 -217 0 -3 -61 -6 -135 -6 -74 0 -135 3 -135 6 0 15 134 446 137 438 1
-5 32 -104 68 -221z"/>
<path d="M7420 5760 l0 -140 60 0 60 0 0 -455 0 -455 -60 0 -60 0 0 -140 0
-140 590 0 590 0 0 275 0 275 -175 0 -175 0 0 -135 0 -135 -140 0 -140 0 0
455 0 455 60 0 60 0 0 140 0 140 -335 0 -335 0 0 -140z"/>
<path d="M8700 5760 l0 -140 65 0 65 0 0 -455 0 -455 -65 0 -65 0 0 -140 0
-140 635 0 635 0 -2 238 -3 237 -177 3 -178 2 0 -100 0 -100 -170 0 -170 0 0
170 0 170 200 0 200 0 0 140 0 140 -200 0 -200 0 0 145 0 145 170 0 170 0 0
-95 0 -95 178 2 177 3 3 233 2 232 -635 0 -635 0 0 -140z"/>
<path d="M10060 5765 l0 -134 58 -3 57 -3 5 -345 c5 -285 9 -358 24 -420 73
-303 291 -461 636 -462 301 0 481 134 561 417 21 75 23 103 27 448 l4 367 59
0 59 0 0 135 0 135 -312 -2 -313 -3 0 -135 0 -135 59 -3 58 -3 -5 -317 c-3
-255 -7 -328 -21 -376 -34 -121 -77 -159 -185 -159 -80 -1 -121 18 -156 71
-46 69 -55 148 -55 485 l0 307 55 0 55 0 0 135 0 135 -335 0 -335 0 0 -135z"/>
<path d="M11620 5761 l0 -141 60 0 60 0 0 -455 0 -455 -60 0 -60 0 0 -140 0
-140 340 0 340 0 0 140 0 140 -65 0 -65 0 0 158 0 159 148 6 c83 4 175 13 212
23 151 38 267 123 318 231 25 53 27 68 27 183 0 117 -2 129 -29 187 -34 75
-104 144 -180 179 -115 53 -158 57 -618 61 l-428 5 0 -141z m701 -141 c68 -13
98 -34 127 -90 40 -79 25 -171 -37 -223 -40 -34 -89 -47 -173 -47 l-68 0 0
185 0 185 49 0 c26 0 73 -5 102 -10z"/>
<path d="M6323 3716 c-95 -30 -178 -109 -214 -205 -29 -76 -23 -203 12 -276
30 -64 100 -134 164 -165 74 -35 180 -34 256 1 72 34 134 96 168 168 22 48 26
69 26 151 0 90 -2 98 -36 160 -79 143 -232 211 -376 166z m139 -126 c132 -37
185 -211 101 -332 -63 -92 -211 -103 -285 -21 -27 30 -58 105 -58 143 0 90 57
177 135 205 49 17 60 18 107 5z"/>
<path d="M7653 3716 c-95 -30 -178 -109 -214 -205 -29 -76 -23 -203 12 -276
30 -64 100 -134 164 -165 74 -35 180 -34 256 1 72 34 134 96 168 168 22 48 26
69 26 151 0 90 -2 98 -36 160 -79 143 -232 211 -376 166z m139 -126 c132 -37
185 -211 101 -332 -63 -92 -211 -103 -285 -21 -27 30 -58 105 -58 143 0 90 57
177 135 205 49 17 60 18 107 5z"/>
<path d="M9263 3716 c-234 -74 -314 -380 -147 -565 126 -140 329 -143 464 -6
l41 42 -45 37 -46 37 -37 -29 c-55 -42 -95 -55 -157 -50 -170 14 -237 243
-106 362 70 63 166 69 243 14 l30 -21 38 44 c21 24 39 47 39 50 0 3 -21 20
-46 39 -80 57 -180 74 -271 46z"/>
<path d="M9863 3716 c-93 -30 -154 -106 -155 -194 0 -107 58 -160 223 -202 95
-24 119 -41 119 -82 0 -81 -180 -93 -222 -14 l-13 23 -57 -25 c-69 -29 -72
-44 -21 -97 150 -155 462 -71 463 123 0 98 -50 146 -196 185 -50 14 -105 32
-122 41 -36 19 -49 54 -32 86 13 25 67 50 105 50 27 0 99 -33 110 -50 5 -8 65
25 104 57 9 7 -56 66 -94 85 -50 26 -154 33 -212 14z"/>
<path d="M5440 3385 l0 -335 70 0 70 0 0 140 0 140 33 0 c29 -1 40 -11 137
-140 l105 -139 78 -1 c60 0 76 3 71 13 -5 6 -48 64 -97 127 -50 63 -94 120
-99 127 -7 9 5 27 40 61 39 38 52 59 60 98 16 71 -7 153 -55 196 -44 40 -87
48 -253 48 l-160 0 0 -335z m321 186 c26 -32 24 -67 -6 -96 -21 -22 -33 -25
-100 -25 l-75 0 0 76 0 76 81 -4 c70 -3 83 -6 100 -27z"/>
<path d="M6830 3385 l0 -335 153 0 c168 1 212 7 261 41 96 66 114 188 41 284
l-35 45 25 36 c40 59 32 149 -18 202 -50 54 -83 62 -262 62 l-165 0 0 -335z
m335 190 c30 -29 32 -58 5 -85 -17 -17 -33 -20 -110 -20 l-90 0 0 65 0 65 85
0 c78 0 88 -2 110 -25z m19 -257 c23 -32 20 -94 -4 -118 -17 -17 -33 -20 -115
-20 l-95 0 0 80 0 80 99 0 c92 0 101 -2 115 -22z"/>
<path d="M8140 3660 l0 -60 85 0 85 0 0 -275 0 -275 65 0 65 0 2 273 3 272 88
3 87 3 0 59 0 60 -240 0 -240 0 0 -60z"/>
<path d="M8700 3665 c0 -52 1 -55 25 -55 l25 0 0 -220 0 -220 -25 0 c-24 0
-25 -3 -25 -60 l0 -60 120 0 120 0 0 60 c0 57 -1 60 -25 60 l-25 0 0 220 0
220 25 0 c24 0 25 3 25 55 l0 55 -120 0 -120 0 0 -55z"/>
</g>
</svg>
