<svg version="1.1" id="Layer_1" xmlns="http://www.w3.org/2000/svg" xmlns:xlink="http://www.w3.org/1999/xlink" x="0px" y="0px"
	 width="100%" viewBox="0 0 2362 490" enable-background="new 0 0 2362 490" xml:space="preserve">
<path fill="#FFFEFE" opacity="1.000000" stroke="none" 
	d="
M1619.000000,491.000000 
	C1079.333374,491.000000 540.166687,491.000000 1.000000,491.000000 
	C1.000000,327.666656 1.000000,164.333328 1.000000,1.000000 
	C788.333313,1.000000 1575.666626,1.000000 2363.000000,1.000000 
	C2363.000000,164.333328 2363.000000,327.666656 2363.000000,491.000000 
	C2115.166748,491.000000 1867.333374,491.000000 1619.000000,491.000000 
M1790.675171,208.147552 
	C1778.549927,223.104141 1762.427246,228.288284 1743.738281,227.861313 
	C1716.230957,227.232895 1694.995239,213.803299 1685.861206,188.866745 
	C1675.249878,159.897583 1675.059570,130.278473 1685.974976,101.350243 
	C1696.909302,72.371872 1722.161133,56.826389 1752.989868,60.314247 
	C1776.276611,62.948833 1793.268188,74.961433 1800.097412,98.578033 
	C1816.585449,98.578033 1833.110352,98.578033 1849.847778,98.578033 
	C1845.505615,67.090096 1829.319580,44.462204 1801.520142,30.310825 
	C1778.822388,18.756622 1754.443848,16.440855 1729.508667,18.950600 
	C1685.103271,23.420048 1653.731567,46.070976 1636.792725,87.505203 
	C1624.911865,116.566544 1624.349854,146.994003 1629.326050,177.473434 
	C1633.928101,205.660538 1646.513916,229.818253 1669.170166,248.023605 
	C1687.669678,262.888977 1709.251831,269.170593 1732.558350,270.490784 
	C1763.349854,272.235016 1789.256226,262.718018 1808.321289,237.495056 
	C1809.154297,236.392975 1810.190796,235.444656 1811.551636,233.970673 
	C1813.242188,244.362015 1814.803833,253.961914 1816.352905,263.483459 
	C1827.829712,263.483459 1838.740723,263.483459 1849.758057,263.483459 
	C1849.758057,220.543396 1849.758057,177.949234 1849.758057,135.261978 
	C1816.153564,135.261978 1782.801025,135.261978 1749.545410,135.261978 
	C1749.545410,149.086334 1749.545410,162.484756 1749.545410,176.248779 
	C1768.235352,176.248779 1786.531616,176.248779 1805.436768,176.248779 
	C1802.990112,188.155060 1798.135864,198.348526 1790.675171,208.147552 
M1318.127075,166.456299 
	C1313.300903,158.439606 1306.011963,153.185623 1296.720215,148.995819 
	C1308.952881,143.750717 1318.377075,137.163361 1324.656860,126.762207 
	C1333.558350,112.018997 1334.509888,95.868393 1332.419556,79.413506 
	C1330.849731,67.056099 1325.546021,56.223740 1316.797363,47.173435 
	C1301.632568,31.485910 1282.663452,25.018970 1261.380981,24.900631 
	C1221.563477,24.679232 1181.743896,24.836712 1141.925171,24.836571 
	C1140.296997,24.836565 1138.668945,24.836571 1136.753174,24.836571 
	C1136.753174,104.735817 1136.753174,184.130676 1136.753174,263.639404 
	C1153.409546,263.639404 1169.773071,263.639404 1186.776123,263.639404 
	C1186.776123,232.242401 1186.776123,201.204712 1186.776123,170.130295 
	C1207.384033,170.130295 1227.351074,169.986526 1247.312622,170.249756 
	C1251.380005,170.303406 1255.517090,171.599060 1259.465576,172.825775 
	C1268.168945,175.529755 1273.833862,181.477600 1275.046265,190.524673 
	C1276.101318,198.399017 1275.906860,206.433014 1276.494263,214.379471 
	C1277.596680,229.290161 1278.833862,244.191223 1280.087402,259.090210 
	C1280.383179,262.605621 1282.163452,263.994965 1286.014038,263.933960 
	C1301.671021,263.685791 1317.334351,263.837708 1332.995239,263.812775 
	C1334.254272,263.810760 1335.513062,263.585968 1337.799683,263.365723 
	C1336.832031,260.654205 1336.708618,257.558472 1335.192139,256.543518 
	C1329.228882,252.551926 1327.331543,246.809128 1327.035156,240.265091 
	C1326.508057,228.626236 1326.253296,216.975342 1325.817993,205.331955 
	C1325.327515,192.215042 1325.750488,178.912659 1318.127075,166.456299 
M2202.919189,95.782738 
	C2212.339844,112.258141 2221.751709,128.738724 2231.183350,145.207886 
	C2253.102051,183.481705 2275.071289,221.726715 2296.876709,260.065002 
	C2298.605469,263.104523 2300.476074,264.223511 2303.894775,264.080566 
	C2310.216797,263.816193 2316.557373,264.003876 2322.890381,264.003723 
	C2331.503662,264.003510 2340.116943,264.003662 2348.846680,264.003662 
	C2348.846680,184.039566 2348.846680,104.648849 2348.846680,25.220097 
	C2333.305664,25.220097 2318.081543,25.220097 2302.342285,25.220097 
	C2302.342285,80.344406 2302.342285,135.088425 2302.342285,189.832458 
	C2296.557373,181.781342 2291.752930,173.460663 2286.979004,165.122620 
	C2261.012451,119.769447 2235.014893,74.433983 2209.174316,29.009144 
	C2207.349854,25.801979 2205.413574,24.598389 2201.770752,24.753544 
	C2194.783936,25.051123 2187.775391,24.838425 2180.775879,24.838112 
	C2171.998291,24.837719 2163.220947,24.838017 2154.290771,24.838017 
	C2154.290771,104.802643 2154.290771,184.194214 2154.290771,263.740234 
	C2169.831299,263.740234 2185.074951,263.740234 2200.847412,263.740234 
	C2200.847412,261.526520 2200.847412,259.571594 2200.847412,257.616669 
	C2200.847900,204.953430 2200.846924,152.290192 2200.854492,99.626945 
	C2200.854736,97.963440 2200.937256,96.299950 2200.981201,94.636406 
	C2201.516357,94.817841 2202.051758,94.999283 2202.919189,95.782738 
M1984.756104,269.878387 
	C1994.564819,269.930664 2004.437744,270.735260 2014.171143,269.905243 
	C2056.882568,266.263000 2088.363037,245.333267 2104.676270,205.530426 
	C2121.282471,165.013046 2120.400879,123.416016 2104.006836,82.858665 
	C2092.979980,55.579033 2073.176758,36.102962 2045.321777,25.589754 
	C2026.261963,18.396137 2006.447388,16.881363 1986.306519,18.874128 
	C1943.893799,23.070509 1913.905640,44.846439 1897.070679,83.784958 
	C1883.844238,114.377319 1883.064453,146.545868 1888.700562,178.931931 
	C1893.424927,206.079132 1905.784668,229.173676 1927.282593,246.914520 
	C1943.720825,260.479736 1962.942017,267.255615 1984.756104,269.878387 
M1592.911743,106.650375 
	C1592.562622,105.194244 1592.249634,103.728333 1591.859009,102.283447 
	C1582.318848,67.002693 1562.481567,40.241268 1527.860352,26.200670 
	C1508.322998,18.277340 1487.791504,16.833296 1466.960938,18.900055 
	C1426.881592,22.876598 1397.126343,42.705650 1380.280273,79.155746 
	C1362.159790,118.363091 1361.733887,159.367432 1375.534546,199.903168 
	C1386.258545,231.402084 1408.065796,253.282074 1439.934937,264.275024 
	C1458.190552,270.572083 1477.082153,271.783936 1496.146240,269.946960 
	C1535.602417,266.145203 1565.457642,247.386261 1583.077271,211.477127 
	C1599.378784,178.254272 1599.697021,143.106964 1592.911743,106.650375 
M500.500000,264.006439 
	C550.600220,264.006439 600.700439,264.006439 650.950928,264.006439 
	C650.950928,249.585648 650.950928,235.804886 650.950928,221.373810 
	C607.188843,221.373810 563.632629,221.373810 519.899536,221.373810 
	C519.899536,200.502899 519.899536,180.284470 519.899536,159.496155 
	C558.830505,159.496155 597.403503,159.496155 636.229248,159.496155 
	C636.229248,145.379333 636.229248,131.836075 636.229248,117.865479 
	C597.257385,117.865479 558.648315,117.865479 520.003784,117.865479 
	C520.003784,100.905144 520.003784,84.378212 520.003784,67.381638 
	C562.077881,67.381638 603.685242,67.381638 645.498657,67.381638 
	C645.498657,53.017212 645.498657,39.132053 645.498657,25.131454 
	C586.748840,25.131454 528.333862,25.131454 469.731689,25.131454 
	C469.731689,104.839203 469.731689,184.249695 469.731689,264.006439 
	C479.868439,264.006439 489.684204,264.006439 500.500000,264.006439 
M33.333267,244.160385 
	C41.684940,249.826508 49.362442,257.156006 58.508228,260.862793 
	C92.984879,274.836212 128.254929,274.436737 162.844391,261.504761 
	C190.504486,251.163467 210.214432,229.295074 208.923141,192.908981 
	C207.992844,166.695206 197.824036,146.707825 172.252762,137.195587 
	C157.786896,131.814423 142.927124,127.437416 128.105652,123.081474 
	C111.370689,118.163177 94.223312,114.530540 77.734146,108.929131 
	C63.472050,104.084267 59.550995,92.685699 65.491150,78.751686 
	C68.153732,72.505981 72.538307,67.591812 78.708427,65.039452 
	C99.980827,56.239807 120.650764,57.347752 139.961060,70.469307 
	C147.412918,75.532928 151.725372,83.016884 153.299667,91.977547 
	C153.552994,93.419449 154.003525,94.826706 154.343948,96.174950 
	C170.629517,96.174950 186.670212,96.174950 202.705032,96.174950 
	C202.593094,67.423286 183.354675,39.241493 155.517944,27.076675 
	C130.587189,16.181786 104.619194,15.834446 78.564728,21.279737 
	C44.366028,28.427147 14.072119,52.557804 15.923645,97.575600 
	C16.852095,120.149857 25.813742,137.199829 46.865814,147.094772 
	C67.046074,156.579941 88.527588,161.747467 110.001839,167.144806 
	C122.866829,170.378281 135.906143,173.647171 148.058655,178.804932 
	C163.863678,185.512878 166.047394,206.794373 152.707596,217.712906 
	C148.931839,220.803329 144.316559,223.256927 139.689163,224.846191 
	C124.884636,229.930710 109.553192,230.498413 94.311203,227.551682 
	C77.500931,224.301743 65.340691,215.271561 61.438816,197.569855 
	C60.909500,195.168503 60.690392,192.698761 60.311661,190.153229 
	C44.113926,190.153229 28.219580,190.153229 11.999984,190.153229 
	C13.108926,210.550705 18.762756,228.723434 33.333267,244.160385 
M738.184326,184.215363 
	C732.775452,166.747879 732.128845,148.851746 733.523438,130.802597 
	C734.596863,116.910362 737.645203,103.520111 744.212585,91.080559 
	C761.135681,59.025661 805.180237,51.155285 831.253418,75.521553 
	C839.387756,83.123283 843.458435,92.763519 845.222168,103.504562 
	C861.952393,103.504562 878.366272,103.504562 894.893860,103.504562 
	C894.893860,102.027565 895.050537,100.852188 894.870972,99.730675 
	C890.486511,72.353653 877.468750,50.363514 854.069275,35.010880 
	C833.963928,21.819551 811.493530,17.563391 787.869385,18.190966 
	C746.890503,19.279573 715.658936,37.208958 697.139709,73.983337 
	C677.902832,112.182716 677.301758,152.679291 688.042297,193.277176 
	C695.934753,223.109680 713.507446,246.220032 741.725769,260.048035 
	C764.190796,271.056671 788.139160,272.891724 812.445557,268.953644 
	C851.130432,262.686066 877.662720,241.220001 890.428650,203.817398 
	C892.953369,196.420242 894.019043,188.525070 895.842163,180.486664 
	C878.096802,180.486664 861.697754,180.486664 845.187317,180.486664 
	C843.483521,192.012863 839.920654,202.452621 831.915344,210.896988 
	C817.253906,226.362534 792.629517,231.681107 771.921265,223.621643 
	C754.026428,216.657135 744.359802,202.400208 738.184326,184.215363 
M380.857452,174.461304 
	C406.210968,167.122299 422.516693,150.858810 428.600830,125.072662 
	C432.433228,108.829979 432.604645,92.325890 428.754242,76.048599 
	C423.970978,55.828079 412.261139,40.621998 392.756927,33.068657 
	C382.357971,29.041494 370.999573,25.684761 359.983673,25.387981 
	C323.197449,24.396929 286.370331,24.921619 249.558884,24.889460 
	C248.957291,24.888933 248.355438,25.190186 247.765991,25.347336 
	C247.765991,104.962631 247.765991,184.330078 247.765991,263.777954 
	C264.398956,263.777954 280.672516,263.777954 297.538330,263.777954 
	C297.538330,235.497406 297.538330,207.437820 297.538330,178.592407 
	C312.571869,178.592407 327.039551,179.090698 341.455902,178.444077 
	C354.363708,177.865097 367.214935,176.024719 380.857452,174.461304 
M999.505249,264.001373 
	C1011.258728,264.001373 1023.012207,264.001373 1035.116455,264.001373 
	C1035.116455,198.167099 1035.116455,133.060654 1035.116455,67.376976 
	C1059.206787,67.376976 1082.939819,67.376976 1106.792603,67.376976 
	C1106.792603,52.916012 1106.792603,39.036781 1106.792603,25.178204 
	C1042.024414,25.178204 977.620911,25.178204 913.257507,25.178204 
	C913.257507,39.401634 913.257507,53.283379 913.257507,67.558487 
	C937.289062,67.558487 960.908203,67.558487 985.000000,67.558487 
	C985.000000,100.581482 985.000000,133.204422 985.000000,165.827377 
	C985.000000,198.430450 985.000000,231.033539 985.000000,264.001373 
	C989.903381,264.001373 994.206116,264.001373 999.505249,264.001373 
M1799.042236,416.374023 
	C1788.693848,400.563904 1788.810059,383.924042 1796.618652,367.516327 
	C1801.830688,356.564362 1812.033325,352.696930 1823.805054,353.976288 
	C1833.741943,355.056183 1840.568604,360.570953 1843.691650,370.355164 
	C1850.714478,370.355164 1857.677612,370.355164 1865.040161,370.355164 
	C1863.829712,360.091949 1859.472168,351.865662 1851.598999,345.506866 
	C1840.493896,336.537872 1827.460205,334.892487 1813.878540,335.981018 
	C1794.969482,337.496399 1781.160278,346.837097 1773.932617,364.462311 
	C1767.030273,381.294037 1767.245239,398.562347 1773.642334,415.592529 
	C1785.928833,448.300781 1832.359985,452.722260 1847.549561,429.566681 
	C1847.658447,429.400909 1848.134277,429.475983 1848.596924,429.419220 
	C1849.256714,433.228577 1849.918945,437.051697 1850.556641,440.733643 
	C1855.594727,440.733643 1860.182861,440.733643 1864.705078,440.733643 
	C1864.705078,422.235931 1864.705078,404.014252 1864.705078,385.755371 
	C1850.311768,385.755371 1836.222534,385.755371 1822.167847,385.755371 
	C1822.167847,391.767975 1822.167847,397.495789 1822.167847,403.582581 
	C1830.125366,403.582581 1837.744141,403.582581 1845.579712,403.582581 
	C1845.422241,404.616455 1845.394775,405.268402 1845.219604,405.877930 
	C1839.248901,426.662384 1815.527466,432.387573 1799.042236,416.374023 
M106.099472,354.436859 
	C93.237206,336.958618 75.268295,333.449463 55.381527,336.755676 
	C38.157566,339.619171 26.318920,350.096069 21.182238,366.582367 
	C18.420080,375.447571 17.327085,385.174408 17.362829,394.505219 
	C17.466358,421.530396 34.250702,440.284424 60.107822,443.593018 
	C83.044342,446.527954 103.110687,436.393280 111.096275,416.286407 
	C119.379585,395.429901 118.468887,374.662201 106.099472,354.436859 
M2245.930176,365.126892 
	C2245.502441,368.037933 2245.074951,370.948975 2244.853516,372.455597 
	C2240.210205,369.656036 2235.701660,365.733704 2230.469727,364.020081 
	C2217.317871,359.712463 2203.108398,366.211761 2196.122314,378.666229 
	C2190.474609,388.735229 2189.843262,399.709015 2191.194580,410.694946 
	C2192.811523,423.843842 2198.828857,434.785980 2211.927490,439.497864 
	C2223.751465,443.751373 2235.171143,442.895233 2243.876953,431.669922 
	C2245.992188,444.652985 2242.865723,453.380615 2235.540283,455.722412 
	C2226.444092,458.630280 2217.404297,455.881104 2214.502930,449.463318 
	C2207.344727,449.463318 2200.262207,449.463318 2192.856689,449.463318 
	C2193.695068,458.650604 2198.546143,464.415619 2206.303223,468.118652 
	C2214.382568,471.975586 2223.003174,472.190460 2231.706787,472.015533 
	C2252.559570,471.596466 2264.112305,459.988861 2264.163574,439.200256 
	C2264.215820,417.868774 2264.174805,396.537079 2264.174805,375.205475 
	C2264.174805,371.922760 2264.174805,368.640015 2264.174805,365.003235 
	C2258.115723,365.003235 2252.485596,365.003235 2245.930176,365.126892 
M1535.084595,438.767639 
	C1537.690063,436.579987 1540.295654,434.392334 1542.893433,432.211182 
	C1545.090332,443.897278 1542.083740,452.868286 1535.082520,455.482117 
	C1526.419922,458.716217 1516.864990,456.003510 1513.150879,449.402832 
	C1506.105591,449.402832 1499.160400,449.402832 1491.970581,449.402832 
	C1492.502930,458.625580 1497.495483,464.315460 1505.174805,468.055054 
	C1513.212402,471.969238 1521.840942,472.180695 1530.544434,472.020844 
	C1551.604858,471.633972 1563.132446,460.004028 1563.166138,438.900330 
	C1563.203125,415.751831 1563.179199,392.603302 1563.163940,369.454773 
	C1563.163086,368.032715 1563.005615,366.610779 1562.929321,365.328613 
	C1556.467651,365.328613 1550.395020,365.328613 1543.928589,365.328613 
	C1543.928589,368.366913 1543.928589,371.080841 1543.928589,374.318024 
	C1531.289673,356.624603 1505.879639,361.098816 1496.937256,375.972137 
	C1487.081909,392.364105 1486.609131,409.581970 1495.574097,426.291779 
	C1503.159424,440.430145 1519.938354,445.367401 1535.084595,438.767639 
M1066.826416,397.236298 
	C1067.554932,388.855408 1067.211304,380.201263 1069.261230,372.157166 
	C1072.401367,359.835510 1081.560181,353.987732 1093.675903,354.522858 
	C1104.505249,355.001190 1110.295166,359.855499 1114.820312,372.360718 
	C1121.721313,372.360718 1128.679688,372.360718 1136.199585,372.360718 
	C1135.591553,369.551727 1135.236450,366.946442 1134.458374,364.474304 
	C1129.745361,349.500824 1119.404175,340.224609 1104.299927,337.110352 
	C1086.647217,333.470703 1070.110718,335.680481 1057.184082,350.051575 
	C1051.496948,356.374207 1047.976440,363.851257 1046.095215,372.064697 
	C1043.304688,384.248352 1043.269165,396.501678 1046.185303,408.662659 
	C1053.304810,438.351471 1085.396484,452.971161 1113.204834,439.236938 
	C1127.221436,432.314362 1134.203003,420.632172 1136.128662,405.186218 
	C1128.668823,405.186218 1121.560913,405.186218 1114.493896,405.186218 
	C1111.922607,417.303741 1104.803467,424.304108 1094.524658,424.975159 
	C1082.152954,425.782837 1073.372070,420.121948 1069.230103,408.340546 
	C1068.083740,405.079956 1067.663940,401.563995 1066.826416,397.236298 
M130.996429,408.500000 
	C130.996429,429.238312 130.996429,449.976624 130.996429,470.605042 
	C138.055771,470.605042 144.329788,470.605042 151.003571,470.605042 
	C151.003571,464.248291 151.003571,458.119995 151.003571,451.991730 
	C151.003571,445.768677 151.003571,439.545654 151.003571,432.594635 
	C164.745789,448.687378 188.004791,444.895020 197.131287,430.375336 
	C206.265564,415.843292 207.293823,400.185028 201.976471,384.360382 
	C194.089432,360.888336 168.216934,355.702179 151.491638,373.800018 
	C151.311432,373.994995 150.918030,373.992981 150.253143,374.196503 
	C150.253143,371.206146 150.253143,368.315521 150.253143,365.283386 
	C143.660797,365.283386 137.437515,365.283386 130.996429,365.283386 
	C130.996429,379.546265 130.996429,393.523132 130.996429,408.500000 
M1277.709961,392.190216 
	C1276.788086,392.559692 1275.896851,393.104858 1274.939575,393.270782 
	C1267.413086,394.575287 1259.831787,395.599060 1252.347778,397.107605 
	C1239.121338,399.773651 1231.883667,410.014648 1233.159668,423.799011 
	C1234.248413,435.559723 1243.454346,442.848541 1256.895752,443.062897 
	C1266.386475,443.214233 1274.152100,439.528687 1281.085693,432.825989 
	C1281.856689,435.908142 1282.485229,438.420685 1283.056274,440.703522 
	C1290.546631,440.703522 1297.617798,440.703522 1304.974976,440.703522 
	C1304.733398,439.577271 1304.833252,438.420532 1304.358765,438.091156 
	C1301.004883,435.763031 1300.781494,432.364410 1300.768311,428.777985 
	C1300.716064,414.629242 1300.596436,400.480713 1300.528687,386.332001 
	C1300.478394,375.828125 1295.998779,368.893066 1286.026978,365.489594 
	C1274.326782,361.496307 1262.417358,361.696014 1250.851196,366.098419 
	C1241.122559,369.801422 1235.350464,379.521423 1236.489502,389.524658 
	C1239.596436,389.524658 1242.743164,389.524689 1245.889771,389.524689 
	C1248.996460,389.524689 1252.103149,389.524658 1255.007935,389.524658 
	C1257.798584,380.237885 1264.950562,376.953491 1274.467407,380.051025 
	C1280.637207,382.059113 1282.067505,386.280212 1277.709961,392.190216 
M429.775604,435.271118 
	C430.219482,437.160339 430.663361,439.049591 431.048920,440.690613 
	C438.564697,440.690613 445.630463,440.690613 452.674042,440.690613 
	C451.329254,437.020477 449.129395,433.665222 449.012848,430.239105 
	C448.514984,415.603149 448.612854,400.946411 448.531616,386.297028 
	C448.473572,375.828552 443.970520,368.857666 433.992188,365.473389 
	C422.289307,361.504211 410.374237,361.686127 398.810272,366.109894 
	C389.097961,369.825348 383.260773,379.712708 384.536407,389.524048 
	C387.642212,389.524048 390.790497,389.524048 393.938782,389.524048 
	C397.036774,389.524048 400.134766,389.524048 403.016815,389.524048 
	C406.041290,379.341644 417.477722,375.533600 425.566467,381.685242 
	C427.152283,382.891266 428.655762,385.701447 428.368988,387.476440 
	C428.046509,389.472565 425.998077,391.886322 424.080078,392.766235 
	C421.140259,394.114960 417.664886,394.284668 414.425690,394.995026 
	C407.325562,396.552124 399.874237,397.247040 393.220490,399.921448 
	C383.996307,403.628998 379.741058,413.676819 381.225555,424.532928 
	C382.489807,433.778534 388.543427,440.444580 398.221985,442.373810 
	C408.526276,444.427795 418.021423,442.454102 426.215729,435.432343 
	C427.015594,434.746948 428.455719,434.808777 429.775604,435.271118 
M1982.923218,436.057495 
	C1983.300049,437.657867 1983.676758,439.258240 1984.036621,440.786774 
	C1991.413574,440.786774 1998.524536,440.786774 2005.983154,440.786774 
	C2005.657471,439.593994 2005.485962,438.668182 2005.153687,437.804169 
	C2004.077637,435.005157 2002.063354,432.255280 2001.978638,429.439301 
	C2001.552979,415.300140 2001.594604,401.146118 2001.533447,386.997070 
	C2001.482788,375.250732 1996.577759,368.283539 1985.290649,364.918091 
	C1974.653320,361.746399 1963.887817,361.979095 1953.382812,365.486145 
	C1942.771729,369.028534 1936.646729,378.383026 1937.315552,389.260864 
	C1943.567871,389.260864 1949.824829,389.260864 1955.991333,389.260864 
	C1958.715332,381.006104 1962.309814,378.540771 1970.911987,379.245087 
	C1973.175171,379.430359 1975.813110,379.823151 1977.488159,381.132385 
	C1979.353882,382.590454 1981.456055,385.262726 1981.349243,387.295929 
	C1981.245361,389.274597 1978.773560,392.323181 1976.826782,392.799835 
	C1969.265869,394.651184 1961.477173,395.546356 1953.815674,397.018555 
	C1941.040161,399.473389 1933.969849,408.305359 1934.132568,421.325409 
	C1934.275269,432.743378 1941.085693,441.047424 1952.452393,442.712616 
	C1962.589111,444.197601 1971.997192,442.133301 1979.753662,434.855499 
	C1980.957397,433.726135 1982.234619,431.858887 1982.923218,436.057495 
M786.234009,394.299469 
	C784.305542,378.613495 775.782837,367.864990 762.434509,364.284241 
	C746.122925,359.908630 729.773438,364.484955 721.346497,376.079315 
	C714.165710,385.959076 713.401306,397.354523 714.459167,408.994141 
	C715.238770,417.570984 717.516663,425.689392 723.463318,432.285492 
	C736.676331,446.941376 766.199890,446.957520 779.148132,432.015869 
	C782.374817,428.292480 784.252625,423.400269 787.259399,418.157837 
	C779.529175,418.157837 773.390076,418.094208 767.255310,418.228333 
	C766.364319,418.247833 765.084534,418.999023 764.678406,419.774780 
	C761.145813,426.522217 752.357788,428.492432 744.445801,425.603882 
	C738.264160,423.347015 734.752319,416.702362 735.288025,408.022583 
	C752.310730,408.022583 769.371338,408.022583 787.064880,408.022583 
	C786.821838,403.384033 786.606750,399.277435 786.234009,394.299469 
M1197.211304,364.065491 
	C1189.146851,364.217102 1180.696411,362.856567 1173.088623,364.797974 
	C1148.170288,371.156952 1137.777344,406.750671 1154.092041,428.471191 
	C1165.266113,443.347809 1180.927612,445.178650 1197.632446,441.729584 
	C1212.379761,438.684723 1221.795654,427.350861 1224.314941,411.210175 
	C1227.888916,388.312927 1218.125122,370.870789 1197.211304,364.065491 
M2283.440674,434.057007 
	C2296.797363,444.756622 2312.043213,444.981110 2327.452393,440.857178 
	C2332.708740,439.450439 2338.128174,435.779480 2341.732178,431.630585 
	C2351.126465,420.815430 2346.709229,404.525421 2333.572998,399.101044 
	C2330.361816,397.775055 2327.001465,396.780670 2323.658447,395.810547 
	C2316.962891,393.867554 2310.142822,392.302856 2303.571777,390.014740 
	C2301.668213,389.351837 2299.022217,386.553162 2299.233398,385.099426 
	C2299.540527,382.987183 2301.750000,380.368774 2303.813965,379.430634 
	C2312.489502,375.487518 2321.204834,379.091187 2324.963623,387.614075 
	C2331.282227,387.614075 2337.574707,387.614075 2343.975342,387.614075 
	C2344.444092,381.691650 2342.245850,376.964844 2338.506592,372.937378 
	C2326.977783,360.519867 2299.200439,359.261108 2286.488525,370.497314 
	C2273.987549,381.547119 2277.148438,400.639832 2292.533447,406.846039 
	C2294.682861,407.713074 2296.903564,408.431061 2299.136475,409.057556 
	C2306.488525,411.120422 2313.945068,412.860474 2321.170898,415.291992 
	C2323.119141,415.947601 2325.744629,418.708801 2325.633057,420.337433 
	C2325.489014,422.438934 2323.329590,425.189240 2321.301758,426.240204 
	C2312.009766,431.056183 2300.543213,426.572998 2296.722412,417.103638 
	C2289.909912,417.103638 2283.126709,417.103638 2276.178223,417.103638 
	C2276.675781,423.534241 2278.492188,429.077606 2283.440674,434.057007 
M1641.566040,405.051666 
	C1635.568115,402.025085 1629.768677,398.472565 1623.518311,396.115417 
	C1616.868286,393.607574 1609.695190,392.511810 1602.959229,390.192841 
	C1600.917358,389.489929 1597.996948,386.474152 1598.267090,385.044800 
	C1598.686401,382.826538 1601.131836,380.161407 1603.356079,379.260468 
	C1612.147705,375.699280 1620.006104,379.140381 1624.004150,387.582764 
	C1630.340088,387.582764 1636.620239,387.582764 1642.991943,387.582764 
	C1643.418213,381.629913 1641.209839,376.905579 1637.456909,372.885437 
	C1625.886719,360.491821 1598.094971,359.283569 1585.437256,370.544159 
	C1572.965576,381.639252 1576.175171,400.665466 1591.593994,406.873291 
	C1593.743286,407.738647 1595.968262,408.442413 1598.200806,409.069366 
	C1605.392212,411.088806 1612.696899,412.764496 1619.749634,415.180969 
	C1621.844604,415.898712 1624.773071,418.778412 1624.607300,420.388214 
	C1624.377197,422.622375 1622.009888,425.508728 1619.820923,426.517944 
	C1610.333130,430.891968 1599.624390,426.458405 1595.677979,417.119598 
	C1588.853516,417.119598 1582.072510,417.119598 1575.179688,417.119598 
	C1575.887817,426.961212 1580.019287,434.504150 1588.837402,438.477142 
	C1602.299927,444.542633 1616.344604,445.172882 1630.103394,439.814331 
	C1644.632446,434.155792 1649.597046,418.994598 1641.566040,405.051666 
M890.622681,393.975067 
	C885.999512,392.636963 881.263733,391.582123 876.811584,389.813507 
	C875.158997,389.157013 873.213684,386.867462 873.144897,385.248596 
	C873.073608,383.569061 874.720398,381.197693 876.295166,380.171204 
	C884.318542,374.941040 895.452698,378.745941 898.743225,387.487000 
	C905.178467,387.487000 911.569702,387.487000 918.070679,387.487000 
	C918.222473,380.693512 915.560791,375.571960 910.863159,371.379608 
	C905.441650,366.541382 898.861755,364.159821 891.840637,363.393585 
	C880.746643,362.182831 869.799988,362.450775 860.673889,370.338409 
	C848.061340,381.239258 851.036987,400.506256 866.296082,406.749146 
	C868.441833,407.627045 870.650513,408.384979 872.882446,409.012054 
	C880.071655,411.031921 887.388489,412.667206 894.429199,415.105743 
	C896.642456,415.872284 899.836670,419.000763 899.571777,420.525085 
	C899.162231,422.882294 896.534790,425.914703 894.197693,426.683044 
	C886.319824,429.272797 874.340088,428.855194 870.548828,417.194794 
	C863.735840,417.194794 856.994690,417.194794 850.193787,417.194794 
	C851.081421,429.677124 857.804749,437.203491 869.011353,440.682892 
	C878.862854,443.741577 889.116760,444.314331 899.091003,441.714020 
	C904.068115,440.416473 908.969177,437.733582 913.136719,434.642059 
	C923.142761,427.219360 924.519836,404.030273 907.143433,398.903320 
	C901.893433,397.354279 896.673218,395.704346 890.622681,393.975067 
M2154.994629,391.950439 
	C2154.994629,408.202606 2154.994629,424.454803 2154.994629,440.731567 
	C2162.134521,440.731567 2168.544189,440.731567 2175.067139,440.731567 
	C2175.067139,422.001038 2175.420654,403.535736 2174.946045,385.091736 
	C2174.616943,372.307800 2164.544678,363.414764 2151.806641,362.940460 
	C2141.444824,362.554596 2132.539795,365.201385 2125.781982,374.782562 
	C2125.566650,370.889130 2125.414551,368.138153 2125.264893,365.431274 
	C2118.763428,365.431274 2112.676758,365.431274 2106.475342,365.431274 
	C2106.475342,390.734283 2106.475342,415.759430 2106.475342,440.696533 
	C2113.215332,440.696533 2119.630371,440.696533 2126.175537,440.696533 
	C2126.175537,427.576569 2126.033447,414.763611 2126.255615,401.957001 
	C2126.329346,397.691162 2126.767090,393.261444 2128.044434,389.224762 
	C2130.199463,382.413086 2136.588379,379.266510 2144.953857,380.026031 
	C2150.900635,380.565918 2153.733887,383.679382 2154.994629,391.950439 
M1454.161499,439.185608 
	C1454.752563,439.789398 1455.332397,440.904480 1455.936401,440.917786 
	C1461.886108,441.048889 1467.839722,440.996979 1473.977905,440.996979 
	C1473.977905,421.665405 1474.400391,402.725922 1473.807983,383.818237 
	C1473.490112,373.673309 1466.354980,366.059662 1456.408691,363.880249 
	C1444.293091,361.225494 1433.320557,363.227509 1424.842407,374.596161 
	C1424.611572,370.994537 1424.438110,368.286865 1424.261230,365.525879 
	C1417.791504,365.525879 1411.596558,365.525879 1405.393799,365.525879 
	C1405.393799,390.799438 1405.393799,415.701172 1405.393799,440.774414 
	C1412.036255,440.774414 1418.439453,440.774414 1425.175781,440.774414 
	C1425.175781,427.765930 1425.039185,414.984619 1425.252686,402.209167 
	C1425.323853,397.941193 1425.721191,393.512024 1426.972656,389.466919 
	C1429.207153,382.244324 1436.205933,378.843750 1444.694214,380.079498 
	C1450.812378,380.970245 1453.878540,385.025024 1453.986572,393.294464 
	C1454.182129,408.272552 1454.114014,423.254059 1454.161499,439.185608 
M367.258209,392.518829 
	C368.829803,392.430206 370.401428,392.341553 372.149994,392.242950 
	C372.178528,384.938721 369.771759,379.042847 365.385437,374.020050 
	C350.925934,357.462341 320.474060,359.079987 308.852875,377.712921 
	C298.864594,393.727722 299.057617,411.044250 307.627594,427.647614 
	C316.754822,445.330688 341.877350,445.900146 354.958557,439.671448 
	C365.475433,434.663788 372.524750,423.305054 371.636963,413.217468 
	C364.860504,413.217468 358.084564,413.217468 351.360931,413.217468 
	C349.477844,421.882263 345.272003,426.023315 338.397278,426.157227 
	C330.774841,426.305664 325.924835,422.245392 324.040985,413.748749 
	C322.209839,405.489899 322.194763,397.188446 325.156708,389.175201 
	C327.838318,381.920319 334.346039,378.440765 341.464783,380.247070 
	C347.619263,381.808655 350.667694,386.274445 351.580475,392.518799 
	C356.677612,392.518799 361.493134,392.518799 367.258209,392.518829 
M581.538330,339.978729 
	C580.594666,338.987091 579.704590,337.209900 578.697937,337.141235 
	C574.566101,336.859314 570.357056,336.737793 566.252380,337.213165 
	C554.779602,338.541809 548.817505,345.269287 548.471741,356.829468 
	C548.393921,359.432190 548.460266,362.039215 548.460266,365.092896 
	C544.608337,365.092896 541.194031,365.092896 537.700562,365.092896 
	C537.700562,369.967163 537.700562,374.381622 537.700562,379.326904 
	C541.316650,379.326904 544.709167,379.326904 548.485107,379.326904 
	C548.485107,400.109192 548.485107,420.361847 548.485107,440.794250 
	C555.309998,440.794250 561.713989,440.794250 568.680054,440.794250 
	C568.680054,420.189697 568.680054,399.800446 568.680054,379.094116 
	C573.196472,379.094116 577.151794,379.094116 581.187805,379.094116 
	C581.187805,374.230591 581.187805,369.701324 581.187805,364.983154 
	C578.844849,364.983154 576.854126,364.983124 574.863403,364.983124 
	C572.800720,364.983124 570.738037,364.983154 567.941589,364.983154 
	C568.822449,361.148285 568.555481,356.766876 570.429199,355.463806 
	C573.181702,353.549744 577.463684,353.835144 581.539185,353.103577 
	C581.539185,349.157318 581.539185,345.021729 581.538330,339.978729 
M2043.552734,441.841736 
	C2046.991699,441.841736 2050.430664,441.841736 2053.823730,441.841736 
	C2053.823730,436.223389 2053.823730,431.498138 2053.823730,426.741730 
	C2052.178223,426.528076 2050.874756,426.301819 2049.562012,426.197815 
	C2042.015503,425.599823 2042.008911,425.609650 2042.005615,417.949768 
	C2042.000488,406.460052 2041.994507,394.970306 2042.017700,383.480652 
	C2042.020508,382.067566 2042.200195,380.654816 2042.323242,378.877441 
	C2046.552734,378.877441 2050.296631,378.877441 2053.881348,378.877441 
	C2053.881348,374.058105 2053.881348,369.645599 2053.881348,364.894226 
	C2049.841309,364.894226 2046.081665,364.894226 2041.914551,364.894226 
	C2041.914551,357.979797 2041.914551,351.410248 2041.914551,344.757874 
	C2035.064819,344.757874 2028.644043,344.757874 2021.830566,344.757874 
	C2021.830566,351.617828 2021.830566,358.209747 2021.830566,365.218262 
	C2018.206787,365.218262 2014.968994,365.218262 2011.793579,365.218262 
	C2011.793579,370.064514 2011.793579,374.474884 2011.793579,379.365234 
	C2015.338257,379.365234 2018.583130,379.365234 2021.995850,379.365234 
	C2021.995850,394.828766 2021.992920,409.806305 2021.996826,424.783875 
	C2021.999634,435.995178 2026.004272,440.514679 2037.106567,441.727783 
	C2038.918579,441.925751 2040.764526,441.811615 2043.552734,441.841736 
M1336.250977,344.484741 
	C1331.288574,344.484741 1326.326294,344.484741 1320.959473,344.484741 
	C1320.959473,351.511932 1320.959473,358.093811 1320.959473,365.081909 
	C1317.318359,365.081909 1314.080566,365.081909 1310.720459,365.081909 
	C1310.720459,369.937622 1310.720459,374.372162 1310.720459,379.269348 
	C1314.200562,379.269348 1317.452271,379.269348 1320.995850,379.269348 
	C1320.995850,381.370483 1320.995728,383.009857 1320.995850,384.649231 
	C1320.995972,398.804626 1320.945679,412.960297 1321.016968,427.115356 
	C1321.053711,434.437958 1324.440186,439.634460 1331.054321,440.676544 
	C1338.185059,441.799957 1345.508911,441.698486 1352.875488,442.138977 
	C1352.875488,436.305939 1352.875488,431.571991 1352.875488,426.711243 
	C1350.962036,426.509186 1349.326050,426.276733 1347.681885,426.173370 
	C1341.334473,425.774475 1341.026733,425.488861 1341.009521,419.066010 
	C1340.986450,410.406281 1341.004028,401.746460 1341.004150,393.086670 
	C1341.004150,388.505249 1341.004150,383.923828 1341.004150,378.956177 
	C1345.471313,378.956177 1349.217285,378.956177 1352.924438,378.956177 
	C1352.924438,374.137146 1352.924438,369.724609 1352.924438,364.790283 
	C1348.809814,364.790283 1344.927368,364.790283 1340.826782,364.790283 
	C1340.826782,357.807312 1340.826782,351.355408 1340.826782,344.690948 
	C1339.465210,344.613770 1338.325806,344.549194 1336.250977,344.484741 
M690.040588,441.745728 
	C695.649841,441.745728 701.259094,441.745728 706.825928,441.745728 
	C706.825928,436.234100 706.825928,431.506226 706.825928,426.749725 
	C705.183167,426.533783 703.879761,426.304932 702.566467,426.199341 
	C695.013977,425.592133 695.008240,425.601990 695.005005,417.953003 
	C695.000366,407.126251 695.003906,396.299530 695.003906,385.472778 
	C695.003906,383.402527 695.003906,381.332245 695.003906,378.870728 
	C699.559265,378.870728 703.303406,378.870728 706.875732,378.870728 
	C706.875732,374.048828 706.875732,369.635529 706.875732,364.883606 
	C702.829224,364.883606 699.069885,364.883606 694.899048,364.883606 
	C694.899048,357.966522 694.899048,351.394592 694.899048,344.770508 
	C688.050537,344.770508 681.633301,344.770508 674.817139,344.770508 
	C674.817139,351.643158 674.817139,358.234131 674.817139,365.243896 
	C671.181824,365.243896 667.950989,365.243896 664.809875,365.243896 
	C664.809875,370.088135 664.809875,374.493530 664.809875,379.382874 
	C668.372375,379.382874 671.611877,379.382874 674.996094,379.382874 
	C674.996094,394.693115 674.994934,409.512024 674.996399,424.330933 
	C674.997559,435.858673 677.937195,439.436157 690.040588,441.745728 
M254.172104,429.765564 
	C254.459183,424.324371 250.111008,426.408783 247.809494,426.308044 
	C243.514282,426.120148 241.819504,424.410583 241.964508,420.195953 
	C242.136185,415.205933 242.004379,410.205444 242.004318,405.209503 
	C242.004227,396.617065 242.004288,388.024597 242.004288,379.048340 
	C246.368652,379.048340 250.122879,379.048340 253.974915,379.048340 
	C253.974915,374.233795 253.974915,369.819397 253.974915,364.880585 
	C249.907990,364.880585 246.016357,364.880585 241.928589,364.880585 
	C241.928589,357.895294 241.928589,351.434753 241.928589,344.731537 
	C235.275085,344.731537 228.852432,344.731537 222.011200,344.731537 
	C222.011200,351.467529 222.011200,358.048187 222.011200,365.028076 
	C218.369156,365.028076 215.119247,365.028076 211.705597,365.028076 
	C211.705597,369.877930 211.705597,374.312378 211.705597,379.217712 
	C215.162033,379.217712 218.404572,379.217712 221.995438,379.217712 
	C221.995438,381.312378 221.995422,382.948700 221.995438,384.584991 
	C221.995621,398.740173 221.981033,412.895386 222.003357,427.050537 
	C222.012115,432.604126 223.825684,437.429657 229.194626,439.685699 
	C237.238770,443.065857 245.634781,442.042145 254.172623,441.232849 
	C254.172623,437.341309 254.172623,434.020386 254.172104,429.765564 
M486.828613,340.044495 
	C486.121307,339.527252 485.423187,338.576385 484.705322,338.561249 
	C478.910980,338.438965 473.112946,338.492706 467.162445,338.492706 
	C467.162445,372.873047 467.162445,406.848907 467.162445,440.641174 
	C473.897919,440.641174 480.288910,440.641174 486.845612,440.641174 
	C486.845612,407.169464 486.845612,374.063110 486.828613,340.044495 
M647.329468,338.479980 
	C642.912292,338.479980 638.495117,338.479980 634.111694,338.479980 
	C634.111694,373.025055 634.111694,406.884064 634.111694,440.690277 
	C640.798157,440.690277 647.189514,440.690277 653.515686,440.690277 
	C653.515686,406.533600 653.515686,372.694580 653.515686,338.480530 
	C651.547913,338.480530 649.907715,338.480530 647.329468,338.479980 
M1903.182495,424.498840 
	C1903.297974,416.180908 1903.092773,407.843048 1903.607422,399.549896 
	C1904.296387,388.448334 1909.800781,383.648712 1921.055298,383.532410 
	C1923.142212,383.510864 1925.229492,383.529358 1927.529297,383.529358 
	C1927.529297,379.491821 1927.529297,376.173859 1927.529297,372.855927 
	C1927.529297,369.620972 1927.529297,366.386017 1927.529297,361.745911 
	C1921.928711,363.222504 1917.050415,363.746826 1912.941162,365.805817 
	C1908.813477,367.873932 1905.451782,371.470703 1901.754395,374.397491 
	C1901.979370,374.804657 1902.204224,375.211823 1902.429199,375.618988 
	C1902.429199,372.221405 1902.429199,368.823792 1902.429199,365.406586 
	C1895.802246,365.406586 1889.712769,365.406586 1883.451172,365.406586 
	C1883.451172,390.692932 1883.451172,415.719879 1883.451172,440.721497 
	C1890.171021,440.721497 1896.584717,440.721497 1903.182495,440.721497 
	C1903.182495,435.454498 1903.182495,430.476105 1903.182495,424.498840 
M820.182556,430.484558 
	C820.298706,420.168793 820.074646,409.834900 820.623291,399.542175 
	C821.214355,388.453217 826.811646,383.644348 838.065186,383.530640 
	C840.151001,383.509552 842.237183,383.527618 844.333374,383.527618 
	C844.333374,376.342957 844.333374,369.889801 844.333374,363.372498 
	C832.900879,361.188385 825.714966,366.984650 819.417786,375.615143 
	C819.417786,372.214783 819.417786,368.814423 819.417786,365.412476 
	C812.790771,365.412476 806.700623,365.412476 800.456177,365.412476 
	C800.456177,390.704498 800.456177,415.731445 800.456177,440.716736 
	C807.182007,440.716736 813.596375,440.716736 820.182556,440.716736 
	C820.182556,437.441223 820.182556,434.459137 820.182556,430.484558 
M599.638916,365.163025 
	C597.864563,365.163025 596.090210,365.163025 594.330933,365.163025 
	C594.330933,390.765289 594.330933,415.818329 594.330933,440.665070 
	C601.075073,440.665070 607.484741,440.665070 613.741455,440.665070 
	C613.741455,415.397247 613.741455,390.465057 613.741455,365.163300 
	C609.196289,365.163300 604.899170,365.163300 599.638916,365.163025 
M288.000061,416.500000 
	C288.000061,399.430084 288.000061,382.360168 288.000061,365.397400 
	C280.947327,365.397400 274.674896,365.397400 268.284363,365.397400 
	C268.284363,390.680573 268.284363,415.728394 268.284363,440.713074 
	C274.977386,440.713074 281.382812,440.713074 288.000061,440.713074 
	C288.000061,432.785339 288.000061,425.142670 288.000061,416.500000 
M2087.000000,374.546722 
	C2087.000000,371.464600 2087.000000,368.382477 2087.000000,365.386169 
	C2079.972656,365.386169 2073.700439,365.386169 2067.275146,365.386169 
	C2067.275146,390.659973 2067.275146,415.708496 2067.275146,440.721893 
	C2073.958496,440.721893 2080.363281,440.721893 2087.000000,440.721893 
	C2087.000000,418.807251 2087.000000,397.169891 2087.000000,374.546722 
M1384.286621,440.996155 
	C1384.857788,439.564697 1385.919800,438.135529 1385.926514,436.701416 
	C1386.031250,414.204254 1386.004639,391.706482 1385.987549,369.208832 
	C1385.986572,367.939850 1385.806885,366.670990 1385.717773,365.500854 
	C1378.963745,365.500854 1372.565552,365.500854 1366.221680,365.500854 
	C1366.221680,390.776337 1366.221680,415.713745 1366.221680,440.999847 
	C1372.064331,440.999847 1377.692261,440.999847 1384.286621,440.996155 
M994.223083,415.804657 
	C1002.831726,407.330170 1003.148987,394.994019 994.948486,387.593719 
	C986.988342,380.410309 974.528564,381.396606 967.843933,389.739258 
	C962.202026,396.780579 962.550110,407.363159 968.643494,414.050079 
	C974.892517,420.907623 984.885498,421.768372 994.223083,415.804657 
M1716.388062,417.059052 
	C1724.695068,410.872986 1727.274048,401.434326 1722.981689,392.927551 
	C1718.864624,384.768188 1709.376953,380.891602 1700.519653,383.749817 
	C1690.336182,387.035919 1685.110352,398.299316 1689.086304,408.391815 
	C1693.164917,418.744812 1704.676270,422.662201 1716.388062,417.059052 
M2066.982422,353.206726 
	C2067.744629,354.317535 2068.462402,356.351898 2069.276123,356.391052 
	C2075.058105,356.669159 2080.859863,356.539185 2086.696533,356.539185 
	C2086.696533,350.178253 2086.696533,344.289490 2086.696533,338.470764 
	C2079.971924,338.470764 2073.572998,338.470764 2066.982422,338.470764 
	C2066.982422,343.289215 2066.982422,347.777557 2066.982422,353.206726 
M271.710754,338.139221 
	C270.468872,338.930389 268.207947,339.656067 268.152191,340.523438 
	C267.816071,345.752563 267.985107,351.014160 267.985107,356.200043 
	C275.033844,356.200043 281.429779,356.200043 287.773926,356.200043 
	C287.773926,350.081390 287.773926,344.309875 287.773926,338.139526 
	C282.583282,338.139526 277.625916,338.139526 271.710754,338.139221 
M1385.168213,338.211670 
	C1378.893555,338.211670 1372.619019,338.211670 1366.323975,338.211670 
	C1366.323975,344.528168 1366.323975,350.398804 1366.323975,356.180481 
	C1373.059937,356.180481 1379.449097,356.180481 1385.863770,356.180481 
	C1385.863770,350.165100 1385.863770,344.512177 1385.168213,338.211670 
M610.196655,356.542267 
	C611.469788,355.775452 613.790344,355.076416 613.845032,354.230682 
	C614.184814,348.982300 614.016113,343.700989 614.016113,338.447784 
	C607.023560,338.447784 600.625671,338.447784 594.177246,338.447784 
	C594.177246,344.534454 594.177246,350.311005 594.177246,356.542358 
	C599.325378,356.542358 604.291260,356.542358 610.196655,356.542267 
z"/>
<path fill="#F41F32" opacity="1.000000" stroke="none" 
	d="
M1790.896484,207.865891 
	C1798.135864,198.348526 1802.990112,188.155060 1805.436768,176.248779 
	C1786.531616,176.248779 1768.235352,176.248779 1749.545410,176.248779 
	C1749.545410,162.484756 1749.545410,149.086334 1749.545410,135.261978 
	C1782.801025,135.261978 1816.153564,135.261978 1849.758057,135.261978 
	C1849.758057,177.949234 1849.758057,220.543396 1849.758057,263.483459 
	C1838.740723,263.483459 1827.829712,263.483459 1816.352905,263.483459 
	C1814.803833,253.961914 1813.242188,244.362015 1811.551636,233.970673 
	C1810.190796,235.444656 1809.154297,236.392975 1808.321289,237.495056 
	C1789.256226,262.718018 1763.349854,272.235016 1732.558350,270.490784 
	C1709.251831,269.170593 1687.669678,262.888977 1669.170166,248.023605 
	C1646.513916,229.818253 1633.928101,205.660538 1629.326050,177.473434 
	C1624.349854,146.994003 1624.911865,116.566544 1636.792725,87.505203 
	C1653.731567,46.070976 1685.103271,23.420048 1729.508667,18.950600 
	C1754.443848,16.440855 1778.822388,18.756622 1801.520142,30.310825 
	C1829.319580,44.462204 1845.505615,67.090096 1849.847778,98.578033 
	C1833.110352,98.578033 1816.585449,98.578033 1800.097412,98.578033 
	C1793.268188,74.961433 1776.276611,62.948833 1752.989868,60.314247 
	C1722.161133,56.826389 1696.909302,72.371872 1685.974976,101.350243 
	C1675.059570,130.278473 1675.249878,159.897583 1685.861206,188.866745 
	C1694.995239,213.803299 1716.230957,227.232895 1743.738281,227.861313 
	C1762.427246,228.288284 1778.549927,223.104141 1790.896484,207.865891 
z"/>
<path fill="#F41F32" opacity="1.000000" stroke="none" 
	d="
M1318.329590,166.764252 
	C1325.750488,178.912659 1325.327515,192.215042 1325.817993,205.331955 
	C1326.253296,216.975342 1326.508057,228.626236 1327.035156,240.265091 
	C1327.331543,246.809128 1329.228882,252.551926 1335.192139,256.543518 
	C1336.708618,257.558472 1336.832031,260.654205 1337.799683,263.365723 
	C1335.513062,263.585968 1334.254272,263.810760 1332.995239,263.812775 
	C1317.334351,263.837708 1301.671021,263.685791 1286.014038,263.933960 
	C1282.163452,263.994965 1280.383179,262.605621 1280.087402,259.090210 
	C1278.833862,244.191223 1277.596680,229.290161 1276.494263,214.379471 
	C1275.906860,206.433014 1276.101318,198.399017 1275.046265,190.524673 
	C1273.833862,181.477600 1268.168945,175.529755 1259.465576,172.825775 
	C1255.517090,171.599060 1251.380005,170.303406 1247.312622,170.249756 
	C1227.351074,169.986526 1207.384033,170.130295 1186.776123,170.130295 
	C1186.776123,201.204712 1186.776123,232.242401 1186.776123,263.639404 
	C1169.773071,263.639404 1153.409546,263.639404 1136.753174,263.639404 
	C1136.753174,184.130676 1136.753174,104.735817 1136.753174,24.836571 
	C1138.668945,24.836571 1140.296997,24.836565 1141.925171,24.836571 
	C1181.743896,24.836712 1221.563477,24.679232 1261.380981,24.900631 
	C1282.663452,25.018970 1301.632568,31.485910 1316.797363,47.173435 
	C1325.546021,56.223740 1330.849731,67.056099 1332.419556,79.413506 
	C1334.509888,95.868393 1333.558350,112.018997 1324.656860,126.762207 
	C1318.377075,137.163361 1308.952881,143.750717 1296.720215,148.995819 
	C1306.011963,153.185623 1313.300903,158.439606 1318.329590,166.764252 
M1209.500000,129.152985 
	C1219.999023,129.152481 1230.504761,129.380661 1240.994507,129.068390 
	C1247.614624,128.871307 1254.389282,128.611053 1260.782471,127.077522 
	C1276.875977,123.217239 1283.456177,113.155724 1282.994507,94.661575 
	C1282.635254,80.266319 1274.167480,70.390808 1259.295776,67.344795 
	C1255.729858,66.614426 1252.028564,66.255318 1248.386597,66.234856 
	C1229.389160,66.128113 1210.390625,66.179977 1191.392578,66.197563 
	C1189.940430,66.198906 1188.488525,66.362221 1186.865723,66.460602 
	C1186.865723,87.436241 1186.865723,108.019417 1186.865723,129.153091 
	C1194.255127,129.153091 1201.377563,129.153091 1209.500000,129.152985 
z"/>
<path fill="#F41F31" opacity="1.000000" stroke="none" 
	d="
M2202.752930,95.481728 
	C2202.051758,94.999283 2201.516357,94.817841 2200.981201,94.636429 
	C2200.937256,96.299950 2200.854736,97.963440 2200.854492,99.626945 
	C2200.846924,152.290192 2200.847900,204.953430 2200.847412,257.616669 
	C2200.847412,259.571594 2200.847412,261.526520 2200.847412,263.740234 
	C2185.074951,263.740234 2169.831299,263.740234 2154.290771,263.740234 
	C2154.290771,184.194214 2154.290771,104.802643 2154.290771,24.838017 
	C2163.220947,24.838017 2171.998291,24.837719 2180.775879,24.838112 
	C2187.775391,24.838425 2194.783936,25.051123 2201.770752,24.753544 
	C2205.413574,24.598389 2207.349854,25.801979 2209.174316,29.009144 
	C2235.014893,74.433983 2261.012451,119.769447 2286.979004,165.122620 
	C2291.752930,173.460663 2296.557373,181.781342 2302.342285,189.832458 
	C2302.342285,135.088425 2302.342285,80.344406 2302.342285,25.220097 
	C2318.081543,25.220097 2333.305664,25.220097 2348.846680,25.220097 
	C2348.846680,104.648849 2348.846680,184.039566 2348.846680,264.003662 
	C2340.116943,264.003662 2331.503662,264.003510 2322.890381,264.003723 
	C2316.557373,264.003876 2310.216797,263.816193 2303.894775,264.080566 
	C2300.476074,264.223511 2298.605469,263.104523 2296.876709,260.065002 
	C2275.071289,221.726715 2253.102051,183.481705 2231.183350,145.207886 
	C2221.751709,128.738724 2212.339844,112.258141 2202.752930,95.481728 
z"/>
<path fill="#F41F32" opacity="1.000000" stroke="none" 
	d="
M1984.305176,269.844421 
	C1962.942017,267.255615 1943.720825,260.479736 1927.282593,246.914520 
	C1905.784668,229.173676 1893.424927,206.079132 1888.700562,178.931931 
	C1883.064453,146.545868 1883.844238,114.377319 1897.070679,83.784958 
	C1913.905640,44.846439 1943.893799,23.070509 1986.306519,18.874128 
	C2006.447388,16.881363 2026.261963,18.396137 2045.321777,25.589754 
	C2073.176758,36.102962 2092.979980,55.579033 2104.006836,82.858665 
	C2120.400879,123.416016 2121.282471,165.013046 2104.676270,205.530426 
	C2088.363037,245.333267 2056.882568,266.263000 2014.171143,269.905243 
	C2004.437744,270.735260 1994.564819,269.930664 1984.305176,269.844421 
M2061.072998,180.515793 
	C2067.541992,154.573090 2067.734131,128.710098 2059.001953,103.266159 
	C2050.064697,77.224586 2029.455200,61.495319 2004.719849,61.006218 
	C1974.522583,60.409115 1953.894287,73.068710 1943.617554,100.515839 
	C1932.737671,129.573044 1932.364624,159.406494 1943.286987,188.510422 
	C1956.924927,224.850632 1999.488159,239.418961 2032.620483,219.841690 
	C2047.456421,211.075485 2055.892334,197.394943 2061.072998,180.515793 
z"/>
<path fill="#F41F32" opacity="1.000000" stroke="none" 
	d="
M1592.975464,107.066277 
	C1599.697021,143.106964 1599.378784,178.254272 1583.077271,211.477127 
	C1565.457642,247.386261 1535.602417,266.145203 1496.146240,269.946960 
	C1477.082153,271.783936 1458.190552,270.572083 1439.934937,264.275024 
	C1408.065796,253.282074 1386.258545,231.402084 1375.534546,199.903168 
	C1361.733887,159.367432 1362.159790,118.363091 1380.280273,79.155746 
	C1397.126343,42.705650 1426.881592,22.876598 1466.960938,18.900055 
	C1487.791504,16.833296 1508.322998,18.277340 1527.860352,26.200670 
	C1562.481567,40.241268 1582.318848,67.002693 1591.859009,102.283447 
	C1592.249634,103.728333 1592.562622,105.194244 1592.975464,107.066277 
M1544.614136,120.081833 
	C1541.464478,103.576263 1535.674805,88.282722 1523.186523,76.452507 
	C1492.766479,47.635254 1441.627075,59.069504 1425.305908,98.632797 
	C1414.662842,124.431847 1414.179810,151.295486 1420.875122,178.072098 
	C1430.025513,214.667068 1456.976440,232.609619 1493.954712,226.800690 
	C1518.582886,222.931854 1533.150391,206.859894 1540.900757,184.174606 
	C1547.950439,163.540649 1547.584595,142.271133 1544.614136,120.081833 
z"/>
<path fill="#F42032" opacity="1.000000" stroke="none" 
	d="
M500.000000,264.006439 
	C489.684204,264.006439 479.868439,264.006439 469.731689,264.006439 
	C469.731689,184.249695 469.731689,104.839203 469.731689,25.131454 
	C528.333862,25.131454 586.748840,25.131454 645.498657,25.131454 
	C645.498657,39.132053 645.498657,53.017212 645.498657,67.381638 
	C603.685242,67.381638 562.077881,67.381638 520.003784,67.381638 
	C520.003784,84.378212 520.003784,100.905144 520.003784,117.865479 
	C558.648315,117.865479 597.257385,117.865479 636.229248,117.865479 
	C636.229248,131.836075 636.229248,145.379333 636.229248,159.496155 
	C597.403503,159.496155 558.830505,159.496155 519.899536,159.496155 
	C519.899536,180.284470 519.899536,200.502899 519.899536,221.373810 
	C563.632629,221.373810 607.188843,221.373810 650.950928,221.373810 
	C650.950928,235.804886 650.950928,249.585648 650.950928,264.006439 
	C600.700439,264.006439 550.600220,264.006439 500.000000,264.006439 
z"/>
<path fill="#F41F32" opacity="1.000000" stroke="none" 
	d="
M33.096649,243.897034 
	C18.762756,228.723434 13.108926,210.550705 11.999984,190.153229 
	C28.219580,190.153229 44.113926,190.153229 60.311661,190.153229 
	C60.690392,192.698761 60.909500,195.168503 61.438816,197.569855 
	C65.340691,215.271561 77.500931,224.301743 94.311203,227.551682 
	C109.553192,230.498413 124.884636,229.930710 139.689163,224.846191 
	C144.316559,223.256927 148.931839,220.803329 152.707596,217.712906 
	C166.047394,206.794373 163.863678,185.512878 148.058655,178.804932 
	C135.906143,173.647171 122.866829,170.378281 110.001839,167.144806 
	C88.527588,161.747467 67.046074,156.579941 46.865814,147.094772 
	C25.813742,137.199829 16.852095,120.149857 15.923645,97.575600 
	C14.072119,52.557804 44.366028,28.427147 78.564728,21.279737 
	C104.619194,15.834446 130.587189,16.181786 155.517944,27.076675 
	C183.354675,39.241493 202.593094,67.423286 202.705032,96.174950 
	C186.670212,96.174950 170.629517,96.174950 154.343948,96.174950 
	C154.003525,94.826706 153.552994,93.419449 153.299667,91.977547 
	C151.725372,83.016884 147.412918,75.532928 139.961060,70.469307 
	C120.650764,57.347752 99.980827,56.239807 78.708427,65.039452 
	C72.538307,67.591812 68.153732,72.505981 65.491150,78.751686 
	C59.550995,92.685699 63.472050,104.084267 77.734146,108.929131 
	C94.223312,114.530540 111.370689,118.163177 128.105652,123.081474 
	C142.927124,127.437416 157.786896,131.814423 172.252762,137.195587 
	C197.824036,146.707825 207.992844,166.695206 208.923141,192.908981 
	C210.214432,229.295074 190.504486,251.163467 162.844391,261.504761 
	C128.254929,274.436737 92.984879,274.836212 58.508228,260.862793 
	C49.362442,257.156006 41.684940,249.826508 33.096649,243.897034 
z"/>
<path fill="#F41F32" opacity="1.000000" stroke="none" 
	d="
M738.329956,184.585938 
	C744.359802,202.400208 754.026428,216.657135 771.921265,223.621643 
	C792.629517,231.681107 817.253906,226.362534 831.915344,210.896988 
	C839.920654,202.452621 843.483521,192.012863 845.187317,180.486664 
	C861.697754,180.486664 878.096802,180.486664 895.842163,180.486664 
	C894.019043,188.525070 892.953369,196.420242 890.428650,203.817398 
	C877.662720,241.220001 851.130432,262.686066 812.445557,268.953644 
	C788.139160,272.891724 764.190796,271.056671 741.725769,260.048035 
	C713.507446,246.220032 695.934753,223.109680 688.042297,193.277176 
	C677.301758,152.679291 677.902832,112.182716 697.139709,73.983337 
	C715.658936,37.208958 746.890503,19.279573 787.869385,18.190966 
	C811.493530,17.563391 833.963928,21.819551 854.069275,35.010880 
	C877.468750,50.363514 890.486511,72.353653 894.870972,99.730675 
	C895.050537,100.852188 894.893860,102.027565 894.893860,103.504562 
	C878.366272,103.504562 861.952393,103.504562 845.222168,103.504562 
	C843.458435,92.763519 839.387756,83.123283 831.253418,75.521553 
	C805.180237,51.155285 761.135681,59.025661 744.212585,91.080559 
	C737.645203,103.520111 734.596863,116.910362 733.523438,130.802597 
	C732.128845,148.851746 732.775452,166.747879 738.329956,184.585938 
z"/>
<path fill="#F41F32" opacity="1.000000" stroke="none" 
	d="
M380.474304,174.601105 
	C367.214935,176.024719 354.363708,177.865097 341.455902,178.444077 
	C327.039551,179.090698 312.571869,178.592407 297.538330,178.592407 
	C297.538330,207.437820 297.538330,235.497406 297.538330,263.777954 
	C280.672516,263.777954 264.398956,263.777954 247.765991,263.777954 
	C247.765991,184.330078 247.765991,104.962631 247.765991,25.347336 
	C248.355438,25.190186 248.957291,24.888933 249.558884,24.889460 
	C286.370331,24.921619 323.197449,24.396929 359.983673,25.387981 
	C370.999573,25.684761 382.357971,29.041494 392.756927,33.068657 
	C412.261139,40.621998 423.970978,55.828079 428.754242,76.048599 
	C432.604645,92.325890 432.433228,108.829979 428.600830,125.072662 
	C422.516693,150.858810 406.210968,167.122299 380.474304,174.601105 
M374.294281,78.258896 
	C368.154449,71.194939 360.008301,67.531555 351.055511,67.129639 
	C333.633911,66.347511 316.167877,66.553207 298.720001,66.375595 
	C298.460114,66.372955 298.196838,66.703362 297.856293,66.931046 
	C297.856293,90.216476 297.856293,113.535416 297.856293,137.156036 
	C310.591400,137.156036 322.889618,137.182022 335.187622,137.141098 
	C339.177643,137.127838 343.203339,137.244110 347.149963,136.774170 
	C359.070099,135.354828 370.521515,132.181793 376.340881,120.514351 
	C383.281219,106.599426 383.575806,92.395638 374.294281,78.258896 
z"/>
<path fill="#F41E31" opacity="1.000000" stroke="none" 
	d="
M999.007080,264.001373 
	C994.206116,264.001373 989.903381,264.001373 985.000000,264.001373 
	C985.000000,231.033539 985.000000,198.430450 985.000000,165.827377 
	C985.000000,133.204422 985.000000,100.581482 985.000000,67.558487 
	C960.908203,67.558487 937.289062,67.558487 913.257507,67.558487 
	C913.257507,53.283379 913.257507,39.401634 913.257507,25.178204 
	C977.620911,25.178204 1042.024414,25.178204 1106.792603,25.178204 
	C1106.792603,39.036781 1106.792603,52.916012 1106.792603,67.376976 
	C1082.939819,67.376976 1059.206787,67.376976 1035.116455,67.376976 
	C1035.116455,133.060654 1035.116455,198.167099 1035.116455,264.001373 
	C1023.012207,264.001373 1011.258728,264.001373 999.007080,264.001373 
z"/>
<path fill="#050505" opacity="1.000000" stroke="none" 
	d="
M1799.284668,416.643555 
	C1815.527466,432.387573 1839.248901,426.662384 1845.219604,405.877930 
	C1845.394775,405.268402 1845.422241,404.616455 1845.579712,403.582581 
	C1837.744141,403.582581 1830.125366,403.582581 1822.167847,403.582581 
	C1822.167847,397.495789 1822.167847,391.767975 1822.167847,385.755371 
	C1836.222534,385.755371 1850.311768,385.755371 1864.705078,385.755371 
	C1864.705078,404.014252 1864.705078,422.235931 1864.705078,440.733643 
	C1860.182861,440.733643 1855.594727,440.733643 1850.556641,440.733643 
	C1849.918945,437.051697 1849.256714,433.228577 1848.596924,429.419220 
	C1848.134277,429.475983 1847.658447,429.400909 1847.549561,429.566681 
	C1832.359985,452.722260 1785.928833,448.300781 1773.642334,415.592529 
	C1767.245239,398.562347 1767.030273,381.294037 1773.932617,364.462311 
	C1781.160278,346.837097 1794.969482,337.496399 1813.878540,335.981018 
	C1827.460205,334.892487 1840.493896,336.537872 1851.598999,345.506866 
	C1859.472168,351.865662 1863.829712,360.091949 1865.040161,370.355164 
	C1857.677612,370.355164 1850.714478,370.355164 1843.691650,370.355164 
	C1840.568604,360.570953 1833.741943,355.056183 1823.805054,353.976288 
	C1812.033325,352.696930 1801.830688,356.564362 1796.618652,367.516327 
	C1788.810059,383.924042 1788.693848,400.563904 1799.284668,416.643555 
z"/>
<path fill="#030303" opacity="1.000000" stroke="none" 
	d="
M106.313934,354.726807 
	C118.468887,374.662201 119.379585,395.429901 111.096275,416.286407 
	C103.110687,436.393280 83.044342,446.527954 60.107822,443.593018 
	C34.250702,440.284424 17.466358,421.530396 17.362829,394.505219 
	C17.327085,385.174408 18.420080,375.447571 21.182238,366.582367 
	C26.318920,350.096069 38.157566,339.619171 55.381527,336.755676 
	C75.268295,333.449463 93.237206,336.958618 106.313934,354.726807 
M81.480354,421.127838 
	C84.589775,417.306213 88.806244,413.940094 90.601181,409.577637 
	C95.999550,396.457367 95.952911,382.848328 90.467010,369.722412 
	C86.145058,359.381531 77.888817,354.130066 66.515694,354.173767 
	C55.140549,354.217438 47.140594,359.578796 42.684093,369.912994 
	C37.892464,381.024292 37.688156,392.624969 40.635857,404.170959 
	C45.510590,423.265106 63.440350,430.879242 81.480354,421.127838 
z"/>
<path fill="#040404" opacity="1.000000" stroke="none" 
	d="
M2246.393066,365.065063 
	C2252.485596,365.003235 2258.115723,365.003235 2264.174805,365.003235 
	C2264.174805,368.640015 2264.174805,371.922760 2264.174805,375.205475 
	C2264.174805,396.537079 2264.215820,417.868774 2264.163574,439.200256 
	C2264.112305,459.988861 2252.559570,471.596466 2231.706787,472.015533 
	C2223.003174,472.190460 2214.382568,471.975586 2206.303223,468.118652 
	C2198.546143,464.415619 2193.695068,458.650604 2192.856689,449.463318 
	C2200.262207,449.463318 2207.344727,449.463318 2214.502930,449.463318 
	C2217.404297,455.881104 2226.444092,458.630280 2235.540283,455.722412 
	C2242.865723,453.380615 2245.992188,444.652985 2243.876953,431.669922 
	C2235.171143,442.895233 2223.751465,443.751373 2211.927490,439.497864 
	C2198.828857,434.785980 2192.811523,423.843842 2191.194580,410.694946 
	C2189.843262,399.709015 2190.474609,388.735229 2196.122314,378.666229 
	C2203.108398,366.211761 2217.317871,359.712463 2230.469727,364.020081 
	C2235.701660,365.733704 2240.210205,369.656036 2244.853516,372.455597 
	C2245.074951,370.948975 2245.502441,368.037933 2246.393066,365.065063 
M2223.638916,424.201050 
	C2232.628662,426.119415 2239.302002,422.986359 2242.442871,414.667358 
	C2245.598145,406.311768 2245.615479,397.690125 2241.966553,389.454529 
	C2237.718262,379.866089 2225.105469,377.317139 2217.854004,384.304901 
	C2209.628662,392.230896 2209.362549,412.525482 2217.510986,420.563507 
	C2218.991699,422.024261 2221.063965,422.885437 2223.638916,424.201050 
z"/>
<path fill="#040404" opacity="1.000000" stroke="none" 
	d="
M1534.735229,438.908203 
	C1519.938354,445.367401 1503.159424,440.430145 1495.574097,426.291779 
	C1486.609131,409.581970 1487.081909,392.364105 1496.937256,375.972137 
	C1505.879639,361.098816 1531.289673,356.624603 1543.928589,374.318024 
	C1543.928589,371.080841 1543.928589,368.366913 1543.928589,365.328613 
	C1550.395020,365.328613 1556.467651,365.328613 1562.929321,365.328613 
	C1563.005615,366.610779 1563.163086,368.032715 1563.163940,369.454773 
	C1563.179199,392.603302 1563.203125,415.751831 1563.166138,438.900330 
	C1563.132446,460.004028 1551.604858,471.633972 1530.544434,472.020844 
	C1521.840942,472.180695 1513.212402,471.969238 1505.174805,468.055054 
	C1497.495483,464.315460 1492.502930,458.625580 1491.970581,449.402832 
	C1499.160400,449.402832 1506.105591,449.402832 1513.150879,449.402832 
	C1516.864990,456.003510 1526.419922,458.716217 1535.082520,455.482117 
	C1542.083740,452.868286 1545.090332,443.897278 1542.893433,432.211182 
	C1540.295654,434.392334 1537.690063,436.579987 1534.735229,438.908203 
M1522.638794,424.201263 
	C1531.619629,426.120056 1538.316528,422.978180 1541.447510,414.669830 
	C1544.596558,406.313416 1544.616699,397.690216 1540.967285,389.454468 
	C1536.718628,379.866852 1524.101929,377.317474 1516.853882,384.304718 
	C1508.631592,392.231110 1508.364258,412.532349 1516.509155,420.565735 
	C1517.989990,422.026276 1520.063110,422.886322 1522.638794,424.201263 
z"/>
<path fill="#040404" opacity="1.000000" stroke="none" 
	d="
M1066.868652,397.700745 
	C1067.663940,401.563995 1068.083740,405.079956 1069.230103,408.340546 
	C1073.372070,420.121948 1082.152954,425.782837 1094.524658,424.975159 
	C1104.803467,424.304108 1111.922607,417.303741 1114.493896,405.186218 
	C1121.560913,405.186218 1128.668823,405.186218 1136.128662,405.186218 
	C1134.203003,420.632172 1127.221436,432.314362 1113.204834,439.236938 
	C1085.396484,452.971161 1053.304810,438.351471 1046.185303,408.662659 
	C1043.269165,396.501678 1043.304688,384.248352 1046.095215,372.064697 
	C1047.976440,363.851257 1051.496948,356.374207 1057.184082,350.051575 
	C1070.110718,335.680481 1086.647217,333.470703 1104.299927,337.110352 
	C1119.404175,340.224609 1129.745361,349.500824 1134.458374,364.474304 
	C1135.236450,366.946442 1135.591553,369.551727 1136.199585,372.360718 
	C1128.679688,372.360718 1121.721313,372.360718 1114.820312,372.360718 
	C1110.295166,359.855499 1104.505249,355.001190 1093.675903,354.522858 
	C1081.560181,353.987732 1072.401367,359.835510 1069.261230,372.157166 
	C1067.211304,380.201263 1067.554932,388.855408 1066.868652,397.700745 
z"/>
<path fill="#030303" opacity="1.000000" stroke="none" 
	d="
M130.996429,408.000000 
	C130.996429,393.523132 130.996429,379.546265 130.996429,365.283386 
	C137.437515,365.283386 143.660797,365.283386 150.253143,365.283386 
	C150.253143,368.315521 150.253143,371.206146 150.253143,374.196503 
	C150.918030,373.992981 151.311432,373.994995 151.491638,373.800018 
	C168.216934,355.702179 194.089432,360.888336 201.976471,384.360382 
	C207.293823,400.185028 206.265564,415.843292 197.131287,430.375336 
	C188.004791,444.895020 164.745789,448.687378 151.003571,432.594635 
	C151.003571,439.545654 151.003571,445.768677 151.003571,451.991730 
	C151.003571,458.119995 151.003571,464.248291 151.003571,470.605042 
	C144.329788,470.605042 138.055771,470.605042 130.996429,470.605042 
	C130.996429,449.976624 130.996429,429.238312 130.996429,408.000000 
M153.072693,418.181641 
	C156.796051,424.871094 162.701920,427.071259 169.934052,426.032715 
	C176.181625,425.135498 179.957550,421.023560 181.948761,415.345917 
	C184.859131,407.047424 184.752563,398.620758 181.512680,390.460114 
	C179.046265,384.247681 174.438782,380.551392 167.400330,380.487915 
	C160.461456,380.425354 155.501297,383.498291 152.737671,390.339050 
	C149.105789,399.328857 148.947357,408.437134 153.072693,418.181641 
z"/>
<path fill="#050505" opacity="1.000000" stroke="none" 
	d="
M1278.087891,392.020142 
	C1282.067505,386.280212 1280.637207,382.059113 1274.467407,380.051025 
	C1264.950562,376.953491 1257.798584,380.237885 1255.007935,389.524658 
	C1252.103149,389.524658 1248.996460,389.524689 1245.889771,389.524689 
	C1242.743164,389.524689 1239.596436,389.524658 1236.489502,389.524658 
	C1235.350464,379.521423 1241.122559,369.801422 1250.851196,366.098419 
	C1262.417358,361.696014 1274.326782,361.496307 1286.026978,365.489594 
	C1295.998779,368.893066 1300.478394,375.828125 1300.528687,386.332001 
	C1300.596436,400.480713 1300.716064,414.629242 1300.768311,428.777985 
	C1300.781494,432.364410 1301.004883,435.763031 1304.358765,438.091156 
	C1304.833252,438.420532 1304.733398,439.577271 1304.974976,440.703522 
	C1297.617798,440.703522 1290.546631,440.703522 1283.056274,440.703522 
	C1282.485229,438.420685 1281.856689,435.908142 1281.085693,432.825989 
	C1274.152100,439.528687 1266.386475,443.214233 1256.895752,443.062897 
	C1243.454346,442.848541 1234.248413,435.559723 1233.159668,423.799011 
	C1231.883667,410.014648 1239.121338,399.773651 1252.347778,397.107605 
	C1259.831787,395.599060 1267.413086,394.575287 1274.939575,393.270782 
	C1275.896851,393.104858 1276.788086,392.559692 1278.087891,392.020142 
M1253.770630,418.634766 
	C1254.288818,426.185883 1257.486084,429.003235 1264.935547,428.473206 
	C1277.105103,427.607361 1283.219482,418.324615 1280.371460,405.410980 
	C1274.882446,406.607300 1269.384399,407.748169 1263.915405,409.014709 
	C1259.026733,410.146851 1254.629517,411.943268 1253.770630,418.634766 
z"/>
<path fill="#050505" opacity="1.000000" stroke="none" 
	d="
M429.687134,434.897461 
	C428.455719,434.808777 427.015594,434.746948 426.215729,435.432343 
	C418.021423,442.454102 408.526276,444.427795 398.221985,442.373810 
	C388.543427,440.444580 382.489807,433.778534 381.225555,424.532928 
	C379.741058,413.676819 383.996307,403.628998 393.220490,399.921448 
	C399.874237,397.247040 407.325562,396.552124 414.425690,394.995026 
	C417.664886,394.284668 421.140259,394.114960 424.080078,392.766235 
	C425.998077,391.886322 428.046509,389.472565 428.368988,387.476440 
	C428.655762,385.701447 427.152283,382.891266 425.566467,381.685242 
	C417.477722,375.533600 406.041290,379.341644 403.016815,389.524048 
	C400.134766,389.524048 397.036774,389.524048 393.938782,389.524048 
	C390.790497,389.524048 387.642212,389.524048 384.536407,389.524048 
	C383.260773,379.712708 389.097961,369.825348 398.810272,366.109894 
	C410.374237,361.686127 422.289307,361.504211 433.992188,365.473389 
	C443.970520,368.857666 448.473572,375.828552 448.531616,386.297028 
	C448.612854,400.946411 448.514984,415.603149 449.012848,430.239105 
	C449.129395,433.665222 451.329254,437.020477 452.674042,440.690613 
	C445.630463,440.690613 438.564697,440.690613 431.048920,440.690613 
	C430.663361,439.049591 430.219482,437.160339 429.687134,434.897461 
M427.994354,418.108246 
	C428.424774,413.802094 428.855194,409.495972 429.291718,405.129089 
	C423.865601,406.362823 419.342438,407.325500 414.855774,408.435791 
	C412.136078,409.108795 409.307983,409.671478 406.820343,410.882843 
	C402.325714,413.071411 400.684143,417.276154 402.075714,422.267578 
	C403.331268,426.770905 406.600983,428.581177 411.108643,428.486542 
	C418.429749,428.332794 424.403687,425.840393 427.994354,418.108246 
z"/>
<path fill="#050505" opacity="1.000000" stroke="none" 
	d="
M1982.850830,435.671021 
	C1982.234619,431.858887 1980.957397,433.726135 1979.753662,434.855499 
	C1971.997192,442.133301 1962.589111,444.197601 1952.452393,442.712616 
	C1941.085693,441.047424 1934.275269,432.743378 1934.132568,421.325409 
	C1933.969849,408.305359 1941.040161,399.473389 1953.815674,397.018555 
	C1961.477173,395.546356 1969.265869,394.651184 1976.826782,392.799835 
	C1978.773560,392.323181 1981.245361,389.274597 1981.349243,387.295929 
	C1981.456055,385.262726 1979.353882,382.590454 1977.488159,381.132385 
	C1975.813110,379.823151 1973.175171,379.430359 1970.911987,379.245087 
	C1962.309814,378.540771 1958.715332,381.006104 1955.991333,389.260864 
	C1949.824829,389.260864 1943.567871,389.260864 1937.315552,389.260864 
	C1936.646729,378.383026 1942.771729,369.028534 1953.382812,365.486145 
	C1963.887817,361.979095 1974.653320,361.746399 1985.290649,364.918091 
	C1996.577759,368.283539 2001.482788,375.250732 2001.533447,386.997070 
	C2001.594604,401.146118 2001.552979,415.300140 2001.978638,429.439301 
	C2002.063354,432.255280 2004.077637,435.005157 2005.153687,437.804169 
	C2005.485962,438.668182 2005.657471,439.593994 2005.983154,440.786774 
	C1998.524536,440.786774 1991.413574,440.786774 1984.036621,440.786774 
	C1983.676758,439.258240 1983.300049,437.657867 1982.850830,435.671021 
M1960.963745,410.153442 
	C1955.223755,413.620941 1953.410156,417.632172 1955.197876,422.905121 
	C1956.704712,427.349091 1960.749268,429.157074 1967.238647,428.287628 
	C1978.760498,426.743866 1983.720581,418.681183 1981.489380,405.283234 
	C1974.904175,406.837463 1968.312378,408.393219 1960.963745,410.153442 
z"/>
<path fill="#040404" opacity="1.000000" stroke="none" 
	d="
M786.312805,394.735138 
	C786.606750,399.277435 786.821838,403.384033 787.064880,408.022583 
	C769.371338,408.022583 752.310730,408.022583 735.288025,408.022583 
	C734.752319,416.702362 738.264160,423.347015 744.445801,425.603882 
	C752.357788,428.492432 761.145813,426.522217 764.678406,419.774780 
	C765.084534,418.999023 766.364319,418.247833 767.255310,418.228333 
	C773.390076,418.094208 779.529175,418.157837 787.259399,418.157837 
	C784.252625,423.400269 782.374817,428.292480 779.148132,432.015869 
	C766.199890,446.957520 736.676331,446.941376 723.463318,432.285492 
	C717.516663,425.689392 715.238770,417.570984 714.459167,408.994141 
	C713.401306,397.354523 714.165710,385.959076 721.346497,376.079315 
	C729.773438,364.484955 746.122925,359.908630 762.434509,364.284241 
	C775.782837,367.864990 784.305542,378.613495 786.312805,394.735138 
M750.494263,379.835938 
	C741.310242,380.107208 736.986450,384.352875 735.198547,395.163971 
	C743.889648,395.163971 752.524963,395.171906 761.160278,395.155579 
	C762.469727,395.153076 763.778870,395.038025 765.082092,394.975342 
	C764.879089,385.521118 760.268677,380.502228 750.494263,379.835938 
z"/>
<path fill="#030303" opacity="1.000000" stroke="none" 
	d="
M1197.615723,364.151062 
	C1218.125122,370.870789 1227.888916,388.312927 1224.314941,411.210175 
	C1221.795654,427.350861 1212.379761,438.684723 1197.632446,441.729584 
	C1180.927612,445.178650 1165.266113,443.347809 1154.092041,428.471191 
	C1137.777344,406.750671 1148.170288,371.156952 1173.088623,364.797974 
	C1180.696411,362.856567 1189.146851,364.217102 1197.615723,364.151062 
M1174.385010,422.211670 
	C1183.694702,428.883362 1196.242798,427.092285 1200.698608,417.841278 
	C1205.482300,407.909668 1205.553345,397.451050 1200.245117,387.657623 
	C1194.710205,377.446411 1178.728638,377.148315 1171.923584,386.575775 
	C1166.451416,394.156738 1166.152100,415.398590 1174.385010,422.211670 
z"/>
<path fill="#040404" opacity="1.000000" stroke="none" 
	d="
M2283.188477,433.804016 
	C2278.492188,429.077606 2276.675781,423.534241 2276.178223,417.103638 
	C2283.126709,417.103638 2289.909912,417.103638 2296.722412,417.103638 
	C2300.543213,426.572998 2312.009766,431.056183 2321.301758,426.240204 
	C2323.329590,425.189240 2325.489014,422.438934 2325.633057,420.337433 
	C2325.744629,418.708801 2323.119141,415.947601 2321.170898,415.291992 
	C2313.945068,412.860474 2306.488525,411.120422 2299.136475,409.057556 
	C2296.903564,408.431061 2294.682861,407.713074 2292.533447,406.846039 
	C2277.148438,400.639832 2273.987549,381.547119 2286.488525,370.497314 
	C2299.200439,359.261108 2326.977783,360.519867 2338.506592,372.937378 
	C2342.245850,376.964844 2344.444092,381.691650 2343.975342,387.614075 
	C2337.574707,387.614075 2331.282227,387.614075 2324.963623,387.614075 
	C2321.204834,379.091187 2312.489502,375.487518 2303.813965,379.430634 
	C2301.750000,380.368774 2299.540527,382.987183 2299.233398,385.099426 
	C2299.022217,386.553162 2301.668213,389.351837 2303.571777,390.014740 
	C2310.142822,392.302856 2316.962891,393.867554 2323.658447,395.810547 
	C2327.001465,396.780670 2330.361816,397.775055 2333.572998,399.101044 
	C2346.709229,404.525421 2351.126465,420.815430 2341.732178,431.630585 
	C2338.128174,435.779480 2332.708740,439.450439 2327.452393,440.857178 
	C2312.043213,444.981110 2296.797363,444.756622 2283.188477,433.804016 
z"/>
<path fill="#040404" opacity="1.000000" stroke="none" 
	d="
M1641.781250,405.352844 
	C1649.597046,418.994598 1644.632446,434.155792 1630.103394,439.814331 
	C1616.344604,445.172882 1602.299927,444.542633 1588.837402,438.477142 
	C1580.019287,434.504150 1575.887817,426.961212 1575.179688,417.119598 
	C1582.072510,417.119598 1588.853516,417.119598 1595.677979,417.119598 
	C1599.624390,426.458405 1610.333130,430.891968 1619.820923,426.517944 
	C1622.009888,425.508728 1624.377197,422.622375 1624.607300,420.388214 
	C1624.773071,418.778412 1621.844604,415.898712 1619.749634,415.180969 
	C1612.696899,412.764496 1605.392212,411.088806 1598.200806,409.069366 
	C1595.968262,408.442413 1593.743286,407.738647 1591.593994,406.873291 
	C1576.175171,400.665466 1572.965576,381.639252 1585.437256,370.544159 
	C1598.094971,359.283569 1625.886719,360.491821 1637.456909,372.885437 
	C1641.209839,376.905579 1643.418213,381.629913 1642.991943,387.582764 
	C1636.620239,387.582764 1630.340088,387.582764 1624.004150,387.582764 
	C1620.006104,379.140381 1612.147705,375.699280 1603.356079,379.260468 
	C1601.131836,380.161407 1598.686401,382.826538 1598.267090,385.044800 
	C1597.996948,386.474152 1600.917358,389.489929 1602.959229,390.192841 
	C1609.695190,392.511810 1616.868286,393.607574 1623.518311,396.115417 
	C1629.768677,398.472565 1635.568115,402.025085 1641.781250,405.352844 
z"/>
<path fill="#040404" opacity="1.000000" stroke="none" 
	d="
M891.031006,394.037842 
	C896.673218,395.704346 901.893433,397.354279 907.143433,398.903320 
	C924.519836,404.030273 923.142761,427.219360 913.136719,434.642059 
	C908.969177,437.733582 904.068115,440.416473 899.091003,441.714020 
	C889.116760,444.314331 878.862854,443.741577 869.011353,440.682892 
	C857.804749,437.203491 851.081421,429.677124 850.193787,417.194794 
	C856.994690,417.194794 863.735840,417.194794 870.548828,417.194794 
	C874.340088,428.855194 886.319824,429.272797 894.197693,426.683044 
	C896.534790,425.914703 899.162231,422.882294 899.571777,420.525085 
	C899.836670,419.000763 896.642456,415.872284 894.429199,415.105743 
	C887.388489,412.667206 880.071655,411.031921 872.882446,409.012054 
	C870.650513,408.384979 868.441833,407.627045 866.296082,406.749146 
	C851.036987,400.506256 848.061340,381.239258 860.673889,370.338409 
	C869.799988,362.450775 880.746643,362.182831 891.840637,363.393585 
	C898.861755,364.159821 905.441650,366.541382 910.863159,371.379608 
	C915.560791,375.571960 918.222473,380.693512 918.070679,387.487000 
	C911.569702,387.487000 905.178467,387.487000 898.743225,387.487000 
	C895.452698,378.745941 884.318542,374.941040 876.295166,380.171204 
	C874.720398,381.197693 873.073608,383.569061 873.144897,385.248596 
	C873.213684,386.867462 875.158997,389.157013 876.811584,389.813507 
	C881.263733,391.582123 885.999512,392.636963 891.031006,394.037842 
z"/>
<path fill="#040404" opacity="1.000000" stroke="none" 
	d="
M2154.992676,391.502869 
	C2153.733887,383.679382 2150.900635,380.565918 2144.953857,380.026031 
	C2136.588379,379.266510 2130.199463,382.413086 2128.044434,389.224762 
	C2126.767090,393.261444 2126.329346,397.691162 2126.255615,401.957001 
	C2126.033447,414.763611 2126.175537,427.576569 2126.175537,440.696533 
	C2119.630371,440.696533 2113.215332,440.696533 2106.475342,440.696533 
	C2106.475342,415.759430 2106.475342,390.734283 2106.475342,365.431274 
	C2112.676758,365.431274 2118.763428,365.431274 2125.264893,365.431274 
	C2125.414551,368.138153 2125.566650,370.889130 2125.781982,374.782562 
	C2132.539795,365.201385 2141.444824,362.554596 2151.806641,362.940460 
	C2164.544678,363.414764 2174.616943,372.307800 2174.946045,385.091736 
	C2175.420654,403.535736 2175.067139,422.001038 2175.067139,440.731567 
	C2168.544189,440.731567 2162.134521,440.731567 2154.994629,440.731567 
	C2154.994629,424.454803 2154.994629,408.202606 2154.992676,391.502869 
z"/>
<path fill="#040404" opacity="1.000000" stroke="none" 
	d="
M1454.158691,438.709900 
	C1454.114014,423.254059 1454.182129,408.272552 1453.986572,393.294464 
	C1453.878540,385.025024 1450.812378,380.970245 1444.694214,380.079498 
	C1436.205933,378.843750 1429.207153,382.244324 1426.972656,389.466919 
	C1425.721191,393.512024 1425.323853,397.941193 1425.252686,402.209167 
	C1425.039185,414.984619 1425.175781,427.765930 1425.175781,440.774414 
	C1418.439453,440.774414 1412.036255,440.774414 1405.393799,440.774414 
	C1405.393799,415.701172 1405.393799,390.799438 1405.393799,365.525879 
	C1411.596558,365.525879 1417.791504,365.525879 1424.261230,365.525879 
	C1424.438110,368.286865 1424.611572,370.994537 1424.842407,374.596161 
	C1433.320557,363.227509 1444.293091,361.225494 1456.408691,363.880249 
	C1466.354980,366.059662 1473.490112,373.673309 1473.807983,383.818237 
	C1474.400391,402.725922 1473.977905,421.665405 1473.977905,440.996979 
	C1467.839722,440.996979 1461.886108,441.048889 1455.936401,440.917786 
	C1455.332397,440.904480 1454.752563,439.789398 1454.158691,438.709900 
z"/>
<path fill="#040404" opacity="1.000000" stroke="none" 
	d="
M366.783447,392.518799 
	C361.493134,392.518799 356.677612,392.518799 351.580475,392.518799 
	C350.667694,386.274445 347.619263,381.808655 341.464783,380.247070 
	C334.346039,378.440765 327.838318,381.920319 325.156708,389.175201 
	C322.194763,397.188446 322.209839,405.489899 324.040985,413.748749 
	C325.924835,422.245392 330.774841,426.305664 338.397278,426.157227 
	C345.272003,426.023315 349.477844,421.882263 351.360931,413.217468 
	C358.084564,413.217468 364.860504,413.217468 371.636963,413.217468 
	C372.524750,423.305054 365.475433,434.663788 354.958557,439.671448 
	C341.877350,445.900146 316.754822,445.330688 307.627594,427.647614 
	C299.057617,411.044250 298.864594,393.727722 308.852875,377.712921 
	C320.474060,359.079987 350.925934,357.462341 365.385437,374.020050 
	C369.771759,379.042847 372.178528,384.938721 372.149994,392.242950 
	C370.401428,392.341553 368.829803,392.430206 366.783447,392.518799 
z"/>
<path fill="#090909" opacity="1.000000" stroke="none" 
	d="
M581.538757,340.432434 
	C581.539185,345.021729 581.539185,349.157318 581.539185,353.103577 
	C577.463684,353.835144 573.181702,353.549744 570.429199,355.463806 
	C568.555481,356.766876 568.822449,361.148285 567.941589,364.983154 
	C570.738037,364.983154 572.800720,364.983124 574.863403,364.983124 
	C576.854126,364.983124 578.844849,364.983154 581.187805,364.983154 
	C581.187805,369.701324 581.187805,374.230591 581.187805,379.094116 
	C577.151794,379.094116 573.196472,379.094116 568.680054,379.094116 
	C568.680054,399.800446 568.680054,420.189697 568.680054,440.794250 
	C561.713989,440.794250 555.309998,440.794250 548.485107,440.794250 
	C548.485107,420.361847 548.485107,400.109192 548.485107,379.326904 
	C544.709167,379.326904 541.316650,379.326904 537.700562,379.326904 
	C537.700562,374.381622 537.700562,369.967163 537.700562,365.092896 
	C541.194031,365.092896 544.608337,365.092896 548.460266,365.092896 
	C548.460266,362.039215 548.393921,359.432190 548.471741,356.829468 
	C548.817505,345.269287 554.779602,338.541809 566.252380,337.213165 
	C570.357056,336.737793 574.566101,336.859314 578.697937,337.141235 
	C579.704590,337.209900 580.594666,338.987091 581.538757,340.432434 
z"/>
<path fill="#030303" opacity="1.000000" stroke="none" 
	d="
M2043.073730,441.841736 
	C2040.764526,441.811615 2038.918579,441.925751 2037.106567,441.727783 
	C2026.004272,440.514679 2021.999634,435.995178 2021.996826,424.783875 
	C2021.992920,409.806305 2021.995850,394.828766 2021.995850,379.365234 
	C2018.583130,379.365234 2015.338257,379.365234 2011.793579,379.365234 
	C2011.793579,374.474884 2011.793579,370.064514 2011.793579,365.218262 
	C2014.968994,365.218262 2018.206787,365.218262 2021.830566,365.218262 
	C2021.830566,358.209747 2021.830566,351.617828 2021.830566,344.757874 
	C2028.644043,344.757874 2035.064819,344.757874 2041.914551,344.757874 
	C2041.914551,351.410248 2041.914551,357.979797 2041.914551,364.894226 
	C2046.081665,364.894226 2049.841309,364.894226 2053.881348,364.894226 
	C2053.881348,369.645599 2053.881348,374.058105 2053.881348,378.877441 
	C2050.296631,378.877441 2046.552734,378.877441 2042.323242,378.877441 
	C2042.200195,380.654816 2042.020508,382.067566 2042.017700,383.480652 
	C2041.994507,394.970306 2042.000488,406.460052 2042.005615,417.949768 
	C2042.008911,425.609650 2042.015503,425.599823 2049.562012,426.197815 
	C2050.874756,426.301819 2052.178223,426.528076 2053.823730,426.741730 
	C2053.823730,431.498138 2053.823730,436.223389 2053.823730,441.841736 
	C2050.430664,441.841736 2046.991699,441.841736 2043.073730,441.841736 
z"/>
<path fill="#030303" opacity="1.000000" stroke="none" 
	d="
M1336.718750,344.484680 
	C1338.325806,344.549194 1339.465210,344.613770 1340.826782,344.690948 
	C1340.826782,351.355408 1340.826782,357.807312 1340.826782,364.790283 
	C1344.927368,364.790283 1348.809814,364.790283 1352.924438,364.790283 
	C1352.924438,369.724609 1352.924438,374.137146 1352.924438,378.956177 
	C1349.217285,378.956177 1345.471313,378.956177 1341.004150,378.956177 
	C1341.004150,383.923828 1341.004150,388.505249 1341.004150,393.086670 
	C1341.004028,401.746460 1340.986450,410.406281 1341.009521,419.066010 
	C1341.026733,425.488861 1341.334473,425.774475 1347.681885,426.173370 
	C1349.326050,426.276733 1350.962036,426.509186 1352.875488,426.711243 
	C1352.875488,431.571991 1352.875488,436.305939 1352.875488,442.138977 
	C1345.508911,441.698486 1338.185059,441.799957 1331.054321,440.676544 
	C1324.440186,439.634460 1321.053711,434.437958 1321.016968,427.115356 
	C1320.945679,412.960297 1320.995972,398.804626 1320.995850,384.649231 
	C1320.995728,383.009857 1320.995850,381.370483 1320.995850,379.269348 
	C1317.452271,379.269348 1314.200562,379.269348 1310.720459,379.269348 
	C1310.720459,374.372162 1310.720459,369.937622 1310.720459,365.081909 
	C1314.080566,365.081909 1317.318359,365.081909 1320.959473,365.081909 
	C1320.959473,358.093811 1320.959473,351.511932 1320.959473,344.484741 
	C1326.326294,344.484741 1331.288574,344.484741 1336.718750,344.484680 
z"/>
<path fill="#030303" opacity="1.000000" stroke="none" 
	d="
M689.606445,441.668640 
	C677.937195,439.436157 674.997559,435.858673 674.996399,424.330933 
	C674.994934,409.512024 674.996094,394.693115 674.996094,379.382874 
	C671.611877,379.382874 668.372375,379.382874 664.809875,379.382874 
	C664.809875,374.493530 664.809875,370.088135 664.809875,365.243896 
	C667.950989,365.243896 671.181824,365.243896 674.817139,365.243896 
	C674.817139,358.234131 674.817139,351.643158 674.817139,344.770508 
	C681.633301,344.770508 688.050537,344.770508 694.899048,344.770508 
	C694.899048,351.394592 694.899048,357.966522 694.899048,364.883606 
	C699.069885,364.883606 702.829224,364.883606 706.875732,364.883606 
	C706.875732,369.635529 706.875732,374.048828 706.875732,378.870728 
	C703.303406,378.870728 699.559265,378.870728 695.003906,378.870728 
	C695.003906,381.332245 695.003906,383.402527 695.003906,385.472778 
	C695.003906,396.299530 695.000366,407.126251 695.005005,417.953003 
	C695.008240,425.601990 695.013977,425.592133 702.566467,426.199341 
	C703.879761,426.304932 705.183167,426.533783 706.825928,426.749725 
	C706.825928,431.506226 706.825928,436.234100 706.825928,441.745728 
	C701.259094,441.745728 695.649841,441.745728 689.606445,441.668640 
z"/>
<path fill="#030303" opacity="1.000000" stroke="none" 
	d="
M254.172363,430.232513 
	C254.172623,434.020386 254.172623,437.341309 254.172623,441.232849 
	C245.634781,442.042145 237.238770,443.065857 229.194626,439.685699 
	C223.825684,437.429657 222.012115,432.604126 222.003357,427.050537 
	C221.981033,412.895386 221.995621,398.740173 221.995438,384.584991 
	C221.995422,382.948700 221.995438,381.312378 221.995438,379.217712 
	C218.404572,379.217712 215.162033,379.217712 211.705597,379.217712 
	C211.705597,374.312378 211.705597,369.877930 211.705597,365.028076 
	C215.119247,365.028076 218.369156,365.028076 222.011200,365.028076 
	C222.011200,358.048187 222.011200,351.467529 222.011200,344.731537 
	C228.852432,344.731537 235.275085,344.731537 241.928589,344.731537 
	C241.928589,351.434753 241.928589,357.895294 241.928589,364.880585 
	C246.016357,364.880585 249.907990,364.880585 253.974915,364.880585 
	C253.974915,369.819397 253.974915,374.233795 253.974915,379.048340 
	C250.122879,379.048340 246.368652,379.048340 242.004288,379.048340 
	C242.004288,388.024597 242.004227,396.617065 242.004318,405.209503 
	C242.004379,410.205444 242.136185,415.205933 241.964508,420.195953 
	C241.819504,424.410583 243.514282,426.120148 247.809494,426.308044 
	C250.111008,426.408783 254.459183,424.324371 254.172363,430.232513 
z"/>
<path fill="#040404" opacity="1.000000" stroke="none" 
	d="
M486.837097,340.500610 
	C486.845612,374.063110 486.845612,407.169464 486.845612,440.641174 
	C480.288910,440.641174 473.897919,440.641174 467.162445,440.641174 
	C467.162445,406.848907 467.162445,372.873047 467.162445,338.492706 
	C473.112946,338.492706 478.910980,338.438965 484.705322,338.561249 
	C485.423187,338.576385 486.121307,339.527252 486.837097,340.500610 
z"/>
<path fill="#040404" opacity="1.000000" stroke="none" 
	d="
M647.798523,338.480255 
	C649.907715,338.480530 651.547913,338.480530 653.515686,338.480530 
	C653.515686,372.694580 653.515686,406.533600 653.515686,440.690277 
	C647.189514,440.690277 640.798157,440.690277 634.111694,440.690277 
	C634.111694,406.884064 634.111694,373.025055 634.111694,338.479980 
	C638.495117,338.479980 642.912292,338.479980 647.798523,338.480255 
z"/>
<path fill="#070707" opacity="1.000000" stroke="none" 
	d="
M1903.182495,424.998291 
	C1903.182495,430.476105 1903.182495,435.454498 1903.182495,440.721497 
	C1896.584717,440.721497 1890.171021,440.721497 1883.451172,440.721497 
	C1883.451172,415.719879 1883.451172,390.692932 1883.451172,365.406586 
	C1889.712769,365.406586 1895.802246,365.406586 1902.429199,365.406586 
	C1902.429199,368.823792 1902.429199,372.221405 1902.429199,375.618988 
	C1902.204224,375.211823 1901.979370,374.804657 1901.754395,374.397491 
	C1905.451782,371.470703 1908.813477,367.873932 1912.941162,365.805817 
	C1917.050415,363.746826 1921.928711,363.222504 1927.529297,361.745911 
	C1927.529297,366.386017 1927.529297,369.620972 1927.529297,372.855927 
	C1927.529297,376.173859 1927.529297,379.491821 1927.529297,383.529358 
	C1925.229492,383.529358 1923.142212,383.510864 1921.055298,383.532410 
	C1909.800781,383.648712 1904.296387,388.448334 1903.607422,399.549896 
	C1903.092773,407.843048 1903.297974,416.180908 1903.182495,424.998291 
z"/>
<path fill="#070707" opacity="1.000000" stroke="none" 
	d="
M820.182556,430.980835 
	C820.182556,434.459137 820.182556,437.441223 820.182556,440.716736 
	C813.596375,440.716736 807.182007,440.716736 800.456177,440.716736 
	C800.456177,415.731445 800.456177,390.704498 800.456177,365.412476 
	C806.700623,365.412476 812.790771,365.412476 819.417786,365.412476 
	C819.417786,368.814423 819.417786,372.214783 819.417786,375.615143 
	C825.714966,366.984650 832.900879,361.188385 844.333374,363.372498 
	C844.333374,369.889801 844.333374,376.342957 844.333374,383.527618 
	C842.237183,383.527618 840.151001,383.509552 838.065186,383.530640 
	C826.811646,383.644348 821.214355,388.453217 820.623291,399.542175 
	C820.074646,409.834900 820.298706,420.168793 820.182556,430.980835 
z"/>
<path fill="#010101" opacity="1.000000" stroke="none" 
	d="
M600.120483,365.163147 
	C604.899170,365.163300 609.196289,365.163300 613.741455,365.163300 
	C613.741455,390.465057 613.741455,415.397247 613.741455,440.665070 
	C607.484741,440.665070 601.075073,440.665070 594.330933,440.665070 
	C594.330933,415.818329 594.330933,390.765289 594.330933,365.163025 
	C596.090210,365.163025 597.864563,365.163025 600.120483,365.163147 
z"/>
<path fill="#010101" opacity="1.000000" stroke="none" 
	d="
M288.000061,417.000000 
	C288.000061,425.142670 288.000061,432.785339 288.000061,440.713074 
	C281.382812,440.713074 274.977386,440.713074 268.284363,440.713074 
	C268.284363,415.728394 268.284363,390.680573 268.284363,365.397400 
	C274.674896,365.397400 280.947327,365.397400 288.000061,365.397400 
	C288.000061,382.360168 288.000061,399.430084 288.000061,417.000000 
z"/>
<path fill="#010101" opacity="1.000000" stroke="none" 
	d="
M2087.000000,375.039642 
	C2087.000000,397.169891 2087.000000,418.807251 2087.000000,440.721893 
	C2080.363281,440.721893 2073.958496,440.721893 2067.275146,440.721893 
	C2067.275146,415.708496 2067.275146,390.659973 2067.275146,365.386169 
	C2073.700439,365.386169 2079.972656,365.386169 2087.000000,365.386169 
	C2087.000000,368.382477 2087.000000,371.464600 2087.000000,375.039642 
z"/>
<path fill="#010101" opacity="1.000000" stroke="none" 
	d="
M1383.803467,440.997986 
	C1377.692261,440.999847 1372.064331,440.999847 1366.221680,440.999847 
	C1366.221680,415.713745 1366.221680,390.776337 1366.221680,365.500854 
	C1372.565552,365.500854 1378.963745,365.500854 1385.717773,365.500854 
	C1385.806885,366.670990 1385.986572,367.939850 1385.987549,369.208832 
	C1386.004639,391.706482 1386.031250,414.204254 1385.926514,436.701416 
	C1385.919800,438.135529 1384.857788,439.564697 1383.803467,440.997986 
z"/>
<path fill="#040404" opacity="1.000000" stroke="none" 
	d="
M993.911865,416.002197 
	C984.885498,421.768372 974.892517,420.907623 968.643494,414.050079 
	C962.550110,407.363159 962.202026,396.780579 967.843933,389.739258 
	C974.528564,381.396606 986.988342,380.410309 994.948486,387.593719 
	C1003.148987,394.994019 1002.831726,407.330170 993.911865,416.002197 
z"/>
<path fill="#040404" opacity="1.000000" stroke="none" 
	d="
M1716.074829,417.264282 
	C1704.676270,422.662201 1693.164917,418.744812 1689.086304,408.391815 
	C1685.110352,398.299316 1690.336182,387.035919 1700.519653,383.749817 
	C1709.376953,380.891602 1718.864624,384.768188 1722.981689,392.927551 
	C1727.274048,401.434326 1724.695068,410.872986 1716.074829,417.264282 
z"/>
<path fill="#0A0A0A" opacity="1.000000" stroke="none" 
	d="
M2066.982422,352.736328 
	C2066.982422,347.777557 2066.982422,343.289215 2066.982422,338.470764 
	C2073.572998,338.470764 2079.971924,338.470764 2086.696533,338.470764 
	C2086.696533,344.289490 2086.696533,350.178253 2086.696533,356.539185 
	C2080.859863,356.539185 2075.058105,356.669159 2069.276123,356.391052 
	C2068.462402,356.351898 2067.744629,354.317535 2066.982422,352.736328 
z"/>
<path fill="#0A0A0A" opacity="1.000000" stroke="none" 
	d="
M272.189667,338.139374 
	C277.625916,338.139526 282.583282,338.139526 287.773926,338.139526 
	C287.773926,344.309875 287.773926,350.081390 287.773926,356.200043 
	C281.429779,356.200043 275.033844,356.200043 267.985107,356.200043 
	C267.985107,351.014160 267.816071,345.752563 268.152191,340.523438 
	C268.207947,339.656067 270.468872,338.930389 272.189667,338.139374 
z"/>
<path fill="#0A0A0A" opacity="1.000000" stroke="none" 
	d="
M1385.515991,338.535461 
	C1385.863770,344.512177 1385.863770,350.165100 1385.863770,356.180481 
	C1379.449097,356.180481 1373.059937,356.180481 1366.323975,356.180481 
	C1366.323975,350.398804 1366.323975,344.528168 1366.323975,338.211670 
	C1372.619019,338.211670 1378.893555,338.211670 1385.515991,338.535461 
z"/>
<path fill="#0A0A0A" opacity="1.000000" stroke="none" 
	d="
M609.726929,356.542297 
	C604.291260,356.542358 599.325378,356.542358 594.177246,356.542358 
	C594.177246,350.311005 594.177246,344.534454 594.177246,338.447784 
	C600.625671,338.447784 607.023560,338.447784 614.016113,338.447784 
	C614.016113,343.700989 614.184814,348.982300 613.845032,354.230682 
	C613.790344,355.076416 611.469788,355.775452 609.726929,356.542297 
z"/>
<path fill="#FFFDFD" opacity="1.000000" stroke="none" 
	d="
M1209.000000,129.153046 
	C1201.377563,129.153091 1194.255127,129.153091 1186.865723,129.153091 
	C1186.865723,108.019417 1186.865723,87.436241 1186.865723,66.460602 
	C1188.488525,66.362221 1189.940430,66.198906 1191.392578,66.197563 
	C1210.390625,66.179977 1229.389160,66.128113 1248.386597,66.234856 
	C1252.028564,66.255318 1255.729858,66.614426 1259.295776,67.344795 
	C1274.167480,70.390808 1282.635254,80.266319 1282.994507,94.661575 
	C1283.456177,113.155724 1276.875977,123.217239 1260.782471,127.077522 
	C1254.389282,128.611053 1247.614624,128.871307 1240.994507,129.068390 
	C1230.504761,129.380661 1219.999023,129.152481 1209.000000,129.153046 
z"/>
<path fill="#FFFEFE" opacity="1.000000" stroke="none" 
	d="
M2060.993408,180.914032 
	C2055.892334,197.394943 2047.456421,211.075485 2032.620483,219.841690 
	C1999.488159,239.418961 1956.924927,224.850632 1943.286987,188.510422 
	C1932.364624,159.406494 1932.737671,129.573044 1943.617554,100.515839 
	C1953.894287,73.068710 1974.522583,60.409115 2004.719849,61.006218 
	C2029.455200,61.495319 2050.064697,77.224586 2059.001953,103.266159 
	C2067.734131,128.710098 2067.541992,154.573090 2060.993408,180.914032 
z"/>
<path fill="#FFFEFE" opacity="1.000000" stroke="none" 
	d="
M1544.691040,120.510620 
	C1547.584595,142.271133 1547.950439,163.540649 1540.900757,184.174606 
	C1533.150391,206.859894 1518.582886,222.931854 1493.954712,226.800690 
	C1456.976440,232.609619 1430.025513,214.667068 1420.875122,178.072098 
	C1414.179810,151.295486 1414.662842,124.431847 1425.305908,98.632797 
	C1441.627075,59.069504 1492.766479,47.635254 1523.186523,76.452507 
	C1535.674805,88.282722 1541.464478,103.576263 1544.691040,120.510620 
z"/>
<path fill="#FFFCFC" opacity="1.000000" stroke="none" 
	d="
M374.522644,78.536316 
	C383.575806,92.395638 383.281219,106.599426 376.340881,120.514351 
	C370.521515,132.181793 359.070099,135.354828 347.149963,136.774170 
	C343.203339,137.244110 339.177643,137.127838 335.187622,137.141098 
	C322.889618,137.182022 310.591400,137.156036 297.856293,137.156036 
	C297.856293,113.535416 297.856293,90.216476 297.856293,66.931046 
	C298.196838,66.703362 298.460114,66.372955 298.720001,66.375595 
	C316.167877,66.553207 333.633911,66.347511 351.055511,67.129639 
	C360.008301,67.531555 368.154449,71.194939 374.522644,78.536316 
z"/>
<path fill="#FDFDFD" opacity="1.000000" stroke="none" 
	d="
M81.178787,421.339600 
	C63.440350,430.879242 45.510590,423.265106 40.635857,404.170959 
	C37.688156,392.624969 37.892464,381.024292 42.684093,369.912994 
	C47.140594,359.578796 55.140549,354.217438 66.515694,354.173767 
	C77.888817,354.130066 86.145058,359.381531 90.467010,369.722412 
	C95.952911,382.848328 95.999550,396.457367 90.601181,409.577637 
	C88.806244,413.940094 84.589775,417.306213 81.178787,421.339600 
z"/>
<path fill="#FDFDFD" opacity="1.000000" stroke="none" 
	d="
M2223.250977,424.112244 
	C2221.063965,422.885437 2218.991699,422.024261 2217.510986,420.563507 
	C2209.362549,412.525482 2209.628662,392.230896 2217.854004,384.304901 
	C2225.105469,377.317139 2237.718262,379.866089 2241.966553,389.454529 
	C2245.615479,397.690125 2245.598145,406.311768 2242.442871,414.667358 
	C2239.302002,422.986359 2232.628662,426.119415 2223.250977,424.112244 
z"/>
<path fill="#FCFCFC" opacity="1.000000" stroke="none" 
	d="
M1522.250732,424.112427 
	C1520.063110,422.886322 1517.989990,422.026276 1516.509155,420.565735 
	C1508.364258,412.532349 1508.631592,392.231110 1516.853882,384.304718 
	C1524.101929,377.317474 1536.718628,379.866852 1540.967285,389.454468 
	C1544.616699,397.690216 1544.596558,406.313416 1541.447510,414.669830 
	C1538.316528,422.978180 1531.619629,426.120056 1522.250732,424.112427 
z"/>
<path fill="#FCFCFC" opacity="1.000000" stroke="none" 
	d="
M152.940292,417.826294 
	C148.947357,408.437134 149.105789,399.328857 152.737671,390.339050 
	C155.501297,383.498291 160.461456,380.425354 167.400330,380.487915 
	C174.438782,380.551392 179.046265,384.247681 181.512680,390.460114 
	C184.752563,398.620758 184.859131,407.047424 181.948761,415.345917 
	C179.957550,421.023560 176.181625,425.135498 169.934052,426.032715 
	C162.701920,427.071259 156.796051,424.871094 152.940292,417.826294 
z"/>
<path fill="#FBFBFB" opacity="1.000000" stroke="none" 
	d="
M1253.799194,418.222168 
	C1254.629517,411.943268 1259.026733,410.146851 1263.915405,409.014709 
	C1269.384399,407.748169 1274.882446,406.607300 1280.371460,405.410980 
	C1283.219482,418.324615 1277.105103,427.607361 1264.935547,428.473206 
	C1257.486084,429.003235 1254.288818,426.185883 1253.799194,418.222168 
z"/>
<path fill="#FBFBFB" opacity="1.000000" stroke="none" 
	d="
M427.905273,418.497559 
	C424.403687,425.840393 418.429749,428.332794 411.108643,428.486542 
	C406.600983,428.581177 403.331268,426.770905 402.075714,422.267578 
	C400.684143,417.276154 402.325714,413.071411 406.820343,410.882843 
	C409.307983,409.671478 412.136078,409.108795 414.855774,408.435791 
	C419.342438,407.325500 423.865601,406.362823 429.291718,405.129089 
	C428.855194,409.495972 428.424774,413.802094 427.905273,418.497559 
z"/>
<path fill="#FAFAFA" opacity="1.000000" stroke="none" 
	d="
M1961.342163,410.051208 
	C1968.312378,408.393219 1974.904175,406.837463 1981.489380,405.283234 
	C1983.720581,418.681183 1978.760498,426.743866 1967.238647,428.287628 
	C1960.749268,429.157074 1956.704712,427.349091 1955.197876,422.905121 
	C1953.410156,417.632172 1955.223755,413.620941 1961.342163,410.051208 
z"/>
<path fill="#FBFBFB" opacity="1.000000" stroke="none" 
	d="
M750.931091,379.836121 
	C760.268677,380.502228 764.879089,385.521118 765.082092,394.975342 
	C763.778870,395.038025 762.469727,395.153076 761.160278,395.155579 
	C752.524963,395.171906 743.889648,395.163971 735.198547,395.163971 
	C736.986450,384.352875 741.310242,380.107208 750.931091,379.836121 
z"/>
<path fill="#FCFCFC" opacity="1.000000" stroke="none" 
	d="
M1174.119385,421.953613 
	C1166.152100,415.398590 1166.451416,394.156738 1171.923584,386.575775 
	C1178.728638,377.148315 1194.710205,377.446411 1200.245117,387.657623 
	C1205.553345,397.451050 1205.482300,407.909668 1200.698608,417.841278 
	C1196.242798,427.092285 1183.694702,428.883362 1174.119385,421.953613 
z"/>
</svg>